<svg width="165" height="57" viewBox="0 0 165 57" fill="none" xmlns="http://www.w3.org/2000/svg">
<g clip-path="url(#clip0_22712_376416)">
<rect x="1.5" y="1.5" width="162" height="54" rx="4" fill="white"/>
<path d="M15.5 14H351.482C353.415 14 354.982 15.5671 354.982 17.5V75.4971C354.982 77.43 353.415 78.9971 351.482 78.9971H15.5C13.5671 78.9971 12 77.43 12 75.4971V17.5C12 15.5671 13.5671 14 15.5 14Z" fill="#DBEAFE"/>
<path d="M15.5 14H351.482C353.415 14 354.982 15.5671 354.982 17.5V75.4971C354.982 77.43 353.415 78.9971 351.482 78.9971H15.5C13.5671 78.9971 12 77.43 12 75.4971V17.5C12 15.5671 13.5671 14 15.5 14Z" stroke="#3B82F6" stroke-width="0.999949"/>
<path d="M22.8858 26.3066V25.6817H27.2492V26.3066H25.4198V31.4995H24.7152V26.3066H22.8858ZM28.916 28.8747V31.4995H28.2456V25.6817H28.916V27.8179H28.9728C29.0751 27.5925 29.2285 27.4136 29.433 27.281C29.6395 27.1465 29.9141 27.0793 30.2569 27.0793C30.5542 27.0793 30.8146 27.139 31.0381 27.2583C31.2615 27.3757 31.4348 27.5566 31.5579 27.8009C31.6829 28.0433 31.7454 28.352 31.7454 28.727V31.4995H31.075V28.7724C31.075 28.4258 30.985 28.1579 30.8051 27.9685C30.6271 27.7772 30.38 27.6816 30.0637 27.6816C29.844 27.6816 29.647 27.728 29.4728 27.8208C29.3005 27.9136 29.1641 28.049 29.0637 28.227C28.9653 28.405 28.916 28.6209 28.916 28.8747ZM32.9719 31.4995V27.1361H33.6423V31.4995H32.9719ZM33.3128 26.4089C33.1821 26.4089 33.0695 26.3644 32.9748 26.2754C32.882 26.1864 32.8356 26.0794 32.8356 25.9544C32.8356 25.8294 32.882 25.7224 32.9748 25.6334C33.0695 25.5444 33.1821 25.4998 33.3128 25.4998C33.4435 25.4998 33.5552 25.5444 33.648 25.6334C33.7427 25.7224 33.7901 25.8294 33.7901 25.9544C33.7901 26.0794 33.7427 26.1864 33.648 26.2754C33.5552 26.3644 33.4435 26.4089 33.3128 26.4089ZM37.961 28.1134L37.3588 28.2838C37.3209 28.1834 37.265 28.0859 37.1912 27.9912C37.1192 27.8946 37.0207 27.8151 36.8957 27.7526C36.7707 27.6901 36.6107 27.6588 36.4156 27.6588C36.1486 27.6588 35.9261 27.7204 35.7481 27.8435C35.5719 27.9647 35.4839 28.119 35.4839 28.3065C35.4839 28.4732 35.5445 28.6048 35.6657 28.7014C35.7869 28.798 35.9763 28.8785 36.2338 28.9429L36.8815 29.1019C37.2717 29.1966 37.5624 29.3415 37.7536 29.5366C37.9449 29.7297 38.0406 29.9788 38.0406 30.2837C38.0406 30.5337 37.9686 30.7572 37.8247 30.9541C37.6826 31.1511 37.4838 31.3064 37.2281 31.42C36.9724 31.5336 36.6751 31.5904 36.3361 31.5904C35.891 31.5904 35.5227 31.4939 35.231 31.3007C34.9394 31.1075 34.7547 30.8253 34.6771 30.4541L35.3134 30.2951C35.374 30.5299 35.4886 30.706 35.6572 30.8234C35.8276 30.9409 36.0501 30.9996 36.3247 30.9996C36.6372 30.9996 36.8853 30.9333 37.069 30.8007C37.2546 30.6663 37.3474 30.5053 37.3474 30.3178C37.3474 30.1663 37.2944 30.0394 37.1883 29.9371C37.0823 29.833 36.9194 29.7553 36.6997 29.7042L35.9725 29.5337C35.5729 29.439 35.2793 29.2923 35.0918 29.0934C34.9062 28.8927 34.8135 28.6417 34.8135 28.3406C34.8135 28.0944 34.8826 27.8766 35.0208 27.6872C35.161 27.4979 35.3513 27.3492 35.5918 27.2412C35.8342 27.1333 36.1088 27.0793 36.4156 27.0793C36.8474 27.0793 37.1864 27.174 37.4326 27.3634C37.6807 27.5528 37.8569 27.8028 37.961 28.1134ZM43.0609 33.2267C42.7371 33.2267 42.4587 33.1851 42.2257 33.1017C41.9928 33.0203 41.7987 32.9123 41.6434 32.7779C41.49 32.6453 41.3678 32.5033 41.2769 32.3518L41.811 31.9768C41.8716 32.0563 41.9483 32.1472 42.0411 32.2495C42.1339 32.3537 42.2607 32.4436 42.4217 32.5194C42.5846 32.597 42.7977 32.6358 43.0609 32.6358C43.4132 32.6358 43.7039 32.5506 43.933 32.3802C44.1622 32.2097 44.2767 31.9427 44.2767 31.5791V30.6928H44.2199C44.1707 30.7723 44.1006 30.8708 44.0097 30.9882C43.9207 31.1037 43.7919 31.2069 43.6234 31.2978C43.4567 31.3869 43.2313 31.4314 42.9473 31.4314C42.595 31.4314 42.2787 31.348 41.9985 31.1814C41.7201 31.0147 41.4994 30.7723 41.3366 30.4541C41.1756 30.136 41.0951 29.7496 41.0951 29.2951C41.0951 28.8482 41.1737 28.459 41.3309 28.1276C41.4881 27.7942 41.7068 27.5367 41.9871 27.3549C42.2674 27.1712 42.5912 27.0793 42.9586 27.0793C43.2427 27.0793 43.4681 27.1267 43.6347 27.2214C43.8033 27.3142 43.9321 27.4202 44.0211 27.5395C44.112 27.6569 44.1821 27.7535 44.2313 27.8293H44.2995V27.1361H44.9472V31.6245C44.9472 31.9995 44.8619 32.3044 44.6915 32.5393C44.5229 32.776 44.2957 32.9493 44.0097 33.0591C43.7256 33.1709 43.4094 33.2267 43.0609 33.2267ZM43.0382 30.8291C43.3071 30.8291 43.5344 30.7676 43.72 30.6445C43.9056 30.5214 44.0466 30.3443 44.1432 30.1132C44.2398 29.8822 44.2881 29.6057 44.2881 29.2837C44.2881 28.9694 44.2408 28.6919 44.1461 28.4514C44.0514 28.2109 43.9112 28.0224 43.7256 27.8861C43.54 27.7497 43.3109 27.6816 43.0382 27.6816C42.7541 27.6816 42.5174 27.7535 42.328 27.8975C42.1405 28.0414 41.9994 28.2346 41.9047 28.477C41.8119 28.7194 41.7655 28.9883 41.7655 29.2837C41.7655 29.5868 41.8129 29.8547 41.9075 30.0877C42.0041 30.3187 42.1462 30.5005 42.3337 30.6331C42.523 30.7638 42.7579 30.8291 43.0382 30.8291ZM46.1744 31.4995V27.1361H46.8221V27.7952H46.8675C46.9471 27.5793 47.091 27.4041 47.2993 27.2696C47.5076 27.1352 47.7425 27.068 48.0038 27.068C48.0531 27.068 48.1146 27.0689 48.1885 27.0708C48.2623 27.0727 48.3182 27.0755 48.3561 27.0793V27.7611C48.3334 27.7554 48.2813 27.7469 48.1998 27.7355C48.1203 27.7223 48.036 27.7156 47.947 27.7156C47.7349 27.7156 47.5455 27.7602 47.3789 27.8492C47.2141 27.9363 47.0834 28.0575 46.9868 28.2128C46.8921 28.3662 46.8448 28.5414 46.8448 28.7383V31.4995H46.1744ZM50.4348 31.6018C50.1583 31.6018 49.9074 31.5497 49.682 31.4456C49.4566 31.3395 49.2777 31.1871 49.1451 30.9882C49.0125 30.7875 48.9462 30.545 48.9462 30.261C48.9462 30.011 48.9955 29.8083 49.094 29.653C49.1924 29.4959 49.3241 29.3728 49.4888 29.2837C49.6536 29.1947 49.8354 29.1285 50.0343 29.0849C50.235 29.0394 50.4367 29.0035 50.6393 28.9769C50.9045 28.9429 51.1194 28.9173 51.2842 28.9002C51.4509 28.8813 51.5721 28.8501 51.6478 28.8065C51.7255 28.7629 51.7643 28.6872 51.7643 28.5792V28.5565C51.7643 28.2762 51.6876 28.0584 51.5342 27.9031C51.3827 27.7478 51.1526 27.6702 50.8439 27.6702C50.5238 27.6702 50.2729 27.7403 50.0911 27.8804C49.9093 28.0206 49.7814 28.1702 49.7076 28.3292L49.0712 28.102C49.1849 27.8369 49.3364 27.6304 49.5258 27.4827C49.717 27.3331 49.9254 27.2289 50.1507 27.1702C50.378 27.1096 50.6015 27.0793 50.8212 27.0793C50.9613 27.0793 51.1223 27.0964 51.3041 27.1304C51.4878 27.1626 51.6649 27.2299 51.8353 27.3321C52.0076 27.4344 52.1506 27.5888 52.2643 27.7952C52.3779 28.0016 52.4347 28.2781 52.4347 28.6247V31.4995H51.7643V30.9087H51.7302C51.6847 31.0034 51.609 31.1047 51.5029 31.2126C51.3969 31.3206 51.2558 31.4124 51.0797 31.4882C50.9035 31.5639 50.6886 31.6018 50.4348 31.6018ZM50.5371 30.9996C50.8022 30.9996 51.0257 30.9475 51.2075 30.8433C51.3912 30.7392 51.5295 30.6047 51.6222 30.4399C51.7169 30.2752 51.7643 30.1019 51.7643 29.9201V29.3065C51.7359 29.3406 51.6734 29.3718 51.5768 29.4002C51.4821 29.4267 51.3723 29.4504 51.2473 29.4712C51.1242 29.4902 51.0039 29.5072 50.8865 29.5224C50.771 29.5356 50.6772 29.547 50.6053 29.5565C50.431 29.5792 50.2682 29.6161 50.1166 29.6672C49.967 29.7165 49.8458 29.7913 49.753 29.8917C49.6621 29.9901 49.6167 30.1246 49.6167 30.2951C49.6167 30.528 49.7028 30.7041 49.8752 30.8234C50.0494 30.9409 50.27 30.9996 50.5371 30.9996ZM54.3288 28.8747V31.4995H53.6584V27.1361H54.3061V27.8179H54.3629C54.4651 27.5963 54.6204 27.4183 54.8288 27.2838C55.0371 27.1475 55.306 27.0793 55.6355 27.0793C55.931 27.0793 56.1895 27.1399 56.4111 27.2611C56.6326 27.3804 56.805 27.5622 56.9281 27.8065C57.0512 28.049 57.1127 28.3558 57.1127 28.727V31.4995H56.4423V28.7724C56.4423 28.4296 56.3533 28.1626 56.1753 27.9713C55.9973 27.7781 55.753 27.6816 55.4424 27.6816C55.2284 27.6816 55.0371 27.728 54.8685 27.8208C54.7019 27.9136 54.5703 28.049 54.4737 28.227C54.3771 28.405 54.3288 28.6209 54.3288 28.8747ZM60.2354 27.1361V27.7043H57.9742V27.1361H60.2354ZM58.6333 26.0907H59.3037V30.2496C59.3037 30.439 59.3311 30.581 59.3861 30.6757C59.4429 30.7685 59.5148 30.831 59.602 30.8632C59.691 30.8935 59.7847 30.9087 59.8832 30.9087C59.957 30.9087 60.0177 30.9049 60.065 30.8973C60.1123 30.8878 60.1502 30.8803 60.1786 30.8746L60.315 31.4768C60.2695 31.4939 60.2061 31.5109 60.1247 31.5279C60.0432 31.5469 59.94 31.5564 59.815 31.5564C59.6256 31.5564 59.44 31.5156 59.2582 31.4342C59.0783 31.3528 58.9287 31.2287 58.8094 31.0621C58.692 30.8954 58.6333 30.6852 58.6333 30.4314V26.0907ZM63.4938 31.4995V27.1361H64.1642V31.4995H63.4938ZM63.8347 26.4089C63.704 26.4089 63.5913 26.3644 63.4966 26.2754C63.4038 26.1864 63.3574 26.0794 63.3574 25.9544C63.3574 25.8294 63.4038 25.7224 63.4966 25.6334C63.5913 25.5444 63.704 25.4998 63.8347 25.4998C63.9654 25.4998 64.0771 25.5444 64.1699 25.6334C64.2646 25.7224 64.3119 25.8294 64.3119 25.9544C64.3119 26.0794 64.2646 26.1864 64.1699 26.2754C64.0771 26.3644 63.9654 26.4089 63.8347 26.4089ZM68.4829 28.1134L67.8807 28.2838C67.8428 28.1834 67.7869 28.0859 67.713 27.9912C67.6411 27.8946 67.5426 27.8151 67.4176 27.7526C67.2926 27.6901 67.1326 27.6588 66.9375 27.6588C66.6705 27.6588 66.448 27.7204 66.2699 27.8435C66.0938 27.9647 66.0057 28.119 66.0057 28.3065C66.0057 28.4732 66.0664 28.6048 66.1876 28.7014C66.3088 28.798 66.4981 28.8785 66.7557 28.9429L67.4034 29.1019C67.7935 29.1966 68.0842 29.3415 68.2755 29.5366C68.4668 29.7297 68.5624 29.9788 68.5624 30.2837C68.5624 30.5337 68.4905 30.7572 68.3465 30.9541C68.2045 31.1511 68.0056 31.3064 67.75 31.42C67.4943 31.5336 67.197 31.5904 66.858 31.5904C66.4129 31.5904 66.0446 31.4939 65.7529 31.3007C65.4613 31.1075 65.2766 30.8253 65.199 30.4541L65.8353 30.2951C65.8959 30.5299 66.0105 30.706 66.179 30.8234C66.3495 30.9409 66.572 30.9996 66.8466 30.9996C67.1591 30.9996 67.4072 30.9333 67.5909 30.8007C67.7765 30.6663 67.8693 30.5053 67.8693 30.3178C67.8693 30.1663 67.8163 30.0394 67.7102 29.9371C67.6042 29.833 67.4413 29.7553 67.2216 29.7042L66.4944 29.5337C66.0948 29.439 65.8012 29.2923 65.6137 29.0934C65.4281 28.8927 65.3353 28.6417 65.3353 28.3406C65.3353 28.0944 65.4045 27.8766 65.5427 27.6872C65.6828 27.4979 65.8732 27.3492 66.1137 27.2412C66.3561 27.1333 66.6307 27.0793 66.9375 27.0793C67.3693 27.0793 67.7083 27.174 67.9545 27.3634C68.2026 27.5528 68.3787 27.8028 68.4829 28.1134ZM73.5941 31.5904C73.2002 31.5904 72.8546 31.4967 72.5573 31.3092C72.2618 31.1217 72.0308 30.8594 71.8641 30.5223C71.6993 30.1852 71.617 29.7913 71.617 29.3406C71.617 28.886 71.6993 28.4893 71.8641 28.1503C72.0308 27.8113 72.2618 27.548 72.5573 27.3605C72.8546 27.1731 73.2002 27.0793 73.5941 27.0793C73.9881 27.0793 74.3327 27.1731 74.6282 27.3605C74.9255 27.548 75.1566 27.8113 75.3213 28.1503C75.488 28.4893 75.5713 28.886 75.5713 29.3406C75.5713 29.7913 75.488 30.1852 75.3213 30.5223C75.1566 30.8594 74.9255 31.1217 74.6282 31.3092C74.3327 31.4967 73.9881 31.5904 73.5941 31.5904ZM73.5941 30.9882C73.8934 30.9882 74.1396 30.9115 74.3327 30.7581C74.5259 30.6047 74.6689 30.403 74.7617 30.153C74.8545 29.903 74.9009 29.6322 74.9009 29.3406C74.9009 29.0489 74.8545 28.7771 74.7617 28.5253C74.6689 28.2734 74.5259 28.0698 74.3327 27.9145C74.1396 27.7592 73.8934 27.6816 73.5941 27.6816C73.2949 27.6816 73.0487 27.7592 72.8555 27.9145C72.6624 28.0698 72.5194 28.2734 72.4266 28.5253C72.3338 28.7771 72.2874 29.0489 72.2874 29.3406C72.2874 29.6322 72.3338 29.903 72.4266 30.153C72.5194 30.403 72.6624 30.6047 72.8555 30.7581C73.0487 30.9115 73.2949 30.9882 73.5941 30.9882ZM77.2651 28.8747V31.4995H76.5947V27.1361H77.2424V27.8179H77.2992C77.4015 27.5963 77.5568 27.4183 77.7651 27.2838C77.9734 27.1475 78.2423 27.0793 78.5719 27.0793C78.8673 27.0793 79.1258 27.1399 79.3474 27.2611C79.569 27.3804 79.7413 27.5622 79.8644 27.8065C79.9875 28.049 80.0491 28.3558 80.0491 28.727V31.4995H79.3786V28.7724C79.3786 28.4296 79.2896 28.1626 79.1116 27.9713C78.9336 27.7781 78.6893 27.6816 78.3787 27.6816C78.1647 27.6816 77.9734 27.728 77.8049 27.8208C77.6382 27.9136 77.5066 28.049 77.41 28.227C77.3134 28.405 77.2651 28.6209 77.2651 28.8747ZM81.9446 25.6817V31.4995H81.2741V25.6817H81.9446ZM83.6043 33.1358C83.4906 33.1358 83.3893 33.1264 83.3003 33.1074C83.2113 33.0904 83.1498 33.0733 83.1157 33.0563L83.2861 32.4654C83.449 32.5071 83.5929 32.5222 83.7179 32.5109C83.8429 32.4995 83.9537 32.4436 84.0503 32.3432C84.1488 32.2448 84.2387 32.0847 84.3201 31.8632L84.4451 31.5223L82.8316 27.1361H83.5588L84.7633 30.6132H84.8088L86.0132 27.1361H86.7405L84.8883 32.1359C84.805 32.3612 84.7018 32.5478 84.5787 32.6955C84.4556 32.8451 84.3126 32.9559 84.1497 33.0279C83.9887 33.0998 83.8069 33.1358 83.6043 33.1358ZM91.1593 31.6018C90.8828 31.6018 90.6319 31.5497 90.4065 31.4456C90.1811 31.3395 90.0022 31.1871 89.8696 30.9882C89.737 30.7875 89.6707 30.545 89.6707 30.261C89.6707 30.011 89.72 29.8083 89.8184 29.653C89.9169 29.4959 90.0485 29.3728 90.2133 29.2837C90.3781 29.1947 90.5599 29.1285 90.7587 29.0849C90.9595 29.0394 91.1612 29.0035 91.3638 28.9769C91.629 28.9429 91.8439 28.9173 92.0087 28.9002C92.1753 28.8813 92.2965 28.8501 92.3723 28.8065C92.4499 28.7629 92.4888 28.6872 92.4888 28.5792V28.5565C92.4888 28.2762 92.4121 28.0584 92.2587 27.9031C92.1072 27.7478 91.8771 27.6702 91.5684 27.6702C91.2483 27.6702 90.9974 27.7403 90.8156 27.8804C90.6337 28.0206 90.5059 28.1702 90.4321 28.3292L89.7957 28.102C89.9094 27.8369 90.0609 27.6304 90.2502 27.4827C90.4415 27.3331 90.6498 27.2289 90.8752 27.1702C91.1025 27.1096 91.3259 27.0793 91.5456 27.0793C91.6858 27.0793 91.8468 27.0964 92.0286 27.1304C92.2123 27.1626 92.3893 27.2299 92.5598 27.3321C92.7321 27.4344 92.8751 27.5888 92.9887 27.7952C93.1024 28.0016 93.1592 28.2781 93.1592 28.6247V31.4995H92.4888V30.9087H92.4547C92.4092 31.0034 92.3335 31.1047 92.2274 31.2126C92.1214 31.3206 91.9803 31.4124 91.8041 31.4882C91.628 31.5639 91.4131 31.6018 91.1593 31.6018ZM91.2616 30.9996C91.5267 30.9996 91.7502 30.9475 91.932 30.8433C92.1157 30.7392 92.2539 30.6047 92.3467 30.4399C92.4414 30.2752 92.4888 30.1019 92.4888 29.9201V29.3065C92.4604 29.3406 92.3979 29.3718 92.3013 29.4002C92.2066 29.4267 92.0967 29.4504 91.9717 29.4712C91.8486 29.4902 91.7284 29.5072 91.611 29.5224C91.4954 29.5356 91.4017 29.547 91.3297 29.5565C91.1555 29.5792 90.9926 29.6161 90.8411 29.6672C90.6915 29.7165 90.5703 29.7913 90.4775 29.8917C90.3866 29.9901 90.3411 30.1246 90.3411 30.2951C90.3411 30.528 90.4273 30.7041 90.5997 30.8234C90.7739 30.9409 90.9945 30.9996 91.2616 30.9996ZM97.7946 27.1361L96.181 31.4995H95.4993L93.8857 27.1361H94.6129L95.8174 30.6132H95.8629L97.0674 27.1361H97.7946ZM99.8307 31.6018C99.5542 31.6018 99.3033 31.5497 99.0779 31.4456C98.8526 31.3395 98.6736 31.1871 98.541 30.9882C98.4084 30.7875 98.3422 30.545 98.3422 30.261C98.3422 30.011 98.3914 29.8083 98.4899 29.653C98.5884 29.4959 98.72 29.3728 98.8847 29.2837C99.0495 29.1947 99.2313 29.1285 99.4302 29.0849C99.6309 29.0394 99.8326 29.0035 100.035 28.9769C100.3 28.9429 100.515 28.9173 100.68 28.9002C100.847 28.8813 100.968 28.8501 101.044 28.8065C101.121 28.7629 101.16 28.6872 101.16 28.5792V28.5565C101.16 28.2762 101.083 28.0584 100.93 27.9031C100.779 27.7478 100.548 27.6702 100.24 27.6702C99.9197 27.6702 99.6688 27.7403 99.487 27.8804C99.3052 28.0206 99.1773 28.1702 99.1035 28.3292L98.4672 28.102C98.5808 27.8369 98.7323 27.6304 98.9217 27.4827C99.113 27.3331 99.3213 27.2289 99.5466 27.1702C99.7739 27.1096 99.9974 27.0793 100.217 27.0793C100.357 27.0793 100.518 27.0964 100.7 27.1304C100.884 27.1626 101.061 27.2299 101.231 27.3321C101.404 27.4344 101.547 27.5888 101.66 27.7952C101.774 28.0016 101.831 28.2781 101.831 28.6247V31.4995H101.16V30.9087H101.126C101.081 31.0034 101.005 31.1047 100.899 31.2126C100.793 31.3206 100.652 31.4124 100.476 31.4882C100.299 31.5639 100.084 31.6018 99.8307 31.6018ZM99.933 30.9996C100.198 30.9996 100.422 30.9475 100.603 30.8433C100.787 30.7392 100.925 30.6047 101.018 30.4399C101.113 30.2752 101.16 30.1019 101.16 29.9201V29.3065C101.132 29.3406 101.069 29.3718 100.973 29.4002C100.878 29.4267 100.768 29.4504 100.643 29.4712C100.52 29.4902 100.4 29.5072 100.282 29.5224C100.167 29.5356 100.073 29.547 100.001 29.5565C99.8269 29.5792 99.6641 29.6161 99.5126 29.6672C99.3629 29.7165 99.2417 29.7913 99.1489 29.8917C99.058 29.9901 99.0126 30.1246 99.0126 30.2951C99.0126 30.528 99.0988 30.7041 99.2711 30.8234C99.4453 30.9409 99.666 30.9996 99.933 30.9996ZM103.054 31.4995V27.1361H103.725V31.4995H103.054ZM103.395 26.4089C103.264 26.4089 103.152 26.3644 103.057 26.2754C102.964 26.1864 102.918 26.0794 102.918 25.9544C102.918 25.8294 102.964 25.7224 103.057 25.6334C103.152 25.5444 103.264 25.4998 103.395 25.4998C103.526 25.4998 103.638 25.5444 103.73 25.6334C103.825 25.7224 103.872 25.8294 103.872 25.9544C103.872 26.0794 103.825 26.1864 103.73 26.2754C103.638 26.3644 103.526 26.4089 103.395 26.4089ZM105.623 25.6817V31.4995H104.953V25.6817H105.623ZM108.135 31.6018C107.858 31.6018 107.608 31.5497 107.382 31.4456C107.157 31.3395 106.978 31.1871 106.845 30.9882C106.713 30.7875 106.646 30.545 106.646 30.261C106.646 30.011 106.696 29.8083 106.794 29.653C106.893 29.4959 107.024 29.3728 107.189 29.2837C107.354 29.1947 107.536 29.1285 107.734 29.0849C107.935 29.0394 108.137 29.0035 108.34 28.9769C108.605 28.9429 108.82 28.9173 108.984 28.9002C109.151 28.8813 109.272 28.8501 109.348 28.8065C109.426 28.7629 109.464 28.6872 109.464 28.5792V28.5565C109.464 28.2762 109.388 28.0584 109.234 27.9031C109.083 27.7478 108.853 27.6702 108.544 27.6702C108.224 27.6702 107.973 27.7403 107.791 27.8804C107.609 28.0206 107.482 28.1702 107.408 28.3292L106.771 28.102C106.885 27.8369 107.037 27.6304 107.226 27.4827C107.417 27.3331 107.626 27.2289 107.851 27.1702C108.078 27.1096 108.302 27.0793 108.521 27.0793C108.661 27.0793 108.822 27.0964 109.004 27.1304C109.188 27.1626 109.365 27.2299 109.535 27.3321C109.708 27.4344 109.851 27.5888 109.964 27.7952C110.078 28.0016 110.135 28.2781 110.135 28.6247V31.4995H109.464V30.9087H109.43C109.385 31.0034 109.309 31.1047 109.203 31.2126C109.097 31.3206 108.956 31.4124 108.78 31.4882C108.604 31.5639 108.389 31.6018 108.135 31.6018ZM108.237 30.9996C108.502 30.9996 108.726 30.9475 108.908 30.8433C109.091 30.7392 109.23 30.6047 109.322 30.4399C109.417 30.2752 109.464 30.1019 109.464 29.9201V29.3065C109.436 29.3406 109.374 29.3718 109.277 29.4002C109.182 29.4267 109.072 29.4504 108.947 29.4712C108.824 29.4902 108.704 29.5072 108.587 29.5224C108.471 29.5356 108.377 29.547 108.305 29.5565C108.131 29.5792 107.968 29.6161 107.817 29.6672C107.667 29.7165 107.546 29.7913 107.453 29.8917C107.362 29.9901 107.317 30.1246 107.317 30.2951C107.317 30.528 107.403 30.7041 107.575 30.8234C107.75 30.9409 107.97 30.9996 108.237 30.9996ZM111.449 31.4995V25.6817H112.12V27.8293H112.177C112.226 27.7535 112.294 27.6569 112.381 27.5395C112.47 27.4202 112.597 27.3142 112.762 27.2214C112.929 27.1267 113.154 27.0793 113.438 27.0793C113.805 27.0793 114.129 27.1712 114.41 27.3549C114.69 27.5386 114.909 27.799 115.066 28.1361C115.223 28.4732 115.302 28.8709 115.302 29.3292C115.302 29.7913 115.223 30.1918 115.066 30.5308C114.909 30.8679 114.691 31.1293 114.412 31.3149C114.134 31.4986 113.813 31.5904 113.449 31.5904C113.169 31.5904 112.945 31.544 112.776 31.4512C112.608 31.3566 112.478 31.2496 112.387 31.1302C112.296 31.009 112.226 30.9087 112.177 30.8291H112.097V31.4995H111.449ZM112.109 29.3178C112.109 29.6474 112.157 29.9381 112.253 30.19C112.35 30.4399 112.491 30.636 112.677 30.778C112.862 30.9181 113.09 30.9882 113.358 30.9882C113.639 30.9882 113.873 30.9143 114.06 30.7666C114.249 30.617 114.392 30.4163 114.486 30.1644C114.583 29.9106 114.631 29.6284 114.631 29.3178C114.631 29.011 114.584 28.7345 114.489 28.4883C114.396 28.2402 114.255 28.0442 114.066 27.9003C113.878 27.7545 113.643 27.6816 113.358 27.6816C113.086 27.6816 112.857 27.7507 112.671 27.8889C112.485 28.0253 112.345 28.2166 112.251 28.4628C112.156 28.7071 112.109 28.9921 112.109 29.3178ZM116.997 25.6817V31.4995H116.327V25.6817H116.997ZM120.055 31.5904C119.634 31.5904 119.272 31.4976 118.967 31.3121C118.664 31.1246 118.43 30.8632 118.265 30.528C118.102 30.1909 118.021 29.7989 118.021 29.3519C118.021 28.905 118.102 28.5111 118.265 28.1702C118.43 27.8274 118.659 27.5603 118.953 27.3691C119.248 27.1759 119.593 27.0793 119.987 27.0793C120.214 27.0793 120.438 27.1172 120.66 27.1929C120.881 27.2687 121.083 27.3918 121.265 27.5622C121.447 27.7308 121.592 27.9543 121.7 28.2327C121.808 28.5111 121.862 28.8538 121.862 29.261V29.5451H118.498V28.9656H121.18C121.18 28.7194 121.131 28.4997 121.032 28.3065C120.935 28.1134 120.797 27.9609 120.617 27.8492C120.439 27.7374 120.229 27.6816 119.987 27.6816C119.72 27.6816 119.489 27.7478 119.294 27.8804C119.1 28.0111 118.952 28.1815 118.848 28.3917C118.743 28.602 118.691 28.8273 118.691 29.0678V29.4542C118.691 29.7837 118.748 30.0631 118.862 30.2922C118.977 30.5195 119.137 30.6928 119.342 30.8121C119.546 30.9295 119.784 30.9882 120.055 30.9882C120.231 30.9882 120.39 30.9636 120.532 30.9143C120.676 30.8632 120.8 30.7875 120.904 30.6871C121.008 30.5848 121.089 30.4579 121.146 30.3064L121.793 30.4882C121.725 30.7079 121.611 30.9011 121.45 31.0677C121.289 31.2325 121.09 31.3613 120.853 31.4541C120.616 31.545 120.35 31.5904 120.055 31.5904ZM127.074 27.1361V27.7043H124.722V27.1361H127.074ZM125.427 31.4995V26.5339C125.427 26.2839 125.485 26.0756 125.603 25.9089C125.72 25.7423 125.873 25.6173 126.06 25.5339C126.248 25.4506 126.446 25.4089 126.654 25.4089C126.819 25.4089 126.953 25.4222 127.057 25.4487C127.161 25.4752 127.239 25.4998 127.29 25.5226L127.097 26.1021C127.063 26.0907 127.016 26.0765 126.955 26.0595C126.896 26.0424 126.819 26.0339 126.722 26.0339C126.501 26.0339 126.34 26.0898 126.242 26.2015C126.145 26.3133 126.097 26.4771 126.097 26.693V31.4995H125.427ZM129.607 31.5904C129.213 31.5904 128.867 31.4967 128.57 31.3092C128.275 31.1217 128.044 30.8594 127.877 30.5223C127.712 30.1852 127.63 29.7913 127.63 29.3406C127.63 28.886 127.712 28.4893 127.877 28.1503C128.044 27.8113 128.275 27.548 128.57 27.3605C128.867 27.1731 129.213 27.0793 129.607 27.0793C130.001 27.0793 130.345 27.1731 130.641 27.3605C130.938 27.548 131.169 27.8113 131.334 28.1503C131.501 28.4893 131.584 28.886 131.584 29.3406C131.584 29.7913 131.501 30.1852 131.334 30.5223C131.169 30.8594 130.938 31.1217 130.641 31.3092C130.345 31.4967 130.001 31.5904 129.607 31.5904ZM129.607 30.9882C129.906 30.9882 130.152 30.9115 130.345 30.7581C130.539 30.6047 130.682 30.403 130.774 30.153C130.867 29.903 130.914 29.6322 130.914 29.3406C130.914 29.0489 130.867 28.7771 130.774 28.5253C130.682 28.2734 130.539 28.0698 130.345 27.9145C130.152 27.7592 129.906 27.6816 129.607 27.6816C129.308 27.6816 129.061 27.7592 128.868 27.9145C128.675 28.0698 128.532 28.2734 128.439 28.5253C128.347 28.7771 128.3 29.0489 128.3 29.3406C128.3 29.6322 128.347 29.903 128.439 30.153C128.532 30.403 128.675 30.6047 128.868 30.7581C129.061 30.9115 129.308 30.9882 129.607 30.9882ZM132.607 31.4995V27.1361H133.255V27.7952H133.301C133.38 27.5793 133.524 27.4041 133.732 27.2696C133.941 27.1352 134.176 27.068 134.437 27.068C134.486 27.068 134.548 27.0689 134.622 27.0708C134.695 27.0727 134.751 27.0755 134.789 27.0793V27.7611C134.766 27.7554 134.714 27.7469 134.633 27.7355C134.553 27.7223 134.469 27.7156 134.38 27.7156C134.168 27.7156 133.979 27.7602 133.812 27.8492C133.647 27.9363 133.516 28.0575 133.42 28.2128C133.325 28.3662 133.278 28.5414 133.278 28.7383V31.4995H132.607ZM141.106 27.1361C141.072 26.8483 140.934 26.6248 140.692 26.4657C140.449 26.3066 140.152 26.2271 139.8 26.2271C139.542 26.2271 139.317 26.2687 139.123 26.3521C138.932 26.4354 138.783 26.55 138.675 26.6958C138.569 26.8416 138.516 27.0073 138.516 27.1929C138.516 27.3482 138.552 27.4818 138.626 27.5935C138.702 27.7033 138.799 27.7952 138.916 27.869C139.033 27.941 139.157 28.0007 139.285 28.048C139.414 28.0935 139.533 28.1304 139.64 28.1588L140.231 28.3179C140.383 28.3577 140.551 28.4126 140.737 28.4827C140.924 28.5527 141.103 28.6484 141.274 28.7696C141.446 28.8889 141.588 29.0423 141.7 29.2298C141.812 29.4173 141.868 29.6474 141.868 29.9201C141.868 30.2345 141.785 30.5185 141.62 30.7723C141.458 31.0261 141.219 31.2278 140.905 31.3774C140.592 31.527 140.212 31.6018 139.765 31.6018C139.349 31.6018 138.988 31.5346 138.683 31.4001C138.38 31.2657 138.141 31.0782 137.967 30.8376C137.795 30.5971 137.697 30.3178 137.675 29.9996H138.402C138.421 30.2193 138.495 30.4011 138.623 30.545C138.754 30.6871 138.919 30.7931 139.118 30.8632C139.319 30.9314 139.534 30.9655 139.765 30.9655C140.034 30.9655 140.276 30.9219 140.49 30.8348C140.704 30.7458 140.873 30.6227 140.998 30.4655C141.123 30.3064 141.186 30.1208 141.186 29.9087C141.186 29.7155 141.132 29.5584 141.024 29.4371C140.916 29.3159 140.774 29.2175 140.598 29.1417C140.422 29.066 140.231 28.9997 140.027 28.9429L139.311 28.7383C138.856 28.6076 138.497 28.4211 138.231 28.1787C137.966 27.9363 137.834 27.6191 137.834 27.227C137.834 26.9013 137.922 26.6172 138.098 26.3748C138.276 26.1305 138.515 25.9411 138.814 25.8067C139.115 25.6703 139.451 25.6021 139.822 25.6021C140.197 25.6021 140.531 25.6693 140.822 25.8038C141.114 25.9364 141.345 26.1182 141.515 26.3492C141.688 26.5803 141.779 26.8426 141.788 27.1361H141.106ZM142.935 31.4995V27.1361H143.605V31.4995H142.935ZM143.276 26.4089C143.145 26.4089 143.033 26.3644 142.938 26.2754C142.845 26.1864 142.799 26.0794 142.799 25.9544C142.799 25.8294 142.845 25.7224 142.938 25.6334C143.033 25.5444 143.145 25.4998 143.276 25.4998C143.407 25.4998 143.518 25.5444 143.611 25.6334C143.706 25.7224 143.753 25.8294 143.753 25.9544C143.753 26.0794 143.706 26.1864 143.611 26.2754C143.518 26.3644 143.407 26.4089 143.276 26.4089ZM145.504 28.8747V31.4995H144.833V27.1361H145.481V27.8179H145.538C145.64 27.5963 145.795 27.4183 146.004 27.2838C146.212 27.1475 146.481 27.0793 146.811 27.0793C147.106 27.0793 147.365 27.1399 147.586 27.2611C147.808 27.3804 147.98 27.5622 148.103 27.8065C148.226 28.049 148.288 28.3558 148.288 28.727V31.4995H147.617V28.7724C147.617 28.4296 147.528 28.1626 147.35 27.9713C147.172 27.7781 146.928 27.6816 146.617 27.6816C146.403 27.6816 146.212 27.728 146.044 27.8208C145.877 27.9136 145.745 28.049 145.649 28.227C145.552 28.405 145.504 28.6209 145.504 28.8747ZM151.274 33.2267C150.95 33.2267 150.672 33.1851 150.439 33.1017C150.206 33.0203 150.012 32.9123 149.857 32.7779C149.703 32.6453 149.581 32.5033 149.49 32.3518L150.024 31.9768C150.085 32.0563 150.161 32.1472 150.254 32.2495C150.347 32.3537 150.474 32.4436 150.635 32.5194C150.798 32.597 151.011 32.6358 151.274 32.6358C151.626 32.6358 151.917 32.5506 152.146 32.3802C152.375 32.2097 152.49 31.9427 152.49 31.5791V30.6928H152.433C152.384 30.7723 152.314 30.8708 152.223 30.9882C152.134 31.1037 152.005 31.2069 151.837 31.2978C151.67 31.3869 151.445 31.4314 151.16 31.4314C150.808 31.4314 150.492 31.348 150.212 31.1814C149.933 31.0147 149.713 30.7723 149.55 30.4541C149.389 30.136 149.308 29.7496 149.308 29.2951C149.308 28.8482 149.387 28.459 149.544 28.1276C149.701 27.7942 149.92 27.5367 150.2 27.3549C150.481 27.1712 150.804 27.0793 151.172 27.0793C151.456 27.0793 151.681 27.1267 151.848 27.2214C152.016 27.3142 152.145 27.4202 152.234 27.5395C152.325 27.6569 152.395 27.7535 152.445 27.8293H152.513V27.1361H153.16V31.6245C153.16 31.9995 153.075 32.3044 152.905 32.5393C152.736 32.776 152.509 32.9493 152.223 33.0591C151.939 33.1709 151.623 33.2267 151.274 33.2267ZM151.251 30.8291C151.52 30.8291 151.748 30.7676 151.933 30.6445C152.119 30.5214 152.26 30.3443 152.356 30.1132C152.453 29.8822 152.501 29.6057 152.501 29.2837C152.501 28.9694 152.454 28.6919 152.359 28.4514C152.265 28.2109 152.124 28.0224 151.939 27.8861C151.753 27.7497 151.524 27.6816 151.251 27.6816C150.967 27.6816 150.731 27.7535 150.541 27.8975C150.354 28.0414 150.213 28.2346 150.118 28.477C150.025 28.7194 149.979 28.9883 149.979 29.2837C149.979 29.5868 150.026 29.8547 150.121 30.0877C150.217 30.3187 150.359 30.5005 150.547 30.6331C150.736 30.7638 150.971 30.8291 151.251 30.8291ZM155.672 31.6018C155.395 31.6018 155.144 31.5497 154.919 31.4456C154.693 31.3395 154.514 31.1871 154.382 30.9882C154.249 30.7875 154.183 30.545 154.183 30.261C154.183 30.011 154.232 29.8083 154.331 29.653C154.429 29.4959 154.561 29.3728 154.726 29.2837C154.89 29.1947 155.072 29.1285 155.271 29.0849C155.472 29.0394 155.674 29.0035 155.876 28.9769C156.141 28.9429 156.356 28.9173 156.521 28.9002C156.688 28.8813 156.809 28.8501 156.885 28.8065C156.962 28.7629 157.001 28.6872 157.001 28.5792V28.5565C157.001 28.2762 156.924 28.0584 156.771 27.9031C156.619 27.7478 156.389 27.6702 156.081 27.6702C155.761 27.6702 155.51 27.7403 155.328 27.8804C155.146 28.0206 155.018 28.1702 154.944 28.3292L154.308 28.102C154.422 27.8369 154.573 27.6304 154.763 27.4827C154.954 27.3331 155.162 27.2289 155.388 27.1702C155.615 27.1096 155.838 27.0793 156.058 27.0793C156.198 27.0793 156.359 27.0964 156.541 27.1304C156.725 27.1626 156.902 27.2299 157.072 27.3321C157.244 27.4344 157.387 27.5888 157.501 27.7952C157.615 28.0016 157.672 28.2781 157.672 28.6247V31.4995H157.001V30.9087H156.967C156.922 31.0034 156.846 31.1047 156.74 31.2126C156.634 31.3206 156.493 31.4124 156.316 31.4882C156.14 31.5639 155.925 31.6018 155.672 31.6018ZM155.774 30.9996C156.039 30.9996 156.262 30.9475 156.444 30.8433C156.628 30.7392 156.766 30.6047 156.859 30.4399C156.954 30.2752 157.001 30.1019 157.001 29.9201V29.3065C156.973 29.3406 156.91 29.3718 156.814 29.4002C156.719 29.4267 156.609 29.4504 156.484 29.4712C156.361 29.4902 156.241 29.5072 156.123 29.5224C156.008 29.5356 155.914 29.547 155.842 29.5565C155.668 29.5792 155.505 29.6161 155.353 29.6672C155.204 29.7165 155.083 29.7913 154.99 29.8917C154.899 29.9901 154.853 30.1246 154.853 30.2951C154.853 30.528 154.94 30.7041 155.112 30.8234C155.286 30.9409 155.507 30.9996 155.774 30.9996ZM158.895 33.1358V27.1361H159.543V27.8293H159.622C159.672 27.7535 159.74 27.6569 159.827 27.5395C159.916 27.4202 160.043 27.3142 160.208 27.2214C160.374 27.1267 160.6 27.0793 160.884 27.0793C161.251 27.0793 161.575 27.1712 161.855 27.3549C162.136 27.5386 162.354 27.799 162.511 28.1361C162.669 28.4732 162.747 28.8709 162.747 29.3292C162.747 29.7913 162.669 30.1918 162.511 30.5308C162.354 30.8679 162.136 31.1293 161.858 31.3149C161.58 31.4986 161.259 31.5904 160.895 31.5904C160.615 31.5904 160.39 31.544 160.222 31.4512C160.053 31.3566 159.924 31.2496 159.833 31.1302C159.742 31.009 159.672 30.9087 159.622 30.8291H159.566V33.1358H158.895ZM159.554 29.3178C159.554 29.6474 159.603 29.9381 159.699 30.19C159.796 30.4399 159.937 30.636 160.122 30.778C160.308 30.9181 160.535 30.9882 160.804 30.9882C161.084 30.9882 161.318 30.9143 161.506 30.7666C161.695 30.617 161.837 30.4163 161.932 30.1644C162.029 29.9106 162.077 29.6284 162.077 29.3178C162.077 29.011 162.029 28.7345 161.935 28.4883C161.842 28.2402 161.701 28.0442 161.512 27.9003C161.324 27.7545 161.088 27.6816 160.804 27.6816C160.531 27.6816 160.302 27.7507 160.117 27.8889C159.931 28.0253 159.791 28.2166 159.696 28.4628C159.602 28.7071 159.554 28.9921 159.554 29.3178ZM165.543 31.5904C165.149 31.5904 164.803 31.4967 164.506 31.3092C164.21 31.1217 163.979 30.8594 163.813 30.5223C163.648 30.1852 163.565 29.7913 163.565 29.3406C163.565 28.886 163.648 28.4893 163.813 28.1503C163.979 27.8113 164.21 27.548 164.506 27.3605C164.803 27.1731 165.149 27.0793 165.543 27.0793C165.936 27.0793 166.281 27.1731 166.577 27.3605C166.874 27.548 167.105 27.8113 167.27 28.1503C167.436 28.4893 167.52 28.886 167.52 29.3406C167.52 29.7913 167.436 30.1852 167.27 30.5223C167.105 30.8594 166.874 31.1217 166.577 31.3092C166.281 31.4967 165.936 31.5904 165.543 31.5904ZM165.543 30.9882C165.842 30.9882 166.088 30.9115 166.281 30.7581C166.474 30.6047 166.617 30.403 166.71 30.153C166.803 29.903 166.849 29.6322 166.849 29.3406C166.849 29.0489 166.803 28.7771 166.71 28.5253C166.617 28.2734 166.474 28.0698 166.281 27.9145C166.088 27.7592 165.842 27.6816 165.543 27.6816C165.243 27.6816 164.997 27.7592 164.804 27.9145C164.611 28.0698 164.468 28.2734 164.375 28.5253C164.282 28.7771 164.236 29.0489 164.236 29.3406C164.236 29.6322 164.282 29.903 164.375 30.153C164.468 30.403 164.611 30.6047 164.804 30.7581C164.997 30.9115 165.243 30.9882 165.543 30.9882ZM168.543 31.4995V27.1361H169.191V27.7952H169.236C169.316 27.5793 169.46 27.4041 169.668 27.2696C169.876 27.1352 170.111 27.068 170.373 27.068C170.422 27.068 170.483 27.0689 170.557 27.0708C170.631 27.0727 170.687 27.0755 170.725 27.0793V27.7611C170.702 27.7554 170.65 27.7469 170.569 27.7355C170.489 27.7223 170.405 27.7156 170.316 27.7156C170.104 27.7156 169.914 27.7602 169.748 27.8492C169.583 27.9363 169.452 28.0575 169.356 28.2128C169.261 28.3662 169.214 28.5414 169.214 28.7383V31.4995H168.543ZM173.216 31.5904C172.796 31.5904 172.433 31.4976 172.128 31.3121C171.825 31.1246 171.591 30.8632 171.426 30.528C171.264 30.1909 171.182 29.7989 171.182 29.3519C171.182 28.905 171.264 28.5111 171.426 28.1702C171.591 27.8274 171.82 27.5603 172.114 27.3691C172.409 27.1759 172.754 27.0793 173.148 27.0793C173.375 27.0793 173.6 27.1172 173.821 27.1929C174.043 27.2687 174.245 27.3918 174.426 27.5622C174.608 27.7308 174.753 27.9543 174.861 28.2327C174.969 28.5111 175.023 28.8538 175.023 29.261V29.5451H171.659V28.9656H174.341C174.341 28.7194 174.292 28.4997 174.193 28.3065C174.097 28.1134 173.959 27.9609 173.779 27.8492C173.601 27.7374 173.39 27.6816 173.148 27.6816C172.881 27.6816 172.65 27.7478 172.455 27.8804C172.262 28.0111 172.113 28.1815 172.009 28.3917C171.905 28.602 171.853 28.8273 171.853 29.0678V29.4542C171.853 29.7837 171.909 30.0631 172.023 30.2922C172.139 30.5195 172.299 30.6928 172.503 30.8121C172.708 30.9295 172.945 30.9882 173.216 30.9882C173.392 30.9882 173.551 30.9636 173.693 30.9143C173.837 30.8632 173.961 30.7875 174.066 30.6871C174.17 30.5848 174.25 30.4579 174.307 30.3064L174.955 30.4882C174.887 30.7079 174.772 30.9011 174.611 31.0677C174.45 31.2325 174.251 31.3613 174.014 31.4541C173.778 31.545 173.512 31.5904 173.216 31.5904ZM177.327 31.6018C177.05 31.6018 176.799 31.5497 176.574 31.4456C176.349 31.3395 176.17 31.1871 176.037 30.9882C175.904 30.7875 175.838 30.545 175.838 30.261C175.838 30.011 175.887 29.8083 175.986 29.653C176.084 29.4959 176.216 29.3728 176.381 29.2837C176.546 29.1947 176.727 29.1285 176.926 29.0849C177.127 29.0394 177.329 29.0035 177.531 28.9769C177.796 28.9429 178.011 28.9173 178.176 28.9002C178.343 28.8813 178.464 28.8501 178.54 28.8065C178.617 28.7629 178.656 28.6872 178.656 28.5792V28.5565C178.656 28.2762 178.58 28.0584 178.426 27.9031C178.275 27.7478 178.045 27.6702 177.736 27.6702C177.416 27.6702 177.165 27.7403 176.983 27.8804C176.801 28.0206 176.673 28.1702 176.6 28.3292L175.963 28.102C176.077 27.8369 176.228 27.6304 176.418 27.4827C176.609 27.3331 176.817 27.2289 177.043 27.1702C177.27 27.1096 177.493 27.0793 177.713 27.0793C177.853 27.0793 178.014 27.0964 178.196 27.1304C178.38 27.1626 178.557 27.2299 178.727 27.3321C178.9 27.4344 179.043 27.5888 179.156 27.7952C179.27 28.0016 179.327 28.2781 179.327 28.6247V31.4995H178.656V30.9087H178.622C178.577 31.0034 178.501 31.1047 178.395 31.2126C178.289 31.3206 178.148 31.4124 177.972 31.4882C177.795 31.5639 177.581 31.6018 177.327 31.6018ZM177.429 30.9996C177.694 30.9996 177.918 30.9475 178.099 30.8433C178.283 30.7392 178.421 30.6047 178.514 30.4399C178.609 30.2752 178.656 30.1019 178.656 29.9201V29.3065C178.628 29.3406 178.565 29.3718 178.469 29.4002C178.374 29.4267 178.264 29.4504 178.139 29.4712C178.016 29.4902 177.896 29.5072 177.778 29.5224C177.663 29.5356 177.569 29.547 177.497 29.5565C177.323 29.5792 177.16 29.6161 177.009 29.6672C176.859 29.7165 176.738 29.7913 176.645 29.8917C176.554 29.9901 176.509 30.1246 176.509 30.2951C176.509 30.528 176.595 30.7041 176.767 30.8234C176.941 30.9409 177.162 30.9996 177.429 30.9996ZM181.221 28.8747V31.4995H180.55V27.1361H181.198V27.8179H181.255C181.357 27.5963 181.512 27.4183 181.721 27.2838C181.929 27.1475 182.198 27.0793 182.527 27.0793C182.823 27.0793 183.081 27.1399 183.303 27.2611C183.525 27.3804 183.697 27.5622 183.82 27.8065C183.943 28.049 184.005 28.3558 184.005 28.727V31.4995H183.334V28.7724C183.334 28.4296 183.245 28.1626 183.067 27.9713C182.889 27.7781 182.645 27.6816 182.334 27.6816C182.12 27.6816 181.929 27.728 181.76 27.8208C181.594 27.9136 181.462 28.049 181.366 28.227C181.269 28.405 181.221 28.6209 181.221 28.8747ZM188.321 28.1134L187.718 28.2838C187.68 28.1834 187.625 28.0859 187.551 27.9912C187.479 27.8946 187.38 27.8151 187.255 27.7526C187.13 27.6901 186.97 27.6588 186.775 27.6588C186.508 27.6588 186.286 27.7204 186.108 27.8435C185.931 27.9647 185.843 28.119 185.843 28.3065C185.843 28.4732 185.904 28.6048 186.025 28.7014C186.146 28.798 186.336 28.8785 186.593 28.9429L187.241 29.1019C187.631 29.1966 187.922 29.3415 188.113 29.5366C188.304 29.7297 188.4 29.9788 188.4 30.2837C188.4 30.5337 188.328 30.7572 188.184 30.9541C188.042 31.1511 187.843 31.3064 187.588 31.42C187.332 31.5336 187.035 31.5904 186.696 31.5904C186.251 31.5904 185.882 31.4939 185.591 31.3007C185.299 31.1075 185.114 30.8253 185.037 30.4541L185.673 30.2951C185.734 30.5299 185.848 30.706 186.017 30.8234C186.187 30.9409 186.41 30.9996 186.684 30.9996C186.997 30.9996 187.245 30.9333 187.429 30.8007C187.614 30.6663 187.707 30.5053 187.707 30.3178C187.707 30.1663 187.654 30.0394 187.548 29.9371C187.442 29.833 187.279 29.7553 187.059 29.7042L186.332 29.5337C185.932 29.439 185.639 29.2923 185.451 29.0934C185.266 28.8927 185.173 28.6417 185.173 28.3406C185.173 28.0944 185.242 27.8766 185.38 27.6872C185.52 27.4979 185.711 27.3492 185.951 27.2412C186.194 27.1333 186.468 27.0793 186.775 27.0793C187.207 27.0793 187.546 27.174 187.792 27.3634C188.04 27.5528 188.216 27.8028 188.321 28.1134ZM192.943 31.6018C192.667 31.6018 192.416 31.5497 192.19 31.4456C191.965 31.3395 191.786 31.1871 191.653 30.9882C191.521 30.7875 191.455 30.545 191.455 30.261C191.455 30.011 191.504 29.8083 191.602 29.653C191.701 29.4959 191.832 29.3728 191.997 29.2837C192.162 29.1947 192.344 29.1285 192.543 29.0849C192.743 29.0394 192.945 29.0035 193.148 28.9769C193.413 28.9429 193.628 28.9173 193.793 28.9002C193.959 28.8813 194.08 28.8501 194.156 28.8065C194.234 28.7629 194.273 28.6872 194.273 28.5792V28.5565C194.273 28.2762 194.196 28.0584 194.043 27.9031C193.891 27.7478 193.661 27.6702 193.352 27.6702C193.032 27.6702 192.781 27.7403 192.599 27.8804C192.418 28.0206 192.29 28.1702 192.216 28.3292L191.58 28.102C191.693 27.8369 191.845 27.6304 192.034 27.4827C192.225 27.3331 192.434 27.2289 192.659 27.1702C192.886 27.1096 193.11 27.0793 193.329 27.0793C193.47 27.0793 193.631 27.0964 193.812 27.1304C193.996 27.1626 194.173 27.2299 194.344 27.3321C194.516 27.4344 194.659 27.5888 194.773 27.7952C194.886 28.0016 194.943 28.2781 194.943 28.6247V31.4995H194.273V30.9087H194.239C194.193 31.0034 194.117 31.1047 194.011 31.2126C193.905 31.3206 193.764 31.4124 193.588 31.4882C193.412 31.5639 193.197 31.6018 192.943 31.6018ZM193.045 30.9996C193.311 30.9996 193.534 30.9475 193.716 30.8433C193.9 30.7392 194.038 30.6047 194.131 30.4399C194.225 30.2752 194.273 30.1019 194.273 29.9201V29.3065C194.244 29.3406 194.182 29.3718 194.085 29.4002C193.99 29.4267 193.881 29.4504 193.756 29.4712C193.632 29.4902 193.512 29.5072 193.395 29.5224C193.279 29.5356 193.186 29.547 193.114 29.5565C192.939 29.5792 192.776 29.6161 192.625 29.6672C192.475 29.7165 192.354 29.7913 192.261 29.8917C192.17 29.9901 192.125 30.1246 192.125 30.2951C192.125 30.528 192.211 30.7041 192.384 30.8234C192.558 30.9409 192.778 30.9996 193.045 30.9996ZM196.837 28.8747V31.4995H196.167V27.1361H196.814V27.8179H196.871C196.973 27.5963 197.129 27.4183 197.337 27.2838C197.545 27.1475 197.814 27.0793 198.144 27.0793C198.439 27.0793 198.698 27.1399 198.919 27.2611C199.141 27.3804 199.313 27.5622 199.436 27.8065C199.56 28.049 199.621 28.3558 199.621 28.727V31.4995H198.951V28.7724C198.951 28.4296 198.862 28.1626 198.684 27.9713C198.506 27.7781 198.261 27.6816 197.951 27.6816C197.737 27.6816 197.545 27.728 197.377 27.8208C197.21 27.9136 197.079 28.049 196.982 28.227C196.885 28.405 196.837 28.6209 196.837 28.8747ZM202.494 31.5904C202.13 31.5904 201.809 31.4986 201.531 31.3149C201.252 31.1293 201.035 30.8679 200.877 30.5308C200.72 30.1918 200.642 29.7913 200.642 29.3292C200.642 28.8709 200.72 28.4732 200.877 28.1361C201.035 27.799 201.253 27.5386 201.534 27.3549C201.814 27.1712 202.138 27.0793 202.505 27.0793C202.789 27.0793 203.014 27.1267 203.178 27.2214C203.345 27.3142 203.472 27.4202 203.559 27.5395C203.648 27.6569 203.717 27.7535 203.766 27.8293H203.823V25.6817H204.494V31.4995H203.846V30.8291H203.766C203.717 30.9087 203.647 31.009 203.556 31.1302C203.465 31.2496 203.336 31.3566 203.167 31.4512C202.999 31.544 202.774 31.5904 202.494 31.5904ZM202.585 30.9882C202.854 30.9882 203.081 30.9181 203.266 30.778C203.452 30.636 203.593 30.4399 203.69 30.19C203.786 29.9381 203.835 29.6474 203.835 29.3178C203.835 28.9921 203.787 28.7071 203.693 28.4628C203.598 28.2166 203.458 28.0253 203.272 27.8889C203.087 27.7507 202.857 27.6816 202.585 27.6816C202.301 27.6816 202.064 27.7545 201.875 27.9003C201.687 28.0442 201.546 28.2402 201.451 28.4883C201.358 28.7345 201.312 29.011 201.312 29.3178C201.312 29.6284 201.359 29.9106 201.454 30.1644C201.551 30.4163 201.693 30.617 201.88 30.7666C202.07 30.9143 202.304 30.9882 202.585 30.9882ZM208.155 31.4995V25.6817H210.121C210.578 25.6817 210.951 25.764 211.24 25.9288C211.532 26.0917 211.748 26.3123 211.888 26.5907C212.028 26.8691 212.098 27.1797 212.098 27.5225C212.098 27.8653 212.028 28.1768 211.888 28.4571C211.75 28.7374 211.536 28.9608 211.246 29.1275C210.956 29.2923 210.585 29.3747 210.133 29.3747H208.724V28.7497H210.11C210.422 28.7497 210.673 28.6957 210.863 28.5878C211.052 28.4798 211.189 28.334 211.275 28.1503C211.362 27.9647 211.405 27.7554 211.405 27.5225C211.405 27.2895 211.362 27.0812 211.275 26.8975C211.189 26.7138 211.051 26.5699 210.86 26.4657C210.669 26.3597 210.415 26.3066 210.099 26.3066H208.86V31.4995H208.155ZM213.233 31.4995V25.6817H215.199C215.654 25.6817 216.027 25.7593 216.318 25.9146C216.61 26.068 216.826 26.2792 216.966 26.5481C217.106 26.817 217.176 27.1229 217.176 27.4657C217.176 27.8084 217.106 28.1124 216.966 28.3775C216.826 28.6427 216.611 28.851 216.321 29.0025C216.031 29.1521 215.661 29.2269 215.21 29.2269H213.62V28.5906H215.188C215.498 28.5906 215.748 28.5451 215.938 28.4542C216.129 28.3633 216.267 28.2346 216.352 28.0679C216.44 27.8993 216.483 27.6986 216.483 27.4657C216.483 27.2327 216.44 27.0291 216.352 26.8549C216.265 26.6807 216.126 26.5462 215.935 26.4515C215.744 26.3549 215.491 26.3066 215.176 26.3066H213.938V31.4995H213.233ZM215.972 28.886L217.404 31.4995H216.585L215.176 28.886H215.972ZM221.35 28.1134L220.748 28.2838C220.71 28.1834 220.654 28.0859 220.58 27.9912C220.508 27.8946 220.41 27.8151 220.285 27.7526C220.16 27.6901 220 27.6588 219.805 27.6588C219.538 27.6588 219.315 27.7204 219.137 27.8435C218.961 27.9647 218.873 28.119 218.873 28.3065C218.873 28.4732 218.934 28.6048 219.055 28.7014C219.176 28.798 219.365 28.8785 219.623 28.9429L220.271 29.1019C220.661 29.1966 220.951 29.3415 221.143 29.5366C221.334 29.7297 221.43 29.9788 221.43 30.2837C221.43 30.5337 221.358 30.7572 221.214 30.9541C221.072 31.1511 220.873 31.3064 220.617 31.42C220.361 31.5336 220.064 31.5904 219.725 31.5904C219.28 31.5904 218.912 31.4939 218.62 31.3007C218.328 31.1075 218.144 30.8253 218.066 30.4541L218.702 30.2951C218.763 30.5299 218.878 30.706 219.046 30.8234C219.217 30.9409 219.439 30.9996 219.714 30.9996C220.026 30.9996 220.274 30.9333 220.458 30.8007C220.644 30.6663 220.736 30.5053 220.736 30.3178C220.736 30.1663 220.683 30.0394 220.577 29.9371C220.471 29.833 220.308 29.7553 220.089 29.7042L219.362 29.5337C218.962 29.439 218.668 29.2923 218.481 29.0934C218.295 28.8927 218.202 28.6417 218.202 28.3406C218.202 28.0944 218.272 27.8766 218.41 27.6872C218.55 27.4979 218.74 27.3492 218.981 27.2412C219.223 27.1333 219.498 27.0793 219.805 27.0793C220.236 27.0793 220.575 27.174 220.822 27.3634C221.07 27.5528 221.246 27.8028 221.35 28.1134ZM222.927 31.545C222.787 31.545 222.667 31.4948 222.567 31.3944C222.466 31.2941 222.416 31.1738 222.416 31.0337C222.416 30.8935 222.466 30.7733 222.567 30.6729C222.667 30.5725 222.787 30.5223 222.927 30.5223C223.068 30.5223 223.188 30.5725 223.288 30.6729C223.389 30.7733 223.439 30.8935 223.439 31.0337C223.439 31.1265 223.415 31.2117 223.368 31.2893C223.322 31.367 223.261 31.4295 223.183 31.4768C223.107 31.5223 223.022 31.545 222.927 31.545Z" fill="#374151"/>
<path d="M23.4426 55.4989H22.704L24.8402 49.681H25.5675L27.7037 55.4989H26.9651L25.2266 50.6015H25.1811L23.4426 55.4989ZM23.7153 53.2263H26.6924V53.8513H23.7153V53.2263ZM28.519 57.1352V51.1355H29.1667V51.8287H29.2463C29.2955 51.7529 29.3637 51.6563 29.4508 51.5389C29.5398 51.4196 29.6667 51.3135 29.8315 51.2207C29.9981 51.126 30.2235 51.0787 30.5076 51.0787C30.875 51.0787 31.1988 51.1706 31.4791 51.3543C31.7594 51.538 31.9781 51.7984 32.1353 52.1355C32.2925 52.4726 32.3711 52.8703 32.3711 53.3286C32.3711 53.7907 32.2925 54.1912 32.1353 54.5302C31.9781 54.8673 31.7603 55.1287 31.4819 55.3143C31.2036 55.498 30.8825 55.5898 30.5189 55.5898C30.2386 55.5898 30.0142 55.5434 29.8457 55.4506C29.6771 55.3559 29.5474 55.2489 29.4565 55.1296C29.3656 55.0084 29.2955 54.9081 29.2463 54.8285H29.1894V57.1352H28.519ZM29.1781 53.3172C29.1781 53.6468 29.2264 53.9375 29.323 54.1893C29.4196 54.4393 29.5606 54.6353 29.7462 54.7774C29.9318 54.9175 30.1591 54.9876 30.428 54.9876C30.7083 54.9876 30.9422 54.9137 31.1297 54.766C31.3191 54.6164 31.4611 54.4157 31.5558 54.1638C31.6524 53.91 31.7007 53.6278 31.7007 53.3172C31.7007 53.0104 31.6533 52.7339 31.5586 52.4877C31.4658 52.2396 31.3248 52.0436 31.1354 51.8997C30.9479 51.7539 30.7121 51.6809 30.428 51.6809C30.1553 51.6809 29.9262 51.7501 29.7406 51.8883C29.555 52.0247 29.4148 52.216 29.3201 52.4622C29.2254 52.7065 29.1781 52.9915 29.1781 53.3172ZM33.3938 57.1352V51.1355H34.0415V51.8287H34.121C34.1703 51.7529 34.2384 51.6563 34.3255 51.5389C34.4146 51.4196 34.5414 51.3135 34.7062 51.2207C34.8729 51.126 35.0982 51.0787 35.3823 51.0787C35.7497 51.0787 36.0736 51.1706 36.3539 51.3543C36.6341 51.538 36.8529 51.7984 37.0101 52.1355C37.1673 52.4726 37.2459 52.8703 37.2459 53.3286C37.2459 53.7907 37.1673 54.1912 37.0101 54.5302C36.8529 54.8673 36.6351 55.1287 36.3567 55.3143C36.0783 55.498 35.7573 55.5898 35.3937 55.5898C35.1134 55.5898 34.889 55.5434 34.7204 55.4506C34.5519 55.3559 34.4221 55.2489 34.3312 55.1296C34.2403 55.0084 34.1703 54.9081 34.121 54.8285H34.0642V57.1352H33.3938ZM34.0528 53.3172C34.0528 53.6468 34.1011 53.9375 34.1977 54.1893C34.2943 54.4393 34.4354 54.6353 34.621 54.7774C34.8066 54.9175 35.0338 54.9876 35.3028 54.9876C35.5831 54.9876 35.817 54.9137 36.0044 54.766C36.1938 54.6164 36.3359 54.4157 36.4306 54.1638C36.5271 53.91 36.5754 53.6278 36.5754 53.3172C36.5754 53.0104 36.5281 52.7339 36.4334 52.4877C36.3406 52.2396 36.1995 52.0436 36.0101 51.8997C35.8226 51.7539 35.5868 51.6809 35.3028 51.6809C35.0301 51.6809 34.8009 51.7501 34.6153 51.8883C34.4297 52.0247 34.2896 52.216 34.1949 52.4622C34.1002 52.7065 34.0528 52.9915 34.0528 53.3172ZM38.939 49.681V55.4989H38.2685V49.681H38.939ZM40.1669 55.4989V51.1355H40.8373V55.4989H40.1669ZM40.5078 50.4083C40.3771 50.4083 40.2644 50.3638 40.1697 50.2748C40.0769 50.1858 40.0305 50.0788 40.0305 49.9538C40.0305 49.8288 40.0769 49.7218 40.1697 49.6328C40.2644 49.5437 40.3771 49.4992 40.5078 49.4992C40.6384 49.4992 40.7502 49.5437 40.843 49.6328C40.9377 49.7218 40.985 49.8288 40.985 49.9538C40.985 50.0788 40.9377 50.1858 40.843 50.2748C40.7502 50.3638 40.6384 50.4083 40.5078 50.4083ZM43.8378 55.5898C43.4288 55.5898 43.0765 55.4933 42.7811 55.3001C42.4856 55.1069 42.2584 54.8408 42.0993 54.5018C41.9402 54.1628 41.8607 53.7755 41.8607 53.34C41.8607 52.8968 41.9421 52.5057 42.105 52.1667C42.2697 51.8258 42.4989 51.5597 42.7924 51.3685C43.0879 51.1753 43.4326 51.0787 43.8265 51.0787C44.1333 51.0787 44.4098 51.1355 44.656 51.2491C44.9022 51.3628 45.1039 51.5219 45.2611 51.7264C45.4183 51.9309 45.5158 52.1696 45.5537 52.4423H44.8832C44.8321 52.2434 44.7185 52.0673 44.5424 51.9139C44.3681 51.7586 44.1333 51.6809 43.8378 51.6809C43.5765 51.6809 43.3473 51.7491 43.1504 51.8855C42.9553 52.0199 42.8029 52.2103 42.693 52.4565C42.5851 52.7008 42.5311 52.9877 42.5311 53.3172C42.5311 53.6543 42.5841 53.9479 42.6902 54.1979C42.7981 54.4478 42.9496 54.642 43.1447 54.7802C43.3417 54.9185 43.5727 54.9876 43.8378 54.9876C44.0121 54.9876 44.1702 54.9573 44.3123 54.8967C44.4543 54.8361 44.5746 54.749 44.673 54.6353C44.7715 54.5217 44.8416 54.3854 44.8832 54.2263H45.5537C45.5158 54.4838 45.422 54.7158 45.2724 54.9223C45.1247 55.1268 44.9287 55.2897 44.6844 55.4109C44.442 55.5302 44.1598 55.5898 43.8378 55.5898ZM47.8178 55.6012C47.5413 55.6012 47.2903 55.5491 47.065 55.445C46.8396 55.3389 46.6606 55.1864 46.5281 54.9876C46.3955 54.7868 46.3292 54.5444 46.3292 54.2604C46.3292 54.0104 46.3784 53.8077 46.4769 53.6524C46.5754 53.4952 46.707 53.3721 46.8718 53.2831C47.0365 53.1941 47.2184 53.1278 47.4172 53.0843C47.618 53.0388 47.8197 53.0028 48.0223 52.9763C48.2874 52.9422 48.5024 52.9167 48.6671 52.8996C48.8338 52.8807 48.955 52.8494 49.0308 52.8059C49.1084 52.7623 49.1472 52.6866 49.1472 52.5786V52.5559C49.1472 52.2756 49.0705 52.0578 48.9171 51.9025C48.7656 51.7472 48.5355 51.6696 48.2268 51.6696C47.9068 51.6696 47.6558 51.7397 47.474 51.8798C47.2922 52.0199 47.1644 52.1696 47.0905 52.3286L46.4542 52.1014C46.5678 51.8362 46.7193 51.6298 46.9087 51.4821C47.1 51.3325 47.3083 51.2283 47.5337 51.1696C47.7609 51.109 47.9844 51.0787 48.2041 51.0787C48.3442 51.0787 48.5052 51.0957 48.687 51.1298C48.8707 51.162 49.0478 51.2293 49.2183 51.3315C49.3906 51.4338 49.5336 51.5881 49.6472 51.7946C49.7608 52.001 49.8177 52.2775 49.8177 52.6241V55.4989H49.1472V54.9081H49.1131C49.0677 55.0027 48.9919 55.1041 48.8859 55.212C48.7798 55.32 48.6387 55.4118 48.4626 55.4876C48.2865 55.5633 48.0715 55.6012 47.8178 55.6012ZM47.92 54.999C48.1852 54.999 48.4086 54.9469 48.5904 54.8427C48.7741 54.7386 48.9124 54.6041 49.0052 54.4393C49.0999 54.2746 49.1472 54.1013 49.1472 53.9195V53.3059C49.1188 53.34 49.0563 53.3712 48.9597 53.3996C48.8651 53.4261 48.7552 53.4498 48.6302 53.4706C48.5071 53.4896 48.3869 53.5066 48.2694 53.5218C48.1539 53.535 48.0602 53.5464 47.9882 53.5558C47.814 53.5786 47.6511 53.6155 47.4996 53.6666C47.35 53.7159 47.2288 53.7907 47.136 53.8911C47.0451 53.9895 46.9996 54.124 46.9996 54.2944C46.9996 54.5274 47.0858 54.7035 47.2581 54.8228C47.4324 54.9402 47.653 54.999 47.92 54.999ZM52.9389 51.1355V51.7037H50.6777V51.1355H52.9389ZM51.3368 50.0901H52.0072V54.249C52.0072 54.4384 52.0346 54.5804 52.0896 54.6751C52.1464 54.7679 52.2183 54.8304 52.3055 54.8626C52.3945 54.8929 52.4882 54.9081 52.5867 54.9081C52.6605 54.9081 52.7212 54.9043 52.7685 54.8967C52.8158 54.8872 52.8537 54.8796 52.8821 54.874L53.0185 55.4762C52.973 55.4933 52.9096 55.5103 52.8282 55.5273C52.7467 55.5463 52.6435 55.5557 52.5185 55.5557C52.3291 55.5557 52.1435 55.515 51.9617 55.4336C51.7818 55.3522 51.6322 55.2281 51.5129 55.0615C51.3955 54.8948 51.3368 54.6846 51.3368 54.4308V50.0901ZM53.9474 55.4989V51.1355H54.6178V55.4989H53.9474ZM54.2883 50.4083C54.1576 50.4083 54.0449 50.3638 53.9503 50.2748C53.8575 50.1858 53.8111 50.0788 53.8111 49.9538C53.8111 49.8288 53.8575 49.7218 53.9503 49.6328C54.0449 49.5437 54.1576 49.4992 54.2883 49.4992C54.419 49.4992 54.5307 49.5437 54.6235 49.6328C54.7182 49.7218 54.7656 49.8288 54.7656 49.9538C54.7656 50.0788 54.7182 50.1858 54.6235 50.2748C54.5307 50.3638 54.419 50.4083 54.2883 50.4083ZM57.6184 55.5898C57.2245 55.5898 56.8788 55.4961 56.5815 55.3086C56.2861 55.1211 56.055 54.8588 55.8884 54.5217C55.7236 54.1846 55.6412 53.7907 55.6412 53.34C55.6412 52.8854 55.7236 52.4887 55.8884 52.1497C56.055 51.8107 56.2861 51.5474 56.5815 51.3599C56.8788 51.1724 57.2245 51.0787 57.6184 51.0787C58.0123 51.0787 58.357 51.1724 58.6524 51.3599C58.9498 51.5474 59.1808 51.8107 59.3456 52.1497C59.5122 52.4887 59.5956 52.8854 59.5956 53.34C59.5956 53.7907 59.5122 54.1846 59.3456 54.5217C59.1808 54.8588 58.9498 55.1211 58.6524 55.3086C58.357 55.4961 58.0123 55.5898 57.6184 55.5898ZM57.6184 54.9876C57.9176 54.9876 58.1638 54.9109 58.357 54.7575C58.5502 54.6041 58.6931 54.4024 58.7859 54.1524C58.8787 53.9024 58.9251 53.6316 58.9251 53.34C58.9251 53.0483 58.8787 52.7765 58.7859 52.5247C58.6931 52.2728 58.5502 52.0692 58.357 51.9139C58.1638 51.7586 57.9176 51.6809 57.6184 51.6809C57.3192 51.6809 57.073 51.7586 56.8798 51.9139C56.6866 52.0692 56.5436 52.2728 56.4508 52.5247C56.358 52.7765 56.3116 53.0483 56.3116 53.34C56.3116 53.6316 56.358 53.9024 56.4508 54.1524C56.5436 54.4024 56.6866 54.6041 56.8798 54.7575C57.073 54.9109 57.3192 54.9876 57.6184 54.9876ZM61.2894 52.8741V55.4989H60.6189V51.1355H61.2666V51.8173H61.3235C61.4257 51.5957 61.581 51.4177 61.7893 51.2832C61.9977 51.1469 62.2666 51.0787 62.5961 51.0787C62.8916 51.0787 63.1501 51.1393 63.3716 51.2605C63.5932 51.3798 63.7656 51.5616 63.8887 51.8059C64.0118 52.0484 64.0733 52.3552 64.0733 52.7263V55.4989H63.4029V52.7718C63.4029 52.429 63.3139 52.162 63.1359 51.9707C62.9578 51.7775 62.7135 51.6809 62.4029 51.6809C62.1889 51.6809 61.9977 51.7273 61.8291 51.8201C61.6625 51.9129 61.5308 52.0484 61.4342 52.2264C61.3377 52.4044 61.2894 52.6203 61.2894 52.8741ZM68.3891 52.1127L67.7869 52.2832C67.749 52.1828 67.6932 52.0853 67.6193 51.9906C67.5473 51.894 67.4489 51.8145 67.3239 51.752C67.1989 51.6895 67.0388 51.6582 66.8438 51.6582C66.5767 51.6582 66.3542 51.7198 66.1762 51.8429C66.0001 51.9641 65.912 52.1184 65.912 52.3059C65.912 52.4726 65.9726 52.6042 66.0938 52.7008C66.215 52.7974 66.4044 52.8779 66.662 52.9422L67.3097 53.1013C67.6998 53.196 67.9905 53.3409 68.1818 53.536C68.373 53.7291 68.4687 53.9782 68.4687 54.2831C68.4687 54.5331 68.3967 54.7565 68.2528 54.9535C68.1108 55.1505 67.9119 55.3058 67.6562 55.4194C67.4006 55.533 67.1032 55.5898 66.7642 55.5898C66.3192 55.5898 65.9508 55.4933 65.6592 55.3001C65.3675 55.1069 65.1829 54.8247 65.1052 54.4535L65.7416 54.2944C65.8022 54.5293 65.9167 54.7054 66.0853 54.8228C66.2557 54.9402 66.4783 54.999 66.7529 54.999C67.0654 54.999 67.3134 54.9327 67.4971 54.8001C67.6827 54.6656 67.7755 54.5047 67.7755 54.3172C67.7755 54.1657 67.7225 54.0388 67.6165 53.9365C67.5104 53.8324 67.3475 53.7547 67.1278 53.7036L66.4006 53.5331C66.001 53.4384 65.7075 53.2917 65.52 53.0928C65.3344 52.8921 65.2416 52.6411 65.2416 52.34C65.2416 52.0938 65.3107 51.876 65.449 51.6866C65.5891 51.4972 65.7794 51.3486 66.02 51.2406C66.2624 51.1327 66.537 51.0787 66.8438 51.0787C67.2756 51.0787 67.6146 51.1734 67.8608 51.3628C68.1089 51.5522 68.285 51.8022 68.3891 52.1127ZM73.6254 51.1355V51.7037H71.3641V51.1355H73.6254ZM72.0232 50.0901H72.6936V54.249C72.6936 54.4384 72.7211 54.5804 72.776 54.6751C72.8328 54.7679 72.9048 54.8304 72.9919 54.8626C73.0809 54.8929 73.1747 54.9081 73.2731 54.9081C73.347 54.9081 73.4076 54.9043 73.4549 54.8967C73.5023 54.8872 73.5402 54.8796 73.5686 54.874L73.7049 55.4762C73.6595 55.4933 73.596 55.5103 73.5146 55.5273C73.4332 55.5463 73.3299 55.5557 73.205 55.5557C73.0156 55.5557 72.83 55.515 72.6482 55.4336C72.4682 55.3522 72.3186 55.2281 72.1993 55.0615C72.0819 54.8948 72.0232 54.6846 72.0232 54.4308V50.0901ZM75.0657 57.1352C74.952 57.1352 74.8507 57.1257 74.7617 57.1068C74.6727 57.0898 74.6111 57.0727 74.577 57.0557L74.7475 56.4648C74.9104 56.5065 75.0543 56.5216 75.1793 56.5102C75.3043 56.4989 75.4151 56.443 75.5117 56.3426C75.6101 56.2442 75.7001 56.0841 75.7815 55.8625L75.9065 55.5217L74.293 51.1355H75.0202L76.2247 54.6126H76.2701L77.4746 51.1355H78.2019L76.3497 56.1353C76.2663 56.3606 76.1631 56.5472 76.04 56.6949C75.9169 56.8445 75.774 56.9553 75.6111 57.0273C75.4501 57.0992 75.2683 57.1352 75.0657 57.1352ZM79.0868 57.1352V51.1355H79.7344V51.8287H79.814C79.8632 51.7529 79.9314 51.6563 80.0185 51.5389C80.1075 51.4196 80.2344 51.3135 80.3992 51.2207C80.5658 51.126 80.7912 51.0787 81.0753 51.0787C81.4427 51.0787 81.7665 51.1706 82.0468 51.3543C82.3271 51.538 82.5459 51.7984 82.703 52.1355C82.8602 52.4726 82.9388 52.8703 82.9388 53.3286C82.9388 53.7907 82.8602 54.1912 82.703 54.5302C82.5459 54.8673 82.3281 55.1287 82.0497 55.3143C81.7713 55.498 81.4503 55.5898 81.0867 55.5898C80.8064 55.5898 80.5819 55.5434 80.4134 55.4506C80.2448 55.3559 80.1151 55.2489 80.0242 55.1296C79.9333 55.0084 79.8632 54.9081 79.814 54.8285H79.7572V57.1352H79.0868ZM79.7458 53.3172C79.7458 53.6468 79.7941 53.9375 79.8907 54.1893C79.9873 54.4393 80.1284 54.6353 80.314 54.7774C80.4996 54.9175 80.7268 54.9876 80.9957 54.9876C81.276 54.9876 81.5099 54.9137 81.6974 54.766C81.8868 54.6164 82.0288 54.4157 82.1235 54.1638C82.2201 53.91 82.2684 53.6278 82.2684 53.3172C82.2684 53.0104 82.2211 52.7339 82.1264 52.4877C82.0336 52.2396 81.8925 52.0436 81.7031 51.8997C81.5156 51.7539 81.2798 51.6809 80.9957 51.6809C80.723 51.6809 80.4939 51.7501 80.3083 51.8883C80.1227 52.0247 79.9825 52.216 79.8878 52.4622C79.7932 52.7065 79.7458 52.9915 79.7458 53.3172ZM83.9615 55.4989V51.1355H84.6319V55.4989H83.9615ZM84.3024 50.4083C84.1717 50.4083 84.059 50.3638 83.9643 50.2748C83.8715 50.1858 83.8251 50.0788 83.8251 49.9538C83.8251 49.8288 83.8715 49.7218 83.9643 49.6328C84.059 49.5437 84.1717 49.4992 84.3024 49.4992C84.4331 49.4992 84.5448 49.5437 84.6376 49.6328C84.7323 49.7218 84.7796 49.8288 84.7796 49.9538C84.7796 50.0788 84.7323 50.1858 84.6376 50.2748C84.5448 50.3638 84.4331 50.4083 84.3024 50.4083ZM87.6325 55.5898C87.2234 55.5898 86.8712 55.4933 86.5757 55.3001C86.2803 55.1069 86.053 54.8408 85.8939 54.5018C85.7349 54.1628 85.6553 53.7755 85.6553 53.34C85.6553 52.8968 85.7367 52.5057 85.8996 52.1667C86.0644 51.8258 86.2935 51.5597 86.5871 51.3685C86.8825 51.1753 87.2272 51.0787 87.6211 51.0787C87.9279 51.0787 88.2044 51.1355 88.4506 51.2491C88.6968 51.3628 88.8985 51.5219 89.0557 51.7264C89.2129 51.9309 89.3104 52.1696 89.3483 52.4423H88.6779C88.6267 52.2434 88.5131 52.0673 88.337 51.9139C88.1628 51.7586 87.9279 51.6809 87.6325 51.6809C87.3711 51.6809 87.142 51.7491 86.945 51.8855C86.7499 52.0199 86.5975 52.2103 86.4877 52.4565C86.3797 52.7008 86.3257 52.9877 86.3257 53.3172C86.3257 53.6543 86.3788 53.9479 86.4848 54.1979C86.5928 54.4478 86.7443 54.642 86.9393 54.7802C87.1363 54.9185 87.3673 54.9876 87.6325 54.9876C87.8067 54.9876 87.9648 54.9573 88.1069 54.8967C88.2489 54.8361 88.3692 54.749 88.4677 54.6353C88.5661 54.5217 88.6362 54.3854 88.6779 54.2263H89.3483C89.3104 54.4838 89.2167 54.7158 89.0671 54.9223C88.9193 55.1268 88.7233 55.2897 88.479 55.4109C88.2366 55.5302 87.9544 55.5898 87.6325 55.5898ZM91.6124 55.6012C91.3359 55.6012 91.085 55.5491 90.8596 55.445C90.6342 55.3389 90.4553 55.1864 90.3227 54.9876C90.1901 54.7868 90.1238 54.5444 90.1238 54.2604C90.1238 54.0104 90.1731 53.8077 90.2715 53.6524C90.37 53.4952 90.5017 53.3721 90.6664 53.2831C90.8312 53.1941 91.013 53.1278 91.2118 53.0843C91.4126 53.0388 91.6143 53.0028 91.8169 52.9763C92.0821 52.9422 92.297 52.9167 92.4618 52.8996C92.6284 52.8807 92.7496 52.8494 92.8254 52.8059C92.903 52.7623 92.9419 52.6866 92.9419 52.5786V52.5559C92.9419 52.2756 92.8652 52.0578 92.7118 51.9025C92.5603 51.7472 92.3302 51.6696 92.0215 51.6696C91.7014 51.6696 91.4505 51.7397 91.2687 51.8798C91.0868 52.0199 90.959 52.1696 90.8852 52.3286L90.2488 52.1014C90.3625 51.8362 90.514 51.6298 90.7033 51.4821C90.8946 51.3325 91.1029 51.2283 91.3283 51.1696C91.5556 51.109 91.779 51.0787 91.9987 51.0787C92.1389 51.0787 92.2999 51.0957 92.4817 51.1298C92.6654 51.162 92.8424 51.2293 93.0129 51.3315C93.1852 51.4338 93.3282 51.5881 93.4418 51.7946C93.5555 52.001 93.6123 52.2775 93.6123 52.6241V55.4989H92.9419V54.9081H92.9078C92.8623 55.0027 92.7866 55.1041 92.6805 55.212C92.5745 55.32 92.4334 55.4118 92.2572 55.4876C92.0811 55.5633 91.8662 55.6012 91.6124 55.6012ZM91.7147 54.999C91.9798 54.999 92.2033 54.9469 92.3851 54.8427C92.5688 54.7386 92.707 54.6041 92.7998 54.4393C92.8945 54.2746 92.9419 54.1013 92.9419 53.9195V53.3059C92.9135 53.34 92.851 53.3712 92.7544 53.3996C92.6597 53.4261 92.5498 53.4498 92.4248 53.4706C92.3017 53.4896 92.1815 53.5066 92.0641 53.5218C91.9485 53.535 91.8548 53.5464 91.7828 53.5558C91.6086 53.5786 91.4457 53.6155 91.2942 53.6666C91.1446 53.7159 91.0234 53.7907 90.9306 53.8911C90.8397 53.9895 90.7943 54.124 90.7943 54.2944C90.7943 54.5274 90.8804 54.7035 91.0528 54.8228C91.227 54.9402 91.4476 54.999 91.7147 54.999ZM95.5064 49.681V55.4989H94.8359V49.681H95.5064ZM97.4047 49.681V55.4989H96.7343V49.681H97.4047ZM99.0644 57.1352C98.9508 57.1352 98.8495 57.1257 98.7605 57.1068C98.6714 57.0898 98.6099 57.0727 98.5758 57.0557L98.7463 56.4648C98.9091 56.5065 99.0531 56.5216 99.1781 56.5102C99.303 56.4989 99.4138 56.443 99.5104 56.3426C99.6089 56.2442 99.6989 56.0841 99.7803 55.8625L99.9053 55.5217L98.2917 51.1355H99.019L100.223 54.6126H100.269L101.473 51.1355H102.201L100.348 56.1353C100.265 56.3606 100.162 56.5472 100.039 56.6949C99.9157 56.8445 99.7727 56.9553 99.6098 57.0273C99.4489 57.0992 99.2671 57.1352 99.0644 57.1352ZM107.108 55.5898C106.714 55.5898 106.368 55.4961 106.071 55.3086C105.776 55.1211 105.545 54.8588 105.378 54.5217C105.213 54.1846 105.131 53.7907 105.131 53.34C105.131 52.8854 105.213 52.4887 105.378 52.1497C105.545 51.8107 105.776 51.5474 106.071 51.3599C106.368 51.1724 106.714 51.0787 107.108 51.0787C107.502 51.0787 107.847 51.1724 108.142 51.3599C108.439 51.5474 108.67 51.8107 108.835 52.1497C109.002 52.4887 109.085 52.8854 109.085 53.34C109.085 53.7907 109.002 54.1846 108.835 54.5217C108.67 54.8588 108.439 55.1211 108.142 55.3086C107.847 55.4961 107.502 55.5898 107.108 55.5898ZM107.108 54.9876C107.407 54.9876 107.653 54.9109 107.847 54.7575C108.04 54.6041 108.183 54.4024 108.276 54.1524C108.368 53.9024 108.415 53.6316 108.415 53.34C108.415 53.0483 108.368 52.7765 108.276 52.5247C108.183 52.2728 108.04 52.0692 107.847 51.9139C107.653 51.7586 107.407 51.6809 107.108 51.6809C106.809 51.6809 106.563 51.7586 106.369 51.9139C106.176 52.0692 106.033 52.2728 105.94 52.5247C105.848 52.7765 105.801 53.0483 105.801 53.34C105.801 53.6316 105.848 53.9024 105.94 54.1524C106.033 54.4024 106.176 54.6041 106.369 54.7575C106.563 54.9109 106.809 54.9876 107.108 54.9876ZM110.109 57.1352V51.1355H110.756V51.8287H110.836C110.885 51.7529 110.953 51.6563 111.04 51.5389C111.129 51.4196 111.256 51.3135 111.421 51.2207C111.588 51.126 111.813 51.0787 112.097 51.0787C112.465 51.0787 112.788 51.1706 113.069 51.3543C113.349 51.538 113.568 51.7984 113.725 52.1355C113.882 52.4726 113.961 52.8703 113.961 53.3286C113.961 53.7907 113.882 54.1912 113.725 54.5302C113.568 54.8673 113.35 55.1287 113.072 55.3143C112.793 55.498 112.472 55.5898 112.108 55.5898C111.828 55.5898 111.604 55.5434 111.435 55.4506C111.267 55.3559 111.137 55.2489 111.046 55.1296C110.955 55.0084 110.885 54.9081 110.836 54.8285H110.779V57.1352H110.109ZM110.768 53.3172C110.768 53.6468 110.816 53.9375 110.913 54.1893C111.009 54.4393 111.15 54.6353 111.336 54.7774C111.521 54.9175 111.749 54.9876 112.018 54.9876C112.298 54.9876 112.532 54.9137 112.719 54.766C112.909 54.6164 113.051 54.4157 113.145 54.1638C113.242 53.91 113.29 53.6278 113.29 53.3172C113.29 53.0104 113.243 52.7339 113.148 52.4877C113.055 52.2396 112.914 52.0436 112.725 51.8997C112.537 51.7539 112.302 51.6809 112.018 51.6809C111.745 51.6809 111.516 51.7501 111.33 51.8883C111.145 52.0247 111.004 52.216 110.91 52.4622C110.815 52.7065 110.768 52.9915 110.768 53.3172ZM116.813 55.5898C116.392 55.5898 116.03 55.497 115.725 55.3114C115.422 55.124 115.188 54.8626 115.023 54.5274C114.86 54.1903 114.779 53.7983 114.779 53.3513C114.779 52.9044 114.86 52.5104 115.023 52.1696C115.188 51.8268 115.417 51.5597 115.711 51.3685C116.006 51.1753 116.351 51.0787 116.745 51.0787C116.972 51.0787 117.196 51.1166 117.418 51.1923C117.639 51.2681 117.841 51.3912 118.023 51.5616C118.205 51.7302 118.35 51.9537 118.458 52.2321C118.566 52.5104 118.62 52.8532 118.62 53.2604V53.5445H115.256V52.965H117.938C117.938 52.7188 117.889 52.4991 117.79 52.3059C117.693 52.1127 117.555 51.9603 117.375 51.8486C117.197 51.7368 116.987 51.6809 116.745 51.6809C116.478 51.6809 116.247 51.7472 116.051 51.8798C115.858 52.0105 115.71 52.1809 115.605 52.3911C115.501 52.6014 115.449 52.8267 115.449 53.0672V53.4536C115.449 53.7831 115.506 54.0625 115.62 54.2916C115.735 54.5189 115.895 54.6922 116.1 54.8115C116.304 54.9289 116.542 54.9876 116.813 54.9876C116.989 54.9876 117.148 54.963 117.29 54.9137C117.434 54.8626 117.558 54.7868 117.662 54.6865C117.766 54.5842 117.847 54.4573 117.904 54.3058L118.551 54.4876C118.483 54.7073 118.369 54.9005 118.208 55.0671C118.047 55.2319 117.848 55.3607 117.611 55.4535C117.374 55.5444 117.108 55.5898 116.813 55.5898ZM120.31 52.8741V55.4989H119.639V51.1355H120.287V51.8173H120.344C120.446 51.5957 120.601 51.4177 120.81 51.2832C121.018 51.1469 121.287 51.0787 121.617 51.0787C121.912 51.0787 122.17 51.1393 122.392 51.2605C122.614 51.3798 122.786 51.5616 122.909 51.8059C123.032 52.0484 123.094 52.3552 123.094 52.7263V55.4989H122.423V52.7718C122.423 52.429 122.334 52.162 122.156 51.9707C121.978 51.7775 121.734 51.6809 121.423 51.6809C121.209 51.6809 121.018 51.7273 120.85 51.8201C120.683 51.9129 120.551 52.0484 120.455 52.2264C120.358 52.4044 120.31 52.6203 120.31 52.8741ZM127.853 55.6012C127.576 55.6012 127.325 55.5491 127.1 55.445C126.875 55.3389 126.696 55.1864 126.563 54.9876C126.43 54.7868 126.364 54.5444 126.364 54.2604C126.364 54.0104 126.413 53.8077 126.512 53.6524C126.61 53.4952 126.742 53.3721 126.907 53.2831C127.072 53.1941 127.253 53.1278 127.452 53.0843C127.653 53.0388 127.855 53.0028 128.057 52.9763C128.322 52.9422 128.537 52.9167 128.702 52.8996C128.869 52.8807 128.99 52.8494 129.066 52.8059C129.143 52.7623 129.182 52.6866 129.182 52.5786V52.5559C129.182 52.2756 129.106 52.0578 128.952 51.9025C128.801 51.7472 128.57 51.6696 128.262 51.6696C127.942 51.6696 127.691 51.7397 127.509 51.8798C127.327 52.0199 127.199 52.1696 127.125 52.3286L126.489 52.1014C126.603 51.8362 126.754 51.6298 126.944 51.4821C127.135 51.3325 127.343 51.2283 127.569 51.1696C127.796 51.109 128.019 51.0787 128.239 51.0787C128.379 51.0787 128.54 51.0957 128.722 51.1298C128.906 51.162 129.083 51.2293 129.253 51.3315C129.426 51.4338 129.569 51.5881 129.682 51.7946C129.796 52.001 129.853 52.2775 129.853 52.6241V55.4989H129.182V54.9081H129.148C129.103 55.0027 129.027 55.1041 128.921 55.212C128.815 55.32 128.674 55.4118 128.498 55.4876C128.321 55.5633 128.106 55.6012 127.853 55.6012ZM127.955 54.999C128.22 54.999 128.444 54.9469 128.625 54.8427C128.809 54.7386 128.947 54.6041 129.04 54.4393C129.135 54.2746 129.182 54.1013 129.182 53.9195V53.3059C129.154 53.34 129.091 53.3712 128.995 53.3996C128.9 53.4261 128.79 53.4498 128.665 53.4706C128.542 53.4896 128.422 53.5066 128.304 53.5218C128.189 53.535 128.095 53.5464 128.023 53.5558C127.849 53.5786 127.686 53.6155 127.535 53.6666C127.385 53.7159 127.264 53.7907 127.171 53.8911C127.08 53.9895 127.035 54.124 127.035 54.2944C127.035 54.5274 127.121 54.7035 127.293 54.8228C127.467 54.9402 127.688 54.999 127.955 54.999ZM131.076 55.4989V51.1355H131.724V51.7946H131.769C131.849 51.5787 131.993 51.4035 132.201 51.269C132.41 51.1346 132.644 51.0673 132.906 51.0673C132.955 51.0673 133.017 51.0683 133.09 51.0702C133.164 51.0721 133.22 51.0749 133.258 51.0787V51.7605C133.235 51.7548 133.183 51.7463 133.102 51.7349C133.022 51.7217 132.938 51.715 132.849 51.715C132.637 51.715 132.447 51.7595 132.281 51.8486C132.116 51.9357 131.985 52.0569 131.889 52.2122C131.794 52.3656 131.747 52.5407 131.747 52.7377V55.4989H131.076ZM135.693 55.5898C135.299 55.5898 134.953 55.4961 134.656 55.3086C134.36 55.1211 134.129 54.8588 133.962 54.5217C133.798 54.1846 133.715 53.7907 133.715 53.34C133.715 52.8854 133.798 52.4887 133.962 52.1497C134.129 51.8107 134.36 51.5474 134.656 51.3599C134.953 51.1724 135.299 51.0787 135.693 51.0787C136.086 51.0787 136.431 51.1724 136.727 51.3599C137.024 51.5474 137.255 51.8107 137.42 52.1497C137.586 52.4887 137.67 52.8854 137.67 53.34C137.67 53.7907 137.586 54.1846 137.42 54.5217C137.255 54.8588 137.024 55.1211 136.727 55.3086C136.431 55.4961 136.086 55.5898 135.693 55.5898ZM135.693 54.9876C135.992 54.9876 136.238 54.9109 136.431 54.7575C136.624 54.6041 136.767 54.4024 136.86 54.1524C136.953 53.9024 136.999 53.6316 136.999 53.34C136.999 53.0483 136.953 52.7765 136.86 52.5247C136.767 52.2728 136.624 52.0692 136.431 51.9139C136.238 51.7586 135.992 51.6809 135.693 51.6809C135.393 51.6809 135.147 51.7586 134.954 51.9139C134.761 52.0692 134.618 52.2728 134.525 52.5247C134.432 52.7765 134.386 53.0483 134.386 53.34C134.386 53.6316 134.432 53.9024 134.525 54.1524C134.618 54.4024 134.761 54.6041 134.954 54.7575C135.147 54.9109 135.393 54.9876 135.693 54.9876ZM141.443 53.7149V51.1355H142.113V55.4989H141.443V54.7603H141.397C141.295 54.9819 141.136 55.1704 140.92 55.3256C140.704 55.479 140.432 55.5557 140.102 55.5557C139.829 55.5557 139.587 55.4961 139.375 55.3768C139.163 55.2556 138.996 55.0738 138.875 54.8314C138.754 54.587 138.693 54.2793 138.693 53.9081V51.1355H139.363V53.8627C139.363 54.1808 139.453 54.4346 139.631 54.624C139.81 54.8134 140.04 54.9081 140.318 54.9081C140.485 54.9081 140.654 54.8654 140.826 54.7802C141.001 54.695 141.147 54.5643 141.264 54.3882C141.383 54.2121 141.443 53.9876 141.443 53.7149ZM144.012 52.8741V55.4989H143.341V51.1355H143.989V51.8173H144.046C144.148 51.5957 144.303 51.4177 144.512 51.2832C144.72 51.1469 144.989 51.0787 145.318 51.0787C145.614 51.0787 145.872 51.1393 146.094 51.2605C146.316 51.3798 146.488 51.5616 146.611 51.8059C146.734 52.0484 146.796 52.3552 146.796 52.7263V55.4989H146.125V52.7718C146.125 52.429 146.036 52.162 145.858 51.9707C145.68 51.7775 145.436 51.6809 145.125 51.6809C144.911 51.6809 144.72 51.7273 144.551 51.8201C144.385 51.9129 144.253 52.0484 144.157 52.2264C144.06 52.4044 144.012 52.6203 144.012 52.8741ZM149.668 55.5898C149.305 55.5898 148.984 55.498 148.705 55.3143C148.427 55.1287 148.209 54.8673 148.052 54.5302C147.895 54.1912 147.816 53.7907 147.816 53.3286C147.816 52.8703 147.895 52.4726 148.052 52.1355C148.209 51.7984 148.428 51.538 148.708 51.3543C148.988 51.1706 149.312 51.0787 149.68 51.0787C149.964 51.0787 150.188 51.126 150.353 51.2207C150.52 51.3135 150.647 51.4196 150.734 51.5389C150.823 51.6563 150.892 51.7529 150.941 51.8287H150.998V49.681H151.668V55.4989H151.021V54.8285H150.941C150.892 54.9081 150.822 55.0084 150.731 55.1296C150.64 55.2489 150.51 55.3559 150.342 55.4506C150.173 55.5434 149.949 55.5898 149.668 55.5898ZM149.759 54.9876C150.028 54.9876 150.255 54.9175 150.441 54.7774C150.627 54.6353 150.768 54.4393 150.864 54.1893C150.961 53.9375 151.009 53.6468 151.009 53.3172C151.009 52.9915 150.962 52.7065 150.867 52.4622C150.772 52.216 150.632 52.0247 150.447 51.8883C150.261 51.7501 150.032 51.6809 149.759 51.6809C149.475 51.6809 149.238 51.7539 149.049 51.8997C148.862 52.0436 148.72 52.2396 148.626 52.4877C148.533 52.7339 148.487 53.0104 148.487 53.3172C148.487 53.6278 148.534 53.91 148.629 54.1638C148.725 54.4157 148.867 54.6164 149.055 54.766C149.244 54.9137 149.479 54.9876 149.759 54.9876ZM157.557 49.681H158.262V53.8399C158.262 54.2111 158.194 54.5264 158.057 54.7859C157.921 55.0454 157.729 55.2423 157.48 55.3768C157.232 55.5112 156.94 55.5785 156.603 55.5785C156.285 55.5785 156.001 55.5207 155.753 55.4052C155.505 55.2878 155.31 55.1211 155.168 54.9052C155.026 54.6893 154.955 54.4327 154.955 54.1354H155.648C155.648 54.3001 155.689 54.4441 155.77 54.5672C155.854 54.6884 155.967 54.7831 156.111 54.8512C156.255 54.9194 156.419 54.9535 156.603 54.9535C156.805 54.9535 156.978 54.9109 157.12 54.8257C157.262 54.7404 157.37 54.6155 157.444 54.4507C157.519 54.284 157.557 54.0804 157.557 53.8399V49.681ZM162.332 53.7149V51.1355H163.003V55.4989H162.332V54.7603H162.287C162.185 54.9819 162.026 55.1704 161.81 55.3256C161.594 55.479 161.321 55.5557 160.992 55.5557C160.719 55.5557 160.477 55.4961 160.264 55.3768C160.052 55.2556 159.886 55.0738 159.764 54.8314C159.643 54.587 159.583 54.2793 159.583 53.9081V51.1355H160.253V53.8627C160.253 54.1808 160.342 54.4346 160.52 54.624C160.7 54.8134 160.929 54.9081 161.208 54.9081C161.374 54.9081 161.544 54.8654 161.716 54.7802C161.89 54.695 162.036 54.5643 162.154 54.3882C162.273 54.2121 162.332 53.9876 162.332 53.7149ZM164.901 49.681V55.4989H164.231V49.681H164.901ZM166.561 57.1352C166.447 57.1352 166.346 57.1257 166.257 57.1068C166.168 57.0898 166.106 57.0727 166.072 57.0557L166.243 56.4648C166.406 56.5065 166.55 56.5216 166.675 56.5102C166.8 56.4989 166.91 56.443 167.007 56.3426C167.105 56.2442 167.195 56.0841 167.277 55.8625L167.402 55.5217L165.788 51.1355H166.516L167.72 54.6126H167.765L168.97 51.1355H169.697L167.845 56.1353C167.762 56.3606 167.658 56.5472 167.535 56.6949C167.412 56.8445 167.269 56.9553 167.106 57.0273C166.945 57.0992 166.764 57.1352 166.561 57.1352ZM174.661 55.5898C174.241 55.5898 173.878 55.497 173.573 55.3114C173.27 55.124 173.036 54.8626 172.872 54.5274C172.709 54.1903 172.627 53.7983 172.627 53.3513C172.627 52.9044 172.709 52.5104 172.872 52.1696C173.036 51.8268 173.266 51.5597 173.559 51.3685C173.855 51.1753 174.199 51.0787 174.593 51.0787C174.82 51.0787 175.045 51.1166 175.266 51.1923C175.488 51.2681 175.69 51.3912 175.872 51.5616C176.053 51.7302 176.198 51.9537 176.306 52.2321C176.414 52.5104 176.468 52.8532 176.468 53.2604V53.5445H173.105V52.965H175.786C175.786 52.7188 175.737 52.4991 175.639 52.3059C175.542 52.1127 175.404 51.9603 175.224 51.8486C175.046 51.7368 174.836 51.6809 174.593 51.6809C174.326 51.6809 174.095 51.7472 173.9 51.8798C173.707 52.0105 173.558 52.1809 173.454 52.3911C173.35 52.6014 173.298 52.8267 173.298 53.0672V53.4536C173.298 53.7831 173.355 54.0625 173.468 54.2916C173.584 54.5189 173.744 54.6922 173.948 54.8115C174.153 54.9289 174.391 54.9876 174.661 54.9876C174.838 54.9876 174.997 54.963 175.139 54.9137C175.283 54.8626 175.407 54.7868 175.511 54.6865C175.615 54.5842 175.695 54.4573 175.752 54.3058L176.4 54.4876C176.332 54.7073 176.217 54.9005 176.056 55.0671C175.895 55.2319 175.696 55.3607 175.46 55.4535C175.223 55.5444 174.957 55.5898 174.661 55.5898ZM178.772 55.6012C178.495 55.6012 178.245 55.5491 178.019 55.445C177.794 55.3389 177.615 55.1864 177.482 54.9876C177.35 54.7868 177.283 54.5444 177.283 54.2604C177.283 54.0104 177.333 53.8077 177.431 53.6524C177.53 53.4952 177.661 53.3721 177.826 53.2831C177.991 53.1941 178.173 53.1278 178.371 53.0843C178.572 53.0388 178.774 53.0028 178.977 52.9763C179.242 52.9422 179.457 52.9167 179.621 52.8996C179.788 52.8807 179.909 52.8494 179.985 52.8059C180.063 52.7623 180.101 52.6866 180.101 52.5786V52.5559C180.101 52.2756 180.025 52.0578 179.871 51.9025C179.72 51.7472 179.49 51.6696 179.181 51.6696C178.861 51.6696 178.61 51.7397 178.428 51.8798C178.246 52.0199 178.119 52.1696 178.045 52.3286L177.408 52.1014C177.522 51.8362 177.674 51.6298 177.863 51.4821C178.054 51.3325 178.263 51.2283 178.488 51.1696C178.715 51.109 178.939 51.0787 179.158 51.0787C179.298 51.0787 179.459 51.0957 179.641 51.1298C179.825 51.162 180.002 51.2293 180.172 51.3315C180.345 51.4338 180.488 51.5881 180.601 51.7946C180.715 52.001 180.772 52.2775 180.772 52.6241V55.4989H180.101V54.9081H180.067C180.022 55.0027 179.946 55.1041 179.84 55.212C179.734 55.32 179.593 55.4118 179.417 55.4876C179.241 55.5633 179.026 55.6012 178.772 55.6012ZM178.874 54.999C179.139 54.999 179.363 54.9469 179.545 54.8427C179.728 54.7386 179.867 54.6041 179.959 54.4393C180.054 54.2746 180.101 54.1013 180.101 53.9195V53.3059C180.073 53.34 180.011 53.3712 179.914 53.3996C179.819 53.4261 179.709 53.4498 179.584 53.4706C179.461 53.4896 179.341 53.5066 179.224 53.5218C179.108 53.535 179.014 53.5464 178.942 53.5558C178.768 53.5786 178.605 53.6155 178.454 53.6666C178.304 53.7159 178.183 53.7907 178.09 53.8911C177.999 53.9895 177.954 54.124 177.954 54.2944C177.954 54.5274 178.04 54.7035 178.212 54.8228C178.387 54.9402 178.607 54.999 178.874 54.999ZM183.768 55.5898C183.359 55.5898 183.007 55.4933 182.711 55.3001C182.416 55.1069 182.189 54.8408 182.03 54.5018C181.871 54.1628 181.791 53.7755 181.791 53.34C181.791 52.8968 181.872 52.5057 182.035 52.1667C182.2 51.8258 182.429 51.5597 182.723 51.3685C183.018 51.1753 183.363 51.0787 183.757 51.0787C184.064 51.0787 184.34 51.1355 184.586 51.2491C184.833 51.3628 185.034 51.5219 185.191 51.7264C185.349 51.9309 185.446 52.1696 185.484 52.4423H184.814C184.762 52.2434 184.649 52.0673 184.473 51.9139C184.298 51.7586 184.064 51.6809 183.768 51.6809C183.507 51.6809 183.278 51.7491 183.081 51.8855C182.886 52.0199 182.733 52.2103 182.623 52.4565C182.515 52.7008 182.461 52.9877 182.461 53.3172C182.461 53.6543 182.514 53.9479 182.621 54.1979C182.728 54.4478 182.88 54.642 183.075 54.7802C183.272 54.9185 183.503 54.9876 183.768 54.9876C183.942 54.9876 184.101 54.9573 184.243 54.8967C184.385 54.8361 184.505 54.749 184.603 54.6353C184.702 54.5217 184.772 54.3854 184.814 54.2263H185.484C185.446 54.4838 185.352 54.7158 185.203 54.9223C185.055 55.1268 184.859 55.2897 184.615 55.4109C184.372 55.5302 184.09 55.5898 183.768 55.5898ZM187.134 52.8741V55.4989H186.464V49.681H187.134V51.8173H187.191C187.294 51.5919 187.447 51.413 187.652 51.2804C187.858 51.1459 188.133 51.0787 188.475 51.0787C188.773 51.0787 189.033 51.1384 189.257 51.2577C189.48 51.3751 189.653 51.556 189.776 51.8003C189.901 52.0427 189.964 52.3514 189.964 52.7263V55.4989H189.293V52.7718C189.293 52.4252 189.204 52.1572 189.024 51.9679C188.846 51.7766 188.598 51.6809 188.282 51.6809C188.062 51.6809 187.866 51.7273 187.691 51.8201C187.519 51.9129 187.383 52.0484 187.282 52.2264C187.184 52.4044 187.134 52.6203 187.134 52.8741ZM193.872 57.1352C193.758 57.1352 193.657 57.1257 193.568 57.1068C193.479 57.0898 193.418 57.0727 193.383 57.0557L193.554 56.4648C193.717 56.5065 193.861 56.5216 193.986 56.5102C194.111 56.4989 194.221 56.443 194.318 56.3426C194.417 56.2442 194.507 56.0841 194.588 55.8625L194.713 55.5217L193.099 51.1355H193.827L195.031 54.6126H195.077L196.281 51.1355H197.008L195.156 56.1353C195.073 56.3606 194.97 56.5472 194.846 56.6949C194.723 56.8445 194.58 56.9553 194.418 57.0273C194.257 57.0992 194.075 57.1352 193.872 57.1352ZM199.566 55.5898C199.146 55.5898 198.783 55.497 198.478 55.3114C198.175 55.124 197.941 54.8626 197.777 54.5274C197.614 54.1903 197.532 53.7983 197.532 53.3513C197.532 52.9044 197.614 52.5104 197.777 52.1696C197.941 51.8268 198.171 51.5597 198.464 51.3685C198.76 51.1753 199.104 51.0787 199.498 51.0787C199.725 51.0787 199.95 51.1166 200.171 51.1923C200.393 51.2681 200.595 51.3912 200.777 51.5616C200.958 51.7302 201.103 51.9537 201.211 52.2321C201.319 52.5104 201.373 52.8532 201.373 53.2604V53.5445H198.01V52.965H200.691C200.691 52.7188 200.642 52.4991 200.544 52.3059C200.447 52.1127 200.309 51.9603 200.129 51.8486C199.951 51.7368 199.741 51.6809 199.498 51.6809C199.231 51.6809 199 51.7472 198.805 51.8798C198.612 52.0105 198.463 52.1809 198.359 52.3911C198.255 52.6014 198.203 52.8267 198.203 53.0672V53.4536C198.203 53.7831 198.26 54.0625 198.373 54.2916C198.489 54.5189 198.649 54.6922 198.853 54.8115C199.058 54.9289 199.296 54.9876 199.566 54.9876C199.743 54.9876 199.902 54.963 200.044 54.9137C200.188 54.8626 200.312 54.7868 200.416 54.6865C200.52 54.5842 200.6 54.4573 200.657 54.3058L201.305 54.4876C201.237 54.7073 201.122 54.9005 200.961 55.0671C200.8 55.2319 200.601 55.3607 200.365 55.4535C200.128 55.5444 199.862 55.5898 199.566 55.5898ZM203.677 55.6012C203.4 55.6012 203.15 55.5491 202.924 55.445C202.699 55.3389 202.52 55.1864 202.387 54.9876C202.255 54.7868 202.188 54.5444 202.188 54.2604C202.188 54.0104 202.238 53.8077 202.336 53.6524C202.435 53.4952 202.566 53.3721 202.731 53.2831C202.896 53.1941 203.078 53.1278 203.276 53.0843C203.477 53.0388 203.679 53.0028 203.882 52.9763C204.147 52.9422 204.362 52.9167 204.526 52.8996C204.693 52.8807 204.814 52.8494 204.89 52.8059C204.968 52.7623 205.006 52.6866 205.006 52.5786V52.5559C205.006 52.2756 204.93 52.0578 204.776 51.9025C204.625 51.7472 204.395 51.6696 204.086 51.6696C203.766 51.6696 203.515 51.7397 203.333 51.8798C203.151 52.0199 203.024 52.1696 202.95 52.3286L202.313 52.1014C202.427 51.8362 202.579 51.6298 202.768 51.4821C202.959 51.3325 203.168 51.2283 203.393 51.1696C203.62 51.109 203.844 51.0787 204.063 51.0787C204.203 51.0787 204.364 51.0957 204.546 51.1298C204.73 51.162 204.907 51.2293 205.077 51.3315C205.25 51.4338 205.393 51.5881 205.506 51.7946C205.62 52.001 205.677 52.2775 205.677 52.6241V55.4989H205.006V54.9081H204.972C204.927 55.0027 204.851 55.1041 204.745 55.212C204.639 55.32 204.498 55.4118 204.322 55.4876C204.146 55.5633 203.931 55.6012 203.677 55.6012ZM203.779 54.999C204.044 54.999 204.268 54.9469 204.45 54.8427C204.633 54.7386 204.772 54.6041 204.864 54.4393C204.959 54.2746 205.006 54.1013 205.006 53.9195V53.3059C204.978 53.34 204.916 53.3712 204.819 53.3996C204.724 53.4261 204.614 53.4498 204.489 53.4706C204.366 53.4896 204.246 53.5066 204.129 53.5218C204.013 53.535 203.919 53.5464 203.847 53.5558C203.673 53.5786 203.51 53.6155 203.359 53.6666C203.209 53.7159 203.088 53.7907 202.995 53.8911C202.904 53.9895 202.859 54.124 202.859 54.2944C202.859 54.5274 202.945 54.7035 203.117 54.8228C203.292 54.9402 203.512 54.999 203.779 54.999ZM206.901 55.4989V51.1355H207.548V51.7946H207.594C207.673 51.5787 207.817 51.4035 208.025 51.269C208.234 51.1346 208.469 51.0673 208.73 51.0673C208.779 51.0673 208.841 51.0683 208.915 51.0702C208.988 51.0721 209.044 51.0749 209.082 51.0787V51.7605C209.059 51.7548 209.007 51.7463 208.926 51.7349C208.846 51.7217 208.762 51.715 208.673 51.715C208.461 51.715 208.272 51.7595 208.105 51.8486C207.94 51.9357 207.81 52.0569 207.713 52.2122C207.618 52.3656 207.571 52.5407 207.571 52.7377V55.4989H206.901ZM209.866 55.5444C209.725 55.5444 209.605 55.4942 209.505 55.3938C209.404 55.2934 209.354 55.1732 209.354 55.033C209.354 54.8929 209.404 54.7726 209.505 54.6723C209.605 54.5719 209.725 54.5217 209.866 54.5217C210.006 54.5217 210.126 54.5719 210.226 54.6723C210.327 54.7726 210.377 54.8929 210.377 55.033C210.377 55.1258 210.353 55.2111 210.306 55.2887C210.26 55.3664 210.199 55.4289 210.121 55.4762C210.045 55.5217 209.96 55.5444 209.866 55.5444Z" fill="#374151"/>
</g>
<rect x="0.75" y="0.75" width="163.5" height="55.5" rx="4.75" stroke="#EDEDED" stroke-width="1.5"/>
<defs>
<clipPath id="clip0_22712_376416">
<rect x="1.5" y="1.5" width="162" height="54" rx="4" fill="white"/>
</clipPath>
</defs>
</svg>
