<svg width="165" height="57" viewBox="0 0 165 57" fill="none" xmlns="http://www.w3.org/2000/svg">
<g clip-path="url(#clip0_22570_369233)">
<rect x="1.5" y="1.5" width="162" height="54" rx="4" fill="white"/>
<rect x="13.988" y="13.988" width="334.735" height="28.5904" rx="3.41566" fill="#FEF7C3"/>
<rect x="13.988" y="13.988" width="334.735" height="28.5904" rx="3.41566" stroke="#FAC515" stroke-width="0.975904"/>
<path d="M30.0674 23.259C27.3895 23.259 25.2108 25.448 25.2108 28.1385C25.2108 30.8291 27.3998 33.018 30.0903 33.018C32.7809 33.018 34.9699 30.8291 34.9699 28.1385C34.9699 25.448 32.7707 23.259 30.0674 23.259ZM30.0903 32.0421C27.938 32.0421 26.1867 30.2909 26.1867 28.1385C26.1867 25.9862 27.9272 24.2349 30.0674 24.2349C32.2329 24.2349 33.9939 25.9862 33.9939 28.1385C33.9939 30.2909 32.2427 32.0421 30.0903 32.0421Z" fill="#FAC515"/>
<path d="M29.6024 25.6987H30.5783V29.1144H29.6024V25.6987ZM29.6024 29.6023H30.5783V30.5782H29.6024V29.6023Z" fill="#FAC515"/>
<path d="M42.7217 25.6051L44.4073 30.3849H44.4739L46.1595 25.6051H46.8803L44.7955 31.2831H44.0857L42.0008 25.6051H42.7217ZM49.0096 31.3718C48.6251 31.3718 48.2878 31.2804 47.9976 31.0974C47.7093 30.9144 47.4838 30.6584 47.3212 30.3294C47.1604 30.0004 47.08 29.616 47.08 29.1761C47.08 28.7325 47.1604 28.3453 47.3212 28.0144C47.4838 27.6836 47.7093 27.4266 47.9976 27.2437C48.2878 27.0607 48.6251 26.9692 49.0096 26.9692C49.394 26.9692 49.7304 27.0607 50.0188 27.2437C50.3089 27.4266 50.5344 27.6836 50.6952 28.0144C50.8579 28.3453 50.9392 28.7325 50.9392 29.1761C50.9392 29.616 50.8579 30.0004 50.6952 30.3294C50.5344 30.6584 50.3089 30.9144 50.0188 31.0974C49.7304 31.2804 49.394 31.3718 49.0096 31.3718ZM49.0096 30.7841C49.3016 30.7841 49.5419 30.7092 49.7304 30.5595C49.919 30.4098 50.0585 30.213 50.1491 29.969C50.2396 29.725 50.2849 29.4607 50.2849 29.1761C50.2849 28.8914 50.2396 28.6262 50.1491 28.3804C50.0585 28.1345 49.919 27.9359 49.7304 27.7843C49.5419 27.6327 49.3016 27.5569 49.0096 27.5569C48.7176 27.5569 48.4773 27.6327 48.2887 27.7843C48.1002 27.9359 47.9607 28.1345 47.8701 28.3804C47.7795 28.6262 47.7343 28.8914 47.7343 29.1761C47.7343 29.4607 47.7795 29.725 47.8701 29.969C47.9607 30.213 48.1002 30.4098 48.2887 30.5595C48.4773 30.7092 48.7176 30.7841 49.0096 30.7841ZM54.6217 29.542V27.0246H55.276V31.2831H54.6217V30.5623H54.5774C54.4776 30.7785 54.3223 30.9624 54.1116 31.114C53.9009 31.2637 53.6347 31.3386 53.3131 31.3386C53.047 31.3386 52.8104 31.2804 52.6034 31.1639C52.3964 31.0456 52.2337 30.8682 52.1154 30.6316C51.9971 30.3932 51.938 30.0928 51.938 29.7306V27.0246H52.5923V29.6862C52.5923 29.9967 52.6792 30.2444 52.8529 30.4292C53.0285 30.614 53.2521 30.7065 53.5238 30.7065C53.6865 30.7065 53.8519 30.6649 54.0201 30.5817C54.1901 30.4985 54.3325 30.371 54.4471 30.1991C54.5635 30.0272 54.6217 29.8082 54.6217 29.542ZM58.2044 31.3718C57.8052 31.3718 57.4614 31.2776 57.1731 31.0891C56.8847 30.9005 56.6629 30.6408 56.5077 30.31C56.3524 29.9791 56.2748 29.6012 56.2748 29.1761C56.2748 28.7436 56.3543 28.3619 56.5132 28.031C56.674 27.6983 56.8977 27.4387 57.1842 27.252C57.4725 27.0635 57.8089 26.9692 58.1933 26.9692C58.4928 26.9692 58.7626 27.0246 59.0029 27.1355C59.2432 27.2464 59.44 27.4017 59.5934 27.6013C59.7468 27.8009 59.842 28.0338 59.879 28.3H59.2247C59.1748 28.1059 59.0639 27.934 58.892 27.7843C58.722 27.6327 58.4928 27.5569 58.2044 27.5569C57.9494 27.5569 57.7257 27.6235 57.5335 27.7566C57.3431 27.8878 57.1943 28.0735 57.0871 28.3138C56.9818 28.5523 56.9291 28.8323 56.9291 29.1539C56.9291 29.4829 56.9809 29.7694 57.0844 30.0133C57.1897 30.2573 57.3376 30.4468 57.528 30.5817C57.7202 30.7166 57.9457 30.7841 58.2044 30.7841C58.3745 30.7841 58.5288 30.7545 58.6674 30.6954C58.8061 30.6362 58.9234 30.5512 59.0195 30.4403C59.1156 30.3294 59.184 30.1963 59.2247 30.0411H59.879C59.842 30.2924 59.7505 30.5189 59.6045 30.7203C59.4604 30.9199 59.2691 31.0789 59.0306 31.1972C58.794 31.3136 58.5186 31.3718 58.2044 31.3718ZM61.4898 28.7214V31.2831H60.8355V25.6051H61.4898V27.69H61.5452C61.645 27.4701 61.7948 27.2954 61.9944 27.166C62.1958 27.0348 62.4638 26.9692 62.7984 26.9692C63.0886 26.9692 63.3427 27.0274 63.5608 27.1439C63.7789 27.2584 63.948 27.435 64.0682 27.6734C64.1902 27.91 64.2511 28.2112 64.2511 28.5772V31.2831H63.5969V28.6216C63.5969 28.2833 63.5091 28.0218 63.3335 27.837C63.1597 27.6503 62.9185 27.5569 62.6099 27.5569C62.3955 27.5569 62.2032 27.6022 62.0332 27.6928C61.865 27.7834 61.7319 27.9155 61.634 28.0893C61.5378 28.263 61.4898 28.4737 61.4898 28.7214ZM67.2336 31.3718C66.8233 31.3718 66.4693 31.2813 66.1718 31.1001C65.876 30.9172 65.6478 30.6621 65.487 30.3349C65.328 30.0059 65.2485 29.6234 65.2485 29.1872C65.2485 28.751 65.328 28.3665 65.487 28.0338C65.6478 27.6993 65.8714 27.4387 66.1579 27.252C66.4462 27.0635 66.7826 26.9692 67.1671 26.9692C67.3889 26.9692 67.6079 27.0062 67.8241 27.0801C68.0404 27.154 68.2372 27.2742 68.4147 27.4405C68.5921 27.605 68.7335 27.8231 68.8389 28.0948C68.9442 28.3665 68.9969 28.701 68.9969 29.0984V29.3757H65.7143V28.8101H68.3315C68.3315 28.5698 68.2835 28.3554 68.1873 28.1669C68.0931 27.9784 67.9582 27.8296 67.7826 27.7205C67.6088 27.6115 67.4037 27.5569 67.1671 27.5569C66.9065 27.5569 66.681 27.6216 66.4906 27.751C66.3021 27.8786 66.157 28.0449 66.0553 28.2501C65.9537 28.4552 65.9028 28.6752 65.9028 28.9099V29.287C65.9028 29.6086 65.9583 29.8812 66.0692 30.1048C66.1819 30.3266 66.3381 30.4958 66.5377 30.6122C66.7373 30.7268 66.9693 30.7841 67.2336 30.7841C67.4055 30.7841 67.5608 30.7601 67.6994 30.712C67.8399 30.6621 67.9609 30.5882 68.0626 30.4902C68.1642 30.3904 68.2428 30.2666 68.2982 30.1187L68.9304 30.2961C68.8638 30.5105 68.752 30.6991 68.5949 30.8617C68.4378 31.0225 68.2437 31.1482 68.0127 31.2388C67.7816 31.3275 67.522 31.3718 67.2336 31.3718ZM69.9922 31.2831V27.0246H70.6243V27.6678H70.6687C70.7463 27.4571 70.8868 27.2862 71.0901 27.1549C71.2934 27.0237 71.5226 26.9581 71.7777 26.9581C71.8257 26.9581 71.8858 26.959 71.9579 26.9609C72.03 26.9627 72.0845 26.9655 72.1215 26.9692V27.6346C72.0993 27.629 72.0484 27.6207 71.969 27.6096C71.8913 27.5967 71.8091 27.5902 71.7222 27.5902C71.5152 27.5902 71.3304 27.6337 71.1677 27.7205C71.0069 27.8055 70.8794 27.9238 70.7851 28.0754C70.6927 28.2251 70.6465 28.3961 70.6465 28.5883V31.2831H69.9922ZM75.9135 27.9784L75.3257 28.1447C75.2887 28.0467 75.2342 27.9516 75.1621 27.8591C75.0919 27.7649 74.9958 27.6873 74.8738 27.6263C74.7518 27.5653 74.5956 27.5348 74.4053 27.5348C74.1446 27.5348 73.9275 27.5948 73.7537 27.715C73.5818 27.8333 73.4959 27.9839 73.4959 28.1669C73.4959 28.3295 73.555 28.458 73.6733 28.5523C73.7916 28.6465 73.9765 28.7251 74.2278 28.7879L74.8599 28.9432C75.2407 29.0356 75.5244 29.177 75.7111 29.3674C75.8978 29.5559 75.9911 29.7989 75.9911 30.0965C75.9911 30.3405 75.9209 30.5586 75.7804 30.7508C75.6418 30.943 75.4477 31.0946 75.1982 31.2055C74.9487 31.3164 74.6585 31.3718 74.3276 31.3718C73.8933 31.3718 73.5338 31.2776 73.2491 31.0891C72.9645 30.9005 72.7843 30.6251 72.7085 30.2629L73.3295 30.1076C73.3887 30.3368 73.5005 30.5087 73.665 30.6233C73.8314 30.7379 74.0485 30.7952 74.3165 30.7952C74.6215 30.7952 74.8636 30.7305 75.0429 30.6011C75.2241 30.4699 75.3146 30.3128 75.3146 30.1298C75.3146 29.9819 75.2629 29.8581 75.1594 29.7583C75.0559 29.6566 74.8969 29.5808 74.6825 29.5309L73.9728 29.3646C73.5828 29.2722 73.2963 29.1289 73.1133 28.9349C72.9322 28.7389 72.8416 28.494 72.8416 28.2002C72.8416 27.9599 72.9091 27.7473 73.044 27.5625C73.1808 27.3777 73.3665 27.2326 73.6012 27.1272C73.8378 27.0219 74.1058 26.9692 74.4053 26.9692C74.8267 26.9692 75.1575 27.0616 75.3978 27.2464C75.6399 27.4313 75.8118 27.6752 75.9135 27.9784ZM81.0682 27.0246V27.5791H78.7726V27.0246H81.0682ZM79.4601 31.2831V26.4369C79.4601 26.1929 79.5174 25.9896 79.632 25.8269C79.7466 25.6643 79.8954 25.5423 80.0784 25.461C80.2614 25.3796 80.4545 25.339 80.6578 25.339C80.8186 25.339 80.9499 25.3519 81.0515 25.3778C81.1532 25.4037 81.229 25.4277 81.2789 25.4499L81.0903 26.0155C81.0571 26.0044 81.0109 25.9905 80.9517 25.9739C80.8944 25.9572 80.8186 25.9489 80.7244 25.9489C80.5081 25.9489 80.3519 26.0035 80.2558 26.1125C80.1616 26.2216 80.1144 26.3814 80.1144 26.5921V31.2831H79.4601ZM81.9851 31.2831V27.0246H82.6173V27.6678H82.6616C82.7393 27.4571 82.8797 27.2862 83.083 27.1549C83.2864 27.0237 83.5155 26.9581 83.7706 26.9581C83.8187 26.9581 83.8787 26.959 83.9508 26.9609C84.0229 26.9627 84.0774 26.9655 84.1144 26.9692V27.6346C84.0922 27.629 84.0414 27.6207 83.9619 27.6096C83.8843 27.5967 83.802 27.5902 83.7152 27.5902C83.5082 27.5902 83.3233 27.6337 83.1607 27.7205C82.9999 27.8055 82.8723 27.9238 82.7781 28.0754C82.6857 28.2251 82.6394 28.3961 82.6394 28.5883V31.2831H81.9851ZM86.4904 31.3718C86.1059 31.3718 85.7686 31.2804 85.4784 31.0974C85.1901 30.9144 84.9646 30.6584 84.802 30.3294C84.6412 30.0004 84.5608 29.616 84.5608 29.1761C84.5608 28.7325 84.6412 28.3453 84.802 28.0144C84.9646 27.6836 85.1901 27.4266 85.4784 27.2437C85.7686 27.0607 86.1059 26.9692 86.4904 26.9692C86.8748 26.9692 87.2112 27.0607 87.4996 27.2437C87.7897 27.4266 88.0152 27.6836 88.176 28.0144C88.3387 28.3453 88.42 28.7325 88.42 29.1761C88.42 29.616 88.3387 30.0004 88.176 30.3294C88.0152 30.6584 87.7897 30.9144 87.4996 31.0974C87.2112 31.2804 86.8748 31.3718 86.4904 31.3718ZM86.4904 30.7841C86.7824 30.7841 87.0227 30.7092 87.2112 30.5595C87.3997 30.4098 87.5393 30.213 87.6299 29.969C87.7204 29.725 87.7657 29.4607 87.7657 29.1761C87.7657 28.8914 87.7204 28.6262 87.6299 28.3804C87.5393 28.1345 87.3997 27.9359 87.2112 27.7843C87.0227 27.6327 86.7824 27.5569 86.4904 27.5569C86.1984 27.5569 85.9581 27.6327 85.7695 27.7843C85.581 27.9359 85.4415 28.1345 85.3509 28.3804C85.2603 28.6262 85.2151 28.8914 85.2151 29.1761C85.2151 29.4607 85.2603 29.725 85.3509 29.969C85.4415 30.213 85.581 30.4098 85.7695 30.5595C85.9581 30.7092 86.1984 30.7841 86.4904 30.7841ZM89.4188 31.2831V27.0246H90.0509V27.69H90.1064C90.1951 27.4627 90.3383 27.2862 90.5361 27.1605C90.7339 27.033 90.9714 26.9692 91.2486 26.9692C91.5295 26.9692 91.7634 27.033 91.95 27.1605C92.1386 27.2862 92.2855 27.4627 92.3909 27.69H92.4352C92.5443 27.4701 92.7078 27.2954 92.9259 27.166C93.144 27.0348 93.4056 26.9692 93.7105 26.9692C94.0913 26.9692 94.4027 27.0884 94.6449 27.3268C94.887 27.5634 95.0081 27.9322 95.0081 28.433V31.2831H94.3538V28.433C94.3538 28.1188 94.2678 27.8943 94.0959 27.7593C93.924 27.6244 93.7216 27.5569 93.4888 27.5569C93.1893 27.5569 92.9574 27.6475 92.7929 27.8286C92.6284 28.0079 92.5461 28.2353 92.5461 28.5107V31.2831H91.8807V28.3665C91.8807 28.1244 91.8022 27.9294 91.6451 27.7815C91.488 27.6318 91.2856 27.5569 91.0379 27.5569C90.8679 27.5569 90.7089 27.6022 90.561 27.6928C90.415 27.7834 90.2967 27.9091 90.2062 28.0699C90.1174 28.2288 90.0731 28.4127 90.0731 28.6216V31.2831H89.4188ZM100.252 27.0246V27.5791H98.0453V27.0246H100.252ZM98.6885 26.0044H99.3428V30.0632C99.3428 30.2481 99.3696 30.3867 99.4232 30.4791C99.4786 30.5697 99.5489 30.6307 99.6339 30.6621C99.7208 30.6917 99.8123 30.7065 99.9084 30.7065C99.9804 30.7065 100.04 30.7028 100.086 30.6954C100.132 30.6861 100.169 30.6787 100.197 30.6732L100.33 31.2609C100.285 31.2776 100.224 31.2942 100.144 31.3109C100.065 31.3293 99.9638 31.3386 99.8418 31.3386C99.657 31.3386 99.4759 31.2988 99.2984 31.2194C99.1228 31.1399 98.9768 31.0188 98.8604 30.8562C98.7458 30.6935 98.6885 30.4884 98.6885 30.2407V26.0044ZM101.982 28.7214V31.2831H101.328V25.6051H101.982V27.69H102.038C102.137 27.4701 102.287 27.2954 102.487 27.166C102.688 27.0348 102.956 26.9692 103.291 26.9692C103.581 26.9692 103.835 27.0274 104.053 27.1439C104.271 27.2584 104.44 27.435 104.561 27.6734C104.683 27.91 104.744 28.2112 104.744 28.5772V31.2831H104.089V28.6216C104.089 28.2833 104.001 28.0218 103.826 27.837C103.652 27.6503 103.411 27.5569 103.102 27.5569C102.888 27.5569 102.696 27.6022 102.526 27.6928C102.357 27.7834 102.224 27.9155 102.126 28.0893C102.03 28.263 101.982 28.4737 101.982 28.7214ZM105.941 31.2831V27.0246H106.595V31.2831H105.941ZM106.273 26.3149C106.146 26.3149 106.036 26.2715 105.943 26.1846C105.853 26.0977 105.807 25.9933 105.807 25.8713C105.807 25.7493 105.853 25.6449 105.943 25.558C106.036 25.4711 106.146 25.4277 106.273 25.4277C106.401 25.4277 106.51 25.4711 106.6 25.558C106.693 25.6449 106.739 25.7493 106.739 25.8713C106.739 25.9933 106.693 26.0977 106.6 26.1846C106.51 26.2715 106.401 26.3149 106.273 26.3149ZM110.81 27.9784L110.222 28.1447C110.185 28.0467 110.13 27.9516 110.058 27.8591C109.988 27.7649 109.892 27.6873 109.77 27.6263C109.648 27.5653 109.492 27.5348 109.301 27.5348C109.041 27.5348 108.824 27.5948 108.65 27.715C108.478 27.8333 108.392 27.9839 108.392 28.1669C108.392 28.3295 108.451 28.458 108.57 28.5523C108.688 28.6465 108.873 28.7251 109.124 28.7879L109.756 28.9432C110.137 29.0356 110.421 29.177 110.607 29.3674C110.794 29.5559 110.887 29.7989 110.887 30.0965C110.887 30.3405 110.817 30.5586 110.677 30.7508C110.538 30.943 110.344 31.0946 110.094 31.2055C109.845 31.3164 109.555 31.3718 109.224 31.3718C108.789 31.3718 108.43 31.2776 108.145 31.0891C107.861 30.9005 107.68 30.6251 107.605 30.2629L108.226 30.1076C108.285 30.3368 108.397 30.5087 108.561 30.6233C108.728 30.7379 108.945 30.7952 109.213 30.7952C109.518 30.7952 109.76 30.7305 109.939 30.6011C110.12 30.4699 110.211 30.3128 110.211 30.1298C110.211 29.9819 110.159 29.8581 110.056 29.7583C109.952 29.6566 109.793 29.5808 109.579 29.5309L108.869 29.3646C108.479 29.2722 108.192 29.1289 108.009 28.9349C107.828 28.7389 107.738 28.494 107.738 28.2002C107.738 27.9599 107.805 27.7473 107.94 27.5625C108.077 27.3777 108.263 27.2326 108.497 27.1272C108.734 27.0219 109.002 26.9692 109.301 26.9692C109.723 26.9692 110.054 27.0616 110.294 27.2464C110.536 27.4313 110.708 27.6752 110.81 27.9784ZM114.489 32.8801C114.378 32.8801 114.28 32.8708 114.193 32.8523C114.106 32.8357 114.046 32.8191 114.013 32.8024L114.179 32.2258C114.338 32.2664 114.478 32.2812 114.6 32.2701C114.722 32.259 114.83 32.2045 114.925 32.1065C115.021 32.0104 115.109 31.8543 115.188 31.638L115.31 31.3053L113.735 27.0246H114.445L115.621 30.4181H115.665L116.84 27.0246H117.55L115.743 31.9042C115.661 32.1241 115.56 32.3062 115.44 32.4503C115.32 32.5963 115.181 32.7045 115.022 32.7747C114.865 32.8449 114.687 32.8801 114.489 32.8801ZM120.047 31.3718C119.636 31.3718 119.282 31.2813 118.985 31.1001C118.689 30.9172 118.461 30.6621 118.3 30.3349C118.141 30.0059 118.062 29.6234 118.062 29.1872C118.062 28.751 118.141 28.3665 118.3 28.0338C118.461 27.6993 118.685 27.4387 118.971 27.252C119.259 27.0635 119.596 26.9692 119.98 26.9692C120.202 26.9692 120.421 27.0062 120.637 27.0801C120.854 27.154 121.05 27.2742 121.228 27.4405C121.405 27.605 121.547 27.8231 121.652 28.0948C121.757 28.3665 121.81 28.701 121.81 29.0984V29.3757H118.527V28.8101H121.145C121.145 28.5698 121.097 28.3554 121 28.1669C120.906 27.9784 120.771 27.8296 120.596 27.7205C120.422 27.6115 120.217 27.5569 119.98 27.5569C119.72 27.5569 119.494 27.6216 119.304 27.751C119.115 27.8786 118.97 28.0449 118.868 28.2501C118.767 28.4552 118.716 28.6752 118.716 28.9099V29.287C118.716 29.6086 118.771 29.8812 118.882 30.1048C118.995 30.3266 119.151 30.4958 119.351 30.6122C119.551 30.7268 119.782 30.7841 120.047 30.7841C120.219 30.7841 120.374 30.7601 120.513 30.712C120.653 30.6621 120.774 30.5882 120.876 30.4902C120.977 30.3904 121.056 30.2666 121.111 30.1187L121.744 30.2961C121.677 30.5105 121.565 30.6991 121.408 30.8617C121.251 31.0225 121.057 31.1482 120.826 31.2388C120.595 31.3275 120.335 31.3718 120.047 31.3718ZM124.059 31.3829C123.789 31.3829 123.544 31.3321 123.324 31.2305C123.104 31.1269 122.929 30.9782 122.8 30.7841C122.67 30.5882 122.606 30.3516 122.606 30.0743C122.606 29.8304 122.654 29.6326 122.75 29.481C122.846 29.3276 122.974 29.2075 123.135 29.1206C123.296 29.0337 123.474 28.9691 123.668 28.9265C123.864 28.8822 124.06 28.8471 124.258 28.8212C124.517 28.7879 124.727 28.763 124.887 28.7463C125.05 28.7278 125.168 28.6974 125.242 28.6548C125.318 28.6123 125.356 28.5384 125.356 28.433V28.4109C125.356 28.1373 125.281 27.9248 125.131 27.7732C124.984 27.6216 124.759 27.5459 124.458 27.5459C124.145 27.5459 123.9 27.6142 123.723 27.751C123.546 27.8878 123.421 28.0338 123.349 28.1891L122.728 27.9673C122.839 27.7085 122.986 27.507 123.171 27.3629C123.358 27.2169 123.561 27.1152 123.781 27.0579C124.003 26.9988 124.221 26.9692 124.436 26.9692C124.572 26.9692 124.729 26.9858 124.907 27.0191C125.086 27.0505 125.259 27.1161 125.425 27.2159C125.594 27.3157 125.733 27.4664 125.844 27.6678C125.955 27.8693 126.01 28.1392 126.01 28.4774V31.2831H125.356V30.7065H125.323C125.278 30.7989 125.204 30.8978 125.101 31.0031C124.997 31.1085 124.86 31.1981 124.688 31.272C124.516 31.346 124.306 31.3829 124.059 31.3829ZM124.158 30.7952C124.417 30.7952 124.635 30.7443 124.813 30.6427C124.992 30.541 125.127 30.4098 125.217 30.249C125.31 30.0882 125.356 29.9191 125.356 29.7416V29.1428C125.328 29.1761 125.267 29.2066 125.173 29.2343C125.081 29.2602 124.973 29.2833 124.851 29.3036C124.731 29.3221 124.614 29.3387 124.499 29.3535C124.387 29.3664 124.295 29.3775 124.225 29.3868C124.055 29.4089 123.896 29.445 123.748 29.4949C123.602 29.543 123.484 29.616 123.393 29.7139C123.304 29.81 123.26 29.9413 123.26 30.1076C123.26 30.3349 123.344 30.5068 123.512 30.6233C123.682 30.7379 123.898 30.7952 124.158 30.7952ZM127.205 31.2831V27.0246H127.837V27.6678H127.881C127.959 27.4571 128.099 27.2862 128.302 27.1549C128.506 27.0237 128.735 26.9581 128.99 26.9581C129.038 26.9581 129.098 26.959 129.17 26.9609C129.242 26.9627 129.297 26.9655 129.334 26.9692V27.6346C129.312 27.629 129.261 27.6207 129.181 27.6096C129.104 27.5967 129.021 27.5902 128.935 27.5902C128.728 27.5902 128.543 27.6337 128.38 27.7205C128.219 27.8055 128.092 27.9238 127.997 28.0754C127.905 28.2251 127.859 28.3961 127.859 28.5883V31.2831H127.205ZM133.558 31.3829C133.288 31.3829 133.044 31.3321 132.824 31.2305C132.604 31.1269 132.429 30.9782 132.3 30.7841C132.17 30.5882 132.106 30.3516 132.106 30.0743C132.106 29.8304 132.154 29.6326 132.25 29.481C132.346 29.3276 132.474 29.2075 132.635 29.1206C132.796 29.0337 132.973 28.9691 133.167 28.9265C133.363 28.8822 133.56 28.8471 133.758 28.8212C134.017 28.7879 134.226 28.763 134.387 28.7463C134.55 28.7278 134.668 28.6974 134.742 28.6548C134.818 28.6123 134.856 28.5384 134.856 28.433V28.4109C134.856 28.1373 134.781 27.9248 134.631 27.7732C134.483 27.6216 134.259 27.5459 133.958 27.5459C133.645 27.5459 133.4 27.6142 133.223 27.751C133.045 27.8878 132.921 28.0338 132.849 28.1891L132.228 27.9673C132.338 27.7085 132.486 27.507 132.671 27.3629C132.858 27.2169 133.061 27.1152 133.281 27.0579C133.503 26.9988 133.721 26.9692 133.935 26.9692C134.072 26.9692 134.229 26.9858 134.407 27.0191C134.586 27.0505 134.759 27.1161 134.925 27.2159C135.093 27.3157 135.233 27.4664 135.344 27.6678C135.455 27.8693 135.51 28.1392 135.51 28.4774V31.2831H134.856V30.7065H134.823C134.778 30.7989 134.704 30.8978 134.601 31.0031C134.497 31.1085 134.36 31.1981 134.188 31.272C134.016 31.346 133.806 31.3829 133.558 31.3829ZM133.658 30.7952C133.917 30.7952 134.135 30.7443 134.312 30.6427C134.492 30.541 134.627 30.4098 134.717 30.249C134.81 30.0882 134.856 29.9191 134.856 29.7416V29.1428C134.828 29.1761 134.767 29.2066 134.673 29.2343C134.58 29.2602 134.473 29.2833 134.351 29.3036C134.231 29.3221 134.114 29.3387 133.999 29.3535C133.886 29.3664 133.795 29.3775 133.725 29.3868C133.555 29.4089 133.396 29.445 133.248 29.4949C133.102 29.543 132.984 29.616 132.893 29.7139C132.804 29.81 132.76 29.9413 132.76 30.1076C132.76 30.3349 132.844 30.5068 133.012 30.6233C133.182 30.7379 133.398 30.7952 133.658 30.7952ZM136.704 31.2831V27.0246H137.336V27.6678H137.381C137.458 27.4571 137.599 27.2862 137.802 27.1549C138.006 27.0237 138.235 26.9581 138.49 26.9581C138.538 26.9581 138.598 26.959 138.67 26.9609C138.742 26.9627 138.797 26.9655 138.834 26.9692V27.6346C138.811 27.629 138.761 27.6207 138.681 27.6096C138.603 27.5967 138.521 27.5902 138.434 27.5902C138.227 27.5902 138.043 27.6337 137.88 27.7205C137.719 27.8055 137.592 27.9238 137.497 28.0754C137.405 28.2251 137.359 28.3961 137.359 28.5883V31.2831H136.704ZM141.265 31.3718C140.855 31.3718 140.501 31.2813 140.203 31.1001C139.907 30.9172 139.679 30.6621 139.518 30.3349C139.359 30.0059 139.28 29.6234 139.28 29.1872C139.28 28.751 139.359 28.3665 139.518 28.0338C139.679 27.6993 139.903 27.4387 140.189 27.252C140.478 27.0635 140.814 26.9692 141.199 26.9692C141.42 26.9692 141.639 27.0062 141.856 27.0801C142.072 27.154 142.269 27.2742 142.446 27.4405C142.624 27.605 142.765 27.8231 142.87 28.0948C142.976 28.3665 143.028 28.701 143.028 29.0984V29.3757H139.746V28.8101H142.363C142.363 28.5698 142.315 28.3554 142.219 28.1669C142.125 27.9784 141.99 27.8296 141.814 27.7205C141.64 27.6115 141.435 27.5569 141.199 27.5569C140.938 27.5569 140.712 27.6216 140.522 27.751C140.334 27.8786 140.188 28.0449 140.087 28.2501C139.985 28.4552 139.934 28.6752 139.934 28.9099V29.287C139.934 29.6086 139.99 29.8812 140.101 30.1048C140.213 30.3266 140.37 30.4958 140.569 30.6122C140.769 30.7268 141.001 30.7841 141.265 30.7841C141.437 30.7841 141.592 30.7601 141.731 30.712C141.871 30.6621 141.992 30.5882 142.094 30.4902C142.196 30.3904 142.274 30.2666 142.33 30.1187L142.962 30.2961C142.895 30.5105 142.783 30.6991 142.626 30.8617C142.469 31.0225 142.275 31.1482 142.044 31.2388C141.813 31.3275 141.553 31.3718 141.265 31.3718ZM148.005 31.3718C147.595 31.3718 147.241 31.2813 146.943 31.1001C146.647 30.9172 146.419 30.6621 146.258 30.3349C146.099 30.0059 146.02 29.6234 146.02 29.1872C146.02 28.751 146.099 28.3665 146.258 28.0338C146.419 27.6993 146.643 27.4387 146.929 27.252C147.218 27.0635 147.554 26.9692 147.938 26.9692C148.16 26.9692 148.379 27.0062 148.595 27.0801C148.812 27.154 149.009 27.2742 149.186 27.4405C149.363 27.605 149.505 27.8231 149.61 28.0948C149.715 28.3665 149.768 28.701 149.768 29.0984V29.3757H146.486V28.8101H149.103C149.103 28.5698 149.055 28.3554 148.959 28.1669C148.864 27.9784 148.729 27.8296 148.554 27.7205C148.38 27.6115 148.175 27.5569 147.938 27.5569C147.678 27.5569 147.452 27.6216 147.262 27.751C147.073 27.8786 146.928 28.0449 146.827 28.2501C146.725 28.4552 146.674 28.6752 146.674 28.9099V29.287C146.674 29.6086 146.73 29.8812 146.84 30.1048C146.953 30.3266 147.109 30.4958 147.309 30.6122C147.509 30.7268 147.741 30.7841 148.005 30.7841C148.177 30.7841 148.332 30.7601 148.471 30.712C148.611 30.6621 148.732 30.5882 148.834 30.4902C148.936 30.3904 149.014 30.2666 149.07 30.1187L149.702 30.2961C149.635 30.5105 149.523 30.6991 149.366 30.8617C149.209 31.0225 149.015 31.1482 148.784 31.2388C148.553 31.3275 148.293 31.3718 148.005 31.3718ZM151.137 27.0246L152.157 28.7657L153.178 27.0246H153.932L152.557 29.1539L153.932 31.2831H153.178L152.157 29.6307L151.137 31.2831H150.383L151.736 29.1539L150.383 27.0246H151.137ZM154.865 32.8801V27.0246H155.497V27.7011H155.575C155.623 27.6272 155.69 27.5329 155.775 27.4183C155.862 27.3019 155.985 27.1984 156.146 27.1078C156.309 27.0154 156.529 26.9692 156.806 26.9692C157.165 26.9692 157.481 27.0588 157.754 27.2381C158.028 27.4174 158.241 27.6715 158.395 28.0005C158.548 28.3295 158.625 28.7177 158.625 29.165C158.625 29.616 158.548 30.0069 158.395 30.3377C158.241 30.6667 158.029 30.9218 157.757 31.1029C157.485 31.2822 157.172 31.3718 156.817 31.3718C156.544 31.3718 156.325 31.3266 156.16 31.236C155.996 31.1436 155.869 31.0392 155.78 30.9227C155.692 30.8044 155.623 30.7065 155.575 30.6288H155.52V32.8801H154.865ZM155.509 29.1539C155.509 29.4755 155.556 29.7592 155.65 30.005C155.744 30.249 155.882 30.4403 156.063 30.5789C156.244 30.7157 156.466 30.7841 156.728 30.7841C157.002 30.7841 157.23 30.712 157.413 30.5678C157.598 30.4218 157.737 30.2259 157.829 29.9801C157.923 29.7324 157.97 29.457 157.97 29.1539C157.97 28.8545 157.924 28.5846 157.832 28.3443C157.741 28.1022 157.604 27.9109 157.419 27.7704C157.236 27.6281 157.006 27.5569 156.728 27.5569C156.462 27.5569 156.239 27.6244 156.057 27.7593C155.876 27.8924 155.74 28.0791 155.647 28.3194C155.555 28.5578 155.509 28.836 155.509 29.1539ZM159.623 31.2831V27.0246H160.277V31.2831H159.623ZM159.956 26.3149C159.828 26.3149 159.718 26.2715 159.626 26.1846C159.535 26.0977 159.49 25.9933 159.49 25.8713C159.49 25.7493 159.535 25.6449 159.626 25.558C159.718 25.4711 159.828 25.4277 159.956 25.4277C160.083 25.4277 160.192 25.4711 160.283 25.558C160.375 25.6449 160.421 25.7493 160.421 25.8713C160.421 25.9933 160.375 26.0977 160.283 26.1846C160.192 26.2715 160.083 26.3149 159.956 26.3149ZM161.476 31.2831V27.0246H162.108V27.6678H162.152C162.23 27.4571 162.37 27.2862 162.573 27.1549C162.777 27.0237 163.006 26.9581 163.261 26.9581C163.309 26.9581 163.369 26.959 163.441 26.9609C163.513 26.9627 163.568 26.9655 163.605 26.9692V27.6346C163.583 27.629 163.532 27.6207 163.452 27.6096C163.375 27.5967 163.292 27.5902 163.206 27.5902C162.999 27.5902 162.814 27.6337 162.651 27.7205C162.49 27.8055 162.363 27.9238 162.268 28.0754C162.176 28.2251 162.13 28.3961 162.13 28.5883V31.2831H161.476ZM164.38 31.2831V27.0246H165.035V31.2831H164.38ZM164.713 26.3149C164.586 26.3149 164.476 26.2715 164.383 26.1846C164.293 26.0977 164.247 25.9933 164.247 25.8713C164.247 25.7493 164.293 25.6449 164.383 25.558C164.476 25.4711 164.586 25.4277 164.713 25.4277C164.841 25.4277 164.95 25.4711 165.04 25.558C165.133 25.6449 165.179 25.7493 165.179 25.8713C165.179 25.9933 165.133 26.0977 165.04 26.1846C164.95 26.2715 164.841 26.3149 164.713 26.3149ZM166.887 28.7214V31.2831H166.233V27.0246H166.865V27.69H166.921C167.02 27.4738 167.172 27.3 167.375 27.1688C167.579 27.0357 167.841 26.9692 168.163 26.9692C168.451 26.9692 168.703 27.0283 168.92 27.1466C169.136 27.2631 169.304 27.4405 169.424 27.6789C169.544 27.9155 169.604 28.2149 169.604 28.5772V31.2831H168.95V28.6216C168.95 28.287 168.863 28.0264 168.689 27.8397C168.516 27.6512 168.277 27.5569 167.974 27.5569C167.765 27.5569 167.579 27.6022 167.414 27.6928C167.251 27.7834 167.123 27.9155 167.029 28.0893C166.935 28.263 166.887 28.4737 166.887 28.7214ZM172.519 32.9688C172.203 32.9688 171.931 32.9281 171.704 32.8468C171.476 32.7673 171.287 32.662 171.135 32.5307C170.986 32.4013 170.867 32.2627 170.778 32.1149L171.299 31.7489C171.358 31.8265 171.433 31.9152 171.524 32.0151C171.614 32.1167 171.738 32.2045 171.895 32.2784C172.054 32.3542 172.262 32.3921 172.519 32.3921C172.863 32.3921 173.146 32.3089 173.37 32.1426C173.594 31.9762 173.706 31.7156 173.706 31.3608V30.4958H173.65C173.602 30.5734 173.534 30.6695 173.445 30.7841C173.358 30.8968 173.232 30.9976 173.068 31.0863C172.905 31.1732 172.685 31.2166 172.408 31.2166C172.064 31.2166 171.756 31.1353 171.482 30.9726C171.21 30.81 170.995 30.5734 170.836 30.2629C170.679 29.9523 170.6 29.5753 170.6 29.1317C170.6 28.6955 170.677 28.3157 170.83 27.9922C170.984 27.6669 171.197 27.4156 171.471 27.2381C171.744 27.0588 172.061 26.9692 172.419 26.9692C172.696 26.9692 172.916 27.0154 173.079 27.1078C173.243 27.1984 173.369 27.3019 173.456 27.4183C173.545 27.5329 173.613 27.6272 173.661 27.7011H173.728V27.0246H174.36V31.4051C174.36 31.7711 174.277 32.0687 174.11 32.2978C173.946 32.5289 173.724 32.698 173.445 32.8052C173.168 32.9143 172.859 32.9688 172.519 32.9688ZM172.497 30.6288C172.759 30.6288 172.981 30.5688 173.162 30.4486C173.343 30.3285 173.481 30.1557 173.575 29.9302C173.669 29.7047 173.717 29.4348 173.717 29.1206C173.717 28.8138 173.67 28.543 173.578 28.3083C173.486 28.0735 173.349 27.8896 173.168 27.7566C172.987 27.6235 172.763 27.5569 172.497 27.5569C172.219 27.5569 171.988 27.6272 171.804 27.7677C171.621 27.9081 171.483 28.0967 171.391 28.3332C171.3 28.5698 171.255 28.8323 171.255 29.1206C171.255 29.4163 171.301 29.6779 171.393 29.9052C171.488 30.1307 171.626 30.3081 171.809 30.4375C171.994 30.5651 172.223 30.6288 172.497 30.6288ZM180.77 27.9784L180.182 28.1447C180.145 28.0467 180.09 27.9516 180.018 27.8591C179.948 27.7649 179.852 27.6873 179.73 27.6263C179.608 27.5653 179.452 27.5348 179.262 27.5348C179.001 27.5348 178.784 27.5948 178.61 27.715C178.438 27.8333 178.352 27.9839 178.352 28.1669C178.352 28.3295 178.411 28.458 178.53 28.5523C178.648 28.6465 178.833 28.7251 179.084 28.7879L179.716 28.9432C180.097 29.0356 180.381 29.177 180.567 29.3674C180.754 29.5559 180.847 29.7989 180.847 30.0965C180.847 30.3405 180.777 30.5586 180.637 30.7508C180.498 30.943 180.304 31.0946 180.054 31.2055C179.805 31.3164 179.515 31.3718 179.184 31.3718C178.75 31.3718 178.39 31.2776 178.105 31.0891C177.821 30.9005 177.641 30.6251 177.565 30.2629L178.186 30.1076C178.245 30.3368 178.357 30.5087 178.521 30.6233C178.688 30.7379 178.905 30.7952 179.173 30.7952C179.478 30.7952 179.72 30.7305 179.899 30.6011C180.08 30.4699 180.171 30.3128 180.171 30.1298C180.171 29.9819 180.119 29.8581 180.016 29.7583C179.912 29.6566 179.753 29.5808 179.539 29.5309L178.829 29.3646C178.439 29.2722 178.153 29.1289 177.97 28.9349C177.788 28.7389 177.698 28.494 177.698 28.2002C177.698 27.9599 177.765 27.7473 177.9 27.5625C178.037 27.3777 178.223 27.2326 178.458 27.1272C178.694 27.0219 178.962 26.9692 179.262 26.9692C179.683 26.9692 180.014 27.0616 180.254 27.2464C180.496 27.4313 180.668 27.6752 180.77 27.9784ZM183.562 31.3718C183.178 31.3718 182.841 31.2804 182.55 31.0974C182.262 30.9144 182.037 30.6584 181.874 30.3294C181.713 30.0004 181.633 29.616 181.633 29.1761C181.633 28.7325 181.713 28.3453 181.874 28.0144C182.037 27.6836 182.262 27.4266 182.55 27.2437C182.841 27.0607 183.178 26.9692 183.562 26.9692C183.947 26.9692 184.283 27.0607 184.571 27.2437C184.862 27.4266 185.087 27.6836 185.248 28.0144C185.411 28.3453 185.492 28.7325 185.492 29.1761C185.492 29.616 185.411 30.0004 185.248 30.3294C185.087 30.6584 184.862 30.9144 184.571 31.0974C184.283 31.2804 183.947 31.3718 183.562 31.3718ZM183.562 30.7841C183.854 30.7841 184.095 30.7092 184.283 30.5595C184.472 30.4098 184.611 30.213 184.702 29.969C184.792 29.725 184.838 29.4607 184.838 29.1761C184.838 28.8914 184.792 28.6262 184.702 28.3804C184.611 28.1345 184.472 27.9359 184.283 27.7843C184.095 27.6327 183.854 27.5569 183.562 27.5569C183.27 27.5569 183.03 27.6327 182.841 27.7843C182.653 27.9359 182.513 28.1345 182.423 28.3804C182.332 28.6262 182.287 28.8914 182.287 29.1761C182.287 29.4607 182.332 29.725 182.423 29.969C182.513 30.213 182.653 30.4098 182.841 30.5595C183.03 30.7092 183.27 30.7841 183.562 30.7841ZM188.221 31.3718C187.836 31.3718 187.499 31.2804 187.209 31.0974C186.92 30.9144 186.695 30.6584 186.532 30.3294C186.371 30.0004 186.291 29.616 186.291 29.1761C186.291 28.7325 186.371 28.3453 186.532 28.0144C186.695 27.6836 186.92 27.4266 187.209 27.2437C187.499 27.0607 187.836 26.9692 188.221 26.9692C188.605 26.9692 188.942 27.0607 189.23 27.2437C189.52 27.4266 189.746 27.6836 189.906 28.0144C190.069 28.3453 190.15 28.7325 190.15 29.1761C190.15 29.616 190.069 30.0004 189.906 30.3294C189.746 30.6584 189.52 30.9144 189.23 31.0974C188.942 31.2804 188.605 31.3718 188.221 31.3718ZM188.221 30.7841C188.513 30.7841 188.753 30.7092 188.942 30.5595C189.13 30.4098 189.27 30.213 189.36 29.969C189.451 29.725 189.496 29.4607 189.496 29.1761C189.496 28.8914 189.451 28.6262 189.36 28.3804C189.27 28.1345 189.13 27.9359 188.942 27.7843C188.753 27.6327 188.513 27.5569 188.221 27.5569C187.929 27.5569 187.688 27.6327 187.5 27.7843C187.311 27.9359 187.172 28.1345 187.081 28.3804C186.991 28.6262 186.945 28.8914 186.945 29.1761C186.945 29.4607 186.991 29.725 187.081 29.969C187.172 30.213 187.311 30.4098 187.5 30.5595C187.688 30.7092 187.929 30.7841 188.221 30.7841ZM191.803 28.7214V31.2831H191.149V27.0246H191.781V27.69H191.837C191.936 27.4738 192.088 27.3 192.291 27.1688C192.495 27.0357 192.757 26.9692 193.079 26.9692C193.367 26.9692 193.619 27.0283 193.836 27.1466C194.052 27.2631 194.22 27.4405 194.34 27.6789C194.46 27.9155 194.52 28.2149 194.52 28.5772V31.2831H193.866V28.6216C193.866 28.287 193.779 28.0264 193.606 27.8397C193.432 27.6512 193.193 27.5569 192.89 27.5569C192.681 27.5569 192.495 27.6022 192.33 27.6928C192.168 27.7834 192.039 27.9155 191.945 28.0893C191.851 28.263 191.803 28.4737 191.803 28.7214ZM196.193 31.3275C196.056 31.3275 195.939 31.2785 195.841 31.1805C195.743 31.0826 195.694 30.9652 195.694 30.8284C195.694 30.6917 195.743 30.5743 195.841 30.4763C195.939 30.3784 196.056 30.3294 196.193 30.3294C196.33 30.3294 196.447 30.3784 196.545 30.4763C196.643 30.5743 196.692 30.6917 196.692 30.8284C196.692 30.919 196.669 31.0022 196.623 31.078C196.578 31.1537 196.518 31.2147 196.442 31.2609C196.368 31.3053 196.285 31.3275 196.193 31.3275ZM203.877 25.6051H204.564V29.3646C204.564 29.7527 204.473 30.0993 204.29 30.4043C204.109 30.7074 203.853 30.9467 203.522 31.1223C203.191 31.2961 202.803 31.3829 202.357 31.3829C201.912 31.3829 201.524 31.2961 201.193 31.1223C200.862 30.9467 200.605 30.7074 200.422 30.4043C200.241 30.0993 200.151 29.7527 200.151 29.3646V25.6051H200.838V29.3091C200.838 29.5864 200.899 29.8331 201.021 30.0494C201.143 30.2638 201.317 30.4329 201.542 30.5567C201.77 30.6787 202.041 30.7397 202.357 30.7397C202.674 30.7397 202.945 30.6787 203.173 30.5567C203.4 30.4329 203.574 30.2638 203.694 30.0494C203.816 29.8331 203.877 29.5864 203.877 29.3091V25.6051ZM208.865 27.9784L208.277 28.1447C208.24 28.0467 208.186 27.9516 208.114 27.8591C208.044 27.7649 207.947 27.6873 207.825 27.6263C207.703 27.5653 207.547 27.5348 207.357 27.5348C207.096 27.5348 206.879 27.5948 206.705 27.715C206.533 27.8333 206.448 27.9839 206.448 28.1669C206.448 28.3295 206.507 28.458 206.625 28.5523C206.743 28.6465 206.928 28.7251 207.179 28.7879L207.812 28.9432C208.192 29.0356 208.476 29.177 208.663 29.3674C208.849 29.5559 208.943 29.7989 208.943 30.0965C208.943 30.3405 208.872 30.5586 208.732 30.7508C208.593 30.943 208.399 31.0946 208.15 31.2055C207.9 31.3164 207.61 31.3718 207.279 31.3718C206.845 31.3718 206.485 31.2776 206.201 31.0891C205.916 30.9005 205.736 30.6251 205.66 30.2629L206.281 30.1076C206.34 30.3368 206.452 30.5087 206.617 30.6233C206.783 30.7379 207 30.7952 207.268 30.7952C207.573 30.7952 207.815 30.7305 207.995 30.6011C208.176 30.4699 208.266 30.3128 208.266 30.1298C208.266 29.9819 208.214 29.8581 208.111 29.7583C208.007 29.6566 207.849 29.5808 207.634 29.5309L206.924 29.3646C206.534 29.2722 206.248 29.1289 206.065 28.9349C205.884 28.7389 205.793 28.494 205.793 28.2002C205.793 27.9599 205.861 27.7473 205.996 27.5625C206.132 27.3777 206.318 27.2326 206.553 27.1272C206.789 27.0219 207.057 26.9692 207.357 26.9692C207.778 26.9692 208.109 27.0616 208.349 27.2464C208.592 27.4313 208.763 27.6752 208.865 27.9784ZM211.713 31.3718C211.303 31.3718 210.949 31.2813 210.651 31.1001C210.356 30.9172 210.127 30.6621 209.966 30.3349C209.807 30.0059 209.728 29.6234 209.728 29.1872C209.728 28.751 209.807 28.3665 209.966 28.0338C210.127 27.6993 210.351 27.4387 210.637 27.252C210.926 27.0635 211.262 26.9692 211.647 26.9692C211.868 26.9692 212.087 27.0062 212.304 27.0801C212.52 27.154 212.717 27.2742 212.894 27.4405C213.072 27.605 213.213 27.8231 213.318 28.0948C213.424 28.3665 213.476 28.701 213.476 29.0984V29.3757H210.194V28.8101H212.811C212.811 28.5698 212.763 28.3554 212.667 28.1669C212.573 27.9784 212.438 27.8296 212.262 27.7205C212.088 27.6115 211.883 27.5569 211.647 27.5569C211.386 27.5569 211.16 27.6216 210.97 27.751C210.782 27.8786 210.636 28.0449 210.535 28.2501C210.433 28.4552 210.382 28.6752 210.382 28.9099V29.287C210.382 29.6086 210.438 29.8812 210.549 30.1048C210.661 30.3266 210.818 30.4958 211.017 30.6122C211.217 30.7268 211.449 30.7841 211.713 30.7841C211.885 30.7841 212.04 30.7601 212.179 30.712C212.319 30.6621 212.44 30.5882 212.542 30.4902C212.644 30.3904 212.722 30.2666 212.778 30.1187L213.41 30.2961C213.343 30.5105 213.231 30.6991 213.074 30.8617C212.917 31.0225 212.723 31.1482 212.492 31.2388C212.261 31.3275 212.001 31.3718 211.713 31.3718ZM218.519 27.0246V27.5791H216.313V27.0246H218.519ZM216.956 26.0044H217.61V30.0632C217.61 30.2481 217.637 30.3867 217.691 30.4791C217.746 30.5697 217.816 30.6307 217.901 30.6621C217.988 30.6917 218.08 30.7065 218.176 30.7065C218.248 30.7065 218.307 30.7028 218.353 30.6954C218.399 30.6861 218.436 30.6787 218.464 30.6732L218.597 31.2609C218.553 31.2776 218.491 31.2942 218.411 31.3109C218.332 31.3293 218.231 31.3386 218.109 31.3386C217.924 31.3386 217.743 31.2988 217.566 31.2194C217.39 31.1399 217.244 31.0188 217.128 30.8562C217.013 30.6935 216.956 30.4884 216.956 30.2407V26.0044ZM220.249 28.7214V31.2831H219.595V25.6051H220.249V27.69H220.305C220.405 27.4701 220.554 27.2954 220.754 27.166C220.956 27.0348 221.224 26.9692 221.558 26.9692C221.848 26.9692 222.102 27.0274 222.32 27.1439C222.539 27.2584 222.708 27.435 222.828 27.6734C222.95 27.91 223.011 28.2112 223.011 28.5772V31.2831H222.357V28.6216C222.357 28.2833 222.269 28.0218 222.093 27.837C221.919 27.6503 221.678 27.5569 221.37 27.5569C221.155 27.5569 220.963 27.6022 220.793 27.6928C220.625 27.7834 220.492 27.9155 220.394 28.0893C220.298 28.263 220.249 28.4737 220.249 28.7214ZM225.993 31.3718C225.583 31.3718 225.229 31.2813 224.931 31.1001C224.636 30.9172 224.407 30.6621 224.247 30.3349C224.088 30.0059 224.008 29.6234 224.008 29.1872C224.008 28.751 224.088 28.3665 224.247 28.0338C224.407 27.6993 224.631 27.4387 224.918 27.252C225.206 27.0635 225.542 26.9692 225.927 26.9692C226.149 26.9692 226.368 27.0062 226.584 27.0801C226.8 27.154 226.997 27.2742 227.174 27.4405C227.352 27.605 227.493 27.8231 227.599 28.0948C227.704 28.3665 227.757 28.701 227.757 29.0984V29.3757H224.474V28.8101H227.091C227.091 28.5698 227.043 28.3554 226.947 28.1669C226.853 27.9784 226.718 27.8296 226.542 27.7205C226.369 27.6115 226.163 27.5569 225.927 27.5569C225.666 27.5569 225.441 27.6216 225.25 27.751C225.062 27.8786 224.917 28.0449 224.815 28.2501C224.713 28.4552 224.663 28.6752 224.663 28.9099V29.287C224.663 29.6086 224.718 29.8812 224.829 30.1048C224.942 30.3266 225.098 30.4958 225.297 30.6122C225.497 30.7268 225.729 30.7841 225.993 30.7841C226.165 30.7841 226.32 30.7601 226.459 30.712C226.6 30.6621 226.721 30.5882 226.822 30.4902C226.924 30.3904 227.002 30.2666 227.058 30.1187L227.69 30.2961C227.624 30.5105 227.512 30.6991 227.355 30.8617C227.197 31.0225 227.003 31.1482 226.772 31.2388C226.541 31.3275 226.282 31.3718 225.993 31.3718ZM228.752 31.2831V27.0246H229.384V27.69H229.439C229.528 27.4627 229.671 27.2862 229.869 27.1605C230.067 27.033 230.304 26.9692 230.582 26.9692C230.863 26.9692 231.096 27.033 231.283 27.1605C231.472 27.2862 231.619 27.4627 231.724 27.69H231.768C231.877 27.4701 232.041 27.2954 232.259 27.166C232.477 27.0348 232.739 26.9692 233.044 26.9692C233.424 26.9692 233.736 27.0884 233.978 27.3268C234.22 27.5634 234.341 27.9322 234.341 28.433V31.2831H233.687V28.433C233.687 28.1188 233.601 27.8943 233.429 27.7593C233.257 27.6244 233.055 27.5569 232.822 27.5569C232.522 27.5569 232.29 27.6475 232.126 27.8286C231.961 28.0079 231.879 28.2353 231.879 28.5107V31.2831H231.214V28.3665C231.214 28.1244 231.135 27.9294 230.978 27.7815C230.821 27.6318 230.619 27.5569 230.371 27.5569C230.201 27.5569 230.042 27.6022 229.894 27.6928C229.748 27.7834 229.63 27.9091 229.539 28.0699C229.451 28.2288 229.406 28.4127 229.406 28.6216V31.2831H228.752Z" fill="#374151"/>
</g>
<rect x="0.75" y="0.75" width="163.5" height="55.5" rx="4.75" stroke="#EDEDED" stroke-width="1.5"/>
<defs>
<clipPath id="clip0_22570_369233">
<rect x="1.5" y="1.5" width="162" height="54" rx="4" fill="white"/>
</clipPath>
</defs>
</svg>
