<svg width="165" height="57" viewBox="0 0 165 57" fill="none" xmlns="http://www.w3.org/2000/svg">
<g clip-path="url(#clip0_22697_375075)">
<rect x="1.5" y="1.5" width="162" height="54" rx="4" fill="white"/>
<path d="M13.5 17.6433C13.5 15.355 15.355 13.5 17.6433 13.5H365.682C367.97 13.5 369.825 15.355 369.825 17.6433V38.9299C369.825 41.2182 367.97 43.0733 365.682 43.0733H17.6433C15.355 43.0733 13.5 41.2182 13.5 38.9299V17.6433Z" fill="#EEF0F3"/>
<path d="M24.2585 25.4074V24.76H28.7785V25.4074H26.8834V30.7866H26.1536V25.4074H24.2585ZM30.5051 28.0676V30.7866H29.8106V24.76H30.5051V26.9729H30.5639C30.6699 26.7394 30.8288 26.554 31.0407 26.4167C31.2545 26.2774 31.539 26.2078 31.894 26.2078C32.202 26.2078 32.4718 26.2696 32.7033 26.3932C32.9348 26.5148 33.1143 26.7022 33.2418 26.9552C33.3713 27.2063 33.436 27.5261 33.436 27.9146V30.7866H32.7415V27.9616C32.7415 27.6026 32.6484 27.325 32.462 27.1289C32.2776 26.9307 32.0216 26.8316 31.6939 26.8316C31.4664 26.8316 31.2623 26.8797 31.0819 26.9758C30.9033 27.072 30.7621 27.2122 30.6581 27.3966C30.5561 27.581 30.5051 27.8047 30.5051 28.0676ZM34.7065 30.7866V26.2666H35.401V30.7866H34.7065ZM35.0596 25.5133C34.9243 25.5133 34.8076 25.4672 34.7095 25.375C34.6133 25.2828 34.5653 25.172 34.5653 25.0425C34.5653 24.913 34.6133 24.8022 34.7095 24.71C34.8076 24.6178 34.9243 24.5716 35.0596 24.5716C35.195 24.5716 35.3108 24.6178 35.4069 24.71C35.505 24.8022 35.554 24.913 35.554 25.0425C35.554 25.172 35.505 25.2828 35.4069 25.375C35.3108 25.4672 35.195 25.5133 35.0596 25.5133ZM39.8746 27.2789L39.2508 27.4555C39.2115 27.3515 39.1537 27.2505 39.0772 27.1524C39.0026 27.0523 38.9006 26.9699 38.7711 26.9052C38.6416 26.8405 38.4759 26.8081 38.2738 26.8081C37.9972 26.8081 37.7667 26.8719 37.5823 26.9994C37.3998 27.1249 37.3086 27.2848 37.3086 27.479C37.3086 27.6517 37.3714 27.788 37.4969 27.8881C37.6225 27.9881 37.8187 28.0715 38.0855 28.1382L38.7564 28.303C39.1605 28.4011 39.4617 28.5512 39.6598 28.7532C39.858 28.9533 39.957 29.2113 39.957 29.5271C39.957 29.7861 39.8825 30.0176 39.7334 30.2216C39.5862 30.4257 39.3803 30.5865 39.1154 30.7042C38.8506 30.8219 38.5426 30.8808 38.1914 30.8808C37.7304 30.8808 37.3488 30.7807 37.0467 30.5806C36.7446 30.3805 36.5533 30.0882 36.4729 29.7037L37.132 29.5389C37.1948 29.7822 37.3135 29.9646 37.4881 30.0863C37.6647 30.2079 37.8952 30.2687 38.1796 30.2687C38.5033 30.2687 38.7603 30.2 38.9506 30.0627C39.1429 29.9234 39.239 29.7567 39.239 29.5625C39.239 29.4055 39.1841 29.2741 39.0742 29.1681C38.9644 29.0602 38.7956 28.9798 38.5681 28.9268L37.8147 28.7503C37.4008 28.6522 37.0967 28.5001 36.9025 28.2942C36.7103 28.0862 36.6141 27.8263 36.6141 27.5143C36.6141 27.2593 36.6857 27.0337 36.8289 26.8375C36.9741 26.6413 37.1713 26.4873 37.4204 26.3755C37.6715 26.2637 37.956 26.2078 38.2738 26.2078C38.7211 26.2078 39.0723 26.3059 39.3273 26.5021C39.5843 26.6982 39.7667 26.9572 39.8746 27.2789ZM43.333 32.4816V26.2666H44.004V26.9847H44.0864C44.1374 26.9062 44.208 26.8061 44.2982 26.6845C44.3904 26.5609 44.5219 26.4511 44.6926 26.3549C44.8652 26.2568 45.0986 26.2078 45.3929 26.2078C45.7735 26.2078 46.109 26.3029 46.3993 26.4932C46.6897 26.6835 46.9163 26.9533 47.0791 27.3025C47.2419 27.6517 47.3233 28.0636 47.3233 28.5384C47.3233 29.0171 47.2419 29.432 47.0791 29.7832C46.9163 30.1324 46.6906 30.4031 46.4023 30.5953C46.1139 30.7856 45.7814 30.8808 45.4047 30.8808C45.1143 30.8808 44.8819 30.8327 44.7073 30.7366C44.5327 30.6385 44.3983 30.5277 44.3041 30.4041C44.21 30.2785 44.1374 30.1745 44.0864 30.0921H44.0275V32.4816H43.333ZM44.0157 28.5266C44.0157 28.868 44.0658 29.1691 44.1658 29.43C44.2659 29.689 44.412 29.892 44.6043 30.0392C44.7965 30.1843 45.0319 30.2569 45.3105 30.2569C45.6009 30.2569 45.8431 30.1804 46.0374 30.0274C46.2335 29.8724 46.3807 29.6645 46.4788 29.4036C46.5788 29.1407 46.6288 28.8484 46.6288 28.5266C46.6288 28.2088 46.5798 27.9224 46.4817 27.6674C46.3856 27.4104 46.2394 27.2073 46.0433 27.0582C45.849 26.9072 45.6048 26.8316 45.3105 26.8316C45.028 26.8316 44.7906 26.9032 44.5984 27.0465C44.4061 27.1877 44.261 27.3858 44.1629 27.6409C44.0648 27.894 44.0157 28.1892 44.0157 28.5266ZM49.7128 30.8926C49.4264 30.8926 49.1664 30.8386 48.933 30.7307C48.6995 30.6208 48.5141 30.4629 48.3768 30.2569C48.2395 30.049 48.1708 29.7979 48.1708 29.5036C48.1708 29.2446 48.2218 29.0347 48.3238 28.8739C48.4259 28.711 48.5622 28.5835 48.7329 28.4913C48.9036 28.3991 49.0919 28.3305 49.2979 28.2853C49.5058 28.2382 49.7148 28.201 49.9247 28.1735C50.1993 28.1382 50.422 28.1117 50.5927 28.0941C50.7653 28.0744 50.8909 28.0421 50.9693 27.9969C51.0498 27.9518 51.09 27.8734 51.09 27.7615V27.738C51.09 27.4476 51.0105 27.222 50.8516 27.0612C50.6947 26.9003 50.4563 26.8199 50.1365 26.8199C49.805 26.8199 49.5451 26.8925 49.3567 27.0376C49.1684 27.1828 49.036 27.3378 48.9595 27.5026L48.3003 27.2672C48.418 26.9925 48.575 26.7787 48.7711 26.6257C48.9693 26.4707 49.1851 26.3628 49.4185 26.302C49.6539 26.2392 49.8854 26.2078 50.113 26.2078C50.2582 26.2078 50.4249 26.2254 50.6133 26.2608C50.8036 26.2941 50.987 26.3638 51.1635 26.4697C51.3421 26.5756 51.4902 26.7355 51.6079 26.9493C51.7256 27.1632 51.7844 27.4496 51.7844 27.8086V30.7866H51.09V30.1745H51.0547C51.0076 30.2726 50.9291 30.3776 50.8192 30.4894C50.7094 30.6012 50.5632 30.6964 50.3808 30.7749C50.1983 30.8533 49.9757 30.8926 49.7128 30.8926ZM49.8187 30.2687C50.0934 30.2687 50.3249 30.2148 50.5132 30.1069C50.7035 29.999 50.8467 29.8597 50.9428 29.689C51.0409 29.5183 51.09 29.3388 51.09 29.1505V28.5149C51.0605 28.5502 50.9958 28.5825 50.8958 28.612C50.7977 28.6394 50.6839 28.664 50.5544 28.6855C50.4269 28.7052 50.3023 28.7228 50.1807 28.7385C50.061 28.7522 49.9639 28.764 49.8894 28.7738C49.7089 28.7974 49.5402 28.8356 49.3832 28.8886C49.2282 28.9396 49.1027 29.0171 49.0065 29.1211C48.9124 29.2231 48.8653 29.3624 48.8653 29.5389C48.8653 29.7802 48.9546 29.9627 49.1331 30.0863C49.3136 30.2079 49.5421 30.2687 49.8187 30.2687ZM54.8765 32.5758C54.541 32.5758 54.2526 32.5326 54.0113 32.4463C53.77 32.3619 53.5689 32.2501 53.4081 32.1108C53.2492 31.9735 53.1226 31.8264 53.0285 31.6694L53.5817 31.281C53.6445 31.3634 53.7239 31.4576 53.8201 31.5635C53.9162 31.6714 54.0476 31.7646 54.2144 31.843C54.3831 31.9235 54.6038 31.9637 54.8765 31.9637C55.2414 31.9637 55.5425 31.8754 55.7799 31.6989C56.0173 31.5223 56.136 31.2457 56.136 30.869V29.9509H56.0771C56.0261 30.0333 55.9535 30.1353 55.8593 30.2569C55.7671 30.3766 55.6337 30.4835 55.4591 30.5777C55.2865 30.6699 55.053 30.716 54.7588 30.716C54.3939 30.716 54.0663 30.6297 53.7759 30.457C53.4875 30.2844 53.259 30.0333 53.0903 29.7037C52.9235 29.3741 52.8401 28.9739 52.8401 28.5031C52.8401 28.0401 52.9216 27.637 53.0844 27.2936C53.2472 26.9484 53.4738 26.6816 53.7641 26.4932C54.0545 26.3029 54.39 26.2078 54.7705 26.2078C55.0648 26.2078 55.2983 26.2568 55.4709 26.3549C55.6455 26.4511 55.7789 26.5609 55.8711 26.6845C55.9653 26.8061 56.0379 26.9062 56.0889 26.9847H56.1595V26.2666H56.8304V30.9161C56.8304 31.3045 56.7422 31.6204 56.5656 31.8636C56.391 32.1089 56.1556 32.2884 55.8593 32.4022C55.5651 32.5179 55.2375 32.5758 54.8765 32.5758ZM54.8529 30.0921C55.1315 30.0921 55.3669 30.0284 55.5592 29.9009C55.7514 29.7734 55.8976 29.5899 55.9977 29.3506C56.0977 29.1112 56.1477 28.8248 56.1477 28.4913C56.1477 28.1657 56.0987 27.8783 56.0006 27.6291C55.9025 27.38 55.7573 27.1848 55.5651 27.0435C55.3728 26.9023 55.1354 26.8316 54.8529 26.8316C54.5587 26.8316 54.3135 26.9062 54.1173 27.0553C53.9231 27.2044 53.7769 27.4045 53.6788 27.6556C53.5827 27.9067 53.5346 28.1853 53.5346 28.4913C53.5346 28.8052 53.5837 29.0828 53.6818 29.3241C53.7818 29.5634 53.9289 29.7518 54.1232 29.8891C54.3193 30.0245 54.5626 30.0921 54.8529 30.0921ZM59.9968 30.8808C59.5613 30.8808 59.1856 30.7847 58.8697 30.5924C58.5558 30.3982 58.3136 30.1275 58.1429 29.7802C57.9742 29.431 57.8898 29.0249 57.8898 28.5619C57.8898 28.099 57.9742 27.6909 58.1429 27.3378C58.3136 26.9827 58.5509 26.7061 58.855 26.5079C59.161 26.3078 59.5181 26.2078 59.9261 26.2078C60.1616 26.2078 60.394 26.247 60.6236 26.3255C60.8531 26.404 61.062 26.5315 61.2504 26.708C61.4387 26.8826 61.5888 27.1141 61.7006 27.4025C61.8124 27.6909 61.8683 28.046 61.8683 28.4678V28.762H58.3842V28.1617H61.1621C61.1621 27.9067 61.1111 27.6791 61.0091 27.479C60.909 27.2789 60.7658 27.121 60.5794 27.0053C60.395 26.8895 60.1773 26.8316 59.9261 26.8316C59.6495 26.8316 59.4102 26.9003 59.2081 27.0376C59.008 27.173 58.854 27.3496 58.7461 27.5673C58.6382 27.7851 58.5843 28.0185 58.5843 28.2677V28.6679C58.5843 29.0092 58.6431 29.2986 58.7608 29.536C58.8805 29.7714 59.0463 29.9509 59.2582 30.0745C59.47 30.1961 59.7162 30.2569 59.9968 30.2569C60.1792 30.2569 60.344 30.2314 60.4911 30.1804C60.6402 30.1275 60.7687 30.049 60.8766 29.945C60.9845 29.8391 61.0679 29.7076 61.1268 29.5507L61.7977 29.739C61.7271 29.9666 61.6084 30.1667 61.4416 30.3393C61.2749 30.51 61.0689 30.6434 60.8237 30.7395C60.5784 30.8337 60.3028 30.8808 59.9968 30.8808ZM65.2554 30.7866V26.2666H65.9263V26.9493H65.9734C66.0558 26.7257 66.2049 26.5442 66.4207 26.4049C66.6365 26.2657 66.8797 26.196 67.1505 26.196C67.2015 26.196 67.2652 26.197 67.3417 26.199C67.4183 26.2009 67.4761 26.2039 67.5154 26.2078V26.914C67.4918 26.9081 67.4379 26.8993 67.3535 26.8876C67.2711 26.8738 67.1838 26.867 67.0916 26.867C66.8719 26.867 66.6757 26.9131 66.5031 27.0053C66.3324 27.0955 66.197 27.2211 66.097 27.3819C65.9989 27.5408 65.9498 27.7223 65.9498 27.9263V30.7866H65.2554ZM70.0961 30.8808C69.6606 30.8808 69.2849 30.7847 68.9691 30.5924C68.6552 30.3982 68.4129 30.1275 68.2422 29.7802C68.0735 29.431 67.9891 29.0249 67.9891 28.5619C67.9891 28.099 68.0735 27.6909 68.2422 27.3378C68.4129 26.9827 68.6503 26.7061 68.9543 26.5079C69.2604 26.3078 69.6174 26.2078 70.0255 26.2078C70.2609 26.2078 70.4934 26.247 70.7229 26.3255C70.9524 26.404 71.1614 26.5315 71.3497 26.708C71.538 26.8826 71.6881 27.1141 71.7999 27.4025C71.9117 27.6909 71.9677 28.046 71.9677 28.4678V28.762H68.4835V28.1617H71.2614C71.2614 27.9067 71.2104 27.6791 71.1084 27.479C71.0083 27.2789 70.8651 27.121 70.6788 27.0053C70.4944 26.8895 70.2766 26.8316 70.0255 26.8316C69.7489 26.8316 69.5095 26.9003 69.3075 27.0376C69.1074 27.173 68.9534 27.3496 68.8455 27.5673C68.7376 27.7851 68.6836 28.0185 68.6836 28.2677V28.6679C68.6836 29.0092 68.7425 29.2986 68.8602 29.536C68.9798 29.7714 69.1456 29.9509 69.3575 30.0745C69.5694 30.1961 69.8156 30.2569 70.0961 30.2569C70.2786 30.2569 70.4433 30.2314 70.5905 30.1804C70.7396 30.1275 70.8681 30.049 70.976 29.945C71.0839 29.8391 71.1672 29.7076 71.2261 29.5507L71.897 29.739C71.8264 29.9666 71.7077 30.1667 71.541 30.3393C71.3742 30.51 71.1682 30.6434 70.923 30.7395C70.6778 30.8337 70.4021 30.8808 70.0961 30.8808ZM75.0369 26.2666V26.8552H72.6003V26.2666H75.0369ZM73.3301 30.7866V25.6428C73.3301 25.3838 73.3909 25.168 73.5126 24.9954C73.6342 24.8228 73.7921 24.6933 73.9863 24.607C74.1806 24.5206 74.3856 24.4775 74.6014 24.4775C74.772 24.4775 74.9113 24.4912 75.0192 24.5187C75.1271 24.5461 75.2076 24.5716 75.2605 24.5952L75.0604 25.1955C75.0251 25.1837 74.9761 25.169 74.9133 25.1514C74.8525 25.1337 74.772 25.1249 74.672 25.1249C74.4425 25.1249 74.2767 25.1827 74.1747 25.2985C74.0746 25.4142 74.0246 25.5839 74.0246 25.8076V30.7866H73.3301ZM77.7192 30.8808C77.2836 30.8808 76.908 30.7847 76.5921 30.5924C76.2782 30.3982 76.0359 30.1275 75.8653 29.7802C75.6965 29.431 75.6122 29.0249 75.6122 28.5619C75.6122 28.099 75.6965 27.6909 75.8653 27.3378C76.0359 26.9827 76.2733 26.7061 76.5774 26.5079C76.8834 26.3078 77.2405 26.2078 77.6485 26.2078C77.8839 26.2078 78.1164 26.247 78.346 26.3255C78.5755 26.404 78.7844 26.5315 78.9727 26.708C79.1611 26.8826 79.3112 27.1141 79.423 27.4025C79.5348 27.6909 79.5907 28.046 79.5907 28.4678V28.762H76.1066V28.1617H78.8845C78.8845 27.9067 78.8335 27.6791 78.7314 27.479C78.6314 27.2789 78.4882 27.121 78.3018 27.0053C78.1174 26.8895 77.8996 26.8316 77.6485 26.8316C77.3719 26.8316 77.1326 26.9003 76.9305 27.0376C76.7304 27.173 76.5764 27.3496 76.4685 27.5673C76.3606 27.7851 76.3067 28.0185 76.3067 28.2677V28.6679C76.3067 29.0092 76.3655 29.2986 76.4832 29.536C76.6029 29.7714 76.7687 29.9509 76.9805 30.0745C77.1924 30.1961 77.4386 30.2569 77.7192 30.2569C77.9016 30.2569 78.0664 30.2314 78.2135 30.1804C78.3626 30.1275 78.4911 30.049 78.599 29.945C78.7069 29.8391 78.7903 29.7076 78.8492 29.5507L79.5201 29.739C79.4495 29.9666 79.3308 30.1667 79.164 30.3393C78.9973 30.51 78.7913 30.6434 78.5461 30.7395C78.3008 30.8337 78.0252 30.8808 77.7192 30.8808ZM80.6471 30.7866V26.2666H81.3181V26.9493H81.3652C81.4475 26.7257 81.5966 26.5442 81.8124 26.4049C82.0282 26.2657 82.2715 26.196 82.5422 26.196C82.5932 26.196 82.657 26.197 82.7335 26.199C82.81 26.2009 82.8679 26.2039 82.9071 26.2078V26.914C82.8836 26.9081 82.8296 26.8993 82.7453 26.8876C82.6629 26.8738 82.5756 26.867 82.4834 26.867C82.2637 26.867 82.0675 26.9131 81.8948 27.0053C81.7242 27.0955 81.5888 27.2211 81.4887 27.3819C81.3907 27.5408 81.3416 27.7223 81.3416 27.9263V30.7866H80.6471ZM85.4879 30.8808C85.0524 30.8808 84.6767 30.7847 84.3608 30.5924C84.0469 30.3982 83.8046 30.1275 83.634 29.7802C83.4653 29.431 83.3809 29.0249 83.3809 28.5619C83.3809 28.099 83.4653 27.6909 83.634 27.3378C83.8046 26.9827 84.042 26.7061 84.3461 26.5079C84.6521 26.3078 85.0092 26.2078 85.4172 26.2078C85.6527 26.2078 85.8851 26.247 86.1147 26.3255C86.3442 26.404 86.5531 26.5315 86.7415 26.708C86.9298 26.8826 87.0799 27.1141 87.1917 27.4025C87.3035 27.6909 87.3594 28.046 87.3594 28.4678V28.762H83.8753V28.1617H86.6532C86.6532 27.9067 86.6022 27.6791 86.5002 27.479C86.4001 27.2789 86.2569 27.121 86.0705 27.0053C85.8861 26.8895 85.6684 26.8316 85.4172 26.8316C85.1406 26.8316 84.9013 26.9003 84.6992 27.0376C84.4991 27.173 84.3451 27.3496 84.2372 27.5673C84.1293 27.7851 84.0754 28.0185 84.0754 28.2677V28.6679C84.0754 29.0092 84.1342 29.2986 84.2519 29.536C84.3716 29.7714 84.5374 29.9509 84.7493 30.0745C84.9611 30.1961 85.2073 30.2569 85.4879 30.2569C85.6703 30.2569 85.8351 30.2314 85.9822 30.1804C86.1313 30.1275 86.2598 30.049 86.3677 29.945C86.4756 29.8391 86.559 29.7076 86.6179 29.5507L87.2888 29.739C87.2182 29.9666 87.0995 30.1667 86.9327 30.3393C86.766 30.51 86.56 30.6434 86.3148 30.7395C86.0695 30.8337 85.7939 30.8808 85.4879 30.8808ZM89.1103 28.0676V30.7866H88.4158V26.2666H89.0868V26.9729H89.1456C89.2516 26.7434 89.4124 26.5589 89.6282 26.4197C89.844 26.2784 90.1226 26.2078 90.464 26.2078C90.77 26.2078 91.0378 26.2706 91.2673 26.3961C91.4969 26.5197 91.6754 26.708 91.8029 26.9611C91.9304 27.2122 91.9942 27.53 91.9942 27.9146V30.7866H91.2997V27.9616C91.2997 27.6065 91.2075 27.3299 91.0231 27.1318C90.8387 26.9317 90.5856 26.8316 90.2639 26.8316C90.0422 26.8316 89.844 26.8797 89.6694 26.9758C89.4968 27.072 89.3605 27.2122 89.2604 27.3966C89.1604 27.581 89.1103 27.8047 89.1103 28.0676ZM95.0995 30.8808C94.6757 30.8808 94.3108 30.7807 94.0048 30.5806C93.6987 30.3805 93.4633 30.1049 93.2985 29.7537C93.1337 29.4026 93.0513 29.0014 93.0513 28.5502C93.0513 28.0911 93.1357 27.686 93.3044 27.3348C93.4751 26.9817 93.7125 26.7061 94.0165 26.5079C94.3226 26.3078 94.6796 26.2078 95.0877 26.2078C95.4055 26.2078 95.6919 26.2666 95.9469 26.3843C96.202 26.5021 96.4109 26.6668 96.5737 26.8787C96.7366 27.0906 96.8376 27.3378 96.8768 27.6203H96.1824C96.1294 27.4143 96.0117 27.2318 95.8292 27.0729C95.6488 26.9121 95.4055 26.8316 95.0995 26.8316C94.8287 26.8316 94.5913 26.9023 94.3873 27.0435C94.1853 27.1828 94.0273 27.38 93.9135 27.635C93.8017 27.8881 93.7458 28.1853 93.7458 28.5266C93.7458 28.8758 93.8007 29.1799 93.9106 29.4389C94.0224 29.6978 94.1794 29.8989 94.3814 30.0421C94.5855 30.1853 94.8248 30.2569 95.0995 30.2569C95.2799 30.2569 95.4437 30.2255 95.5909 30.1628C95.738 30.1 95.8626 30.0097 95.9646 29.892C96.0666 29.7743 96.1392 29.6331 96.1824 29.4683H96.8768C96.8376 29.7351 96.7405 29.9754 96.5855 30.1893C96.4325 30.4011 96.2294 30.5698 95.9764 30.6954C95.7253 30.819 95.433 30.8808 95.0995 30.8808ZM99.7872 30.8808C99.3516 30.8808 98.976 30.7847 98.6601 30.5924C98.3462 30.3982 98.1039 30.1275 97.9333 29.7802C97.7645 29.431 97.6802 29.0249 97.6802 28.5619C97.6802 28.099 97.7645 27.6909 97.9333 27.3378C98.1039 26.9827 98.3413 26.7061 98.6454 26.5079C98.9514 26.3078 99.3085 26.2078 99.7165 26.2078C99.9519 26.2078 100.184 26.247 100.414 26.3255C100.643 26.404 100.852 26.5315 101.041 26.708C101.229 26.8826 101.379 27.1141 101.491 27.4025C101.603 27.6909 101.659 28.046 101.659 28.4678V28.762H98.1746V28.1617H100.952C100.952 27.9067 100.901 27.6791 100.799 27.479C100.699 27.2789 100.556 27.121 100.37 27.0053C100.185 26.8895 99.9676 26.8316 99.7165 26.8316C99.4399 26.8316 99.2006 26.9003 98.9985 27.0376C98.7984 27.173 98.6444 27.3496 98.5365 27.5673C98.4286 27.7851 98.3747 28.0185 98.3747 28.2677V28.6679C98.3747 29.0092 98.4335 29.2986 98.5512 29.536C98.6709 29.7714 98.8367 29.9509 99.0485 30.0745C99.2604 30.1961 99.5066 30.2569 99.7872 30.2569C99.9696 30.2569 100.134 30.2314 100.282 30.1804C100.431 30.1275 100.559 30.049 100.667 29.945C100.775 29.8391 100.858 29.7076 100.917 29.5507L101.588 29.739C101.517 29.9666 101.399 30.1667 101.232 30.3393C101.065 30.51 100.859 30.6434 100.614 30.7395C100.369 30.8337 100.093 30.8808 99.7872 30.8808ZM105.917 27.2789L105.293 27.4555C105.254 27.3515 105.196 27.2505 105.119 27.1524C105.045 27.0523 104.943 26.9699 104.813 26.9052C104.684 26.8405 104.518 26.8081 104.316 26.8081C104.039 26.8081 103.809 26.8719 103.624 26.9994C103.442 27.1249 103.351 27.2848 103.351 27.479C103.351 27.6517 103.414 27.788 103.539 27.8881C103.665 27.9881 103.861 28.0715 104.128 28.1382L104.799 28.303C105.203 28.4011 105.504 28.5512 105.702 28.7532C105.9 28.9533 105.999 29.2113 105.999 29.5271C105.999 29.7861 105.925 30.0176 105.776 30.2216C105.628 30.4257 105.422 30.5865 105.158 30.7042C104.893 30.8219 104.585 30.8808 104.234 30.8808C103.773 30.8808 103.391 30.7807 103.089 30.5806C102.787 30.3805 102.595 30.0882 102.515 29.7037L103.174 29.5389C103.237 29.7822 103.356 29.9646 103.53 30.0863C103.707 30.2079 103.937 30.2687 104.222 30.2687C104.545 30.2687 104.802 30.2 104.993 30.0627C105.185 29.9234 105.281 29.7567 105.281 29.5625C105.281 29.4055 105.226 29.2741 105.116 29.1681C105.007 29.0602 104.838 28.9798 104.61 28.9268L103.857 28.7503C103.443 28.6522 103.139 28.5001 102.945 28.2942C102.752 28.0862 102.656 27.8263 102.656 27.5143C102.656 27.2593 102.728 27.0337 102.871 26.8375C103.016 26.6413 103.213 26.4873 103.463 26.3755C103.714 26.2637 103.998 26.2078 104.316 26.2078C104.763 26.2078 105.114 26.3059 105.369 26.5021C105.626 26.6982 105.809 26.9572 105.917 27.2789ZM111.341 26.2666V26.8552H108.999V26.2666H111.341ZM109.681 25.1837H110.376V29.4918C110.376 29.688 110.404 29.8351 110.461 29.9332C110.52 30.0294 110.594 30.0941 110.685 30.1275C110.777 30.1588 110.874 30.1745 110.976 30.1745C111.053 30.1745 111.115 30.1706 111.164 30.1628C111.213 30.153 111.253 30.1451 111.282 30.1392L111.423 30.7631C111.376 30.7807 111.311 30.7984 111.226 30.816C111.142 30.8357 111.035 30.8455 110.905 30.8455C110.709 30.8455 110.517 30.8033 110.329 30.7189C110.142 30.6346 109.987 30.5061 109.864 30.3334C109.742 30.1608 109.681 29.943 109.681 29.6802V25.1837ZM113.177 28.0676V30.7866H112.483V24.76H113.177V26.9729H113.236C113.342 26.7394 113.501 26.554 113.713 26.4167C113.927 26.2774 114.211 26.2078 114.566 26.2078C114.874 26.2078 115.144 26.2696 115.375 26.3932C115.607 26.5148 115.786 26.7022 115.914 26.9552C116.043 27.2063 116.108 27.5261 116.108 27.9146V30.7866H115.414V27.9616C115.414 27.6026 115.32 27.325 115.134 27.1289C114.95 26.9307 114.694 26.8316 114.366 26.8316C114.138 26.8316 113.934 26.8797 113.754 26.9758C113.575 27.072 113.434 27.2122 113.33 27.3966C113.228 27.581 113.177 27.8047 113.177 28.0676ZM119.274 30.8808C118.838 30.8808 118.462 30.7847 118.147 30.5924C117.833 30.3982 117.59 30.1275 117.42 29.7802C117.251 29.431 117.167 29.0249 117.167 28.5619C117.167 28.099 117.251 27.6909 117.42 27.3378C117.59 26.9827 117.828 26.7061 118.132 26.5079C118.438 26.3078 118.795 26.2078 119.203 26.2078C119.438 26.2078 119.671 26.247 119.9 26.3255C120.13 26.404 120.339 26.5315 120.527 26.708C120.716 26.8826 120.866 27.1141 120.978 27.4025C121.089 27.6909 121.145 28.046 121.145 28.4678V28.762H117.661V28.1617H120.439C120.439 27.9067 120.388 27.6791 120.286 27.479C120.186 27.2789 120.043 27.121 119.856 27.0053C119.672 26.8895 119.454 26.8316 119.203 26.8316C118.926 26.8316 118.687 26.9003 118.485 27.0376C118.285 27.173 118.131 27.3496 118.023 27.5673C117.915 27.7851 117.861 28.0185 117.861 28.2677V28.6679C117.861 29.0092 117.92 29.2986 118.038 29.536C118.157 29.7714 118.323 29.9509 118.535 30.0745C118.747 30.1961 118.993 30.2569 119.274 30.2569C119.456 30.2569 119.621 30.2314 119.768 30.1804C119.917 30.1275 120.046 30.049 120.154 29.945C120.261 29.8391 120.345 29.7076 120.404 29.5507L121.075 29.739C121.004 29.9666 120.885 30.1667 120.719 30.3393C120.552 30.51 120.346 30.6434 120.101 30.7395C119.855 30.8337 119.58 30.8808 119.274 30.8808ZM124.626 30.7866V24.76H125.356V27.7498H125.427L128.134 24.76H129.088L126.557 27.479L129.088 30.7866H128.205L126.11 27.9852L125.356 28.8327V30.7866H124.626ZM131.501 30.8808C131.066 30.8808 130.69 30.7847 130.374 30.5924C130.06 30.3982 129.818 30.1275 129.647 29.7802C129.479 29.431 129.394 29.0249 129.394 28.5619C129.394 28.099 129.479 27.6909 129.647 27.3378C129.818 26.9827 130.055 26.7061 130.36 26.5079C130.666 26.3078 131.023 26.2078 131.431 26.2078C131.666 26.2078 131.899 26.247 132.128 26.3255C132.358 26.404 132.567 26.5315 132.755 26.708C132.943 26.8826 133.093 27.1141 133.205 27.4025C133.317 27.6909 133.373 28.046 133.373 28.4678V28.762H129.889V28.1617H132.667C132.667 27.9067 132.616 27.6791 132.514 27.479C132.414 27.2789 132.27 27.121 132.084 27.0053C131.9 26.8895 131.682 26.8316 131.431 26.8316C131.154 26.8316 130.915 26.9003 130.713 27.0376C130.513 27.173 130.359 27.3496 130.251 27.5673C130.143 27.7851 130.089 28.0185 130.089 28.2677V28.6679C130.089 29.0092 130.148 29.2986 130.265 29.536C130.385 29.7714 130.551 29.9509 130.763 30.0745C130.975 30.1961 131.221 30.2569 131.501 30.2569C131.684 30.2569 131.849 30.2314 131.996 30.1804C132.145 30.1275 132.273 30.049 132.381 29.945C132.489 29.8391 132.572 29.7076 132.631 29.5507L133.302 29.739C133.232 29.9666 133.113 30.1667 132.946 30.3393C132.779 30.51 132.573 30.6434 132.328 30.7395C132.083 30.8337 131.807 30.8808 131.501 30.8808ZM134.739 32.4816C134.621 32.4816 134.516 32.4718 134.424 32.4522C134.332 32.4345 134.268 32.4169 134.233 32.3992L134.409 31.7871C134.578 31.8303 134.727 31.846 134.857 31.8342C134.986 31.8224 135.101 31.7646 135.201 31.6606C135.303 31.5586 135.396 31.3928 135.481 31.1633L135.61 30.8102L133.939 26.2666H134.692L135.94 29.8685H135.987L137.234 26.2666H137.988L136.069 31.4458C135.983 31.6792 135.876 31.8725 135.748 32.0255C135.621 32.1805 135.473 32.2952 135.304 32.3698C135.137 32.4443 134.949 32.4816 134.739 32.4816ZM141.329 30.7866V24.76H143.366C143.838 24.76 144.225 24.8453 144.525 25.016C144.827 25.1847 145.051 25.4133 145.196 25.7016C145.341 25.99 145.414 26.3118 145.414 26.6668C145.414 27.0219 145.341 27.3446 145.196 27.635C145.053 27.9253 144.831 28.1568 144.531 28.3295C144.231 28.5001 143.846 28.5855 143.377 28.5855H141.918V27.9381H143.354C143.677 27.9381 143.937 27.8822 144.134 27.7704C144.33 27.6585 144.472 27.5075 144.56 27.3172C144.651 27.1249 144.696 26.9081 144.696 26.6668C144.696 26.4255 144.651 26.2097 144.56 26.0195C144.472 25.8292 144.329 25.6801 144.131 25.5722C143.932 25.4623 143.67 25.4074 143.342 25.4074H142.059V30.7866H141.329ZM148.283 30.8808C147.875 30.8808 147.517 30.7837 147.209 30.5895C146.903 30.3952 146.663 30.1235 146.491 29.7743C146.32 29.4251 146.235 29.0171 146.235 28.5502C146.235 28.0793 146.32 27.6683 146.491 27.3172C146.663 26.966 146.903 26.6933 147.209 26.4991C147.517 26.3049 147.875 26.2078 148.283 26.2078C148.691 26.2078 149.048 26.3049 149.354 26.4991C149.662 26.6933 149.901 26.966 150.072 27.3172C150.245 27.6683 150.331 28.0793 150.331 28.5502C150.331 29.0171 150.245 29.4251 150.072 29.7743C149.901 30.1235 149.662 30.3952 149.354 30.5895C149.048 30.7837 148.691 30.8808 148.283 30.8808ZM148.283 30.2569C148.593 30.2569 148.848 30.1775 149.048 30.0186C149.248 29.8597 149.396 29.6507 149.492 29.3918C149.588 29.1328 149.636 28.8523 149.636 28.5502C149.636 28.2481 149.588 27.9665 149.492 27.7056C149.396 27.4447 149.248 27.2338 149.048 27.0729C148.848 26.9121 148.593 26.8316 148.283 26.8316C147.973 26.8316 147.718 26.9121 147.518 27.0729C147.318 27.2338 147.169 27.4447 147.073 27.7056C146.977 27.9665 146.929 28.2481 146.929 28.5502C146.929 28.8523 146.977 29.1328 147.073 29.3918C147.169 29.6507 147.318 29.8597 147.518 30.0186C147.718 30.1775 147.973 30.2569 148.283 30.2569ZM151.391 32.4816V26.2666H152.062V26.9847H152.144C152.195 26.9062 152.266 26.8061 152.356 26.6845C152.448 26.5609 152.58 26.4511 152.751 26.3549C152.923 26.2568 153.157 26.2078 153.451 26.2078C153.831 26.2078 154.167 26.3029 154.457 26.4932C154.748 26.6835 154.974 26.9533 155.137 27.3025C155.3 27.6517 155.381 28.0636 155.381 28.5384C155.381 29.0171 155.3 29.432 155.137 29.7832C154.974 30.1324 154.749 30.4031 154.46 30.5953C154.172 30.7856 153.839 30.8808 153.463 30.8808C153.172 30.8808 152.94 30.8327 152.765 30.7366C152.591 30.6385 152.456 30.5277 152.362 30.4041C152.268 30.2785 152.195 30.1745 152.144 30.0921H152.085V32.4816H151.391ZM152.074 28.5266C152.074 28.868 152.124 29.1691 152.224 29.43C152.324 29.689 152.47 29.892 152.662 30.0392C152.854 30.1843 153.09 30.2569 153.368 30.2569C153.659 30.2569 153.901 30.1804 154.095 30.0274C154.292 29.8724 154.439 29.6645 154.537 29.4036C154.637 29.1407 154.687 28.8484 154.687 28.5266C154.687 28.2088 154.638 27.9224 154.54 27.6674C154.444 27.4104 154.297 27.2073 154.101 27.0582C153.907 26.9072 153.663 26.8316 153.368 26.8316C153.086 26.8316 152.849 26.9032 152.656 27.0465C152.464 27.1877 152.319 27.3858 152.221 27.6409C152.123 27.894 152.074 28.1892 152.074 28.5266ZM159.289 28.9386V26.2666H159.984V30.7866H159.289V30.0215H159.242C159.136 30.2511 158.971 30.4462 158.748 30.6071C158.524 30.766 158.242 30.8455 157.9 30.8455C157.618 30.8455 157.367 30.7837 157.147 30.6601C156.927 30.5345 156.755 30.3462 156.629 30.0951C156.503 29.842 156.441 29.5232 156.441 29.1387V26.2666H157.135V29.0916C157.135 29.4212 157.227 29.6841 157.412 29.8803C157.598 30.0765 157.835 30.1745 158.124 30.1745C158.297 30.1745 158.472 30.1304 158.651 30.0421C158.831 29.9538 158.982 29.8185 159.104 29.636C159.227 29.4536 159.289 29.2211 159.289 28.9386ZM161.256 24.76H161.95V29.6095C161.95 29.8293 161.975 29.9833 162.024 30.0715C162.073 30.1598 162.174 30.202 162.327 30.1981C162.409 30.1942 162.47 30.1883 162.509 30.1804C162.55 30.1706 162.588 30.1608 162.621 30.151L162.762 30.7513C162.701 30.769 162.625 30.7847 162.533 30.7984C162.441 30.8141 162.344 30.8219 162.244 30.8219C161.915 30.8219 161.668 30.7317 161.503 30.5512C161.338 30.3707 161.256 30.1196 161.256 29.7979V24.76ZM164.73 30.8926C164.444 30.8926 164.184 30.8386 163.95 30.7307C163.717 30.6208 163.532 30.4629 163.394 30.2569C163.257 30.049 163.188 29.7979 163.188 29.5036C163.188 29.2446 163.239 29.0347 163.341 28.8739C163.443 28.711 163.58 28.5835 163.75 28.4913C163.921 28.3991 164.109 28.3305 164.315 28.2853C164.523 28.2382 164.732 28.201 164.942 28.1735C165.217 28.1382 165.439 28.1117 165.61 28.0941C165.783 28.0744 165.908 28.0421 165.987 27.9969C166.067 27.9518 166.107 27.8734 166.107 27.7615V27.738C166.107 27.4476 166.028 27.222 165.869 27.0612C165.712 26.9003 165.474 26.8199 165.154 26.8199C164.822 26.8199 164.562 26.8925 164.374 27.0376C164.186 27.1828 164.053 27.3378 163.977 27.5026L163.318 27.2672C163.435 26.9925 163.592 26.7787 163.789 26.6257C163.987 26.4707 164.203 26.3628 164.436 26.302C164.671 26.2392 164.903 26.2078 165.13 26.2078C165.276 26.2078 165.442 26.2254 165.631 26.2608C165.821 26.2941 166.004 26.3638 166.181 26.4697C166.36 26.5756 166.508 26.7355 166.625 26.9493C166.743 27.1632 166.802 27.4496 166.802 27.8086V30.7866H166.107V30.1745H166.072C166.025 30.2726 165.947 30.3776 165.837 30.4894C165.727 30.6012 165.581 30.6964 165.398 30.7749C165.216 30.8533 164.993 30.8926 164.73 30.8926ZM164.836 30.2687C165.111 30.2687 165.342 30.2148 165.531 30.1069C165.721 29.999 165.864 29.8597 165.96 29.689C166.058 29.5183 166.107 29.3388 166.107 29.1505V28.5149C166.078 28.5502 166.013 28.5825 165.913 28.612C165.815 28.6394 165.701 28.664 165.572 28.6855C165.444 28.7052 165.32 28.7228 165.198 28.7385C165.078 28.7522 164.981 28.764 164.907 28.7738C164.726 28.7974 164.558 28.8356 164.401 28.8886C164.246 28.9396 164.12 29.0171 164.024 29.1211C163.93 29.2231 163.883 29.3624 163.883 29.5389C163.883 29.7802 163.972 29.9627 164.151 30.0863C164.331 30.2079 164.56 30.2687 164.836 30.2687ZM170.035 26.2666V26.8552H167.693V26.2666H170.035ZM168.375 25.1837H169.07V29.4918C169.07 29.688 169.098 29.8351 169.155 29.9332C169.214 30.0294 169.289 30.0941 169.379 30.1275C169.471 30.1588 169.568 30.1745 169.67 30.1745C169.747 30.1745 169.81 30.1706 169.859 30.1628C169.908 30.153 169.947 30.1451 169.976 30.1392L170.118 30.7631C170.07 30.7807 170.005 30.7984 169.92 30.816C169.836 30.8357 169.729 30.8455 169.6 30.8455C169.403 30.8455 169.211 30.8033 169.023 30.7189C168.837 30.6346 168.682 30.5061 168.558 30.3334C168.436 30.1608 168.375 29.943 168.375 29.6802V25.1837ZM171.08 30.7866V26.2666H171.774V30.7866H171.08ZM171.433 25.5133C171.298 25.5133 171.181 25.4672 171.083 25.375C170.987 25.2828 170.939 25.172 170.939 25.0425C170.939 24.913 170.987 24.8022 171.083 24.71C171.181 24.6178 171.298 24.5716 171.433 24.5716C171.568 24.5716 171.684 24.6178 171.78 24.71C171.878 24.8022 171.927 24.913 171.927 25.0425C171.927 25.172 171.878 25.2828 171.78 25.375C171.684 25.4672 171.568 25.5133 171.433 25.5133ZM174.883 30.8808C174.474 30.8808 174.116 30.7837 173.808 30.5895C173.502 30.3952 173.263 30.1235 173.09 29.7743C172.92 29.4251 172.834 29.0171 172.834 28.5502C172.834 28.0793 172.92 27.6683 173.09 27.3172C173.263 26.966 173.502 26.6933 173.808 26.4991C174.116 26.3049 174.474 26.2078 174.883 26.2078C175.291 26.2078 175.648 26.3049 175.954 26.4991C176.262 26.6933 176.501 26.966 176.672 27.3172C176.844 27.6683 176.931 28.0793 176.931 28.5502C176.931 29.0171 176.844 29.4251 176.672 29.7743C176.501 30.1235 176.262 30.3952 175.954 30.5895C175.648 30.7837 175.291 30.8808 174.883 30.8808ZM174.883 30.2569C175.192 30.2569 175.448 30.1775 175.648 30.0186C175.848 29.8597 175.996 29.6507 176.092 29.3918C176.188 29.1328 176.236 28.8523 176.236 28.5502C176.236 28.2481 176.188 27.9665 176.092 27.7056C175.996 27.4447 175.848 27.2338 175.648 27.0729C175.448 26.9121 175.192 26.8316 174.883 26.8316C174.573 26.8316 174.318 26.9121 174.117 27.0729C173.917 27.2338 173.769 27.4447 173.673 27.7056C173.577 27.9665 173.529 28.2481 173.529 28.5502C173.529 28.8523 173.577 29.1328 173.673 29.3918C173.769 29.6507 173.917 29.8597 174.117 30.0186C174.318 30.1775 174.573 30.2569 174.883 30.2569ZM178.685 28.0676V30.7866H177.991V26.2666H178.662V26.9729H178.721C178.826 26.7434 178.987 26.5589 179.203 26.4197C179.419 26.2784 179.698 26.2078 180.039 26.2078C180.345 26.2078 180.613 26.2706 180.842 26.3961C181.072 26.5197 181.25 26.708 181.378 26.9611C181.505 27.2122 181.569 27.53 181.569 27.9146V30.7866H180.875V27.9616C180.875 27.6065 180.782 27.3299 180.598 27.1318C180.414 26.9317 180.16 26.8316 179.839 26.8316C179.617 26.8316 179.419 26.8797 179.244 26.9758C179.072 27.072 178.935 27.2122 178.835 27.3966C178.735 27.581 178.685 27.8047 178.685 28.0676ZM188.559 26.2666C188.523 25.9684 188.38 25.737 188.129 25.5722C187.878 25.4074 187.57 25.325 187.205 25.325C186.938 25.325 186.705 25.3681 186.505 25.4545C186.307 25.5408 186.152 25.6595 186.04 25.8105C185.93 25.9616 185.875 26.1332 185.875 26.3255C185.875 26.4864 185.913 26.6247 185.99 26.7404C186.068 26.8542 186.168 26.9493 186.29 27.0259C186.412 27.1004 186.539 27.1622 186.672 27.2112C186.806 27.2583 186.928 27.2966 187.04 27.326L187.652 27.4908C187.809 27.532 187.984 27.5889 188.176 27.6615C188.37 27.7341 188.556 27.8331 188.732 27.9587C188.911 28.0823 189.058 28.2412 189.174 28.4354C189.289 28.6296 189.347 28.868 189.347 29.1505C189.347 29.4761 189.262 29.7704 189.091 30.0333C188.923 30.2962 188.675 30.5051 188.35 30.6601C188.026 30.8151 187.633 30.8926 187.17 30.8926C186.738 30.8926 186.364 30.8229 186.049 30.6836C185.735 30.5443 185.488 30.3501 185.307 30.101C185.129 29.8518 185.027 29.5625 185.004 29.2329H185.757C185.777 29.4604 185.853 29.6488 185.987 29.7979C186.122 29.945 186.293 30.0549 186.499 30.1275C186.707 30.1981 186.93 30.2334 187.17 30.2334C187.448 30.2334 187.698 30.1883 187.92 30.098C188.142 30.0058 188.317 29.8783 188.447 29.7155C188.576 29.5507 188.641 29.3584 188.641 29.1387C188.641 28.9386 188.585 28.7758 188.473 28.6502C188.362 28.5247 188.214 28.4227 188.032 28.3442C187.85 28.2657 187.652 28.197 187.44 28.1382L186.699 27.9263C186.228 27.791 185.855 27.5977 185.581 27.3466C185.306 27.0955 185.169 26.7669 185.169 26.3608C185.169 26.0234 185.26 25.7291 185.442 25.478C185.627 25.2249 185.874 25.0287 186.184 24.8895C186.496 24.7482 186.844 24.6776 187.229 24.6776C187.617 24.6776 187.962 24.7472 188.264 24.8865C188.567 25.0238 188.806 25.2122 188.982 25.4515C189.161 25.6909 189.255 25.9626 189.265 26.2666H188.559ZM192.419 26.2666V26.8552H190.076V26.2666H192.419ZM190.759 25.1837H191.454V29.4918C191.454 29.688 191.482 29.8351 191.539 29.9332C191.598 30.0294 191.672 30.0941 191.763 30.1275C191.855 30.1588 191.952 30.1745 192.054 30.1745C192.13 30.1745 192.193 30.1706 192.242 30.1628C192.291 30.153 192.331 30.1451 192.36 30.1392L192.501 30.7631C192.454 30.7807 192.388 30.7984 192.304 30.816C192.22 30.8357 192.113 30.8455 191.983 30.8455C191.787 30.8455 191.595 30.8033 191.406 30.7189C191.22 30.6346 191.065 30.5061 190.942 30.3334C190.82 30.1608 190.759 29.943 190.759 29.6802V25.1837ZM196.312 28.9386V26.2666H197.006V30.7866H196.312V30.0215H196.265C196.159 30.2511 195.994 30.4462 195.771 30.6071C195.547 30.766 195.264 30.8455 194.923 30.8455C194.641 30.8455 194.389 30.7837 194.17 30.6601C193.95 30.5345 193.777 30.3462 193.652 30.0951C193.526 29.842 193.463 29.5232 193.463 29.1387V26.2666H194.158V29.0916C194.158 29.4212 194.25 29.6841 194.435 29.8803C194.621 30.0765 194.858 30.1745 195.147 30.1745C195.319 30.1745 195.495 30.1304 195.673 30.0421C195.854 29.9538 196.005 29.8185 196.127 29.636C196.25 29.4536 196.312 29.2211 196.312 28.9386ZM199.985 30.8808C199.609 30.8808 199.276 30.7856 198.988 30.5953C198.699 30.4031 198.474 30.1324 198.311 29.7832C198.148 29.432 198.067 29.0171 198.067 28.5384C198.067 28.0636 198.148 27.6517 198.311 27.3025C198.474 26.9533 198.7 26.6835 198.991 26.4932C199.281 26.3029 199.616 26.2078 199.997 26.2078C200.291 26.2078 200.524 26.2568 200.694 26.3549C200.867 26.4511 200.998 26.5609 201.089 26.6845C201.181 26.8061 201.252 26.9062 201.304 26.9847H201.362V24.76H202.057V30.7866H201.386V30.0921H201.304C201.252 30.1745 201.18 30.2785 201.086 30.4041C200.992 30.5277 200.857 30.6385 200.683 30.7366C200.508 30.8327 200.276 30.8808 199.985 30.8808ZM200.079 30.2569C200.358 30.2569 200.593 30.1843 200.786 30.0392C200.978 29.892 201.124 29.689 201.224 29.43C201.324 29.1691 201.374 28.868 201.374 28.5266C201.374 28.1892 201.325 27.894 201.227 27.6409C201.129 27.3858 200.984 27.1877 200.791 27.0465C200.599 26.9032 200.362 26.8316 200.079 26.8316C199.785 26.8316 199.54 26.9072 199.344 27.0582C199.149 27.2073 199.003 27.4104 198.905 27.6674C198.809 27.9224 198.761 28.2088 198.761 28.5266C198.761 28.8484 198.81 29.1407 198.908 29.4036C199.008 29.6645 199.155 29.8724 199.35 30.0274C199.546 30.1804 199.789 30.2569 200.079 30.2569ZM203.872 32.4816C203.755 32.4816 203.65 32.4718 203.558 32.4522C203.465 32.4345 203.402 32.4169 203.366 32.3992L203.543 31.7871C203.712 31.8303 203.861 31.846 203.99 31.8342C204.12 31.8224 204.234 31.7646 204.334 31.6606C204.436 31.5586 204.53 31.3928 204.614 31.1633L204.744 30.8102L203.072 26.2666H203.825L205.073 29.8685H205.12L206.368 26.2666H207.121L205.203 31.4458C205.116 31.6792 205.009 31.8725 204.882 32.0255C204.754 32.1805 204.606 32.2952 204.437 32.3698C204.271 32.4443 204.082 32.4816 203.872 32.4816ZM212.205 30.8808C211.797 30.8808 211.439 30.7837 211.131 30.5895C210.825 30.3952 210.585 30.1235 210.413 29.7743C210.242 29.4251 210.157 29.0171 210.157 28.5502C210.157 28.0793 210.242 27.6683 210.413 27.3172C210.585 26.966 210.825 26.6933 211.131 26.4991C211.439 26.3049 211.797 26.2078 212.205 26.2078C212.613 26.2078 212.97 26.3049 213.276 26.4991C213.584 26.6933 213.823 26.966 213.994 27.3172C214.167 27.6683 214.253 28.0793 214.253 28.5502C214.253 29.0171 214.167 29.4251 213.994 29.7743C213.823 30.1235 213.584 30.3952 213.276 30.5895C212.97 30.7837 212.613 30.8808 212.205 30.8808ZM212.205 30.2569C212.515 30.2569 212.77 30.1775 212.97 30.0186C213.17 29.8597 213.318 29.6507 213.414 29.3918C213.51 29.1328 213.558 28.8523 213.558 28.5502C213.558 28.2481 213.51 27.9665 213.414 27.7056C213.318 27.4447 213.17 27.2338 212.97 27.0729C212.77 26.9121 212.515 26.8316 212.205 26.8316C211.895 26.8316 211.64 26.9121 211.44 27.0729C211.24 27.2338 211.091 27.4447 210.995 27.7056C210.899 27.9665 210.851 28.2481 210.851 28.5502C210.851 28.8523 210.899 29.1328 210.995 29.3918C211.091 29.6507 211.24 29.8597 211.44 30.0186C211.64 30.1775 211.895 30.2569 212.205 30.2569ZM217.326 26.2666V26.8552H214.889V26.2666H217.326ZM215.619 30.7866V25.6428C215.619 25.3838 215.68 25.168 215.801 24.9954C215.923 24.8228 216.081 24.6933 216.275 24.607C216.469 24.5206 216.674 24.4775 216.89 24.4775C217.061 24.4775 217.2 24.4912 217.308 24.5187C217.416 24.5461 217.496 24.5716 217.549 24.5952L217.349 25.1955C217.314 25.1837 217.265 25.169 217.202 25.1514C217.141 25.1337 217.061 25.1249 216.961 25.1249C216.731 25.1249 216.566 25.1827 216.464 25.2985C216.363 25.4142 216.313 25.5839 216.313 25.8076V30.7866H215.619ZM220.618 30.7866V30.2569L222.607 28.0793C222.841 27.8243 223.033 27.6026 223.184 27.4143C223.335 27.224 223.447 27.0455 223.519 26.8787C223.594 26.71 223.631 26.5334 223.631 26.349C223.631 26.1372 223.58 25.9537 223.478 25.7988C223.378 25.6438 223.241 25.5241 223.066 25.4397C222.892 25.3554 222.695 25.3132 222.478 25.3132C222.246 25.3132 222.044 25.3613 221.871 25.4574C221.701 25.5516 221.568 25.684 221.474 25.8547C221.382 26.0253 221.336 26.2254 221.336 26.455H220.641C220.641 26.1019 220.723 25.7919 220.886 25.5251C221.048 25.2583 221.27 25.0503 221.551 24.9012C221.833 24.7521 222.15 24.6776 222.501 24.6776C222.854 24.6776 223.167 24.7521 223.44 24.9012C223.713 25.0503 223.926 25.2514 224.081 25.5045C224.236 25.7576 224.314 26.0391 224.314 26.349C224.314 26.5707 224.274 26.7875 224.193 26.9994C224.115 27.2093 223.977 27.4437 223.781 27.7027C223.587 27.9597 223.317 28.2736 222.972 28.6443L221.618 30.0921V30.1392H224.42V30.7866H220.618ZM227.601 30.869C227.158 30.869 226.78 30.7484 226.468 30.5071C226.156 30.2638 225.918 29.9117 225.753 29.4506C225.588 28.9877 225.506 28.4285 225.506 27.7733C225.506 27.122 225.588 26.5658 225.753 26.1048C225.92 25.6418 226.159 25.2887 226.471 25.0454C226.785 24.8002 227.161 24.6776 227.601 24.6776C228.04 24.6776 228.416 24.8002 228.728 25.0454C229.042 25.2887 229.281 25.6418 229.446 26.1048C229.613 26.5658 229.696 27.122 229.696 27.7733C229.696 28.4285 229.614 28.9877 229.449 29.4506C229.284 29.9117 229.046 30.2638 228.734 30.5071C228.422 30.7484 228.044 30.869 227.601 30.869ZM227.601 30.2216C228.04 30.2216 228.382 30.0097 228.625 29.586C228.868 29.1623 228.99 28.558 228.99 27.7733C228.99 27.2515 228.934 26.8071 228.822 26.4403C228.712 26.0734 228.553 25.7938 228.345 25.6016C228.139 25.4093 227.891 25.3132 227.601 25.3132C227.165 25.3132 226.825 25.528 226.58 25.9577C226.335 26.3853 226.212 26.9905 226.212 27.7733C226.212 28.2951 226.267 28.7385 226.377 29.1034C226.487 29.4683 226.645 29.7459 226.851 29.9362C227.058 30.1265 227.309 30.2216 227.601 30.2216ZM230.814 30.7866V30.2569L232.804 28.0793C233.037 27.8243 233.229 27.6026 233.38 27.4143C233.531 27.224 233.643 27.0455 233.716 26.8787C233.79 26.71 233.828 26.5334 233.828 26.349C233.828 26.1372 233.777 25.9537 233.675 25.7988C233.575 25.6438 233.437 25.5241 233.263 25.4397C233.088 25.3554 232.892 25.3132 232.674 25.3132C232.443 25.3132 232.241 25.3613 232.068 25.4574C231.897 25.5516 231.765 25.684 231.671 25.8547C231.578 26.0253 231.532 26.2254 231.532 26.455H230.838C230.838 26.1019 230.919 25.7919 231.082 25.5251C231.245 25.2583 231.467 25.0503 231.747 24.9012C232.03 24.7521 232.346 24.6776 232.698 24.6776C233.051 24.6776 233.364 24.7521 233.636 24.9012C233.909 25.0503 234.123 25.2514 234.278 25.5045C234.433 25.7576 234.51 26.0391 234.51 26.349C234.51 26.5707 234.47 26.7875 234.39 26.9994C234.311 27.2093 234.174 27.4437 233.978 27.7027C233.784 27.9597 233.514 28.2736 233.168 28.6443L231.815 30.0921V30.1392H234.616V30.7866H230.814ZM237.833 30.869C237.585 30.8651 237.338 30.818 237.091 30.7278C236.844 30.6375 236.618 30.4855 236.414 30.2716C236.21 30.0559 236.046 29.7645 235.923 29.3977C235.799 29.0289 235.737 28.5659 235.737 28.0087C235.737 27.4751 235.787 27.0023 235.888 26.5903C235.988 26.1764 236.133 25.8282 236.323 25.5457C236.513 25.2612 236.743 25.0454 237.012 24.8983C237.282 24.7512 237.587 24.6776 237.927 24.6776C238.264 24.6776 238.564 24.7453 238.827 24.8806C239.092 25.014 239.308 25.2004 239.475 25.4397C239.641 25.6791 239.749 25.9547 239.798 26.2666H239.08C239.014 25.9959 238.884 25.7713 238.692 25.5928C238.5 25.4142 238.245 25.325 237.927 25.325C237.46 25.325 237.092 25.528 236.823 25.9341C236.556 26.3402 236.422 26.9101 236.42 27.6438H236.467C236.577 27.4771 236.708 27.3348 236.859 27.2171C237.012 27.0975 237.18 27.0053 237.365 26.9405C237.549 26.8758 237.744 26.8434 237.95 26.8434C238.296 26.8434 238.611 26.9297 238.898 27.1024C239.184 27.273 239.414 27.5094 239.586 27.8116C239.759 28.1117 239.845 28.456 239.845 28.8444C239.845 29.2172 239.762 29.5585 239.595 29.8685C239.429 30.1765 239.194 30.4217 238.892 30.6042C238.592 30.7847 238.239 30.8729 237.833 30.869ZM237.833 30.2216C238.08 30.2216 238.302 30.1598 238.498 30.0362C238.696 29.9126 238.852 29.7469 238.966 29.5389C239.081 29.331 239.139 29.0995 239.139 28.8444C239.139 28.5953 239.083 28.3687 238.971 28.1647C238.862 27.9587 238.71 27.7949 238.515 27.6732C238.323 27.5516 238.103 27.4908 237.856 27.4908C237.67 27.4908 237.496 27.5281 237.335 27.6026C237.174 27.6752 237.033 27.7753 236.912 27.9028C236.792 28.0303 236.698 28.1765 236.629 28.3412C236.56 28.5041 236.526 28.6757 236.526 28.8562C236.526 29.0956 236.582 29.3192 236.694 29.5271C236.808 29.7351 236.963 29.9028 237.159 30.0303C237.357 30.1579 237.582 30.2216 237.833 30.2216ZM241.237 30.8337C241.092 30.8337 240.968 30.7817 240.864 30.6777C240.76 30.5738 240.708 30.4492 240.708 30.304C240.708 30.1588 240.76 30.0343 240.864 29.9303C240.968 29.8263 241.092 29.7743 241.237 29.7743C241.383 29.7743 241.507 29.8263 241.611 29.9303C241.715 30.0343 241.767 30.1588 241.767 30.304C241.767 30.4001 241.743 30.4884 241.693 30.5689C241.646 30.6493 241.583 30.714 241.502 30.7631C241.424 30.8102 241.335 30.8337 241.237 30.8337Z" fill="#374151"/>
</g>
<rect x="0.75" y="0.75" width="163.5" height="55.5" rx="4.75" stroke="#EDEDED" stroke-width="1.5"/>
<defs>
<clipPath id="clip0_22697_375075">
<rect x="1.5" y="1.5" width="162" height="54" rx="4" fill="white"/>
</clipPath>
</defs>
</svg>
