<svg width="165" height="57" viewBox="0 0 165 57" fill="none" xmlns="http://www.w3.org/2000/svg">
<g clip-path="url(#clip0_22569_368604)">
<rect x="1.5" y="1.5" width="162" height="54" rx="4" fill="white"/>
<rect x="13.9838" y="13.9838" width="331.865" height="28.4481" rx="3.38638" fill="#DCEAE2"/>
<rect x="13.9838" y="13.9838" width="331.865" height="28.4481" rx="3.38638" stroke="#009D47" stroke-width="0.967536"/>
<path d="M29.9482 23.1754C27.2807 23.1754 25.1105 25.3455 25.1105 28.013C25.1105 30.6805 27.2807 32.8507 29.9482 32.8507C32.6157 32.8507 34.7858 30.6805 34.7858 28.013C34.7858 25.3455 32.6157 23.1754 29.9482 23.1754ZM29.9482 31.8832C27.8143 31.8832 26.078 30.1469 26.078 28.013C26.078 25.8791 27.8143 24.1429 29.9482 24.1429C32.0821 24.1429 33.8183 25.8791 33.8183 28.013C33.8183 30.1469 32.0821 31.8832 29.9482 31.8832Z" fill="#009D47"/>
<path d="M28.9801 28.7808L27.8679 27.6706L27.1848 28.3556L28.981 30.1479L32.2252 26.9038L31.5411 26.2197L28.9801 28.7808Z" fill="#009D47"/>
<path d="M42.4712 31.2078H41.7566L43.8236 25.5785H44.5272L46.5942 31.2078H45.8796L44.1974 26.4691H44.1534L42.4712 31.2078ZM42.7351 29.0089H45.6157V29.6136H42.7351V29.0089ZM47.3831 32.7911V26.9858H48.0098V27.6565H48.0868C48.1344 27.5832 48.2004 27.4898 48.2847 27.3762C48.3708 27.2607 48.4936 27.1581 48.653 27.0683C48.8143 26.9767 49.0323 26.9309 49.3072 26.9309C49.6627 26.9309 49.976 27.0197 50.2472 27.1975C50.5184 27.3752 50.7301 27.6272 50.8822 27.9534C51.0343 28.2796 51.1103 28.6644 51.1103 29.1078C51.1103 29.555 51.0343 29.9425 50.8822 30.2705C50.7301 30.5967 50.5194 30.8496 50.25 31.0292C49.9806 31.2069 49.67 31.2958 49.3182 31.2958C49.047 31.2958 48.8298 31.2509 48.6667 31.1611C48.5037 31.0695 48.3781 30.9659 48.2902 30.8505C48.2022 30.7332 48.1344 30.6361 48.0868 30.5591H48.0318V32.7911H47.3831ZM48.0208 29.0968C48.0208 29.4157 48.0675 29.697 48.161 29.9407C48.2544 30.1826 48.391 30.3722 48.5705 30.5097C48.7501 30.6453 48.97 30.7131 49.2302 30.7131C49.5014 30.7131 49.7277 30.6416 49.9092 30.4987C50.0924 30.3539 50.2298 30.1597 50.3215 29.9159C50.4149 29.6704 50.4616 29.3974 50.4616 29.0968C50.4616 28.8 50.4158 28.5324 50.3242 28.2942C50.2344 28.0542 50.0979 27.8645 49.9146 27.7252C49.7332 27.5841 49.5051 27.5136 49.2302 27.5136C48.9664 27.5136 48.7446 27.5805 48.565 27.7142C48.3855 27.8462 48.2499 28.0313 48.1582 28.2695C48.0666 28.5059 48.0208 28.7817 48.0208 29.0968ZM52.0999 32.7911V26.9858H52.7266V27.6565H52.8035C52.8512 27.5832 52.9171 27.4898 53.0014 27.3762C53.0875 27.2607 53.2103 27.1581 53.3697 27.0683C53.531 26.9767 53.7491 26.9309 54.0239 26.9309C54.3794 26.9309 54.6928 27.0197 54.964 27.1975C55.2352 27.3752 55.4468 27.6272 55.5989 27.9534C55.751 28.2796 55.8271 28.6644 55.8271 29.1078C55.8271 29.555 55.751 29.9425 55.5989 30.2705C55.4468 30.5967 55.2361 30.8496 54.9667 31.0292C54.6974 31.2069 54.3868 31.2958 54.0349 31.2958C53.7637 31.2958 53.5466 31.2509 53.3835 31.1611C53.2204 31.0695 53.0949 30.9659 53.0069 30.8505C52.919 30.7332 52.8512 30.6361 52.8035 30.5591H52.7485V32.7911H52.0999ZM52.7375 29.0968C52.7375 29.4157 52.7843 29.697 52.8777 29.9407C52.9712 30.1826 53.1077 30.3722 53.2873 30.5097C53.4669 30.6453 53.6868 30.7131 53.947 30.7131C54.2182 30.7131 54.4445 30.6416 54.6259 30.4987C54.8091 30.3539 54.9466 30.1597 55.0382 29.9159C55.1316 29.6704 55.1784 29.3974 55.1784 29.0968C55.1784 28.8 55.1326 28.5324 55.0409 28.2942C54.9512 28.0542 54.8146 27.8645 54.6314 27.7252C54.45 27.5841 54.2218 27.5136 53.947 27.5136C53.6831 27.5136 53.4614 27.5805 53.2818 27.7142C53.1022 27.8462 52.9666 28.0313 52.875 28.2695C52.7834 28.5059 52.7375 28.7817 52.7375 29.0968ZM57.4653 25.5785V31.2078H56.8166V25.5785H57.4653ZM58.6534 31.2078V26.9858H59.3021V31.2078H58.6534ZM58.9832 26.2822C58.8568 26.2822 58.7478 26.2391 58.6561 26.153C58.5664 26.0669 58.5215 25.9633 58.5215 25.8424C58.5215 25.7215 58.5664 25.6179 58.6561 25.5318C58.7478 25.4457 58.8568 25.4026 58.9832 25.4026C59.1097 25.4026 59.2178 25.4457 59.3076 25.5318C59.3992 25.6179 59.445 25.7215 59.445 25.8424C59.445 25.9633 59.3992 26.0669 59.3076 26.153C59.2178 26.2391 59.1097 26.2822 58.9832 26.2822ZM62.2054 31.2958C61.8096 31.2958 61.4687 31.2023 61.1829 31.0154C60.897 30.8285 60.6771 30.571 60.5232 30.243C60.3693 29.915 60.2923 29.5403 60.2923 29.1188C60.2923 28.69 60.3711 28.3116 60.5287 27.9836C60.6881 27.6538 60.9098 27.3963 61.1939 27.2112C61.4797 27.0243 61.8132 26.9309 62.1944 26.9309C62.4912 26.9309 62.7588 26.9858 62.997 27.0958C63.2352 27.2057 63.4304 27.3597 63.5825 27.5576C63.7346 27.7555 63.8289 27.9864 63.8656 28.2502H63.2169C63.1674 28.0578 63.0575 27.8874 62.8871 27.739C62.7185 27.5887 62.4912 27.5136 62.2054 27.5136C61.9525 27.5136 61.7308 27.5796 61.5402 27.7115C61.3515 27.8416 61.2039 28.0258 61.0977 28.264C60.9932 28.5004 60.941 28.778 60.941 29.0968C60.941 29.423 60.9923 29.707 61.0949 29.9489C61.1994 30.1908 61.346 30.3786 61.5347 30.5124C61.7253 30.6462 61.9488 30.7131 62.2054 30.7131C62.374 30.7131 62.527 30.6837 62.6644 30.6251C62.8018 30.5665 62.9182 30.4822 63.0135 30.3722C63.1088 30.2623 63.1766 30.1303 63.2169 29.9764H63.8656C63.8289 30.2256 63.7382 30.4501 63.5935 30.6498C63.4505 30.8477 63.2609 31.0053 63.0245 31.1226C62.7899 31.2381 62.5169 31.2958 62.2054 31.2958ZM66.0563 31.3068C65.7887 31.3068 65.5459 31.2564 65.3279 31.1556C65.1098 31.053 64.9367 30.9055 64.8084 30.7131C64.6801 30.5188 64.616 30.2843 64.616 30.0094C64.616 29.7675 64.6636 29.5714 64.7589 29.4212C64.8542 29.2691 64.9816 29.15 65.141 29.0639C65.3004 28.9777 65.4763 28.9136 65.6687 28.8714C65.863 28.8275 66.0581 28.7926 66.2542 28.767C66.5107 28.734 66.7187 28.7093 66.8781 28.6928C67.0394 28.6745 67.1567 28.6442 67.23 28.6021C67.3051 28.5599 67.3427 28.4866 67.3427 28.3822V28.3602C67.3427 28.089 67.2685 27.8783 67.12 27.728C66.9734 27.5777 66.7508 27.5026 66.4521 27.5026C66.1424 27.5026 65.8996 27.5704 65.7237 27.706C65.5478 27.8416 65.4241 27.9864 65.3526 28.1403L64.7369 27.9204C64.8469 27.6639 64.9935 27.4641 65.1767 27.3212C65.3618 27.1764 65.5634 27.0756 65.7814 27.0188C66.0013 26.9602 66.2175 26.9309 66.4301 26.9309C66.5657 26.9309 66.7215 26.9474 66.8974 26.9804C67.0751 27.0115 67.2465 27.0766 67.4114 27.1755C67.5781 27.2745 67.7165 27.4238 67.8264 27.6235C67.9364 27.8233 67.9914 28.0908 67.9914 28.4262V31.2078H67.3427V30.6361H67.3097C67.2657 30.7277 67.1924 30.8258 67.0898 30.9302C66.9872 31.0347 66.8507 31.1235 66.6802 31.1968C66.5098 31.2701 66.3018 31.3068 66.0563 31.3068ZM66.1552 30.7241C66.4118 30.7241 66.628 30.6737 66.8039 30.5729C66.9817 30.4721 67.1154 30.342 67.2052 30.1826C67.2969 30.0231 67.3427 29.8555 67.3427 29.6796V29.0858C67.3152 29.1188 67.2547 29.1491 67.1613 29.1765C67.0696 29.2022 66.9634 29.2251 66.8424 29.2453C66.7233 29.2636 66.6069 29.2801 66.4933 29.2947C66.3815 29.3076 66.2908 29.3186 66.2212 29.3277C66.0526 29.3497 65.895 29.3854 65.7484 29.4349C65.6037 29.4826 65.4864 29.555 65.3966 29.6521C65.3086 29.7474 65.2647 29.8775 65.2647 30.0424C65.2647 30.2678 65.348 30.4382 65.5148 30.5536C65.6834 30.6673 65.8969 30.7241 66.1552 30.7241ZM71.0115 26.9858V27.5356H68.8235V26.9858H71.0115ZM69.4612 25.9743H70.1099V29.9984C70.1099 30.1816 70.1365 30.3191 70.1896 30.4107C70.2446 30.5005 70.3142 30.561 70.3985 30.5921C70.4846 30.6214 70.5753 30.6361 70.6706 30.6361C70.7421 30.6361 70.8007 30.6324 70.8466 30.6251C70.8924 30.6159 70.929 30.6086 70.9565 30.6031L71.0884 31.1858C71.0445 31.2023 70.9831 31.2188 70.9043 31.2353C70.8255 31.2536 70.7256 31.2628 70.6047 31.2628C70.4214 31.2628 70.2418 31.2234 70.0659 31.1446C69.8918 31.0658 69.7471 30.9458 69.6316 30.7845C69.518 30.6233 69.4612 30.4199 69.4612 30.1743V25.9743ZM71.9873 31.2078V26.9858H72.6359V31.2078H71.9873ZM72.3171 26.2822C72.1907 26.2822 72.0816 26.2391 71.99 26.153C71.9002 26.0669 71.8553 25.9633 71.8553 25.8424C71.8553 25.7215 71.9002 25.6179 71.99 25.5318C72.0816 25.4457 72.1907 25.4026 72.3171 25.4026C72.4435 25.4026 72.5517 25.4457 72.6414 25.5318C72.7331 25.6179 72.7789 25.7215 72.7789 25.8424C72.7789 25.9633 72.7331 26.0669 72.6414 26.153C72.5517 26.2391 72.4435 26.2822 72.3171 26.2822ZM75.5392 31.2958C75.1581 31.2958 74.8237 31.2051 74.536 31.0237C74.2501 30.8422 74.0265 30.5885 73.8653 30.2623C73.7059 29.9361 73.6262 29.555 73.6262 29.1188C73.6262 28.679 73.7059 28.2951 73.8653 27.9671C74.0265 27.6391 74.2501 27.3844 74.536 27.203C74.8237 27.0216 75.1581 26.9309 75.5392 26.9309C75.9204 26.9309 76.2539 27.0216 76.5398 27.203C76.8275 27.3844 77.051 27.6391 77.2104 27.9671C77.3717 28.2951 77.4523 28.679 77.4523 29.1188C77.4523 29.555 77.3717 29.9361 77.2104 30.2623C77.051 30.5885 76.8275 30.8422 76.5398 31.0237C76.2539 31.2051 75.9204 31.2958 75.5392 31.2958ZM75.5392 30.7131C75.8288 30.7131 76.067 30.6388 76.2539 30.4904C76.4408 30.342 76.5792 30.1468 76.6689 29.9049C76.7587 29.6631 76.8036 29.401 76.8036 29.1188C76.8036 28.8366 76.7587 28.5737 76.6689 28.33C76.5792 28.0862 76.4408 27.8892 76.2539 27.739C76.067 27.5887 75.8288 27.5136 75.5392 27.5136C75.2497 27.5136 75.0115 27.5887 74.8246 27.739C74.6377 27.8892 74.4993 28.0862 74.4095 28.33C74.3197 28.5737 74.2748 28.8366 74.2748 29.1188C74.2748 29.401 74.3197 29.6631 74.4095 29.9049C74.4993 30.1468 74.6377 30.342 74.8246 30.4904C75.0115 30.6388 75.2497 30.7131 75.5392 30.7131ZM79.0912 28.668V31.2078H78.4425V26.9858H79.0692V27.6455H79.1242C79.2232 27.4311 79.3734 27.2589 79.575 27.1288C79.7766 26.9968 80.0368 26.9309 80.3556 26.9309C80.6415 26.9309 80.8916 26.9895 81.106 27.1068C81.3204 27.2222 81.4872 27.3982 81.6063 27.6345C81.7254 27.8691 81.7849 28.1659 81.7849 28.5251V31.2078H81.1362V28.5691C81.1362 28.2374 81.0501 27.979 80.8779 27.794C80.7056 27.6071 80.4692 27.5136 80.1687 27.5136C79.9616 27.5136 79.7766 27.5585 79.6135 27.6483C79.4522 27.7381 79.3249 27.8691 79.2314 28.0413C79.138 28.2136 79.0912 28.4225 79.0912 28.668ZM85.9609 27.9314L85.3781 28.0963C85.3415 27.9992 85.2874 27.9048 85.216 27.8132C85.1463 27.7197 85.0511 27.6428 84.9301 27.5823C84.8092 27.5218 84.6543 27.4916 84.4656 27.4916C84.2072 27.4916 83.9919 27.5512 83.8196 27.6703C83.6492 27.7875 83.564 27.9369 83.564 28.1183C83.564 28.2796 83.6227 28.4069 83.7399 28.5004C83.8572 28.5938 84.0405 28.6717 84.2897 28.734L84.9164 28.8879C85.2939 28.9796 85.5751 29.1197 85.7602 29.3085C85.9453 29.4954 86.0378 29.7364 86.0378 30.0314C86.0378 30.2733 85.9682 30.4895 85.8289 30.6801C85.6915 30.8707 85.4991 31.0209 85.2517 31.1309C85.0043 31.2408 84.7166 31.2958 84.3886 31.2958C83.958 31.2958 83.6016 31.2023 83.3194 31.0154C83.0372 30.8285 82.8585 30.5555 82.7834 30.1963L83.3991 30.0424C83.4577 30.2696 83.5686 30.44 83.7317 30.5536C83.8966 30.6673 84.1119 30.7241 84.3776 30.7241C84.68 30.7241 84.92 30.6599 85.0978 30.5316C85.2774 30.4015 85.3672 30.2458 85.3672 30.0644C85.3672 29.9178 85.3158 29.795 85.2132 29.696C85.1106 29.5953 84.953 29.5201 84.7405 29.4707L84.0368 29.3057C83.6501 29.2141 83.3661 29.0721 83.1847 28.8797C83.0051 28.6855 82.9153 28.4427 82.9153 28.1513C82.9153 27.9131 82.9822 27.7023 83.116 27.5191C83.2516 27.3358 83.4357 27.192 83.6685 27.0875C83.903 26.9831 84.1687 26.9309 84.4656 26.9309C84.8834 26.9309 85.2114 27.0225 85.4496 27.2057C85.6897 27.389 85.8601 27.6309 85.9609 27.9314ZM90.4337 31.3068C90.1661 31.3068 89.9233 31.2564 89.7053 31.1556C89.4872 31.053 89.314 30.9055 89.1858 30.7131C89.0575 30.5188 88.9934 30.2843 88.9934 30.0094C88.9934 29.7675 89.041 29.5714 89.1363 29.4212C89.2316 29.2691 89.3589 29.15 89.5184 29.0639C89.6778 28.9777 89.8537 28.9136 90.0461 28.8714C90.2403 28.8275 90.4355 28.7926 90.6316 28.767C90.8881 28.734 91.0961 28.7093 91.2555 28.6928C91.4168 28.6745 91.5341 28.6442 91.6073 28.6021C91.6825 28.5599 91.72 28.4866 91.72 28.3822V28.3602C91.72 28.089 91.6458 27.8783 91.4974 27.728C91.3508 27.5777 91.1282 27.5026 90.8295 27.5026C90.5198 27.5026 90.277 27.5704 90.1011 27.706C89.9252 27.8416 89.8015 27.9864 89.73 28.1403L89.1143 27.9204C89.2242 27.6639 89.3708 27.4641 89.5541 27.3212C89.7392 27.1764 89.9407 27.0756 90.1588 27.0188C90.3787 26.9602 90.5949 26.9309 90.8075 26.9309C90.9431 26.9309 91.0988 26.9474 91.2748 26.9804C91.4525 27.0115 91.6238 27.0766 91.7888 27.1755C91.9555 27.2745 92.0939 27.4238 92.2038 27.6235C92.3138 27.8233 92.3687 28.0908 92.3687 28.4262V31.2078H91.72V30.6361H91.6871C91.6431 30.7277 91.5698 30.8258 91.4672 30.9302C91.3645 31.0347 91.228 31.1235 91.0576 31.1968C90.8872 31.2701 90.6792 31.3068 90.4337 31.3068ZM90.5326 30.7241C90.7892 30.7241 91.0054 30.6737 91.1813 30.5729C91.3591 30.4721 91.4928 30.342 91.5826 30.1826C91.6742 30.0231 91.72 29.8555 91.72 29.6796V29.0858C91.6926 29.1188 91.6321 29.1491 91.5386 29.1765C91.447 29.2022 91.3407 29.2251 91.2198 29.2453C91.1007 29.2636 90.9843 29.2801 90.8707 29.2947C90.7589 29.3076 90.6682 29.3186 90.5986 29.3277C90.43 29.3497 90.2724 29.3854 90.1258 29.4349C89.981 29.4826 89.8638 29.555 89.774 29.6521C89.686 29.7474 89.642 29.8775 89.642 30.0424C89.642 30.2678 89.7254 30.4382 89.8922 30.5536C90.0608 30.6673 90.2742 30.7241 90.5326 30.7241ZM93.5527 31.2078V26.9858H94.1794V27.6235H94.2234C94.3004 27.4146 94.4396 27.2451 94.6412 27.115C94.8428 26.9849 95.07 26.9199 95.3229 26.9199C95.3705 26.9199 95.4301 26.9208 95.5015 26.9226C95.573 26.9245 95.6271 26.9272 95.6637 26.9309V27.5906C95.6417 27.5851 95.5913 27.5768 95.5125 27.5658C95.4356 27.553 95.354 27.5466 95.2679 27.5466C95.0627 27.5466 94.8794 27.5896 94.7182 27.6758C94.5587 27.7601 94.4323 27.8773 94.3389 28.0276C94.2472 28.176 94.2014 28.3455 94.2014 28.5361V31.2078H93.5527ZM98.0743 31.2958C97.6675 31.2958 97.3166 31.206 97.0216 31.0264C96.7284 30.845 96.5021 30.5921 96.3426 30.2678C96.1851 29.9416 96.1063 29.5623 96.1063 29.1298C96.1063 28.6974 96.1851 28.3162 96.3426 27.9864C96.5021 27.6547 96.7238 27.3963 97.0078 27.2112C97.2937 27.0243 97.6272 26.9309 98.0083 26.9309C98.2282 26.9309 98.4454 26.9675 98.6598 27.0408C98.8742 27.1141 99.0693 27.2332 99.2453 27.3982C99.4212 27.5612 99.5613 27.7775 99.6658 28.0468C99.7702 28.3162 99.8225 28.6479 99.8225 29.0419V29.3167H96.568V28.756H99.1628C99.1628 28.5178 99.1151 28.3052 99.0199 28.1183C98.9264 27.9314 98.7926 27.7839 98.6186 27.6758C98.4463 27.5677 98.2429 27.5136 98.0083 27.5136C97.75 27.5136 97.5264 27.5777 97.3377 27.706C97.1508 27.8324 97.0069 27.9974 96.9061 28.2008C96.8053 28.4042 96.7549 28.6222 96.7549 28.855V29.2288C96.7549 29.5476 96.8099 29.8179 96.9199 30.0396C97.0316 30.2595 97.1865 30.4272 97.3844 30.5426C97.5823 30.6563 97.8123 30.7131 98.0743 30.7131C98.2447 30.7131 98.3987 30.6892 98.5361 30.6416C98.6754 30.5921 98.7954 30.5188 98.8962 30.4217C98.997 30.3227 99.0748 30.2 99.1298 30.0534L99.7565 30.2293C99.6905 30.4419 99.5797 30.6288 99.4239 30.79C99.2682 30.9494 99.0757 31.0741 98.8467 31.1638C98.6176 31.2518 98.3602 31.2958 98.0743 31.2958ZM103.635 28.668V31.2078H102.986V26.9858H103.613V27.6455H103.668C103.767 27.4311 103.917 27.2589 104.119 27.1288C104.32 26.9968 104.58 26.9309 104.899 26.9309C105.185 26.9309 105.435 26.9895 105.65 27.1068C105.864 27.2222 106.031 27.3982 106.15 27.6345C106.269 27.8691 106.329 28.1659 106.329 28.5251V31.2078H105.68V28.5691C105.68 28.2374 105.594 27.979 105.422 27.794C105.249 27.6071 105.013 27.5136 104.712 27.5136C104.505 27.5136 104.32 27.5585 104.157 27.6483C103.996 27.7381 103.869 27.8691 103.775 28.0413C103.682 28.2136 103.635 28.4225 103.635 28.668ZM109.229 31.2958C108.848 31.2958 108.514 31.2051 108.226 31.0237C107.94 30.8422 107.716 30.5885 107.555 30.2623C107.396 29.9361 107.316 29.555 107.316 29.1188C107.316 28.679 107.396 28.2951 107.555 27.9671C107.716 27.6391 107.94 27.3844 108.226 27.203C108.514 27.0216 108.848 26.9309 109.229 26.9309C109.61 26.9309 109.944 27.0216 110.23 27.203C110.517 27.3844 110.741 27.6391 110.9 27.9671C111.062 28.2951 111.142 28.679 111.142 29.1188C111.142 29.555 111.062 29.9361 110.9 30.2623C110.741 30.5885 110.517 30.8422 110.23 31.0237C109.944 31.2051 109.61 31.2958 109.229 31.2958ZM109.229 30.7131C109.519 30.7131 109.757 30.6388 109.944 30.4904C110.131 30.342 110.269 30.1468 110.359 29.9049C110.449 29.6631 110.494 29.401 110.494 29.1188C110.494 28.8366 110.449 28.5737 110.359 28.33C110.269 28.0862 110.131 27.8892 109.944 27.739C109.757 27.5887 109.519 27.5136 109.229 27.5136C108.94 27.5136 108.701 27.5887 108.514 27.739C108.328 27.8892 108.189 28.0862 108.099 28.33C108.01 28.5737 107.965 28.8366 107.965 29.1188C107.965 29.401 108.01 29.6631 108.099 29.9049C108.189 30.1468 108.328 30.342 108.514 30.4904C108.701 30.6388 108.94 30.7131 109.229 30.7131ZM112.945 31.2078L111.659 26.9858H112.341L113.253 30.2183H113.297L114.199 26.9858H114.891L115.782 30.2073H115.826L116.739 26.9858H117.42L116.134 31.2078H115.496L114.573 27.9644H114.507L113.583 31.2078H112.945ZM120.455 32.7911V26.9858H121.081V27.6565H121.158C121.206 27.5832 121.272 27.4898 121.356 27.3762C121.442 27.2607 121.565 27.1581 121.725 27.0683C121.886 26.9767 122.104 26.9309 122.379 26.9309C122.734 26.9309 123.048 27.0197 123.319 27.1975C123.59 27.3752 123.802 27.6272 123.954 27.9534C124.106 28.2796 124.182 28.6644 124.182 29.1078C124.182 29.555 124.106 29.9425 123.954 30.2705C123.802 30.5967 123.591 30.8496 123.322 31.0292C123.052 31.2069 122.742 31.2958 122.39 31.2958C122.119 31.2958 121.901 31.2509 121.738 31.1611C121.575 31.0695 121.45 30.9659 121.362 30.8505C121.274 30.7332 121.206 30.6361 121.158 30.5591H121.103V32.7911H120.455ZM121.092 29.0968C121.092 29.4157 121.139 29.697 121.233 29.9407C121.326 30.1826 121.463 30.3722 121.642 30.5097C121.822 30.6453 122.042 30.7131 122.302 30.7131C122.573 30.7131 122.799 30.6416 122.981 30.4987C123.164 30.3539 123.301 30.1597 123.393 29.9159C123.487 29.6704 123.533 29.3974 123.533 29.0968C123.533 28.8 123.487 28.5324 123.396 28.2942C123.306 28.0542 123.17 27.8645 122.986 27.7252C122.805 27.5841 122.577 27.5136 122.302 27.5136C122.038 27.5136 121.816 27.5805 121.637 27.7142C121.457 27.8462 121.322 28.0313 121.23 28.2695C121.138 28.5059 121.092 28.7817 121.092 29.0968ZM125.172 31.2078V26.9858H125.798V27.6235H125.842C125.919 27.4146 126.058 27.2451 126.26 27.115C126.462 26.9849 126.689 26.9199 126.942 26.9199C126.989 26.9199 127.049 26.9208 127.12 26.9226C127.192 26.9245 127.246 26.9272 127.282 26.9309V27.5906C127.261 27.5851 127.21 27.5768 127.131 27.5658C127.054 27.553 126.973 27.5466 126.887 27.5466C126.681 27.5466 126.498 27.5896 126.337 27.6758C126.178 27.7601 126.051 27.8773 125.958 28.0276C125.866 28.176 125.82 28.3455 125.82 28.5361V31.2078H125.172ZM129.638 31.2958C129.257 31.2958 128.923 31.2051 128.635 31.0237C128.349 30.8422 128.125 30.5885 127.964 30.2623C127.805 29.9361 127.725 29.555 127.725 29.1188C127.725 28.679 127.805 28.2951 127.964 27.9671C128.125 27.6391 128.349 27.3844 128.635 27.203C128.923 27.0216 129.257 26.9309 129.638 26.9309C130.019 26.9309 130.353 27.0216 130.639 27.203C130.926 27.3844 131.15 27.6391 131.309 27.9671C131.471 28.2951 131.551 28.679 131.551 29.1188C131.551 29.555 131.471 29.9361 131.309 30.2623C131.15 30.5885 130.926 30.8422 130.639 31.0237C130.353 31.2051 130.019 31.2958 129.638 31.2958ZM129.638 30.7131C129.928 30.7131 130.166 30.6388 130.353 30.4904C130.54 30.342 130.678 30.1468 130.768 29.9049C130.858 29.6631 130.903 29.401 130.903 29.1188C130.903 28.8366 130.858 28.5737 130.768 28.33C130.678 28.0862 130.54 27.8892 130.353 27.739C130.166 27.5887 129.928 27.5136 129.638 27.5136C129.349 27.5136 129.11 27.5887 128.923 27.739C128.737 27.8892 128.598 28.0862 128.508 28.33C128.419 28.5737 128.374 28.8366 128.374 29.1188C128.374 29.401 128.419 29.6631 128.508 29.9049C128.598 30.1468 128.737 30.342 128.923 30.4904C129.11 30.6388 129.349 30.7131 129.638 30.7131ZM134.257 31.2958C133.861 31.2958 133.52 31.2023 133.234 31.0154C132.948 30.8285 132.728 30.571 132.574 30.243C132.42 29.915 132.344 29.5403 132.344 29.1188C132.344 28.69 132.422 28.3116 132.58 27.9836C132.739 27.6538 132.961 27.3963 133.245 27.2112C133.531 27.0243 133.864 26.9309 134.246 26.9309C134.542 26.9309 134.81 26.9858 135.048 27.0958C135.286 27.2057 135.482 27.3597 135.634 27.5576C135.786 27.7555 135.88 27.9864 135.917 28.2502H135.268C135.219 28.0578 135.109 27.8874 134.938 27.739C134.77 27.5887 134.542 27.5136 134.257 27.5136C134.004 27.5136 133.782 27.5796 133.591 27.7115C133.403 27.8416 133.255 28.0258 133.149 28.264C133.044 28.5004 132.992 28.778 132.992 29.0968C132.992 29.423 133.044 29.707 133.146 29.9489C133.251 30.1908 133.397 30.3786 133.586 30.5124C133.776 30.6462 134 30.7131 134.257 30.7131C134.425 30.7131 134.578 30.6837 134.716 30.6251C134.853 30.5665 134.969 30.4822 135.065 30.3722C135.16 30.2623 135.228 30.1303 135.268 29.9764H135.917C135.88 30.2256 135.789 30.4501 135.645 30.6498C135.502 30.8477 135.312 31.0053 135.076 31.1226C134.841 31.2381 134.568 31.2958 134.257 31.2958ZM138.635 31.2958C138.228 31.2958 137.878 31.206 137.582 31.0264C137.289 30.845 137.063 30.5921 136.904 30.2678C136.746 29.9416 136.667 29.5623 136.667 29.1298C136.667 28.6974 136.746 28.3162 136.904 27.9864C137.063 27.6547 137.285 27.3963 137.569 27.2112C137.855 27.0243 138.188 26.9309 138.569 26.9309C138.789 26.9309 139.006 26.9675 139.221 27.0408C139.435 27.1141 139.63 27.2332 139.806 27.3982C139.982 27.5612 140.122 27.7775 140.227 28.0468C140.331 28.3162 140.383 28.6479 140.383 29.0419V29.3167H137.129V28.756H139.724C139.724 28.5178 139.676 28.3052 139.581 28.1183C139.487 27.9314 139.354 27.7839 139.179 27.6758C139.007 27.5677 138.804 27.5136 138.569 27.5136C138.311 27.5136 138.087 27.5777 137.899 27.706C137.712 27.8324 137.568 27.9974 137.467 28.2008C137.366 28.4042 137.316 28.6222 137.316 28.855V29.2288C137.316 29.5476 137.371 29.8179 137.481 30.0396C137.593 30.2595 137.747 30.4272 137.945 30.5426C138.143 30.6563 138.373 30.7131 138.635 30.7131C138.806 30.7131 138.96 30.6892 139.097 30.6416C139.236 30.5921 139.356 30.5188 139.457 30.4217C139.558 30.3227 139.636 30.2 139.691 30.0534L140.317 30.2293C140.251 30.4419 140.141 30.6288 139.985 30.79C139.829 30.9494 139.637 31.0741 139.408 31.1638C139.179 31.2518 138.921 31.2958 138.635 31.2958ZM144.361 27.9314L143.778 28.0963C143.741 27.9992 143.687 27.9048 143.616 27.8132C143.546 27.7197 143.451 27.6428 143.33 27.5823C143.209 27.5218 143.054 27.4916 142.865 27.4916C142.607 27.4916 142.392 27.5512 142.22 27.6703C142.049 27.7875 141.964 27.9369 141.964 28.1183C141.964 28.2796 142.023 28.4069 142.14 28.5004C142.257 28.5938 142.44 28.6717 142.69 28.734L143.316 28.8879C143.694 28.9796 143.975 29.1197 144.16 29.3085C144.345 29.4954 144.438 29.7364 144.438 30.0314C144.438 30.2733 144.368 30.4895 144.229 30.6801C144.091 30.8707 143.899 31.0209 143.652 31.1309C143.404 31.2408 143.117 31.2958 142.789 31.2958C142.358 31.2958 142.001 31.2023 141.719 31.0154C141.437 30.8285 141.258 30.5555 141.183 30.1963L141.799 30.0424C141.858 30.2696 141.968 30.44 142.132 30.5536C142.296 30.6673 142.512 30.7241 142.778 30.7241C143.08 30.7241 143.32 30.6599 143.498 30.5316C143.677 30.4015 143.767 30.2458 143.767 30.0644C143.767 29.9178 143.716 29.795 143.613 29.696C143.51 29.5953 143.353 29.5201 143.14 29.4707L142.437 29.3057C142.05 29.2141 141.766 29.0721 141.585 28.8797C141.405 28.6855 141.315 28.4427 141.315 28.1513C141.315 27.9131 141.382 27.7023 141.516 27.5191C141.651 27.3358 141.836 27.192 142.068 27.0875C142.303 26.9831 142.569 26.9309 142.865 26.9309C143.283 26.9309 143.611 27.0225 143.849 27.2057C144.09 27.389 144.26 27.6309 144.361 27.9314ZM148.405 27.9314L147.822 28.0963C147.785 27.9992 147.731 27.9048 147.66 27.8132C147.59 27.7197 147.495 27.6428 147.374 27.5823C147.253 27.5218 147.098 27.4916 146.909 27.4916C146.651 27.4916 146.436 27.5512 146.264 27.6703C146.093 27.7875 146.008 27.9369 146.008 28.1183C146.008 28.2796 146.067 28.4069 146.184 28.5004C146.301 28.5938 146.484 28.6717 146.734 28.734L147.36 28.8879C147.738 28.9796 148.019 29.1197 148.204 29.3085C148.389 29.4954 148.482 29.7364 148.482 30.0314C148.482 30.2733 148.412 30.4895 148.273 30.6801C148.135 30.8707 147.943 31.0209 147.696 31.1309C147.448 31.2408 147.161 31.2958 146.833 31.2958C146.402 31.2958 146.045 31.2023 145.763 31.0154C145.481 30.8285 145.302 30.5555 145.227 30.1963L145.843 30.0424C145.902 30.2696 146.012 30.44 146.176 30.5536C146.34 30.6673 146.556 30.7241 146.822 30.7241C147.124 30.7241 147.364 30.6599 147.542 30.5316C147.721 30.4015 147.811 30.2458 147.811 30.0644C147.811 29.9178 147.76 29.795 147.657 29.696C147.554 29.5953 147.397 29.5201 147.184 29.4707L146.481 29.3057C146.094 29.2141 145.81 29.0721 145.629 28.8797C145.449 28.6855 145.359 28.4427 145.359 28.1513C145.359 27.9131 145.426 27.7023 145.56 27.5191C145.695 27.3358 145.88 27.192 146.112 27.0875C146.347 26.9831 146.613 26.9309 146.909 26.9309C147.327 26.9309 147.655 27.0225 147.893 27.2057C148.134 27.389 148.304 27.6309 148.405 27.9314ZM151.228 31.2958C150.822 31.2958 150.471 31.206 150.176 31.0264C149.882 30.845 149.656 30.5921 149.497 30.2678C149.339 29.9416 149.26 29.5623 149.26 29.1298C149.26 28.6974 149.339 28.3162 149.497 27.9864C149.656 27.6547 149.878 27.3963 150.162 27.2112C150.448 27.0243 150.781 26.9309 151.162 26.9309C151.382 26.9309 151.599 26.9675 151.814 27.0408C152.028 27.1141 152.223 27.2332 152.399 27.3982C152.575 27.5612 152.715 27.7775 152.82 28.0468C152.924 28.3162 152.976 28.6479 152.976 29.0419V29.3167H149.722V28.756H152.317C152.317 28.5178 152.269 28.3052 152.174 28.1183C152.08 27.9314 151.947 27.7839 151.773 27.6758C151.6 27.5677 151.397 27.5136 151.162 27.5136C150.904 27.5136 150.68 27.5777 150.492 27.706C150.305 27.8324 150.161 27.9974 150.06 28.2008C149.959 28.4042 149.909 28.6222 149.909 28.855V29.2288C149.909 29.5476 149.964 29.8179 150.074 30.0396C150.186 30.2595 150.341 30.4272 150.538 30.5426C150.736 30.6563 150.966 30.7131 151.228 30.7131C151.399 30.7131 151.553 30.6892 151.69 30.6416C151.829 30.5921 151.949 30.5188 152.05 30.4217C152.151 30.3227 152.229 30.2 152.284 30.0534L152.911 30.2293C152.845 30.4419 152.734 30.6288 152.578 30.79C152.422 30.9494 152.23 31.0741 152.001 31.1638C151.772 31.2518 151.514 31.2958 151.228 31.2958ZM155.558 31.2958C155.206 31.2958 154.895 31.2069 154.626 31.0292C154.356 30.8496 154.146 30.5967 153.994 30.2705C153.841 29.9425 153.765 29.555 153.765 29.1078C153.765 28.6644 153.841 28.2796 153.994 27.9534C154.146 27.6272 154.357 27.3752 154.628 27.1975C154.9 27.0197 155.213 26.9309 155.568 26.9309C155.843 26.9309 156.061 26.9767 156.22 27.0683C156.381 27.1581 156.504 27.2607 156.588 27.3762C156.674 27.4898 156.741 27.5832 156.789 27.6565H156.844V25.5785H157.493V31.2078H156.866V30.5591H156.789C156.741 30.6361 156.673 30.7332 156.586 30.8505C156.498 30.9659 156.372 31.0695 156.209 31.1611C156.046 31.2509 155.829 31.2958 155.558 31.2958ZM155.645 30.7131C155.906 30.7131 156.126 30.6453 156.305 30.5097C156.485 30.3722 156.621 30.1826 156.715 29.9407C156.808 29.697 156.855 29.4157 156.855 29.0968C156.855 28.7817 156.809 28.5059 156.717 28.2695C156.626 28.0313 156.49 27.8462 156.311 27.7142C156.131 27.5805 155.909 27.5136 155.645 27.5136C155.371 27.5136 155.142 27.5841 154.958 27.7252C154.777 27.8645 154.64 28.0542 154.549 28.2942C154.459 28.5324 154.414 28.8 154.414 29.0968C154.414 29.3974 154.46 29.6704 154.551 29.9159C154.645 30.1597 154.782 30.3539 154.964 30.4987C155.147 30.6416 155.374 30.7131 155.645 30.7131ZM160.948 31.2078V26.9858H161.596V31.2078H160.948ZM161.278 26.2822C161.151 26.2822 161.042 26.2391 160.95 26.153C160.861 26.0669 160.816 25.9633 160.816 25.8424C160.816 25.7215 160.861 25.6179 160.95 25.5318C161.042 25.4457 161.151 25.4026 161.278 25.4026C161.404 25.4026 161.512 25.4457 161.602 25.5318C161.693 25.6179 161.739 25.7215 161.739 25.8424C161.739 25.9633 161.693 26.0669 161.602 26.153C161.512 26.2391 161.404 26.2822 161.278 26.2822ZM162.784 31.2078V26.9858H163.411V27.6455H163.466C163.554 27.4201 163.696 27.2451 163.892 27.1205C164.088 26.9941 164.324 26.9309 164.599 26.9309C164.877 26.9309 165.109 26.9941 165.294 27.1205C165.481 27.2451 165.627 27.4201 165.731 27.6455H165.775C165.883 27.4275 166.045 27.2543 166.262 27.126C166.478 26.9959 166.737 26.9309 167.039 26.9309C167.417 26.9309 167.726 27.0491 167.966 27.2855C168.206 27.52 168.326 27.8856 168.326 28.3822V31.2078H167.677V28.3822C167.677 28.0707 167.592 27.848 167.422 27.7142C167.251 27.5805 167.05 27.5136 166.82 27.5136C166.523 27.5136 166.293 27.6034 166.13 27.783C165.967 27.9607 165.885 28.1861 165.885 28.4591V31.2078H165.225V28.3162C165.225 28.0762 165.147 27.8828 164.992 27.7362C164.836 27.5878 164.635 27.5136 164.39 27.5136C164.221 27.5136 164.064 27.5585 163.917 27.6483C163.772 27.7381 163.655 27.8627 163.565 28.0221C163.477 28.1797 163.433 28.362 163.433 28.5691V31.2078H162.784ZM169.512 31.2078V26.9858H170.139V27.6455H170.194C170.282 27.4201 170.424 27.2451 170.62 27.1205C170.816 26.9941 171.051 26.9309 171.326 26.9309C171.605 26.9309 171.836 26.9941 172.021 27.1205C172.208 27.2451 172.354 27.4201 172.458 27.6455H172.502C172.611 27.4275 172.773 27.2543 172.989 27.126C173.205 26.9959 173.464 26.9309 173.767 26.9309C174.144 26.9309 174.453 27.0491 174.693 27.2855C174.933 27.52 175.053 27.8856 175.053 28.3822V31.2078H174.405V28.3822C174.405 28.0707 174.319 27.848 174.149 27.7142C173.978 27.5805 173.778 27.5136 173.547 27.5136C173.25 27.5136 173.02 27.6034 172.857 27.783C172.694 27.9607 172.612 28.1861 172.612 28.4591V31.2078H171.953V28.3162C171.953 28.0762 171.875 27.8828 171.719 27.7362C171.563 27.5878 171.363 27.5136 171.117 27.5136C170.949 27.5136 170.791 27.5585 170.644 27.6483C170.5 27.7381 170.382 27.8627 170.293 28.0221C170.205 28.1797 170.161 28.362 170.161 28.5691V31.2078H169.512ZM178.009 31.2958C177.603 31.2958 177.252 31.206 176.957 31.0264C176.663 30.845 176.437 30.5921 176.278 30.2678C176.12 29.9416 176.041 29.5623 176.041 29.1298C176.041 28.6974 176.12 28.3162 176.278 27.9864C176.437 27.6547 176.659 27.3963 176.943 27.2112C177.229 27.0243 177.562 26.9309 177.943 26.9309C178.163 26.9309 178.38 26.9675 178.595 27.0408C178.809 27.1141 179.004 27.2332 179.18 27.3982C179.356 27.5612 179.496 27.7775 179.601 28.0468C179.705 28.3162 179.758 28.6479 179.758 29.0419V29.3167H176.503V28.756H179.098C179.098 28.5178 179.05 28.3052 178.955 28.1183C178.862 27.9314 178.728 27.7839 178.554 27.6758C178.381 27.5677 178.178 27.5136 177.943 27.5136C177.685 27.5136 177.462 27.5777 177.273 27.706C177.086 27.8324 176.942 27.9974 176.841 28.2008C176.74 28.4042 176.69 28.6222 176.69 28.855V29.2288C176.69 29.5476 176.745 29.8179 176.855 30.0396C176.967 30.2595 177.122 30.4272 177.32 30.5426C177.517 30.6563 177.747 30.7131 178.009 30.7131C178.18 30.7131 178.334 30.6892 178.471 30.6416C178.61 30.5921 178.73 30.5188 178.831 30.4217C178.932 30.3227 179.01 30.2 179.065 30.0534L179.692 30.2293C179.626 30.4419 179.515 30.6288 179.359 30.79C179.203 30.9494 179.011 31.0741 178.782 31.1638C178.553 31.2518 178.295 31.2958 178.009 31.2958ZM182.339 31.2958C181.987 31.2958 181.676 31.2069 181.407 31.0292C181.137 30.8496 180.927 30.5967 180.775 30.2705C180.623 29.9425 180.546 29.555 180.546 29.1078C180.546 28.6644 180.623 28.2796 180.775 27.9534C180.927 27.6272 181.138 27.3752 181.41 27.1975C181.681 27.0197 181.994 26.9309 182.35 26.9309C182.624 26.9309 182.842 26.9767 183.001 27.0683C183.162 27.1581 183.285 27.2607 183.369 27.3762C183.455 27.4898 183.522 27.5832 183.57 27.6565H183.625V25.5785H184.274V31.2078H183.647V30.5591H183.57C183.522 30.6361 183.455 30.7332 183.367 30.8505C183.279 30.9659 183.153 31.0695 182.99 31.1611C182.827 31.2509 182.61 31.2958 182.339 31.2958ZM182.427 30.7131C182.687 30.7131 182.907 30.6453 183.086 30.5097C183.266 30.3722 183.402 30.1826 183.496 29.9407C183.589 29.697 183.636 29.4157 183.636 29.0968C183.636 28.7817 183.59 28.5059 183.499 28.2695C183.407 28.0313 183.271 27.8462 183.092 27.7142C182.912 27.5805 182.69 27.5136 182.427 27.5136C182.152 27.5136 181.923 27.5841 181.739 27.7252C181.558 27.8645 181.421 28.0542 181.33 28.2942C181.24 28.5324 181.195 28.8 181.195 29.0968C181.195 29.3974 181.241 29.6704 181.333 29.9159C181.426 30.1597 181.563 30.3539 181.745 30.4987C181.928 30.6416 182.155 30.7131 182.427 30.7131ZM185.552 31.2078V26.9858H186.201V31.2078H185.552ZM185.882 26.2822C185.755 26.2822 185.646 26.2391 185.555 26.153C185.465 26.0669 185.42 25.9633 185.42 25.8424C185.42 25.7215 185.465 25.6179 185.555 25.5318C185.646 25.4457 185.755 25.4026 185.882 25.4026C186.008 25.4026 186.116 25.4457 186.206 25.5318C186.298 25.6179 186.343 25.7215 186.343 25.8424C186.343 25.9633 186.298 26.0669 186.206 26.153C186.116 26.2391 186.008 26.2822 185.882 26.2822ZM188.631 31.3068C188.363 31.3068 188.121 31.2564 187.903 31.1556C187.685 31.053 187.511 30.9055 187.383 30.7131C187.255 30.5188 187.191 30.2843 187.191 30.0094C187.191 29.7675 187.238 29.5714 187.334 29.4212C187.429 29.2691 187.556 29.15 187.716 29.0639C187.875 28.9777 188.051 28.9136 188.243 28.8714C188.438 28.8275 188.633 28.7926 188.829 28.767C189.085 28.734 189.293 28.7093 189.453 28.6928C189.614 28.6745 189.731 28.6442 189.805 28.6021C189.88 28.5599 189.917 28.4866 189.917 28.3822V28.3602C189.917 28.089 189.843 27.8783 189.695 27.728C189.548 27.5777 189.326 27.5026 189.027 27.5026C188.717 27.5026 188.474 27.5704 188.298 27.706C188.123 27.8416 187.999 27.9864 187.927 28.1403L187.312 27.9204C187.422 27.6639 187.568 27.4641 187.751 27.3212C187.937 27.1764 188.138 27.0756 188.356 27.0188C188.576 26.9602 188.792 26.9309 189.005 26.9309C189.14 26.9309 189.296 26.9474 189.472 26.9804C189.65 27.0115 189.821 27.0766 189.986 27.1755C190.153 27.2745 190.291 27.4238 190.401 27.6235C190.511 27.8233 190.566 28.0908 190.566 28.4262V31.2078H189.917V30.6361H189.884C189.84 30.7277 189.767 30.8258 189.665 30.9302C189.562 31.0347 189.425 31.1235 189.255 31.1968C189.085 31.2701 188.877 31.3068 188.631 31.3068ZM188.73 30.7241C188.987 30.7241 189.203 30.6737 189.379 30.5729C189.556 30.4721 189.69 30.342 189.78 30.1826C189.872 30.0231 189.917 29.8555 189.917 29.6796V29.0858C189.89 29.1188 189.829 29.1491 189.736 29.1765C189.644 29.2022 189.538 29.2251 189.417 29.2453C189.298 29.2636 189.182 29.2801 189.068 29.2947C188.956 29.3076 188.866 29.3186 188.796 29.3277C188.627 29.3497 188.47 29.3854 188.323 29.4349C188.178 29.4826 188.061 29.555 187.971 29.6521C187.883 29.7474 187.839 29.8775 187.839 30.0424C187.839 30.2678 187.923 30.4382 188.09 30.5536C188.258 30.6673 188.472 30.7241 188.73 30.7241ZM193.586 26.9858V27.5356H191.398V26.9858H193.586ZM192.036 25.9743H192.685V29.9984C192.685 30.1816 192.711 30.3191 192.764 30.4107C192.819 30.5005 192.889 30.561 192.973 30.5921C193.059 30.6214 193.15 30.6361 193.245 30.6361C193.317 30.6361 193.375 30.6324 193.421 30.6251C193.467 30.6159 193.504 30.6086 193.531 30.6031L193.663 31.1858C193.619 31.2023 193.558 31.2188 193.479 31.2353C193.4 31.2536 193.3 31.2628 193.179 31.2628C192.996 31.2628 192.817 31.2234 192.641 31.1446C192.467 31.0658 192.322 30.9458 192.206 30.7845C192.093 30.6233 192.036 30.4199 192.036 30.1743V25.9743ZM196.287 31.2958C195.88 31.2958 195.529 31.206 195.234 31.0264C194.941 30.845 194.715 30.5921 194.555 30.2678C194.398 29.9416 194.319 29.5623 194.319 29.1298C194.319 28.6974 194.398 28.3162 194.555 27.9864C194.715 27.6547 194.936 27.3963 195.22 27.2112C195.506 27.0243 195.84 26.9309 196.221 26.9309C196.441 26.9309 196.658 26.9675 196.872 27.0408C197.087 27.1141 197.282 27.2332 197.458 27.3982C197.634 27.5612 197.774 27.7775 197.878 28.0468C197.983 28.3162 198.035 28.6479 198.035 29.0419V29.3167H194.781V28.756H197.375C197.375 28.5178 197.328 28.3052 197.232 28.1183C197.139 27.9314 197.005 27.7839 196.831 27.6758C196.659 27.5677 196.455 27.5136 196.221 27.5136C195.962 27.5136 195.739 27.5777 195.55 27.706C195.363 27.8324 195.219 27.9974 195.119 28.2008C195.018 28.4042 194.967 28.6222 194.967 28.855V29.2288C194.967 29.5476 195.022 29.8179 195.132 30.0396C195.244 30.2595 195.399 30.4272 195.597 30.5426C195.795 30.6563 196.025 30.7131 196.287 30.7131C196.457 30.7131 196.611 30.6892 196.749 30.6416C196.888 30.5921 197.008 30.5188 197.109 30.4217C197.209 30.3227 197.287 30.2 197.342 30.0534L197.969 30.2293C197.903 30.4419 197.792 30.6288 197.636 30.79C197.481 30.9494 197.288 31.0741 197.059 31.1638C196.83 31.2518 196.573 31.2958 196.287 31.2958ZM199.67 25.5785V31.2078H199.022V25.5785H199.67ZM201.276 32.7911C201.166 32.7911 201.068 32.7819 200.982 32.7636C200.896 32.7471 200.837 32.7306 200.804 32.7141L200.968 32.1424C201.126 32.1827 201.265 32.1974 201.386 32.1864C201.507 32.1754 201.614 32.1213 201.708 32.0242C201.803 31.9289 201.89 31.7741 201.969 31.5597L202.09 31.2298L200.529 26.9858H201.232L202.398 30.3502H202.442L203.607 26.9858H204.311L202.519 31.8235C202.438 32.0416 202.338 32.2221 202.219 32.365C202.1 32.5098 201.962 32.617 201.804 32.6866C201.648 32.7562 201.472 32.7911 201.276 32.7911ZM205.375 31.2518C205.24 31.2518 205.123 31.2032 205.026 31.1061C204.929 31.009 204.881 30.8926 204.881 30.757C204.881 30.6214 204.929 30.5051 205.026 30.408C205.123 30.3108 205.24 30.2623 205.375 30.2623C205.511 30.2623 205.627 30.3108 205.724 30.408C205.822 30.5051 205.87 30.6214 205.87 30.757C205.87 30.8468 205.847 30.9293 205.801 31.0044C205.757 31.0796 205.698 31.14 205.623 31.1858C205.549 31.2298 205.467 31.2518 205.375 31.2518Z" fill="#374151"/>
</g>
<rect x="0.75" y="0.75" width="163.5" height="55.5" rx="4.75" stroke="#EDEDED" stroke-width="1.5"/>
<defs>
<clipPath id="clip0_22569_368604">
<rect x="1.5" y="1.5" width="162" height="54" rx="4" fill="white"/>
</clipPath>
</defs>
</svg>
