<svg width="165" height="57" viewBox="0 0 165 57" fill="none" xmlns="http://www.w3.org/2000/svg">
<g clip-path="url(#clip0_22697_375068)">
<rect x="1.5" y="1.5" width="162" height="54" rx="4" fill="white"/>
<rect x="13.9929" y="13.9929" width="338.112" height="28.7577" rx="3.45012" fill="#FCF1F1"/>
<rect x="13.9929" y="13.9929" width="338.112" height="28.7577" rx="3.45012" stroke="#D90000" stroke-width="0.985748"/>
<path d="M29.7654 27.3004H30.7511V29.7648H29.7654V27.3004ZM29.7649 30.2577H30.7506V31.2434H29.7649V30.2577Z" fill="#D90000"/>
<path d="M31.1292 24.4418C30.9576 24.1189 30.6235 23.9183 30.2578 23.9183C29.892 23.9183 29.5579 24.1189 29.3864 24.4423L25.7696 31.275C25.6894 31.425 25.6496 31.5934 25.6543 31.7635C25.659 31.9336 25.7079 32.0995 25.7963 32.2449C25.8833 32.391 26.007 32.5119 26.1551 32.5955C26.3032 32.6792 26.4705 32.7228 26.6406 32.7221H33.875C34.2239 32.7221 34.5398 32.5436 34.7197 32.2449C34.808 32.0995 34.8568 31.9336 34.8615 31.7635C34.8661 31.5934 34.8265 31.4251 34.7464 31.275L31.1292 24.4418ZM26.6406 31.7363L30.2578 24.9036L33.8774 31.7363H26.6406Z" fill="#D90000"/>
<path d="M42.4676 26.2526V25.6365H46.769V26.2526H44.9656V31.3717H44.2711V26.2526H42.4676ZM48.4122 28.7841V31.3717H47.7513V25.6365H48.4122V27.7424H48.4682C48.569 27.5202 48.7202 27.3438 48.9219 27.2131C49.1254 27.0806 49.3961 27.0143 49.734 27.0143C50.0271 27.0143 50.2838 27.0731 50.5041 27.1907C50.7244 27.3065 50.8952 27.4848 51.0166 27.7256C51.1398 27.9646 51.2014 28.2689 51.2014 28.6385V31.3717H50.5405V28.6833C50.5405 28.3417 50.4518 28.0775 50.2745 27.8908C50.099 27.7022 49.8553 27.608 49.5436 27.608C49.327 27.608 49.1328 27.6537 48.9611 27.7452C48.7912 27.8367 48.6568 27.9702 48.5578 28.1456C48.4607 28.3211 48.4122 28.534 48.4122 28.7841ZM54.214 31.4613C53.7995 31.4613 53.442 31.3699 53.1414 31.1869C52.8427 31.0021 52.6121 30.7444 52.4497 30.414C52.2891 30.0817 52.2089 29.6952 52.2089 29.2546C52.2089 28.814 52.2891 28.4257 52.4497 28.0896C52.6121 27.7517 52.838 27.4885 53.1274 27.2999C53.4186 27.1095 53.7584 27.0143 54.1467 27.0143C54.3708 27.0143 54.592 27.0516 54.8104 27.1263C55.0289 27.201 55.2277 27.3223 55.4069 27.4904C55.5862 27.6565 55.729 27.8768 55.8354 28.1513C55.9418 28.4257 55.995 28.7636 55.995 29.165V29.445H52.6793V28.8738H55.3229C55.3229 28.6311 55.2744 28.4145 55.1773 28.2241C55.0821 28.0336 54.9458 27.8833 54.7684 27.7732C54.5929 27.663 54.3857 27.608 54.1467 27.608C53.8835 27.608 53.6557 27.6733 53.4634 27.804C53.273 27.9328 53.1265 28.1008 53.0238 28.3081C52.9211 28.5153 52.8698 28.7375 52.8698 28.9746V29.3554C52.8698 29.6803 52.9258 29.9557 53.0378 30.1816C53.1517 30.4056 53.3094 30.5764 53.511 30.694C53.7127 30.8098 53.947 30.8677 54.214 30.8677C54.3876 30.8677 54.5444 30.8434 54.6844 30.7948C54.8263 30.7444 54.9486 30.6698 55.0513 30.5708C55.154 30.47 55.2333 30.3449 55.2893 30.1956L55.9278 30.3748C55.8606 30.5914 55.7477 30.7818 55.589 30.9461C55.4303 31.1085 55.2342 31.2354 55.0009 31.3269C54.7675 31.4165 54.5052 31.4613 54.214 31.4613ZM60.9546 33.0744C60.6353 33.0744 60.3609 33.0333 60.1312 32.9512C59.9016 32.8709 59.7102 32.7645 59.5572 32.6319C59.4059 32.5012 59.2855 32.3612 59.1959 32.2119L59.7224 31.8422C59.7821 31.9206 59.8577 32.0102 59.9492 32.111C60.0407 32.2137 60.1658 32.3024 60.3245 32.3771C60.485 32.4536 60.6951 32.4919 60.9546 32.4919C61.3018 32.4919 61.5884 32.4079 61.8143 32.2399C62.0402 32.0718 62.1531 31.8086 62.1531 31.4501V30.5764H62.0971C62.0486 30.6548 61.9795 30.7519 61.8899 30.8677C61.8022 30.9815 61.6752 31.0833 61.5091 31.1729C61.3448 31.2607 61.1226 31.3045 60.8425 31.3045C60.4953 31.3045 60.1835 31.2224 59.9072 31.0581C59.6328 30.8938 59.4153 30.6548 59.2547 30.3412C59.096 30.0275 59.0167 29.6467 59.0167 29.1986C59.0167 28.758 59.0942 28.3744 59.2491 28.0476C59.4041 27.7191 59.6197 27.4651 59.896 27.2859C60.1723 27.1048 60.4916 27.0143 60.8538 27.0143C61.1338 27.0143 61.356 27.061 61.5203 27.1543C61.6864 27.2458 61.8134 27.3503 61.9011 27.4679C61.9907 27.5837 62.0598 27.6789 62.1083 27.7536H62.1756V27.0703H62.814V31.495C62.814 31.8646 62.73 32.1652 62.562 32.3967C62.3959 32.6301 62.1718 32.8009 61.8899 32.9092C61.6099 33.0193 61.2981 33.0744 60.9546 33.0744ZM60.9322 30.7108C61.1973 30.7108 61.4213 30.6502 61.6043 30.5288C61.7872 30.4075 61.9263 30.2329 62.0215 30.0051C62.1167 29.7774 62.1643 29.5048 62.1643 29.1874C62.1643 28.8775 62.1177 28.604 62.0243 28.3669C61.931 28.1298 61.7928 27.944 61.6099 27.8096C61.4269 27.6752 61.201 27.608 60.9322 27.608C60.6521 27.608 60.4188 27.6789 60.2321 27.8208C60.0472 27.9627 59.9081 28.1531 59.8148 28.3921C59.7233 28.6311 59.6776 28.8962 59.6776 29.1874C59.6776 29.4861 59.7242 29.7503 59.8176 29.9799C59.9128 30.2077 60.0528 30.3869 60.2377 30.5176C60.4244 30.6464 60.6559 30.7108 60.9322 30.7108ZM64.0238 31.3717V27.0703H64.6623V27.72H64.7071C64.7855 27.5072 64.9274 27.3345 65.1328 27.2019C65.3382 27.0694 65.5697 27.0031 65.8273 27.0031C65.8758 27.0031 65.9365 27.004 66.0093 27.0059C66.0821 27.0077 66.1372 27.0105 66.1746 27.0143V27.6864C66.1521 27.6808 66.1008 27.6724 66.0205 27.6612C65.9421 27.6481 65.859 27.6416 65.7713 27.6416C65.5622 27.6416 65.3755 27.6854 65.2112 27.7732C65.0488 27.8591 64.92 27.9786 64.8247 28.1316C64.7314 28.2829 64.6847 28.4556 64.6847 28.6497V31.3717H64.0238ZM68.2238 31.4725C67.9512 31.4725 67.7038 31.4212 67.4816 31.3185C67.2595 31.214 67.0831 31.0637 66.9524 30.8677C66.8217 30.6698 66.7563 30.4308 66.7563 30.1508C66.7563 29.9043 66.8049 29.7046 66.902 29.5515C66.999 29.3965 67.1288 29.2752 67.2912 29.1874C67.4536 29.0997 67.6329 29.0343 67.8289 28.9914C68.0268 28.9466 68.2256 28.9111 68.4254 28.885C68.6868 28.8514 68.8987 28.8262 69.0611 28.8093C69.2254 28.7907 69.3449 28.7599 69.4195 28.7169C69.4961 28.674 69.5344 28.5993 69.5344 28.4929V28.4705C69.5344 28.1942 69.4587 27.9795 69.3075 27.8264C69.1582 27.6733 68.9313 27.5968 68.627 27.5968C68.3115 27.5968 68.0641 27.6658 67.8849 27.804C67.7057 27.9422 67.5797 28.0896 67.5069 28.2465L66.8796 28.0224C66.9916 27.7611 67.1409 27.5576 67.3276 27.4119C67.5162 27.2645 67.7216 27.1618 67.9437 27.1039C68.1678 27.0442 68.3881 27.0143 68.6046 27.0143C68.7428 27.0143 68.9015 27.0311 69.0807 27.0647C69.2618 27.0964 69.4363 27.1627 69.6044 27.2635C69.7743 27.3643 69.9152 27.5165 70.0272 27.72C70.1392 27.9235 70.1953 28.1961 70.1953 28.5377V31.3717H69.5344V30.7892H69.5008C69.4559 30.8826 69.3813 30.9825 69.2767 31.0889C69.1722 31.1953 69.0331 31.2859 68.8595 31.3605C68.6858 31.4352 68.4739 31.4725 68.2238 31.4725ZM68.3246 30.8789C68.5859 30.8789 68.8062 30.8275 68.9855 30.7248C69.1666 30.6222 69.3029 30.4896 69.3943 30.3272C69.4877 30.1648 69.5344 29.9939 69.5344 29.8147V29.2098C69.5064 29.2434 69.4447 29.2742 69.3495 29.3022C69.2562 29.3284 69.1479 29.3517 69.0247 29.3722C68.9033 29.3909 68.7848 29.4077 68.669 29.4226C68.5551 29.4357 68.4627 29.4469 68.3918 29.4562C68.22 29.4786 68.0595 29.5151 67.9101 29.5655C67.7626 29.614 67.6431 29.6877 67.5517 29.7867C67.462 29.8838 67.4172 30.0163 67.4172 30.1844C67.4172 30.414 67.5022 30.5876 67.6721 30.7052C67.8438 30.821 68.0613 30.8789 68.3246 30.8789ZM72.0624 28.7841V31.3717H71.4015V27.0703H72.04V27.7424H72.096C72.1969 27.524 72.3499 27.3485 72.5553 27.2159C72.7607 27.0815 73.0258 27.0143 73.3506 27.0143C73.6419 27.0143 73.8967 27.074 74.1151 27.1935C74.3336 27.3111 74.5035 27.4904 74.6248 27.7312C74.7462 27.9702 74.8068 28.2726 74.8068 28.6385V31.3717H74.1459V28.6833C74.1459 28.3454 74.0582 28.0822 73.8827 27.8936C73.7072 27.7032 73.4664 27.608 73.1602 27.608C72.9492 27.608 72.7607 27.6537 72.5945 27.7452C72.4302 27.8367 72.3005 27.9702 72.2053 28.1456C72.11 28.3211 72.0624 28.534 72.0624 28.7841ZM77.8852 27.0703V27.6304H75.6561V27.0703H77.8852ZM76.3058 26.0397H76.9667V30.1395C76.9667 30.3262 76.9937 30.4663 77.0479 30.5596C77.1039 30.6511 77.1748 30.7127 77.2607 30.7444C77.3485 30.7743 77.4409 30.7892 77.538 30.7892C77.6108 30.7892 77.6705 30.7855 77.7172 30.778C77.7639 30.7687 77.8012 30.7612 77.8292 30.7556L77.9636 31.3493C77.9188 31.3661 77.8563 31.3829 77.776 31.3997C77.6957 31.4184 77.594 31.4277 77.4708 31.4277C77.2841 31.4277 77.1011 31.3876 76.9219 31.3073C76.7445 31.227 76.597 31.1048 76.4794 30.9405C76.3637 30.7762 76.3058 30.5689 76.3058 30.3188V26.0397ZM84.1442 28.0336L83.5505 28.2017C83.5131 28.1027 83.4581 28.0066 83.3852 27.9132C83.3143 27.818 83.2172 27.7396 83.094 27.678C82.9708 27.6164 82.813 27.5856 82.6207 27.5856C82.3575 27.5856 82.1381 27.6462 81.9626 27.7676C81.789 27.8871 81.7022 28.0392 81.7022 28.2241C81.7022 28.3884 81.7619 28.5181 81.8814 28.6133C82.0009 28.7085 82.1876 28.7879 82.4415 28.8514L83.08 29.0082C83.4646 29.1015 83.7512 29.2443 83.9397 29.4366C84.1283 29.6271 84.2226 29.8726 84.2226 30.1732C84.2226 30.4196 84.1516 30.6399 84.0097 30.8341C83.8697 31.0282 83.6737 31.1813 83.4216 31.2933C83.1696 31.4053 82.8765 31.4613 82.5423 31.4613C82.1036 31.4613 81.7405 31.3661 81.4529 31.1757C81.1654 30.9853 80.9834 30.7071 80.9069 30.3412L81.5342 30.1844C81.5939 30.4159 81.7069 30.5895 81.873 30.7052C82.041 30.821 82.2604 30.8789 82.5311 30.8789C82.8392 30.8789 83.0837 30.8135 83.2648 30.6828C83.4478 30.5503 83.5393 30.3916 83.5393 30.2068C83.5393 30.0574 83.487 29.9323 83.3824 29.8315C83.2779 29.7288 83.1173 29.6523 82.9008 29.6019L82.1839 29.4338C81.7899 29.3405 81.5006 29.1958 81.3157 28.9998C81.1328 28.8019 81.0413 28.5545 81.0413 28.2577C81.0413 28.015 81.1094 27.8003 81.2457 27.6136C81.3839 27.4269 81.5715 27.2803 81.8086 27.1739C82.0476 27.0675 82.3183 27.0143 82.6207 27.0143C83.0464 27.0143 83.3806 27.1076 83.6233 27.2943C83.8678 27.481 84.0415 27.7275 84.1442 28.0336ZM85.6431 32.9848C85.5311 32.9848 85.4312 32.9754 85.3434 32.9568C85.2557 32.94 85.195 32.9232 85.1614 32.9064L85.3294 32.3239C85.49 32.365 85.6319 32.3799 85.7551 32.3687C85.8783 32.3575 85.9875 32.3024 86.0827 32.2035C86.1798 32.1064 86.2685 31.9486 86.3488 31.7302L86.472 31.3941L84.8814 27.0703H85.5983L86.7856 30.498H86.8305L88.0178 27.0703H88.7347L86.9089 31.999C86.8267 32.2212 86.725 32.4051 86.6036 32.5507C86.4823 32.6982 86.3413 32.8074 86.1808 32.8784C86.0221 32.9493 85.8428 32.9848 85.6431 32.9848ZM92.6539 28.0336L92.0602 28.2017C92.0229 28.1027 91.9678 28.0066 91.895 27.9132C91.8241 27.818 91.727 27.7396 91.6038 27.678C91.4806 27.6164 91.3228 27.5856 91.1305 27.5856C90.8673 27.5856 90.6479 27.6462 90.4724 27.7676C90.2988 27.8871 90.212 28.0392 90.212 28.2241C90.212 28.3884 90.2717 28.5181 90.3912 28.6133C90.5107 28.7085 90.6974 28.7879 90.9513 28.8514L91.5898 29.0082C91.9744 29.1015 92.2609 29.2443 92.4495 29.4366C92.6381 29.6271 92.7323 29.8726 92.7323 30.1732C92.7323 30.4196 92.6614 30.6399 92.5195 30.8341C92.3795 31.0282 92.1835 31.1813 91.9314 31.2933C91.6794 31.4053 91.3863 31.4613 91.0521 31.4613C90.6134 31.4613 90.2502 31.3661 89.9627 31.1757C89.6752 30.9853 89.4932 30.7071 89.4166 30.3412L90.0439 30.1844C90.1037 30.4159 90.2166 30.5895 90.3828 30.7052C90.5508 30.821 90.7702 30.8789 91.0409 30.8789C91.3489 30.8789 91.5935 30.8135 91.7746 30.6828C91.9576 30.5503 92.049 30.3916 92.049 30.2068C92.049 30.0574 91.9968 29.9323 91.8922 29.8315C91.7877 29.7288 91.6271 29.6523 91.4105 29.6019L90.6936 29.4338C90.2997 29.3405 90.0103 29.1958 89.8255 28.9998C89.6425 28.8019 89.5511 28.5545 89.5511 28.2577C89.5511 28.015 89.6192 27.8003 89.7555 27.6136C89.8936 27.4269 90.0813 27.2803 90.3184 27.1739C90.5573 27.0675 90.8281 27.0143 91.1305 27.0143C91.5562 27.0143 91.8903 27.1076 92.1331 27.2943C92.3776 27.481 92.5512 27.7275 92.6539 28.0336ZM95.5979 27.0703V27.6304H93.3687V27.0703H95.5979ZM94.0184 26.0397H94.6793V30.1395C94.6793 30.3262 94.7064 30.4663 94.7605 30.5596C94.8166 30.6511 94.8875 30.7127 94.9734 30.7444C95.0611 30.7743 95.1535 30.7892 95.2506 30.7892C95.3234 30.7892 95.3832 30.7855 95.4299 30.778C95.4765 30.7687 95.5139 30.7612 95.5419 30.7556L95.6763 31.3493C95.6315 31.3661 95.5689 31.3829 95.4887 31.3997C95.4084 31.4184 95.3066 31.4277 95.1834 31.4277C94.9967 31.4277 94.8138 31.3876 94.6345 31.3073C94.4572 31.227 94.3097 31.1048 94.1921 30.9405C94.0763 30.7762 94.0184 30.5689 94.0184 30.3188V26.0397ZM98.3493 31.4613C97.9348 31.4613 97.5773 31.3699 97.2767 31.1869C96.978 31.0021 96.7474 30.7444 96.585 30.414C96.4245 30.0817 96.3442 29.6952 96.3442 29.2546C96.3442 28.814 96.4245 28.4257 96.585 28.0896C96.7474 27.7517 96.9733 27.4885 97.2627 27.2999C97.554 27.1095 97.8938 27.0143 98.2821 27.0143C98.5061 27.0143 98.7273 27.0516 98.9458 27.1263C99.1642 27.201 99.363 27.3223 99.5423 27.4904C99.7215 27.6565 99.8643 27.8768 99.9707 28.1513C100.077 28.4257 100.13 28.7636 100.13 29.165V29.445H96.8147V28.8738H99.4583C99.4583 28.6311 99.4097 28.4145 99.3126 28.2241C99.2174 28.0336 99.0811 27.8833 98.9038 27.7732C98.7283 27.663 98.521 27.608 98.2821 27.608C98.0188 27.608 97.7911 27.6733 97.5988 27.804C97.4083 27.9328 97.2618 28.1008 97.1591 28.3081C97.0564 28.5153 97.0051 28.7375 97.0051 28.9746V29.3554C97.0051 29.6803 97.0611 29.9557 97.1731 30.1816C97.287 30.4056 97.4448 30.5764 97.6464 30.694C97.848 30.8098 98.0823 30.8677 98.3493 30.8677C98.5229 30.8677 98.6797 30.8434 98.8198 30.7948C98.9616 30.7444 99.0839 30.6698 99.1866 30.5708C99.2893 30.47 99.3686 30.3449 99.4246 30.1956L100.063 30.3748C99.9959 30.5914 99.883 30.7818 99.7243 30.9461C99.5656 31.1085 99.3696 31.2354 99.1362 31.3269C98.9028 31.4165 98.6405 31.4613 98.3493 31.4613ZM101.136 31.3717V27.0703H101.774V27.7424H101.83C101.92 27.5128 102.065 27.3345 102.264 27.2075C102.464 27.0787 102.704 27.0143 102.984 27.0143C103.268 27.0143 103.504 27.0787 103.692 27.2075C103.883 27.3345 104.031 27.5128 104.138 27.7424H104.183C104.293 27.5202 104.458 27.3438 104.678 27.2131C104.899 27.0806 105.163 27.0143 105.471 27.0143C105.855 27.0143 106.17 27.1347 106.414 27.3755C106.659 27.6145 106.781 27.987 106.781 28.4929V31.3717H106.12V28.4929C106.12 28.1755 106.034 27.9487 105.86 27.8124C105.686 27.6761 105.482 27.608 105.247 27.608C104.944 27.608 104.71 27.6994 104.544 27.8824C104.378 28.0635 104.295 28.2931 104.295 28.5713V31.3717H103.622V28.4257C103.622 28.1811 103.543 27.9842 103.384 27.8348C103.226 27.6836 103.021 27.608 102.771 27.608C102.599 27.608 102.439 27.6537 102.289 27.7452C102.142 27.8367 102.023 27.9636 101.931 28.126C101.841 28.2866 101.797 28.4724 101.797 28.6833V31.3717H101.136ZM110.208 31.3717V27.0703H110.869V31.3717H110.208ZM110.544 26.3534C110.415 26.3534 110.304 26.3095 110.21 26.2218C110.119 26.134 110.073 26.0285 110.073 25.9053C110.073 25.7821 110.119 25.6766 110.21 25.5889C110.304 25.5011 110.415 25.4572 110.544 25.4572C110.673 25.4572 110.783 25.5011 110.874 25.5889C110.968 25.6766 111.014 25.7821 111.014 25.9053C111.014 26.0285 110.968 26.134 110.874 26.2218C110.783 26.3095 110.673 26.3534 110.544 26.3534ZM115.126 28.0336L114.532 28.2017C114.495 28.1027 114.44 28.0066 114.367 27.9132C114.296 27.818 114.199 27.7396 114.076 27.678C113.953 27.6164 113.795 27.5856 113.602 27.5856C113.339 27.5856 113.12 27.6462 112.944 27.7676C112.771 27.8871 112.684 28.0392 112.684 28.2241C112.684 28.3884 112.744 28.5181 112.863 28.6133C112.983 28.7085 113.169 28.7879 113.423 28.8514L114.062 29.0082C114.446 29.1015 114.733 29.2443 114.921 29.4366C115.11 29.6271 115.204 29.8726 115.204 30.1732C115.204 30.4196 115.133 30.6399 114.991 30.8341C114.851 31.0282 114.655 31.1813 114.403 31.2933C114.151 31.4053 113.858 31.4613 113.524 31.4613C113.085 31.4613 112.722 31.3661 112.435 31.1757C112.147 30.9853 111.965 30.7071 111.889 30.3412L112.516 30.1844C112.576 30.4159 112.689 30.5895 112.855 30.7052C113.023 30.821 113.242 30.8789 113.513 30.8789C113.821 30.8789 114.065 30.8135 114.247 30.6828C114.43 30.5503 114.521 30.3916 114.521 30.2068C114.521 30.0574 114.469 29.9323 114.364 29.8315C114.26 29.7288 114.099 29.6523 113.883 29.6019L113.166 29.4338C112.772 29.3405 112.482 29.1958 112.297 28.9998C112.115 28.8019 112.023 28.5545 112.023 28.2577C112.023 28.015 112.091 27.8003 112.227 27.6136C112.366 27.4269 112.553 27.2803 112.79 27.1739C113.029 27.0675 113.3 27.0143 113.602 27.0143C114.028 27.0143 114.362 27.1076 114.605 27.2943C114.85 27.481 115.023 27.7275 115.126 28.0336ZM121.128 29.6131V27.0703H121.789V31.3717H121.128V30.6436H121.083C120.982 30.8621 120.825 31.0478 120.613 31.2009C120.4 31.3521 120.131 31.4277 119.806 31.4277C119.537 31.4277 119.298 31.3689 119.089 31.2513C118.88 31.1318 118.716 30.9526 118.596 30.7136C118.477 30.4728 118.417 30.1694 118.417 29.8035V27.0703H119.078V29.7587C119.078 30.0723 119.166 30.3225 119.341 30.5092C119.519 30.6959 119.745 30.7892 120.019 30.7892C120.183 30.7892 120.35 30.7472 120.52 30.6632C120.692 30.5792 120.836 30.4504 120.951 30.2768C121.069 30.1031 121.128 29.8819 121.128 29.6131ZM123.66 28.7841V31.3717H122.999V27.0703H123.638V27.7424H123.694C123.795 27.524 123.948 27.3485 124.153 27.2159C124.358 27.0815 124.624 27.0143 124.948 27.0143C125.24 27.0143 125.494 27.074 125.713 27.1935C125.931 27.3111 126.101 27.4904 126.223 27.7312C126.344 27.9702 126.405 28.2726 126.405 28.6385V31.3717H125.744V28.6833C125.744 28.3454 125.656 28.0822 125.48 27.8936C125.305 27.7032 125.064 27.608 124.758 27.608C124.547 27.608 124.358 27.6537 124.192 27.7452C124.028 27.8367 123.898 27.9702 123.803 28.1456C123.708 28.3211 123.66 28.534 123.66 28.7841ZM129.237 31.4613C128.878 31.4613 128.562 31.3708 128.287 31.1897C128.013 31.0067 127.798 30.7491 127.643 30.4168C127.488 30.0826 127.411 29.6877 127.411 29.2322C127.411 28.7804 127.488 28.3884 127.643 28.056C127.798 27.7237 128.014 27.467 128.29 27.2859C128.566 27.1048 128.886 27.0143 129.248 27.0143C129.528 27.0143 129.749 27.061 129.911 27.1543C130.076 27.2458 130.201 27.3503 130.287 27.4679C130.374 27.5837 130.443 27.6789 130.491 27.7536H130.547V25.6365H131.208V31.3717H130.57V30.7108H130.491C130.443 30.7892 130.373 30.8882 130.284 31.0077C130.194 31.1253 130.066 31.2308 129.9 31.3241C129.734 31.4156 129.513 31.4613 129.237 31.4613ZM129.326 30.8677C129.591 30.8677 129.815 30.7986 129.998 30.6604C130.181 30.5204 130.32 30.3272 130.416 30.0807C130.511 29.8324 130.558 29.5459 130.558 29.221C130.558 28.8999 130.512 28.6189 130.418 28.3781C130.325 28.1354 130.187 27.9468 130.004 27.8124C129.821 27.6761 129.595 27.608 129.326 27.608C129.046 27.608 128.813 27.6798 128.626 27.8236C128.441 27.9655 128.302 28.1587 128.209 28.4033C128.117 28.646 128.072 28.9186 128.072 29.221C128.072 29.5272 128.118 29.8054 128.212 30.0555C128.307 30.3038 128.447 30.5017 128.632 30.6492C128.818 30.7948 129.05 30.8677 129.326 30.8677ZM134.314 31.4613C133.899 31.4613 133.542 31.3699 133.241 31.1869C132.942 31.0021 132.712 30.7444 132.549 30.414C132.389 30.0817 132.309 29.6952 132.309 29.2546C132.309 28.814 132.389 28.4257 132.549 28.0896C132.712 27.7517 132.938 27.4885 133.227 27.2999C133.518 27.1095 133.858 27.0143 134.246 27.0143C134.471 27.0143 134.692 27.0516 134.91 27.1263C135.129 27.201 135.327 27.3223 135.507 27.4904C135.686 27.6565 135.829 27.8768 135.935 28.1513C136.042 28.4257 136.095 28.7636 136.095 29.165V29.445H132.779V28.8738H135.423C135.423 28.6311 135.374 28.4145 135.277 28.2241C135.182 28.0336 135.046 27.8833 134.868 27.7732C134.693 27.663 134.485 27.608 134.246 27.608C133.983 27.608 133.755 27.6733 133.563 27.804C133.373 27.9328 133.226 28.1008 133.124 28.3081C133.021 28.5153 132.969 28.7375 132.969 28.9746V29.3554C132.969 29.6803 133.026 29.9557 133.138 30.1816C133.251 30.4056 133.409 30.5764 133.611 30.694C133.812 30.8098 134.047 30.8677 134.314 30.8677C134.487 30.8677 134.644 30.8434 134.784 30.7948C134.926 30.7444 135.048 30.6698 135.151 30.5708C135.254 30.47 135.333 30.3449 135.389 30.1956L136.028 30.3748C135.96 30.5914 135.847 30.7818 135.689 30.9461C135.53 31.1085 135.334 31.2354 135.101 31.3269C134.867 31.4165 134.605 31.4613 134.314 31.4613ZM137.1 31.3717V27.0703H137.739V27.72H137.783C137.862 27.5072 138.004 27.3345 138.209 27.2019C138.414 27.0694 138.646 27.0031 138.904 27.0031C138.952 27.0031 139.013 27.004 139.086 27.0059C139.158 27.0077 139.213 27.0105 139.251 27.0143V27.6864C139.228 27.6808 139.177 27.6724 139.097 27.6612C139.018 27.6481 138.935 27.6416 138.848 27.6416C138.638 27.6416 138.452 27.6854 138.287 27.7732C138.125 27.8591 137.996 27.9786 137.901 28.1316C137.808 28.2829 137.761 28.4556 137.761 28.6497V31.3717H137.1ZM142.252 31.3717V27.0703H142.891V27.7424H142.947C143.036 27.5128 143.181 27.3345 143.381 27.2075C143.581 27.0787 143.82 27.0143 144.1 27.0143C144.384 27.0143 144.62 27.0787 144.809 27.2075C144.999 27.3345 145.148 27.5128 145.254 27.7424H145.299C145.409 27.5202 145.574 27.3438 145.795 27.2131C146.015 27.0806 146.279 27.0143 146.587 27.0143C146.972 27.0143 147.286 27.1347 147.531 27.3755C147.776 27.6145 147.898 27.987 147.898 28.4929V31.3717H147.237V28.4929C147.237 28.1755 147.15 27.9487 146.976 27.8124C146.803 27.6761 146.598 27.608 146.363 27.608C146.061 27.608 145.826 27.6994 145.66 27.8824C145.494 28.0635 145.411 28.2931 145.411 28.5713V31.3717H144.739V28.4257C144.739 28.1811 144.66 27.9842 144.501 27.8348C144.342 27.6836 144.138 27.608 143.888 27.608C143.716 27.608 143.555 27.6537 143.406 27.7452C143.258 27.8367 143.139 27.9636 143.048 28.126C142.958 28.2866 142.913 28.4724 142.913 28.6833V31.3717H142.252ZM150.372 31.4725C150.099 31.4725 149.852 31.4212 149.63 31.3185C149.408 31.214 149.231 31.0637 149.101 30.8677C148.97 30.6698 148.905 30.4308 148.905 30.1508C148.905 29.9043 148.953 29.7046 149.05 29.5515C149.147 29.3965 149.277 29.2752 149.439 29.1874C149.602 29.0997 149.781 29.0343 149.977 28.9914C150.175 28.9466 150.374 28.9111 150.574 28.885C150.835 28.8514 151.047 28.8262 151.209 28.8093C151.374 28.7907 151.493 28.7599 151.568 28.7169C151.644 28.674 151.683 28.5993 151.683 28.4929V28.4705C151.683 28.1942 151.607 27.9795 151.456 27.8264C151.306 27.6733 151.08 27.5968 150.775 27.5968C150.46 27.5968 150.212 27.6658 150.033 27.804C149.854 27.9422 149.728 28.0896 149.655 28.2465L149.028 28.0224C149.14 27.7611 149.289 27.5576 149.476 27.4119C149.664 27.2645 149.87 27.1618 150.092 27.1039C150.316 27.0442 150.536 27.0143 150.753 27.0143C150.891 27.0143 151.05 27.0311 151.229 27.0647C151.41 27.0964 151.585 27.1627 151.753 27.2635C151.923 27.3643 152.063 27.5165 152.175 27.72C152.287 27.9235 152.344 28.1961 152.344 28.5377V31.3717H151.683V30.7892H151.649C151.604 30.8826 151.53 30.9825 151.425 31.0889C151.32 31.1953 151.181 31.2859 151.008 31.3605C150.834 31.4352 150.622 31.4725 150.372 31.4725ZM150.473 30.8789C150.734 30.8789 150.954 30.8275 151.134 30.7248C151.315 30.6222 151.451 30.4896 151.543 30.3272C151.636 30.1648 151.683 29.9939 151.683 29.8147V29.2098C151.655 29.2434 151.593 29.2742 151.498 29.3022C151.404 29.3284 151.296 29.3517 151.173 29.3722C151.052 29.3909 150.933 29.4077 150.817 29.4226C150.703 29.4357 150.611 29.4469 150.54 29.4562C150.368 29.4786 150.208 29.5151 150.058 29.5655C149.911 29.614 149.791 29.6877 149.7 29.7867C149.61 29.8838 149.565 30.0163 149.565 30.1844C149.565 30.414 149.65 30.5876 149.82 30.7052C149.992 30.821 150.21 30.8789 150.473 30.8789ZM153.55 31.3717V27.0703H154.211V31.3717H153.55ZM153.886 26.3534C153.757 26.3534 153.646 26.3095 153.553 26.2218C153.461 26.134 153.415 26.0285 153.415 25.9053C153.415 25.7821 153.461 25.6766 153.553 25.5889C153.646 25.5011 153.757 25.4572 153.886 25.4572C154.015 25.4572 154.125 25.5011 154.216 25.5889C154.31 25.6766 154.356 25.7821 154.356 25.9053C154.356 26.0285 154.31 26.134 154.216 26.2218C154.125 26.3095 154.015 26.3534 153.886 26.3534ZM156.082 28.7841V31.3717H155.421V27.0703H156.06V27.7424H156.116C156.216 27.524 156.37 27.3485 156.575 27.2159C156.78 27.0815 157.045 27.0143 157.37 27.0143C157.662 27.0143 157.916 27.074 158.135 27.1935C158.353 27.3111 158.523 27.4904 158.644 27.7312C158.766 27.9702 158.826 28.2726 158.826 28.6385V31.3717H158.166V28.6833C158.166 28.3454 158.078 28.0822 157.902 27.8936C157.727 27.7032 157.486 27.608 157.18 27.608C156.969 27.608 156.78 27.6537 156.614 27.7452C156.45 27.8367 156.32 27.9702 156.225 28.1456C156.13 28.3211 156.082 28.534 156.082 28.7841ZM161.905 27.0703V27.6304H159.676V27.0703H161.905ZM160.325 26.0397H160.986V30.1395C160.986 30.3262 161.013 30.4663 161.068 30.5596C161.124 30.6511 161.194 30.7127 161.28 30.7444C161.368 30.7743 161.461 30.7892 161.558 30.7892C161.63 30.7892 161.69 30.7855 161.737 30.778C161.783 30.7687 161.821 30.7612 161.849 30.7556L161.983 31.3493C161.938 31.3661 161.876 31.3829 161.796 31.3997C161.715 31.4184 161.614 31.4277 161.49 31.4277C161.304 31.4277 161.121 31.3876 160.941 31.3073C160.764 31.227 160.617 31.1048 160.499 30.9405C160.383 30.7762 160.325 30.5689 160.325 30.3188V26.0397ZM164.656 31.4613C164.242 31.4613 163.884 31.3699 163.584 31.1869C163.285 31.0021 163.054 30.7444 162.892 30.414C162.731 30.0817 162.651 29.6952 162.651 29.2546C162.651 28.814 162.731 28.4257 162.892 28.0896C163.054 27.7517 163.28 27.4885 163.57 27.2999C163.861 27.1095 164.201 27.0143 164.589 27.0143C164.813 27.0143 165.034 27.0516 165.253 27.1263C165.471 27.201 165.67 27.3223 165.849 27.4904C166.028 27.6565 166.171 27.8768 166.278 28.1513C166.384 28.4257 166.437 28.7636 166.437 29.165V29.445H163.122V28.8738H165.765C165.765 28.6311 165.717 28.4145 165.62 28.2241C165.524 28.0336 165.388 27.8833 165.211 27.7732C165.035 27.663 164.828 27.608 164.589 27.608C164.326 27.608 164.098 27.6733 163.906 27.804C163.715 27.9328 163.569 28.1008 163.466 28.3081C163.363 28.5153 163.312 28.7375 163.312 28.9746V29.3554C163.312 29.6803 163.368 29.9557 163.48 30.1816C163.594 30.4056 163.752 30.5764 163.953 30.694C164.155 30.8098 164.389 30.8677 164.656 30.8677C164.83 30.8677 164.987 30.8434 165.127 30.7948C165.269 30.7444 165.391 30.6698 165.494 30.5708C165.596 30.47 165.676 30.3449 165.732 30.1956L166.37 30.3748C166.303 30.5914 166.19 30.7818 166.031 30.9461C165.873 31.1085 165.677 31.2354 165.443 31.3269C165.21 31.4165 164.948 31.4613 164.656 31.4613ZM168.104 28.7841V31.3717H167.443V27.0703H168.081V27.7424H168.137C168.238 27.524 168.391 27.3485 168.596 27.2159C168.802 27.0815 169.067 27.0143 169.392 27.0143C169.683 27.0143 169.938 27.074 170.156 27.1935C170.375 27.3111 170.545 27.4904 170.666 27.7312C170.787 27.9702 170.848 28.2726 170.848 28.6385V31.3717H170.187V28.6833C170.187 28.3454 170.099 28.0822 169.924 27.8936C169.748 27.7032 169.508 27.608 169.201 27.608C168.99 27.608 168.802 27.6537 168.636 27.7452C168.471 27.8367 168.342 27.9702 168.246 28.1456C168.151 28.3211 168.104 28.534 168.104 28.7841ZM173.321 31.4725C173.049 31.4725 172.802 31.4212 172.579 31.3185C172.357 31.214 172.181 31.0637 172.05 30.8677C171.919 30.6698 171.854 30.4308 171.854 30.1508C171.854 29.9043 171.903 29.7046 172 29.5515C172.097 29.3965 172.226 29.2752 172.389 29.1874C172.551 29.0997 172.731 29.0343 172.927 28.9914C173.124 28.9466 173.323 28.9111 173.523 28.885C173.784 28.8514 173.996 28.8262 174.159 28.8093C174.323 28.7907 174.443 28.7599 174.517 28.7169C174.594 28.674 174.632 28.5993 174.632 28.4929V28.4705C174.632 28.1942 174.556 27.9795 174.405 27.8264C174.256 27.6733 174.029 27.5968 173.725 27.5968C173.409 27.5968 173.162 27.6658 172.983 27.804C172.803 27.9422 172.677 28.0896 172.605 28.2465L171.977 28.0224C172.089 27.7611 172.239 27.5576 172.425 27.4119C172.614 27.2645 172.819 27.1618 173.041 27.1039C173.265 27.0442 173.486 27.0143 173.702 27.0143C173.84 27.0143 173.999 27.0311 174.178 27.0647C174.359 27.0964 174.534 27.1627 174.702 27.2635C174.872 27.3643 175.013 27.5165 175.125 27.72C175.237 27.9235 175.293 28.1961 175.293 28.5377V31.3717H174.632V30.7892H174.598C174.554 30.8826 174.479 30.9825 174.374 31.0889C174.27 31.1953 174.131 31.2859 173.957 31.3605C173.784 31.4352 173.572 31.4725 173.321 31.4725ZM173.422 30.8789C173.684 30.8789 173.904 30.8275 174.083 30.7248C174.264 30.6222 174.401 30.4896 174.492 30.3272C174.585 30.1648 174.632 29.9939 174.632 29.8147V29.2098C174.604 29.2434 174.542 29.2742 174.447 29.3022C174.354 29.3284 174.246 29.3517 174.122 29.3722C174.001 29.3909 173.882 29.4077 173.767 29.4226C173.653 29.4357 173.56 29.4469 173.489 29.4562C173.318 29.4786 173.157 29.5151 173.008 29.5655C172.86 29.614 172.741 29.6877 172.649 29.7867C172.56 29.8838 172.515 30.0163 172.515 30.1844C172.515 30.414 172.6 30.5876 172.77 30.7052C172.942 30.821 173.159 30.8789 173.422 30.8789ZM177.16 28.7841V31.3717H176.499V27.0703H177.138V27.7424H177.194C177.295 27.524 177.448 27.3485 177.653 27.2159C177.858 27.0815 178.123 27.0143 178.448 27.0143C178.74 27.0143 178.994 27.074 179.213 27.1935C179.431 27.3111 179.601 27.4904 179.723 27.7312C179.844 27.9702 179.905 28.2726 179.905 28.6385V31.3717H179.244V28.6833C179.244 28.3454 179.156 28.0822 178.98 27.8936C178.805 27.7032 178.564 27.608 178.258 27.608C178.047 27.608 177.858 27.6537 177.692 27.7452C177.528 27.8367 177.398 27.9702 177.303 28.1456C177.208 28.3211 177.16 28.534 177.16 28.7841ZM182.86 31.4613C182.456 31.4613 182.109 31.3661 181.818 31.1757C181.527 30.9853 181.303 30.723 181.146 30.3888C180.989 30.0546 180.911 29.6728 180.911 29.2434C180.911 28.8065 180.991 28.421 181.151 28.0868C181.314 27.7508 181.54 27.4885 181.829 27.2999C182.12 27.1095 182.46 27.0143 182.848 27.0143C183.151 27.0143 183.424 27.0703 183.666 27.1823C183.909 27.2943 184.108 27.4511 184.263 27.6528C184.418 27.8544 184.514 28.0896 184.551 28.3585H183.89C183.84 28.1625 183.728 27.9888 183.554 27.8376C183.382 27.6845 183.151 27.608 182.86 27.608C182.602 27.608 182.376 27.6752 182.182 27.8096C181.99 27.9422 181.839 28.1298 181.731 28.3725C181.625 28.6133 181.571 28.8962 181.571 29.221C181.571 29.5533 181.624 29.8427 181.728 30.0891C181.835 30.3356 181.984 30.5269 182.176 30.6632C182.371 30.7995 182.598 30.8677 182.86 30.8677C183.031 30.8677 183.187 30.8378 183.327 30.778C183.467 30.7183 183.586 30.6324 183.683 30.5204C183.78 30.4084 183.849 30.274 183.89 30.1171H184.551C184.514 30.3711 184.421 30.5998 184.274 30.8032C184.128 31.0049 183.935 31.1654 183.694 31.2849C183.455 31.4025 183.177 31.4613 182.86 31.4613ZM187.321 31.4613C186.906 31.4613 186.549 31.3699 186.248 31.1869C185.949 31.0021 185.719 30.7444 185.556 30.414C185.396 30.0817 185.316 29.6952 185.316 29.2546C185.316 28.814 185.396 28.4257 185.556 28.0896C185.719 27.7517 185.945 27.4885 186.234 27.2999C186.525 27.1095 186.865 27.0143 187.254 27.0143C187.478 27.0143 187.699 27.0516 187.917 27.1263C188.136 27.201 188.335 27.3223 188.514 27.4904C188.693 27.6565 188.836 27.8768 188.942 28.1513C189.049 28.4257 189.102 28.7636 189.102 29.165V29.445H185.786V28.8738H188.43C188.43 28.6311 188.381 28.4145 188.284 28.2241C188.189 28.0336 188.053 27.8833 187.875 27.7732C187.7 27.663 187.493 27.608 187.254 27.608C186.99 27.608 186.763 27.6733 186.57 27.804C186.38 27.9328 186.233 28.1008 186.131 28.3081C186.028 28.5153 185.977 28.7375 185.977 28.9746V29.3554C185.977 29.6803 186.033 29.9557 186.145 30.1816C186.258 30.4056 186.416 30.5764 186.618 30.694C186.819 30.8098 187.054 30.8677 187.321 30.8677C187.494 30.8677 187.651 30.8434 187.791 30.7948C187.933 30.7444 188.055 30.6698 188.158 30.5708C188.261 30.47 188.34 30.3449 188.396 30.1956L189.035 30.3748C188.967 30.5914 188.854 30.7818 188.696 30.9461C188.537 31.1085 188.341 31.2354 188.108 31.3269C187.874 31.4165 187.612 31.4613 187.321 31.4613ZM193.949 31.4613C193.591 31.4613 193.274 31.3708 193 31.1897C192.726 31.0067 192.511 30.7491 192.356 30.4168C192.201 30.0826 192.123 29.6877 192.123 29.2322C192.123 28.7804 192.201 28.3884 192.356 28.056C192.511 27.7237 192.726 27.467 193.003 27.2859C193.279 27.1048 193.598 27.0143 193.961 27.0143C194.241 27.0143 194.462 27.061 194.624 27.1543C194.789 27.2458 194.914 27.3503 195 27.4679C195.087 27.5837 195.155 27.6789 195.204 27.7536H195.26V25.6365H195.921V31.3717H195.282V30.7108H195.204C195.155 30.7892 195.086 30.8882 194.997 31.0077C194.907 31.1253 194.779 31.2308 194.613 31.3241C194.447 31.4156 194.226 31.4613 193.949 31.4613ZM194.039 30.8677C194.304 30.8677 194.528 30.7986 194.711 30.6604C194.894 30.5204 195.033 30.3272 195.128 30.0807C195.224 29.8324 195.271 29.5459 195.271 29.221C195.271 28.8999 195.224 28.6189 195.131 28.3781C195.038 28.1354 194.9 27.9468 194.717 27.8124C194.534 27.6761 194.308 27.608 194.039 27.608C193.759 27.608 193.526 27.6798 193.339 27.8236C193.154 27.9655 193.015 28.1587 192.922 28.4033C192.83 28.646 192.784 28.9186 192.784 29.221C192.784 29.5272 192.831 29.8054 192.924 30.0555C193.02 30.3038 193.16 30.5017 193.344 30.6492C193.531 30.7948 193.763 30.8677 194.039 30.8677ZM199.934 29.6131V27.0703H200.595V31.3717H199.934V30.6436H199.889C199.788 30.8621 199.631 31.0478 199.419 31.2009C199.206 31.3521 198.937 31.4277 198.612 31.4277C198.343 31.4277 198.104 31.3689 197.895 31.2513C197.686 31.1318 197.522 30.9526 197.402 30.7136C197.283 30.4728 197.223 30.1694 197.223 29.8035V27.0703H197.884V29.7587C197.884 30.0723 197.972 30.3225 198.147 30.5092C198.325 30.6959 198.55 30.7892 198.825 30.7892C198.989 30.7892 199.156 30.7472 199.326 30.6632C199.498 30.5792 199.642 30.4504 199.757 30.2768C199.875 30.1031 199.934 29.8819 199.934 29.6131ZM201.805 31.3717V27.0703H202.444V27.72H202.489C202.567 27.5072 202.709 27.3345 202.914 27.2019C203.12 27.0694 203.351 27.0031 203.609 27.0031C203.657 27.0031 203.718 27.004 203.791 27.0059C203.864 27.0077 203.919 27.0105 203.956 27.0143V27.6864C203.934 27.6808 203.882 27.6724 203.802 27.6612C203.724 27.6481 203.64 27.6416 203.553 27.6416C203.344 27.6416 203.157 27.6854 202.993 27.7732C202.83 27.8591 202.701 27.9786 202.606 28.1316C202.513 28.2829 202.466 28.4556 202.466 28.6497V31.3717H201.805ZM204.739 31.3717V27.0703H205.4V31.3717H204.739ZM205.075 26.3534C204.947 26.3534 204.836 26.3095 204.742 26.2218C204.651 26.134 204.605 26.0285 204.605 25.9053C204.605 25.7821 204.651 25.6766 204.742 25.5889C204.836 25.5011 204.947 25.4572 205.075 25.4572C205.204 25.4572 205.314 25.5011 205.406 25.5889C205.499 25.6766 205.546 25.7821 205.546 25.9053C205.546 26.0285 205.499 26.134 205.406 26.2218C205.314 26.3095 205.204 26.3534 205.075 26.3534ZM207.272 28.7841V31.3717H206.611V27.0703H207.249V27.7424H207.305C207.406 27.524 207.559 27.3485 207.765 27.2159C207.97 27.0815 208.235 27.0143 208.56 27.0143C208.851 27.0143 209.106 27.074 209.324 27.1935C209.543 27.3111 209.713 27.4904 209.834 27.7312C209.955 27.9702 210.016 28.2726 210.016 28.6385V31.3717H209.355V28.6833C209.355 28.3454 209.267 28.0822 209.092 27.8936C208.916 27.7032 208.676 27.608 208.369 27.608C208.158 27.608 207.97 27.6537 207.804 27.7452C207.639 27.8367 207.51 27.9702 207.414 28.1456C207.319 28.3211 207.272 28.534 207.272 28.7841ZM212.96 33.0744C212.641 33.0744 212.366 33.0333 212.137 32.9512C211.907 32.8709 211.716 32.7645 211.563 32.6319C211.411 32.5012 211.291 32.3612 211.201 32.2119L211.728 31.8422C211.788 31.9206 211.863 32.0102 211.955 32.111C212.046 32.2137 212.171 32.3024 212.33 32.3771C212.49 32.4536 212.701 32.4919 212.96 32.4919C213.307 32.4919 213.594 32.4079 213.82 32.2399C214.046 32.0718 214.159 31.8086 214.159 31.4501V30.5764H214.103C214.054 30.6548 213.985 30.7519 213.895 30.8677C213.808 30.9815 213.681 31.0833 213.515 31.1729C213.35 31.2607 213.128 31.3045 212.848 31.3045C212.501 31.3045 212.189 31.2224 211.913 31.0581C211.638 30.8938 211.421 30.6548 211.26 30.3412C211.101 30.0275 211.022 29.6467 211.022 29.1986C211.022 28.758 211.1 28.3744 211.255 28.0476C211.41 27.7191 211.625 27.4651 211.901 27.2859C212.178 27.1048 212.497 27.0143 212.859 27.0143C213.139 27.0143 213.361 27.061 213.526 27.1543C213.692 27.2458 213.819 27.3503 213.907 27.4679C213.996 27.5837 214.065 27.6789 214.114 27.7536H214.181V27.0703H214.819V31.495C214.819 31.8646 214.735 32.1652 214.567 32.3967C214.401 32.6301 214.177 32.8009 213.895 32.9092C213.615 33.0193 213.304 33.0744 212.96 33.0744ZM212.938 30.7108C213.203 30.7108 213.427 30.6502 213.61 30.5288C213.793 30.4075 213.932 30.2329 214.027 30.0051C214.122 29.7774 214.17 29.5048 214.17 29.1874C214.17 28.8775 214.123 28.604 214.03 28.3669C213.936 28.1298 213.798 27.944 213.615 27.8096C213.432 27.6752 213.206 27.608 212.938 27.608C212.658 27.608 212.424 27.6789 212.238 27.8208C212.053 27.9627 211.914 28.1531 211.82 28.3921C211.729 28.6311 211.683 28.8962 211.683 29.1874C211.683 29.4861 211.73 29.7503 211.823 29.9799C211.918 30.2077 212.058 30.3869 212.243 30.5176C212.43 30.6464 212.661 30.7108 212.938 30.7108ZM220.118 27.0703V27.6304H217.889V27.0703H220.118ZM218.538 26.0397H219.199V30.1395C219.199 30.3262 219.226 30.4663 219.281 30.5596C219.337 30.6511 219.408 30.7127 219.493 30.7444C219.581 30.7743 219.674 30.7892 219.771 30.7892C219.843 30.7892 219.903 30.7855 219.95 30.778C219.997 30.7687 220.034 30.7612 220.062 30.7556L220.196 31.3493C220.151 31.3661 220.089 31.3829 220.009 31.3997C219.928 31.4184 219.827 31.4277 219.703 31.4277C219.517 31.4277 219.334 31.3876 219.155 31.3073C218.977 31.227 218.83 31.1048 218.712 30.9405C218.596 30.7762 218.538 30.5689 218.538 30.3188V26.0397ZM221.865 28.7841V31.3717H221.204V25.6365H221.865V27.7424H221.921C222.022 27.5202 222.173 27.3438 222.375 27.2131C222.579 27.0806 222.849 27.0143 223.187 27.0143C223.48 27.0143 223.737 27.0731 223.957 27.1907C224.178 27.3065 224.348 27.4848 224.47 27.7256C224.593 27.9646 224.655 28.2689 224.655 28.6385V31.3717H223.994V28.6833C223.994 28.3417 223.905 28.0775 223.728 27.8908C223.552 27.7022 223.309 27.608 222.997 27.608C222.78 27.608 222.586 27.6537 222.414 27.7452C222.244 27.8367 222.11 27.9702 222.011 28.1456C221.914 28.3211 221.865 28.534 221.865 28.7841ZM227.667 31.4613C227.253 31.4613 226.895 31.3699 226.595 31.1869C226.296 31.0021 226.065 30.7444 225.903 30.414C225.742 30.0817 225.662 29.6952 225.662 29.2546C225.662 28.814 225.742 28.4257 225.903 28.0896C226.065 27.7517 226.291 27.4885 226.581 27.2999C226.872 27.1095 227.212 27.0143 227.6 27.0143C227.824 27.0143 228.045 27.0516 228.264 27.1263C228.482 27.201 228.681 27.3223 228.86 27.4904C229.039 27.6565 229.182 27.8768 229.289 28.1513C229.395 28.4257 229.448 28.7636 229.448 29.165V29.445H226.132V28.8738H228.776C228.776 28.6311 228.728 28.4145 228.63 28.2241C228.535 28.0336 228.399 27.8833 228.222 27.7732C228.046 27.663 227.839 27.608 227.6 27.608C227.337 27.608 227.109 27.6733 226.917 27.804C226.726 27.9328 226.58 28.1008 226.477 28.3081C226.374 28.5153 226.323 28.7375 226.323 28.9746V29.3554C226.323 29.6803 226.379 29.9557 226.491 30.1816C226.605 30.4056 226.763 30.5764 226.964 30.694C227.166 30.8098 227.4 30.8677 227.667 30.8677C227.841 30.8677 227.998 30.8434 228.138 30.7948C228.279 30.7444 228.402 30.6698 228.504 30.5708C228.607 30.47 228.686 30.3449 228.742 30.1956L229.381 30.3748C229.314 30.5914 229.201 30.7818 229.042 30.9461C228.883 31.1085 228.687 31.2354 228.454 31.3269C228.221 31.4165 227.958 31.4613 227.667 31.4613ZM234.587 27.0703V27.6304H232.268V27.0703H234.587ZM232.963 31.3717V26.4766C232.963 26.2302 233.021 26.0248 233.136 25.8605C233.252 25.6962 233.402 25.573 233.587 25.4909C233.772 25.4087 233.967 25.3676 234.173 25.3676C234.335 25.3676 234.467 25.3807 234.57 25.4068C234.673 25.433 234.749 25.4572 234.8 25.4796L234.609 26.0509C234.576 26.0397 234.529 26.0257 234.469 26.0089C234.411 25.9921 234.335 25.9837 234.24 25.9837C234.021 25.9837 233.864 26.0388 233.766 26.1489C233.671 26.2591 233.624 26.4206 233.624 26.6334V31.3717H232.963ZM237.084 31.4613C236.695 31.4613 236.354 31.3689 236.061 31.1841C235.77 30.9993 235.542 30.7407 235.378 30.4084C235.216 30.0761 235.134 29.6877 235.134 29.2434C235.134 28.7953 235.216 28.4042 235.378 28.07C235.542 27.7359 235.77 27.4763 236.061 27.2915C236.354 27.1067 236.695 27.0143 237.084 27.0143C237.472 27.0143 237.812 27.1067 238.103 27.2915C238.396 27.4763 238.624 27.7359 238.786 28.07C238.95 28.4042 239.033 28.7953 239.033 29.2434C239.033 29.6877 238.95 30.0761 238.786 30.4084C238.624 30.7407 238.396 30.9993 238.103 31.1841C237.812 31.3689 237.472 31.4613 237.084 31.4613ZM237.084 30.8677C237.379 30.8677 237.621 30.792 237.812 30.6408C238.002 30.4896 238.143 30.2908 238.235 30.0443C238.326 29.7979 238.372 29.5309 238.372 29.2434C238.372 28.9559 238.326 28.688 238.235 28.4397C238.143 28.1914 238.002 27.9907 237.812 27.8376C237.621 27.6845 237.379 27.608 237.084 27.608C236.789 27.608 236.546 27.6845 236.355 27.8376C236.165 27.9907 236.024 28.1914 235.933 28.4397C235.841 28.688 235.795 28.9559 235.795 29.2434C235.795 29.5309 235.841 29.7979 235.933 30.0443C236.024 30.2908 236.165 30.4896 236.355 30.6408C236.546 30.792 236.789 30.8677 237.084 30.8677ZM240.702 25.6365V31.3717H240.041V25.6365H240.702ZM242.574 25.6365V31.3717H241.913V25.6365H242.574ZM245.532 31.4613C245.143 31.4613 244.803 31.3689 244.51 31.1841C244.218 30.9993 243.991 30.7407 243.826 30.4084C243.664 30.0761 243.583 29.6877 243.583 29.2434C243.583 28.7953 243.664 28.4042 243.826 28.07C243.991 27.7359 244.218 27.4763 244.51 27.2915C244.803 27.1067 245.143 27.0143 245.532 27.0143C245.92 27.0143 246.26 27.1067 246.551 27.2915C246.844 27.4763 247.072 27.7359 247.234 28.07C247.399 28.4042 247.481 28.7953 247.481 29.2434C247.481 29.6877 247.399 30.0761 247.234 30.4084C247.072 30.7407 246.844 30.9993 246.551 31.1841C246.26 31.3689 245.92 31.4613 245.532 31.4613ZM245.532 30.8677C245.827 30.8677 246.069 30.792 246.26 30.6408C246.45 30.4896 246.591 30.2908 246.683 30.0443C246.774 29.7979 246.82 29.5309 246.82 29.2434C246.82 28.9559 246.774 28.688 246.683 28.4397C246.591 28.1914 246.45 27.9907 246.26 27.8376C246.069 27.6845 245.827 27.608 245.532 27.608C245.237 27.608 244.994 27.6845 244.804 27.8376C244.613 27.9907 244.472 28.1914 244.381 28.4397C244.289 28.688 244.244 28.9559 244.244 29.2434C244.244 29.5309 244.289 29.7979 244.381 30.0443C244.472 30.2908 244.613 30.4896 244.804 30.6408C244.994 30.792 245.237 30.8677 245.532 30.8677ZM249.318 31.3717L248.007 27.0703H248.702L249.632 30.3636H249.676L250.595 27.0703H251.301L252.208 30.3524H252.253L253.182 27.0703H253.877L252.566 31.3717H251.917L250.976 28.0672H250.909L249.968 31.3717H249.318ZM254.751 31.3717V27.0703H255.412V31.3717H254.751ZM255.087 26.3534C254.958 26.3534 254.847 26.3095 254.753 26.2218C254.662 26.134 254.616 26.0285 254.616 25.9053C254.616 25.7821 254.662 25.6766 254.753 25.5889C254.847 25.5011 254.958 25.4572 255.087 25.4572C255.216 25.4572 255.326 25.5011 255.417 25.5889C255.511 25.6766 255.557 25.7821 255.557 25.9053C255.557 26.0285 255.511 26.134 255.417 26.2218C255.326 26.3095 255.216 26.3534 255.087 26.3534ZM257.283 28.7841V31.3717H256.622V27.0703H257.261V27.7424H257.317C257.417 27.524 257.57 27.3485 257.776 27.2159C257.981 27.0815 258.246 27.0143 258.571 27.0143C258.862 27.0143 259.117 27.074 259.336 27.1935C259.554 27.3111 259.724 27.4904 259.845 27.7312C259.967 27.9702 260.027 28.2726 260.027 28.6385V31.3717H259.366V28.6833C259.366 28.3454 259.279 28.0822 259.103 27.8936C258.928 27.7032 258.687 27.608 258.381 27.608C258.17 27.608 257.981 27.6537 257.815 27.7452C257.651 27.8367 257.521 27.9702 257.426 28.1456C257.331 28.3211 257.283 28.534 257.283 28.7841ZM262.971 33.0744C262.652 33.0744 262.378 33.0333 262.148 32.9512C261.918 32.8709 261.727 32.7645 261.574 32.6319C261.423 32.5012 261.302 32.3612 261.213 32.2119L261.739 31.8422C261.799 31.9206 261.874 32.0102 261.966 32.111C262.057 32.2137 262.183 32.3024 262.341 32.3771C262.502 32.4536 262.712 32.4919 262.971 32.4919C263.319 32.4919 263.605 32.4079 263.831 32.2399C264.057 32.0718 264.17 31.8086 264.17 31.4501V30.5764H264.114C264.065 30.6548 263.996 30.7519 263.907 30.8677C263.819 30.9815 263.692 31.0833 263.526 31.1729C263.362 31.2607 263.139 31.3045 262.859 31.3045C262.512 31.3045 262.2 31.2224 261.924 31.0581C261.65 30.8938 261.432 30.6548 261.271 30.3412C261.113 30.0275 261.033 29.6467 261.033 29.1986C261.033 28.758 261.111 28.3744 261.266 28.0476C261.421 27.7191 261.636 27.4651 261.913 27.2859C262.189 27.1048 262.508 27.0143 262.871 27.0143C263.151 27.0143 263.373 27.061 263.537 27.1543C263.703 27.2458 263.83 27.3503 263.918 27.4679C264.007 27.5837 264.077 27.6789 264.125 27.7536H264.192V27.0703H264.831V31.495C264.831 31.8646 264.747 32.1652 264.579 32.3967C264.413 32.6301 264.189 32.8009 263.907 32.9092C263.627 33.0193 263.315 33.0744 262.971 33.0744ZM262.949 30.7108C263.214 30.7108 263.438 30.6502 263.621 30.5288C263.804 30.4075 263.943 30.2329 264.038 30.0051C264.133 29.7774 264.181 29.5048 264.181 29.1874C264.181 28.8775 264.134 28.604 264.041 28.3669C263.948 28.1298 263.81 27.944 263.627 27.8096C263.444 27.6752 263.218 27.608 262.949 27.608C262.669 27.608 262.436 27.6789 262.249 27.8208C262.064 27.9627 261.925 28.1531 261.832 28.3921C261.74 28.6311 261.694 28.8962 261.694 29.1874C261.694 29.4861 261.741 29.7503 261.834 29.9799C261.93 30.2077 262.07 30.3869 262.254 30.5176C262.441 30.6464 262.673 30.7108 262.949 30.7108ZM268.259 32.9848V27.0703H268.897V27.7536H268.975C269.024 27.6789 269.091 27.5837 269.177 27.4679C269.265 27.3503 269.39 27.2458 269.552 27.1543C269.717 27.061 269.939 27.0143 270.219 27.0143C270.581 27.0143 270.9 27.1048 271.177 27.2859C271.453 27.467 271.669 27.7237 271.823 28.056C271.978 28.3884 272.056 28.7804 272.056 29.2322C272.056 29.6877 271.978 30.0826 271.823 30.4168C271.669 30.7491 271.454 31.0067 271.179 31.1897C270.905 31.3708 270.588 31.4613 270.23 31.4613C269.954 31.4613 269.732 31.4156 269.566 31.3241C269.4 31.2308 269.272 31.1253 269.183 31.0077C269.093 30.8882 269.024 30.7892 268.975 30.7108H268.919V32.9848H268.259ZM268.908 29.221C268.908 29.5459 268.956 29.8324 269.051 30.0807C269.146 30.3272 269.285 30.5204 269.468 30.6604C269.651 30.7986 269.875 30.8677 270.14 30.8677C270.417 30.8677 270.647 30.7948 270.832 30.6492C271.019 30.5017 271.159 30.3038 271.252 30.0555C271.347 29.8054 271.395 29.5272 271.395 29.221C271.395 28.9186 271.348 28.646 271.255 28.4033C271.164 28.1587 271.024 27.9655 270.838 27.8236C270.653 27.6798 270.42 27.608 270.14 27.608C269.872 27.608 269.646 27.6761 269.463 27.8124C269.28 27.9468 269.142 28.1354 269.048 28.3781C268.955 28.6189 268.908 28.8999 268.908 29.221ZM274.868 31.4613C274.453 31.4613 274.096 31.3699 273.795 31.1869C273.496 31.0021 273.266 30.7444 273.103 30.414C272.943 30.0817 272.862 29.6952 272.862 29.2546C272.862 28.814 272.943 28.4257 273.103 28.0896C273.266 27.7517 273.492 27.4885 273.781 27.2999C274.072 27.1095 274.412 27.0143 274.8 27.0143C275.024 27.0143 275.246 27.0516 275.464 27.1263C275.682 27.201 275.881 27.3223 276.06 27.4904C276.24 27.6565 276.383 27.8768 276.489 28.1513C276.595 28.4257 276.649 28.7636 276.649 29.165V29.445H273.333V28.8738H275.976C275.976 28.6311 275.928 28.4145 275.831 28.2241C275.736 28.0336 275.599 27.8833 275.422 27.7732C275.247 27.663 275.039 27.608 274.8 27.608C274.537 27.608 274.309 27.6733 274.117 27.804C273.927 27.9328 273.78 28.1008 273.677 28.3081C273.575 28.5153 273.523 28.7375 273.523 28.9746V29.3554C273.523 29.6803 273.579 29.9557 273.691 30.1816C273.805 30.4056 273.963 30.5764 274.165 30.694C274.366 30.8098 274.601 30.8677 274.868 30.8677C275.041 30.8677 275.198 30.8434 275.338 30.7948C275.48 30.7444 275.602 30.6698 275.705 30.5708C275.808 30.47 275.887 30.3449 275.943 30.1956L276.581 30.3748C276.514 30.5914 276.401 30.7818 276.243 30.9461C276.084 31.1085 275.888 31.2354 275.654 31.3269C275.421 31.4165 275.159 31.4613 274.868 31.4613ZM277.654 31.3717V27.0703H278.292V27.72H278.337C278.416 27.5072 278.558 27.3345 278.763 27.2019C278.968 27.0694 279.2 27.0031 279.457 27.0031C279.506 27.0031 279.567 27.004 279.639 27.0059C279.712 27.0077 279.767 27.0105 279.805 27.0143V27.6864C279.782 27.6808 279.731 27.6724 279.651 27.6612C279.572 27.6481 279.489 27.6416 279.401 27.6416C279.192 27.6416 279.006 27.6854 278.841 27.7732C278.679 27.8591 278.55 27.9786 278.455 28.1316C278.362 28.2829 278.315 28.4556 278.315 28.6497V31.3717H277.654ZM280.588 31.3717V27.0703H281.249V31.3717H280.588ZM280.924 26.3534C280.795 26.3534 280.684 26.3095 280.591 26.2218C280.499 26.134 280.454 26.0285 280.454 25.9053C280.454 25.7821 280.499 25.6766 280.591 25.5889C280.684 25.5011 280.795 25.4572 280.924 25.4572C281.053 25.4572 281.163 25.5011 281.255 25.5889C281.348 25.6766 281.395 25.7821 281.395 25.9053C281.395 26.0285 281.348 26.134 281.255 26.2218C281.163 26.3095 281.053 26.3534 280.924 26.3534ZM284.207 31.4613C283.819 31.4613 283.478 31.3689 283.185 31.1841C282.894 30.9993 282.666 30.7407 282.501 30.4084C282.339 30.0761 282.258 29.6877 282.258 29.2434C282.258 28.7953 282.339 28.4042 282.501 28.07C282.666 27.7359 282.894 27.4763 283.185 27.2915C283.478 27.1067 283.819 27.0143 284.207 27.0143C284.595 27.0143 284.935 27.1067 285.226 27.2915C285.519 27.4763 285.747 27.7359 285.91 28.07C286.074 28.4042 286.156 28.7953 286.156 29.2434C286.156 29.6877 286.074 30.0761 285.91 30.4084C285.747 30.7407 285.519 30.9993 285.226 31.1841C284.935 31.3689 284.595 31.4613 284.207 31.4613ZM284.207 30.8677C284.502 30.8677 284.745 30.792 284.935 30.6408C285.125 30.4896 285.266 30.2908 285.358 30.0443C285.449 29.7979 285.495 29.5309 285.495 29.2434C285.495 28.9559 285.449 28.688 285.358 28.4397C285.266 28.1914 285.125 27.9907 284.935 27.8376C284.745 27.6845 284.502 27.608 284.207 27.608C283.912 27.608 283.669 27.6845 283.479 27.8376C283.288 27.9907 283.147 28.1914 283.056 28.4397C282.964 28.688 282.919 28.9559 282.919 29.2434C282.919 29.5309 282.964 29.7979 283.056 30.0443C283.147 30.2908 283.288 30.4896 283.479 30.6408C283.669 30.792 283.912 30.8677 284.207 30.8677ZM288.789 31.4613C288.431 31.4613 288.114 31.3708 287.84 31.1897C287.565 31.0067 287.351 30.7491 287.196 30.4168C287.041 30.0826 286.963 29.6877 286.963 29.2322C286.963 28.7804 287.041 28.3884 287.196 28.056C287.351 27.7237 287.566 27.467 287.843 27.2859C288.119 27.1048 288.438 27.0143 288.8 27.0143C289.08 27.0143 289.302 27.061 289.464 27.1543C289.628 27.2458 289.753 27.3503 289.839 27.4679C289.927 27.5837 289.995 27.6789 290.044 27.7536H290.1V25.6365H290.761V31.3717H290.122V30.7108H290.044C289.995 30.7892 289.926 30.8882 289.836 31.0077C289.747 31.1253 289.619 31.2308 289.453 31.3241C289.287 31.4156 289.065 31.4613 288.789 31.4613ZM288.879 30.8677C289.144 30.8677 289.368 30.7986 289.551 30.6604C289.734 30.5204 289.873 30.3272 289.968 30.0807C290.063 29.8324 290.111 29.5459 290.111 29.221C290.111 28.8999 290.064 28.6189 289.971 28.3781C289.878 28.1354 289.739 27.9468 289.556 27.8124C289.373 27.6761 289.148 27.608 288.879 27.608C288.599 27.608 288.365 27.6798 288.179 27.8236C287.994 27.9655 287.855 28.1587 287.761 28.4033C287.67 28.646 287.624 28.9186 287.624 29.221C287.624 29.5272 287.671 29.8054 287.764 30.0555C287.859 30.3038 287.999 30.5017 288.184 30.6492C288.371 30.7948 288.602 30.8677 288.879 30.8677Z" fill="#374151"/>
</g>
<rect x="0.75" y="0.75" width="163.5" height="55.5" rx="4.75" stroke="#EDEDED" stroke-width="1.5"/>
<defs>
<clipPath id="clip0_22697_375068">
<rect x="1.5" y="1.5" width="162" height="54" rx="4" fill="white"/>
</clipPath>
</defs>
</svg>
