<svg width="344" height="228" viewBox="0 0 344 228" fill="none" xmlns="http://www.w3.org/2000/svg">
<rect width="344" height="228" rx="4" fill="#D9D9D9"/>
<g opacity="0.1">
<path d="M211.667 63H132.333C126.083 63 121 68.083 121 74.3333V153.667C121 159.917 126.083 165 132.333 165H211.667C217.917 165 223 159.917 223 153.667V74.3333C223 68.083 217.917 63 211.667 63ZM132.333 153.667V74.3333H211.667L211.678 153.667H132.333Z" fill="#454953"/>
<path d="M160.667 125.333L155 119.667L138 142.333H206L177.667 102.667L160.667 125.333Z" fill="#454953"/>
</g>
<path d="M50.4373 97H48.3407L53.0517 83.9091H55.3336L60.0446 97H57.948L54.247 86.2869H54.1447L50.4373 97ZM50.7889 91.8736H57.59V93.5355H50.7889V91.8736ZM66.1495 87.1818V88.7159H60.6012V87.1818H66.1495ZM62.1225 97V86.044C62.1225 85.4304 62.2567 84.9212 62.5252 84.5163C62.7936 84.1072 63.1495 83.8026 63.5927 83.6023C64.0358 83.3977 64.5174 83.2955 65.0373 83.2955C65.4208 83.2955 65.7489 83.3274 66.0216 83.3913C66.2944 83.451 66.4968 83.5064 66.6289 83.5575L66.1814 85.1044C66.0919 85.0788 65.9769 85.049 65.8363 85.0149C65.6956 84.9766 65.5252 84.9574 65.3249 84.9574C64.8604 84.9574 64.528 85.0724 64.3277 85.3026C64.1317 85.5327 64.0337 85.8651 64.0337 86.2997V97H62.1225ZM72.4525 87.1818V88.7159H67.0896V87.1818H72.4525ZM68.5278 84.8295H70.439V94.1172C70.439 94.4879 70.4944 94.767 70.6052 94.9545C70.716 95.1378 70.8588 95.2635 71.0335 95.3317C71.2125 95.3956 71.4063 95.4276 71.6152 95.4276C71.7686 95.4276 71.9028 95.4169 72.0179 95.3956C72.1329 95.3743 72.2224 95.3572 72.2863 95.3445L72.6315 96.9233C72.5207 96.9659 72.363 97.0085 72.1585 97.0511C71.9539 97.098 71.6983 97.1236 71.3914 97.1278C70.8886 97.1364 70.4198 97.0469 69.9852 96.8594C69.5505 96.6719 69.199 96.3821 68.9305 95.9901C68.662 95.598 68.5278 95.1058 68.5278 94.5135V84.8295ZM78.4407 97.1982C77.4734 97.1982 76.6403 96.9915 75.9415 96.5781C75.2469 96.1605 74.7099 95.5746 74.3307 94.8203C73.9557 94.0618 73.7682 93.1733 73.7682 92.1548C73.7682 91.1491 73.9557 90.2628 74.3307 89.4957C74.7099 88.7287 75.2383 88.13 75.9159 87.6996C76.5977 87.2692 77.3946 87.054 78.3065 87.054C78.8605 87.054 79.3974 87.1456 79.9173 87.3288C80.4372 87.5121 80.9038 87.7997 81.3172 88.1918C81.7305 88.5838 82.0565 89.093 82.2952 89.7195C82.5338 90.3416 82.6531 91.098 82.6531 91.9886V92.6662H74.8484V91.2344H80.7802C80.7802 90.7315 80.678 90.2862 80.4734 89.8984C80.2689 89.5064 79.9812 89.1974 79.6105 88.9716C79.244 88.7457 78.8136 88.6328 78.3193 88.6328C77.7824 88.6328 77.3136 88.7649 76.913 89.0291C76.5167 89.2891 76.2099 89.63 75.9926 90.0518C75.7795 90.4695 75.673 90.9233 75.673 91.4134V92.532C75.673 93.1882 75.788 93.7464 76.0182 94.2067C76.2525 94.6669 76.5785 95.0185 76.9961 95.2614C77.4138 95.5 77.9017 95.6193 78.4599 95.6193C78.8221 95.6193 79.1524 95.5682 79.4507 95.4659C79.749 95.3594 80.0068 95.2017 80.2241 94.9929C80.4415 94.7841 80.6077 94.5263 80.7227 94.2195L82.5317 94.5455C82.3868 95.0781 82.1268 95.5447 81.7518 95.9453C81.3811 96.3416 80.9145 96.6506 80.352 96.8722C79.7937 97.0895 79.1567 97.1982 78.4407 97.1982ZM84.5217 97V87.1818H86.369V88.7415H86.4712C86.6502 88.2131 86.9656 87.7976 87.4173 87.495C87.8732 87.1882 88.3889 87.0348 88.9641 87.0348C89.0835 87.0348 89.2241 87.0391 89.386 87.0476C89.5522 87.0561 89.6822 87.0668 89.7759 87.0795V88.9077C89.6992 88.8864 89.5629 88.8629 89.3668 88.8374C89.1708 88.8075 88.9748 88.7926 88.7788 88.7926C88.3271 88.7926 87.9244 88.8885 87.5707 89.0803C87.2212 89.2678 86.9443 89.5298 86.7397 89.8665C86.5352 90.1989 86.4329 90.5781 86.4329 91.0043V97H84.5217ZM95.6895 100.682V87.1818H97.556V88.7734H97.7158C97.8266 88.5689 97.9864 88.3324 98.1952 88.0639C98.404 87.7955 98.6938 87.5611 99.0645 87.3608C99.4353 87.1562 99.9253 87.054 100.535 87.054C101.327 87.054 102.035 87.2543 102.657 87.6548C103.279 88.0554 103.767 88.6328 104.121 89.3871C104.479 90.1413 104.658 91.049 104.658 92.1101C104.658 93.1712 104.481 94.081 104.127 94.8395C103.773 95.5937 103.288 96.1754 102.67 96.5845C102.052 96.9893 101.347 97.1918 100.554 97.1918C99.9573 97.1918 99.4694 97.0916 99.0901 96.8913C98.7151 96.6911 98.4211 96.4567 98.208 96.1882C97.9949 95.9197 97.8309 95.6811 97.7158 95.4723H97.6008V100.682H95.6895ZM97.5624 92.0909C97.5624 92.7812 97.6626 93.3864 97.8628 93.9062C98.0631 94.4261 98.3529 94.8331 98.7322 95.1271C99.1114 95.4169 99.5759 95.5618 100.126 95.5618C100.697 95.5618 101.174 95.4105 101.557 95.108C101.941 94.8011 102.231 94.3857 102.427 93.8615C102.627 93.3374 102.727 92.7472 102.727 92.0909C102.727 91.4432 102.629 90.8615 102.433 90.3459C102.241 89.8303 101.952 89.4233 101.564 89.125C101.18 88.8267 100.701 88.6776 100.126 88.6776C99.5716 88.6776 99.1029 88.8203 98.7194 89.1058C98.3401 89.3913 98.0525 89.7898 97.8564 90.3011C97.6604 90.8125 97.5624 91.4091 97.5624 92.0909ZM112.766 92.9283V87.1818H114.684V97H112.805V95.2997H112.702C112.477 95.8239 112.114 96.2607 111.616 96.6101C111.121 96.9553 110.506 97.1278 109.769 97.1278C109.138 97.1278 108.58 96.9893 108.094 96.7124C107.612 96.4311 107.233 96.0156 106.956 95.4659C106.683 94.9162 106.547 94.2365 106.547 93.4268V87.1818H108.458V93.1967C108.458 93.8658 108.644 94.3984 109.014 94.7947C109.385 95.1911 109.867 95.3892 110.459 95.3892C110.817 95.3892 111.173 95.2997 111.526 95.1207C111.884 94.9418 112.18 94.6712 112.415 94.3089C112.653 93.9467 112.771 93.4865 112.766 92.9283ZM117.153 97V83.9091H119.065V88.7734H119.18C119.29 88.5689 119.45 88.3324 119.659 88.0639C119.868 87.7955 120.158 87.5611 120.528 87.3608C120.899 87.1562 121.389 87.054 121.999 87.054C122.791 87.054 123.499 87.2543 124.121 87.6548C124.743 88.0554 125.231 88.6328 125.585 89.3871C125.942 90.1413 126.121 91.049 126.121 92.1101C126.121 93.1712 125.945 94.081 125.591 94.8395C125.237 95.5937 124.751 96.1754 124.134 96.5845C123.516 96.9893 122.81 97.1918 122.018 97.1918C121.421 97.1918 120.933 97.0916 120.554 96.8913C120.179 96.6911 119.885 96.4567 119.672 96.1882C119.459 95.9197 119.295 95.6811 119.18 95.4723H119.02V97H117.153ZM119.026 92.0909C119.026 92.7812 119.126 93.3864 119.327 93.9062C119.527 94.4261 119.817 94.8331 120.196 95.1271C120.575 95.4169 121.04 95.5618 121.589 95.5618C122.161 95.5618 122.638 95.4105 123.021 95.108C123.405 94.8011 123.695 94.3857 123.891 93.8615C124.091 93.3374 124.191 92.7472 124.191 92.0909C124.191 91.4432 124.093 90.8615 123.897 90.3459C123.705 89.8303 123.415 89.4233 123.028 89.125C122.644 88.8267 122.165 88.6776 121.589 88.6776C121.036 88.6776 120.567 88.8203 120.183 89.1058C119.804 89.3913 119.516 89.7898 119.32 90.3011C119.124 90.8125 119.026 91.4091 119.026 92.0909ZM128.016 83.9091H129.927V94.3153C129.927 94.7372 129.98 95.0355 130.087 95.2102C130.197 95.3849 130.406 95.468 130.713 95.4595C130.879 95.4553 131.003 95.4446 131.084 95.4276C131.169 95.4105 131.246 95.3913 131.314 95.37L131.659 96.8977C131.527 96.9361 131.359 96.9723 131.154 97.0064C130.954 97.0447 130.726 97.0661 130.47 97.0703C129.643 97.0831 129.028 96.8871 128.623 96.4822C128.218 96.0774 128.016 95.4872 128.016 94.7116V83.9091ZM132.668 97V87.1818H134.579V97H132.668ZM133.633 85.6669C133.301 85.6669 133.015 85.5561 132.777 85.3345C132.542 85.1087 132.425 84.8402 132.425 84.5291C132.425 84.2138 132.542 83.9453 132.777 83.7237C133.015 83.4979 133.301 83.3849 133.633 83.3849C133.965 83.3849 134.249 83.4979 134.483 83.7237C134.722 83.9453 134.841 84.2138 134.841 84.5291C134.841 84.8402 134.722 85.1087 134.483 85.3345C134.249 85.5561 133.965 85.6669 133.633 85.6669ZM144.256 89.5788L142.523 89.8857C142.451 89.6641 142.336 89.4531 142.178 89.2528C142.025 89.0526 141.816 88.8885 141.552 88.7607C141.287 88.6328 140.957 88.5689 140.561 88.5689C140.02 88.5689 139.568 88.6903 139.206 88.9332C138.844 89.1719 138.662 89.4808 138.662 89.8601C138.662 90.1882 138.784 90.4524 139.027 90.6527C139.27 90.853 139.662 91.017 140.203 91.1449L141.763 91.5028C142.666 91.7116 143.339 92.0334 143.783 92.468C144.226 92.9027 144.447 93.4673 144.447 94.1619C144.447 94.75 144.277 95.2741 143.936 95.7344C143.599 96.1903 143.128 96.5483 142.523 96.8082C141.922 97.0682 141.226 97.1982 140.433 97.1982C139.334 97.1982 138.437 96.9638 137.742 96.495C137.047 96.022 136.621 95.3509 136.464 94.4815L138.311 94.2003C138.426 94.6818 138.662 95.0462 139.02 95.2933C139.378 95.5362 139.845 95.6577 140.42 95.6577C141.047 95.6577 141.547 95.5277 141.922 95.2678C142.297 95.0036 142.485 94.6818 142.485 94.3026C142.485 93.9957 142.37 93.7379 142.14 93.5291C141.914 93.3203 141.567 93.1626 141.098 93.0561L139.436 92.6918C138.52 92.483 137.842 92.1506 137.403 91.6946C136.969 91.2386 136.751 90.6612 136.751 89.9624C136.751 89.3828 136.913 88.8757 137.237 88.4411C137.561 88.0064 138.008 87.6676 138.579 87.4247C139.15 87.1776 139.805 87.054 140.542 87.054C141.603 87.054 142.438 87.2841 143.047 87.7443C143.657 88.2003 144.06 88.8118 144.256 89.5788ZM148.208 91.1705V97H146.297V83.9091H148.182V88.7798H148.304C148.534 88.2514 148.885 87.8317 149.358 87.5206C149.831 87.2095 150.449 87.054 151.212 87.054C151.885 87.054 152.474 87.1925 152.976 87.4695C153.483 87.7464 153.876 88.1598 154.153 88.7095C154.434 89.255 154.574 89.9368 154.574 90.755V97H152.663V90.9851C152.663 90.2649 152.478 89.7067 152.107 89.3104C151.736 88.9098 151.221 88.7095 150.56 88.7095C150.108 88.7095 149.704 88.8054 149.346 88.9972C148.992 89.1889 148.713 89.4702 148.508 89.8409C148.308 90.2074 148.208 90.6506 148.208 91.1705ZM156.873 97V87.1818H158.784V97H156.873ZM157.838 85.6669C157.506 85.6669 157.22 85.5561 156.981 85.3345C156.747 85.1087 156.63 84.8402 156.63 84.5291C156.63 84.2138 156.747 83.9453 156.981 83.7237C157.22 83.4979 157.506 83.3849 157.838 83.3849C158.17 83.3849 158.454 83.4979 158.688 83.7237C158.927 83.9453 159.046 84.2138 159.046 84.5291C159.046 84.8402 158.927 85.1087 158.688 85.3345C158.454 85.5561 158.17 85.6669 157.838 85.6669ZM163.014 91.1705V97H161.103V87.1818H162.938V88.7798H163.059C163.285 88.2599 163.639 87.8423 164.12 87.527C164.606 87.2116 165.218 87.054 165.955 87.054C166.624 87.054 167.21 87.1946 167.713 87.4759C168.215 87.7528 168.605 88.1662 168.882 88.7159C169.159 89.2656 169.298 89.9453 169.298 90.755V97H167.387V90.9851C167.387 90.2734 167.201 89.7173 166.831 89.3168C166.46 88.9119 165.951 88.7095 165.303 88.7095C164.86 88.7095 164.465 88.8054 164.12 88.9972C163.779 89.1889 163.509 89.4702 163.308 89.8409C163.112 90.2074 163.014 90.6506 163.014 91.1705ZM175.726 100.886C174.946 100.886 174.275 100.784 173.712 100.58C173.154 100.375 172.698 100.104 172.344 99.7678C171.99 99.4311 171.726 99.0625 171.552 98.6619L173.194 97.9844C173.309 98.1719 173.463 98.37 173.654 98.5788C173.851 98.7919 174.115 98.973 174.447 99.1222C174.784 99.2713 175.216 99.3459 175.745 99.3459C176.469 99.3459 177.068 99.169 177.541 98.8153C178.014 98.4659 178.25 97.9077 178.25 97.1406V95.2102H178.129C178.014 95.419 177.848 95.6513 177.63 95.907C177.417 96.1626 177.123 96.3842 176.748 96.5717C176.373 96.7592 175.885 96.853 175.284 96.853C174.509 96.853 173.81 96.6719 173.188 96.3097C172.57 95.9432 172.08 95.4041 171.718 94.6925C171.36 93.9766 171.181 93.0966 171.181 92.0526C171.181 91.0085 171.358 90.1136 171.711 89.3679C172.069 88.6222 172.559 88.0511 173.181 87.6548C173.804 87.2543 174.509 87.054 175.297 87.054C175.907 87.054 176.399 87.1562 176.774 87.3608C177.149 87.5611 177.441 87.7955 177.65 88.0639C177.863 88.3324 178.027 88.5689 178.142 88.7734H178.282V87.1818H180.155V97.2173C180.155 98.0611 179.959 98.7536 179.567 99.2947C179.175 99.8359 178.645 100.237 177.976 100.496C177.311 100.756 176.561 100.886 175.726 100.886ZM175.706 95.2678C176.256 95.2678 176.721 95.1399 177.1 94.8842C177.483 94.6243 177.773 94.2536 177.969 93.772C178.169 93.2862 178.27 92.7045 178.27 92.027C178.27 91.3665 178.172 90.7848 177.976 90.282C177.779 89.7791 177.492 89.3871 177.113 89.1058C176.733 88.8203 176.265 88.6776 175.706 88.6776C175.131 88.6776 174.652 88.8267 174.268 89.125C173.885 89.419 173.595 89.8196 173.399 90.3267C173.207 90.8338 173.111 91.4006 173.111 92.027C173.111 92.6705 173.209 93.2351 173.405 93.7209C173.601 94.2067 173.891 94.5859 174.275 94.8587C174.662 95.1314 175.14 95.2678 175.706 95.2678ZM184.953 95.2102L184.857 95.907C184.793 96.4183 184.684 96.951 184.531 97.505C184.382 98.0632 184.226 98.581 184.064 99.0582C183.907 99.5355 183.777 99.9148 183.675 100.196H182.319C182.375 99.9318 182.451 99.5739 182.55 99.1222C182.648 98.6747 182.743 98.174 182.837 97.62C182.931 97.0661 183.001 96.5014 183.048 95.9261L183.112 95.2102H184.953ZM194.558 97.2173C193.936 97.2173 193.373 97.1023 192.87 96.8722C192.368 96.6378 191.969 96.299 191.675 95.8558C191.385 95.4126 191.24 94.8693 191.24 94.2259C191.24 93.6719 191.347 93.2159 191.56 92.858C191.773 92.5 192.061 92.2166 192.423 92.0078C192.785 91.799 193.19 91.6413 193.637 91.5348C194.085 91.4283 194.541 91.3473 195.005 91.2919C195.593 91.2237 196.071 91.1683 196.437 91.1257C196.804 91.0788 197.07 91.0043 197.236 90.902C197.402 90.7997 197.485 90.6335 197.485 90.4034V90.3587C197.485 89.8004 197.328 89.3679 197.012 89.0611C196.701 88.7543 196.237 88.6009 195.619 88.6009C194.976 88.6009 194.468 88.7436 194.098 89.0291C193.731 89.3104 193.478 89.6236 193.337 89.9688L191.541 89.5597C191.754 88.9631 192.065 88.4815 192.474 88.1151C192.887 87.7443 193.363 87.4759 193.9 87.3097C194.436 87.1392 195.001 87.054 195.593 87.054C195.985 87.054 196.401 87.1009 196.84 87.1946C197.283 87.2841 197.696 87.4503 198.08 87.6932C198.468 87.9361 198.785 88.2834 199.032 88.7351C199.28 89.1825 199.403 89.7642 199.403 90.4801V97H197.537V95.6577H197.46C197.336 95.9048 197.151 96.1477 196.904 96.3864C196.657 96.625 196.339 96.8232 195.951 96.9808C195.564 97.1385 195.099 97.2173 194.558 97.2173ZM194.973 95.6832C195.502 95.6832 195.954 95.5788 196.329 95.37C196.708 95.1612 196.995 94.8885 197.191 94.5518C197.392 94.2109 197.492 93.8466 197.492 93.4588V92.1932C197.424 92.2614 197.292 92.3253 197.096 92.3849C196.904 92.4403 196.684 92.4893 196.437 92.532C196.19 92.5703 195.949 92.6065 195.715 92.6406C195.481 92.6705 195.285 92.696 195.127 92.7173C194.756 92.7642 194.417 92.843 194.11 92.9538C193.808 93.0646 193.565 93.2244 193.382 93.4332C193.203 93.6378 193.113 93.9105 193.113 94.2514C193.113 94.7244 193.288 95.0824 193.637 95.3253C193.987 95.5639 194.432 95.6832 194.973 95.6832ZM201.697 97V87.1818H203.544V88.7415H203.646C203.825 88.2131 204.141 87.7976 204.592 87.495C205.048 87.1882 205.564 87.0348 206.139 87.0348C206.259 87.0348 206.399 87.0391 206.561 87.0476C206.727 87.0561 206.857 87.0668 206.951 87.0795V88.9077C206.874 88.8864 206.738 88.8629 206.542 88.8374C206.346 88.8075 206.15 88.7926 205.954 88.7926C205.502 88.7926 205.099 88.8885 204.746 89.0803C204.396 89.2678 204.119 89.5298 203.915 89.8665C203.71 90.1989 203.608 90.5781 203.608 91.0043V97H201.697ZM213.516 87.1818V88.7159H208.153V87.1818H213.516ZM209.591 84.8295H211.503V94.1172C211.503 94.4879 211.558 94.767 211.669 94.9545C211.78 95.1378 211.922 95.2635 212.097 95.3317C212.276 95.3956 212.47 95.4276 212.679 95.4276C212.832 95.4276 212.966 95.4169 213.081 95.3956C213.197 95.3743 213.286 95.3572 213.35 95.3445L213.695 96.9233C213.584 96.9659 213.427 97.0085 213.222 97.0511C213.018 97.098 212.762 97.1236 212.455 97.1278C211.952 97.1364 211.483 97.0469 211.049 96.8594C210.614 96.6719 210.263 96.3821 209.994 95.9901C209.726 95.598 209.591 95.1058 209.591 94.5135V84.8295ZM215.378 97V87.1818H217.289V97H215.378ZM216.343 85.6669C216.011 85.6669 215.726 85.5561 215.487 85.3345C215.253 85.1087 215.135 84.8402 215.135 84.5291C215.135 84.2138 215.253 83.9453 215.487 83.7237C215.726 83.4979 216.011 83.3849 216.343 83.3849C216.676 83.3849 216.959 83.4979 217.194 83.7237C217.432 83.9453 217.552 84.2138 217.552 84.5291C217.552 84.8402 217.432 85.1087 217.194 85.3345C216.959 85.5561 216.676 85.6669 216.343 85.6669ZM223.744 97.1982C222.794 97.1982 221.976 96.983 221.29 96.5526C220.608 96.1179 220.084 95.5192 219.717 94.7564C219.351 93.9936 219.168 93.12 219.168 92.1357C219.168 91.1385 219.355 90.2585 219.73 89.4957C220.105 88.7287 220.634 88.13 221.315 87.6996C221.997 87.2692 222.8 87.054 223.725 87.054C224.471 87.054 225.136 87.1925 225.72 87.4695C226.303 87.7422 226.774 88.1257 227.132 88.62C227.494 89.1143 227.71 89.6918 227.778 90.3523H225.918C225.815 89.892 225.581 89.4957 225.215 89.1634C224.852 88.831 224.367 88.6648 223.757 88.6648C223.224 88.6648 222.758 88.8054 222.357 89.0866C221.961 89.3636 221.652 89.7599 221.43 90.2756C221.209 90.7869 221.098 91.392 221.098 92.0909C221.098 92.8068 221.207 93.4247 221.424 93.9446C221.641 94.4645 221.948 94.8672 222.345 95.1527C222.745 95.4382 223.216 95.581 223.757 95.581C224.119 95.581 224.447 95.5149 224.742 95.3828C225.04 95.2464 225.289 95.0526 225.489 94.8011C225.694 94.5497 225.837 94.2472 225.918 93.8935H227.778C227.71 94.5284 227.503 95.0952 227.158 95.5938C226.813 96.0923 226.35 96.4844 225.771 96.7699C225.195 97.0554 224.52 97.1982 223.744 97.1982ZM229.57 83.9091H231.481V94.3153C231.481 94.7372 231.534 95.0355 231.641 95.2102C231.751 95.3849 231.96 95.468 232.267 95.4595C232.433 95.4553 232.557 95.4446 232.638 95.4276C232.723 95.4105 232.8 95.3913 232.868 95.37L233.213 96.8977C233.081 96.9361 232.913 96.9723 232.708 97.0064C232.508 97.0447 232.28 97.0661 232.024 97.0703C231.197 97.0831 230.582 96.8871 230.177 96.4822C229.772 96.0774 229.57 95.4872 229.57 94.7116V83.9091ZM238.453 97.1982C237.486 97.1982 236.653 96.9915 235.954 96.5781C235.26 96.1605 234.723 95.5746 234.343 94.8203C233.968 94.0618 233.781 93.1733 233.781 92.1548C233.781 91.1491 233.968 90.2628 234.343 89.4957C234.723 88.7287 235.251 88.13 235.929 87.6996C236.61 87.2692 237.407 87.054 238.319 87.054C238.873 87.054 239.41 87.1456 239.93 87.3288C240.45 87.5121 240.917 87.7997 241.33 88.1918C241.743 88.5838 242.069 89.093 242.308 89.7195C242.546 90.3416 242.666 91.098 242.666 91.9886V92.6662H234.861V91.2344H240.793C240.793 90.7315 240.691 90.2862 240.486 89.8984C240.282 89.5064 239.994 89.1974 239.623 88.9716C239.257 88.7457 238.826 88.6328 238.332 88.6328C237.795 88.6328 237.326 88.7649 236.926 89.0291C236.529 89.2891 236.223 89.63 236.005 90.0518C235.792 90.4695 235.686 90.9233 235.686 91.4134V92.532C235.686 93.1882 235.801 93.7464 236.031 94.2067C236.265 94.6669 236.591 95.0185 237.009 95.2614C237.426 95.5 237.914 95.6193 238.473 95.6193C238.835 95.6193 239.165 95.5682 239.463 95.4659C239.762 95.3594 240.019 95.2017 240.237 94.9929C240.454 94.7841 240.62 94.5263 240.735 94.2195L242.544 94.5455C242.399 95.0781 242.14 95.5447 241.765 95.9453C241.394 96.3416 240.927 96.6506 240.365 96.8722C239.806 97.0895 239.169 97.1982 238.453 97.1982ZM251.892 89.5788L250.159 89.8857C250.087 89.6641 249.972 89.4531 249.814 89.2528C249.661 89.0526 249.452 88.8885 249.188 88.7607C248.924 88.6328 248.593 88.5689 248.197 88.5689C247.656 88.5689 247.204 88.6903 246.842 88.9332C246.48 89.1719 246.299 89.4808 246.299 89.8601C246.299 90.1882 246.42 90.4524 246.663 90.6527C246.906 90.853 247.298 91.017 247.839 91.1449L249.399 91.5028C250.302 91.7116 250.975 92.0334 251.419 92.468C251.862 92.9027 252.083 93.4673 252.083 94.1619C252.083 94.75 251.913 95.2741 251.572 95.7344C251.235 96.1903 250.764 96.5483 250.159 96.8082C249.558 97.0682 248.862 97.1982 248.069 97.1982C246.97 97.1982 246.073 96.9638 245.378 96.495C244.683 96.022 244.257 95.3509 244.1 94.4815L245.947 94.2003C246.062 94.6818 246.299 95.0462 246.657 95.2933C247.014 95.5362 247.481 95.6577 248.056 95.6577C248.683 95.6577 249.183 95.5277 249.558 95.2678C249.933 95.0036 250.121 94.6818 250.121 94.3026C250.121 93.9957 250.006 93.7379 249.776 93.5291C249.55 93.3203 249.203 93.1626 248.734 93.0561L247.072 92.6918C246.156 92.483 245.478 92.1506 245.039 91.6946C244.605 91.2386 244.387 90.6612 244.387 89.9624C244.387 89.3828 244.549 88.8757 244.873 88.4411C245.197 88.0064 245.644 87.6676 246.215 87.4247C246.786 87.1776 247.441 87.054 248.178 87.054C249.239 87.054 250.074 87.2841 250.683 87.7443C251.293 88.2003 251.696 88.8118 251.892 89.5788ZM263.117 87.1818V88.7159H257.569V87.1818H263.117ZM259.09 97V86.044C259.09 85.4304 259.224 84.9212 259.493 84.5163C259.761 84.1072 260.117 83.8026 260.56 83.6023C261.003 83.3977 261.485 83.2955 262.005 83.2955C262.388 83.2955 262.716 83.3274 262.989 83.3913C263.262 83.451 263.464 83.5064 263.596 83.5575L263.149 85.1044C263.059 85.0788 262.944 85.049 262.804 85.0149C262.663 84.9766 262.493 84.9574 262.292 84.9574C261.828 84.9574 261.496 85.0724 261.295 85.3026C261.099 85.5327 261.001 85.8651 261.001 86.2997V97H259.09ZM264.837 97V87.1818H266.684V88.7415H266.787C266.966 88.2131 267.281 87.7976 267.733 87.495C268.189 87.1882 268.704 87.0348 269.279 87.0348C269.399 87.0348 269.539 87.0391 269.701 87.0476C269.867 87.0561 269.997 87.0668 270.091 87.0795V88.9077C270.015 88.8864 269.878 88.8629 269.682 88.8374C269.486 88.8075 269.29 88.7926 269.094 88.7926C268.642 88.7926 268.24 88.8885 267.886 89.0803C267.537 89.2678 267.26 89.5298 267.055 89.8665C266.85 90.1989 266.748 90.5781 266.748 91.0043V97H264.837ZM275.277 97.1982C274.357 97.1982 273.554 96.9872 272.867 96.5653C272.181 96.1435 271.649 95.5533 271.269 94.7947C270.89 94.0362 270.701 93.1499 270.701 92.1357C270.701 91.1172 270.89 90.2266 271.269 89.4638C271.649 88.701 272.181 88.1087 272.867 87.6868C273.554 87.2649 274.357 87.054 275.277 87.054C276.198 87.054 277.001 87.2649 277.687 87.6868C278.373 88.1087 278.906 88.701 279.285 89.4638C279.664 90.2266 279.854 91.1172 279.854 92.1357C279.854 93.1499 279.664 94.0362 279.285 94.7947C278.906 95.5533 278.373 96.1435 277.687 96.5653C277.001 96.9872 276.198 97.1982 275.277 97.1982ZM275.284 95.5938C275.88 95.5938 276.375 95.4361 276.767 95.1207C277.159 94.8054 277.448 94.3857 277.636 93.8615C277.828 93.3374 277.924 92.7599 277.924 92.1293C277.924 91.5028 277.828 90.9276 277.636 90.4034C277.448 89.875 277.159 89.451 276.767 89.1314C276.375 88.8118 275.88 88.652 275.284 88.652C274.683 88.652 274.184 88.8118 273.788 89.1314C273.396 89.451 273.104 89.875 272.912 90.4034C272.725 90.9276 272.631 91.5028 272.631 92.1293C272.631 92.7599 272.725 93.3374 272.912 93.8615C273.104 94.3857 273.396 94.8054 273.788 95.1207C274.184 95.4361 274.683 95.5938 275.284 95.5938ZM281.735 97V87.1818H283.57V88.7798H283.691C283.896 88.2386 284.23 87.8168 284.695 87.5142C285.159 87.2074 285.715 87.054 286.363 87.054C287.019 87.054 287.569 87.2074 288.012 87.5142C288.46 87.821 288.79 88.2429 289.003 88.7798H289.105C289.34 88.2557 289.713 87.8381 290.224 87.527C290.735 87.2116 291.345 87.054 292.052 87.054C292.943 87.054 293.669 87.3331 294.232 87.8913C294.799 88.4496 295.082 89.2912 295.082 90.4162V97H293.171V90.5952C293.171 89.9304 292.99 89.4489 292.627 89.1506C292.265 88.8523 291.833 88.7031 291.33 88.7031C290.708 88.7031 290.224 88.8949 289.879 89.2784C289.534 89.6577 289.361 90.1456 289.361 90.7422V97H287.456V90.4737C287.456 89.9411 287.29 89.5128 286.958 89.1889C286.625 88.8651 286.193 88.7031 285.66 88.7031C285.298 88.7031 284.963 88.799 284.656 88.9908C284.354 89.1783 284.109 89.4403 283.921 89.777C283.738 90.1136 283.647 90.5036 283.647 90.9467V97H281.735ZM97.2548 113.579L95.5225 113.886C95.4501 113.664 95.335 113.453 95.1774 113.253C95.024 113.053 94.8152 112.888 94.551 112.761C94.2868 112.633 93.9565 112.569 93.5602 112.569C93.019 112.569 92.5673 112.69 92.2051 112.933C91.8429 113.172 91.6618 113.481 91.6618 113.86C91.6618 114.188 91.7832 114.452 92.0261 114.653C92.269 114.853 92.661 115.017 93.2022 115.145L94.7619 115.503C95.6653 115.712 96.3386 116.033 96.7818 116.468C97.225 116.903 97.4466 117.467 97.4466 118.162C97.4466 118.75 97.2761 119.274 96.9352 119.734C96.5985 120.19 96.1277 120.548 95.5225 120.808C94.9217 121.068 94.225 121.198 93.4323 121.198C92.3329 121.198 91.4359 120.964 90.7413 120.495C90.0467 120.022 89.6206 119.351 89.4629 118.482L91.3102 118.2C91.4252 118.682 91.6618 119.046 92.0197 119.293C92.3777 119.536 92.8443 119.658 93.4196 119.658C94.046 119.658 94.5467 119.528 94.9217 119.268C95.2967 119.004 95.4842 118.682 95.4842 118.303C95.4842 117.996 95.3691 117.738 95.139 117.529C94.9132 117.32 94.5659 117.163 94.0971 117.056L92.4352 116.692C91.519 116.483 90.8414 116.151 90.4025 115.695C89.9679 115.239 89.7505 114.661 89.7505 113.962C89.7505 113.383 89.9125 112.876 90.2363 112.441C90.5602 112.006 91.0076 111.668 91.5787 111.425C92.1497 111.178 92.8038 111.054 93.541 111.054C94.6021 111.054 95.4373 111.284 96.0467 111.744C96.6561 112.2 97.0588 112.812 97.2548 113.579ZM103.527 121.198C102.56 121.198 101.727 120.991 101.028 120.578C100.334 120.161 99.7967 119.575 99.4174 118.82C99.0424 118.062 98.8549 117.173 98.8549 116.155C98.8549 115.149 99.0424 114.263 99.4174 113.496C99.7967 112.729 100.325 112.13 101.003 111.7C101.684 111.269 102.481 111.054 103.393 111.054C103.947 111.054 104.484 111.146 105.004 111.329C105.524 111.512 105.991 111.8 106.404 112.192C106.817 112.584 107.143 113.093 107.382 113.719C107.621 114.342 107.74 115.098 107.74 115.989V116.666H99.9351V115.234H105.867C105.867 114.732 105.765 114.286 105.56 113.898C105.356 113.506 105.068 113.197 104.697 112.972C104.331 112.746 103.9 112.633 103.406 112.633C102.869 112.633 102.4 112.765 102 113.029C101.603 113.289 101.297 113.63 101.079 114.052C100.866 114.469 100.76 114.923 100.76 115.413V116.532C100.76 117.188 100.875 117.746 101.105 118.207C101.339 118.667 101.665 119.018 102.083 119.261C102.5 119.5 102.988 119.619 103.547 119.619C103.909 119.619 104.239 119.568 104.537 119.466C104.836 119.359 105.094 119.202 105.311 118.993C105.528 118.784 105.694 118.526 105.809 118.219L107.618 118.545C107.473 119.078 107.214 119.545 106.839 119.945C106.468 120.342 106.001 120.651 105.439 120.872C104.88 121.089 104.243 121.198 103.527 121.198ZM109.608 107.909H111.52V118.315C111.52 118.737 111.573 119.036 111.679 119.21C111.79 119.385 111.999 119.468 112.306 119.46C112.472 119.455 112.596 119.445 112.677 119.428C112.762 119.411 112.839 119.391 112.907 119.37L113.252 120.898C113.12 120.936 112.951 120.972 112.747 121.006C112.547 121.045 112.319 121.066 112.063 121.07C111.236 121.083 110.62 120.887 110.216 120.482C109.811 120.077 109.608 119.487 109.608 118.712V107.909ZM118.492 121.198C117.525 121.198 116.692 120.991 115.993 120.578C115.298 120.161 114.761 119.575 114.382 118.82C114.007 118.062 113.82 117.173 113.82 116.155C113.82 115.149 114.007 114.263 114.382 113.496C114.761 112.729 115.29 112.13 115.967 111.7C116.649 111.269 117.446 111.054 118.358 111.054C118.912 111.054 119.449 111.146 119.969 111.329C120.489 111.512 120.955 111.8 121.369 112.192C121.782 112.584 122.108 113.093 122.347 113.719C122.585 114.342 122.705 115.098 122.705 115.989V116.666H114.9V115.234H120.832C120.832 114.732 120.729 114.286 120.525 113.898C120.32 113.506 120.033 113.197 119.662 112.972C119.295 112.746 118.865 112.633 118.371 112.633C117.834 112.633 117.365 112.765 116.965 113.029C116.568 113.289 116.261 113.63 116.044 114.052C115.831 114.469 115.724 114.923 115.724 115.413V116.532C115.724 117.188 115.84 117.746 116.07 118.207C116.304 118.667 116.63 119.018 117.048 119.261C117.465 119.5 117.953 119.619 118.511 119.619C118.874 119.619 119.204 119.568 119.502 119.466C119.8 119.359 120.058 119.202 120.276 118.993C120.493 118.784 120.659 118.526 120.774 118.219L122.583 118.545C122.438 119.078 122.178 119.545 121.803 119.945C121.433 120.342 120.966 120.651 120.403 120.872C119.845 121.089 119.208 121.198 118.492 121.198ZM128.709 121.198C127.759 121.198 126.94 120.983 126.254 120.553C125.572 120.118 125.048 119.519 124.682 118.756C124.315 117.994 124.132 117.12 124.132 116.136C124.132 115.138 124.32 114.259 124.695 113.496C125.07 112.729 125.598 112.13 126.28 111.7C126.962 111.269 127.765 111.054 128.69 111.054C129.435 111.054 130.1 111.192 130.684 111.469C131.268 111.742 131.739 112.126 132.097 112.62C132.459 113.114 132.674 113.692 132.742 114.352H130.882C130.78 113.892 130.545 113.496 130.179 113.163C129.817 112.831 129.331 112.665 128.722 112.665C128.189 112.665 127.722 112.805 127.322 113.087C126.925 113.364 126.616 113.76 126.395 114.276C126.173 114.787 126.062 115.392 126.062 116.091C126.062 116.807 126.171 117.425 126.388 117.945C126.606 118.464 126.913 118.867 127.309 119.153C127.71 119.438 128.18 119.581 128.722 119.581C129.084 119.581 129.412 119.515 129.706 119.383C130.004 119.246 130.254 119.053 130.454 118.801C130.658 118.55 130.801 118.247 130.882 117.893H132.742C132.674 118.528 132.467 119.095 132.122 119.594C131.777 120.092 131.315 120.484 130.735 120.77C130.16 121.055 129.484 121.198 128.709 121.198ZM139.117 111.182V112.716H133.754V111.182H139.117ZM135.192 108.83H137.104V118.117C137.104 118.488 137.159 118.767 137.27 118.955C137.381 119.138 137.523 119.263 137.698 119.332C137.877 119.396 138.071 119.428 138.28 119.428C138.433 119.428 138.567 119.417 138.682 119.396C138.798 119.374 138.887 119.357 138.951 119.344L139.296 120.923C139.185 120.966 139.028 121.009 138.823 121.051C138.619 121.098 138.363 121.124 138.056 121.128C137.553 121.136 137.084 121.047 136.65 120.859C136.215 120.672 135.864 120.382 135.595 119.99C135.327 119.598 135.192 119.106 135.192 118.513V108.83ZM145.105 121.198C144.138 121.198 143.305 120.991 142.606 120.578C141.911 120.161 141.375 119.575 140.995 118.82C140.62 118.062 140.433 117.173 140.433 116.155C140.433 115.149 140.62 114.263 140.995 113.496C141.375 112.729 141.903 112.13 142.581 111.7C143.262 111.269 144.059 111.054 144.971 111.054C145.525 111.054 146.062 111.146 146.582 111.329C147.102 111.512 147.568 111.8 147.982 112.192C148.395 112.584 148.721 113.093 148.96 113.719C149.198 114.342 149.318 115.098 149.318 115.989V116.666H141.513V115.234H147.445C147.445 114.732 147.343 114.286 147.138 113.898C146.933 113.506 146.646 113.197 146.275 112.972C145.909 112.746 145.478 112.633 144.984 112.633C144.447 112.633 143.978 112.765 143.578 113.029C143.181 113.289 142.875 113.63 142.657 114.052C142.444 114.469 142.338 114.923 142.338 115.413V116.532C142.338 117.188 142.453 117.746 142.683 118.207C142.917 118.667 143.243 119.018 143.661 119.261C144.078 119.5 144.566 119.619 145.125 119.619C145.487 119.619 145.817 119.568 146.115 119.466C146.414 119.359 146.671 119.202 146.889 118.993C147.106 118.784 147.272 118.526 147.387 118.219L149.196 118.545C149.051 119.078 148.791 119.545 148.416 119.945C148.046 120.342 147.579 120.651 147.017 120.872C146.458 121.089 145.821 121.198 145.105 121.198ZM154.862 121.192C154.069 121.192 153.362 120.989 152.74 120.585C152.122 120.175 151.636 119.594 151.282 118.839C150.933 118.081 150.758 117.171 150.758 116.11C150.758 115.049 150.935 114.141 151.289 113.387C151.647 112.633 152.137 112.055 152.759 111.655C153.381 111.254 154.086 111.054 154.874 111.054C155.484 111.054 155.974 111.156 156.345 111.361C156.72 111.561 157.009 111.795 157.214 112.064C157.423 112.332 157.585 112.569 157.7 112.773H157.815V107.909H159.726V121H157.86V119.472H157.7C157.585 119.681 157.419 119.92 157.201 120.188C156.988 120.457 156.694 120.691 156.319 120.891C155.944 121.092 155.458 121.192 154.862 121.192ZM155.284 119.562C155.833 119.562 156.298 119.417 156.677 119.127C157.061 118.833 157.35 118.426 157.546 117.906C157.747 117.386 157.847 116.781 157.847 116.091C157.847 115.409 157.749 114.812 157.553 114.301C157.357 113.79 157.069 113.391 156.69 113.106C156.311 112.82 155.842 112.678 155.284 112.678C154.708 112.678 154.229 112.827 153.845 113.125C153.462 113.423 153.172 113.83 152.976 114.346C152.784 114.862 152.688 115.443 152.688 116.091C152.688 116.747 152.786 117.337 152.982 117.862C153.178 118.386 153.468 118.801 153.852 119.108C154.24 119.411 154.717 119.562 155.284 119.562ZM177.74 112.166H175.745C175.669 111.74 175.526 111.365 175.317 111.041C175.108 110.717 174.853 110.442 174.55 110.217C174.248 109.991 173.909 109.82 173.534 109.705C173.163 109.59 172.769 109.533 172.351 109.533C171.597 109.533 170.922 109.722 170.325 110.102C169.733 110.481 169.264 111.037 168.919 111.77C168.578 112.503 168.407 113.398 168.407 114.455C168.407 115.52 168.578 116.419 168.919 117.152C169.264 117.885 169.735 118.439 170.331 118.814C170.928 119.189 171.599 119.376 172.345 119.376C172.758 119.376 173.15 119.321 173.521 119.21C173.896 119.095 174.235 118.927 174.537 118.705C174.84 118.484 175.096 118.213 175.304 117.893C175.518 117.57 175.665 117.199 175.745 116.781L177.74 116.788C177.633 117.431 177.427 118.023 177.12 118.565C176.817 119.102 176.427 119.566 175.95 119.958C175.477 120.346 174.936 120.646 174.326 120.859C173.717 121.072 173.052 121.179 172.332 121.179C171.199 121.179 170.189 120.911 169.302 120.374C168.416 119.832 167.717 119.059 167.206 118.053C166.699 117.048 166.445 115.848 166.445 114.455C166.445 113.057 166.701 111.857 167.212 110.856C167.723 109.85 168.422 109.079 169.309 108.542C170.195 108.001 171.203 107.73 172.332 107.73C173.027 107.73 173.674 107.83 174.275 108.031C174.88 108.227 175.424 108.516 175.905 108.9C176.387 109.279 176.785 109.744 177.101 110.293C177.416 110.839 177.629 111.463 177.74 112.166ZM183.834 121.198C182.913 121.198 182.11 120.987 181.424 120.565C180.738 120.143 180.205 119.553 179.826 118.795C179.446 118.036 179.257 117.15 179.257 116.136C179.257 115.117 179.446 114.227 179.826 113.464C180.205 112.701 180.738 112.109 181.424 111.687C182.11 111.265 182.913 111.054 183.834 111.054C184.754 111.054 185.557 111.265 186.243 111.687C186.929 112.109 187.462 112.701 187.841 113.464C188.221 114.227 188.41 115.117 188.41 116.136C188.41 117.15 188.221 118.036 187.841 118.795C187.462 119.553 186.929 120.143 186.243 120.565C185.557 120.987 184.754 121.198 183.834 121.198ZM183.84 119.594C184.436 119.594 184.931 119.436 185.323 119.121C185.715 118.805 186.005 118.386 186.192 117.862C186.384 117.337 186.48 116.76 186.48 116.129C186.48 115.503 186.384 114.928 186.192 114.403C186.005 113.875 185.715 113.451 185.323 113.131C184.931 112.812 184.436 112.652 183.84 112.652C183.239 112.652 182.74 112.812 182.344 113.131C181.952 113.451 181.66 113.875 181.468 114.403C181.281 114.928 181.187 115.503 181.187 116.129C181.187 116.76 181.281 117.337 181.468 117.862C181.66 118.386 181.952 118.805 182.344 119.121C182.74 119.436 183.239 119.594 183.84 119.594ZM190.292 107.909H192.203V118.315C192.203 118.737 192.256 119.036 192.363 119.21C192.473 119.385 192.682 119.468 192.989 119.46C193.155 119.455 193.279 119.445 193.36 119.428C193.445 119.411 193.522 119.391 193.59 119.37L193.935 120.898C193.803 120.936 193.635 120.972 193.43 121.006C193.23 121.045 193.002 121.066 192.746 121.07C191.919 121.083 191.304 120.887 190.899 120.482C190.494 120.077 190.292 119.487 190.292 118.712V107.909ZM195.208 107.909H197.119V118.315C197.119 118.737 197.172 119.036 197.279 119.21C197.389 119.385 197.598 119.468 197.905 119.46C198.071 119.455 198.195 119.445 198.276 119.428C198.361 119.411 198.438 119.391 198.506 119.37L198.851 120.898C198.719 120.936 198.551 120.972 198.346 121.006C198.146 121.045 197.918 121.066 197.662 121.07C196.835 121.083 196.22 120.887 195.815 120.482C195.41 120.077 195.208 119.487 195.208 118.712V107.909ZM204.091 121.198C203.124 121.198 202.291 120.991 201.592 120.578C200.897 120.161 200.361 119.575 199.981 118.82C199.606 118.062 199.419 117.173 199.419 116.155C199.419 115.149 199.606 114.263 199.981 113.496C200.361 112.729 200.889 112.13 201.567 111.7C202.248 111.269 203.045 111.054 203.957 111.054C204.511 111.054 205.048 111.146 205.568 111.329C206.088 111.512 206.554 111.8 206.968 112.192C207.381 112.584 207.707 113.093 207.946 113.719C208.184 114.342 208.304 115.098 208.304 115.989V116.666H200.499V115.234H206.431C206.431 114.732 206.329 114.286 206.124 113.898C205.919 113.506 205.632 113.197 205.261 112.972C204.895 112.746 204.464 112.633 203.97 112.633C203.433 112.633 202.964 112.765 202.564 113.029C202.167 113.289 201.861 113.63 201.643 114.052C201.43 114.469 201.324 114.923 201.324 115.413V116.532C201.324 117.188 201.439 117.746 201.669 118.207C201.903 118.667 202.229 119.018 202.647 119.261C203.064 119.5 203.552 119.619 204.111 119.619C204.473 119.619 204.803 119.568 205.101 119.466C205.4 119.359 205.657 119.202 205.875 118.993C206.092 118.784 206.258 118.526 206.373 118.219L208.182 118.545C208.037 119.078 207.777 119.545 207.402 119.945C207.032 120.342 206.565 120.651 206.003 120.872C205.444 121.089 204.807 121.198 204.091 121.198ZM214.308 121.198C213.358 121.198 212.539 120.983 211.853 120.553C211.172 120.118 210.647 119.519 210.281 118.756C209.914 117.994 209.731 117.12 209.731 116.136C209.731 115.138 209.919 114.259 210.294 113.496C210.669 112.729 211.197 112.13 211.879 111.7C212.561 111.269 213.364 111.054 214.289 111.054C215.034 111.054 215.699 111.192 216.283 111.469C216.867 111.742 217.338 112.126 217.696 112.62C218.058 113.114 218.273 113.692 218.341 114.352H216.481C216.379 113.892 216.145 113.496 215.778 113.163C215.416 112.831 214.93 112.665 214.321 112.665C213.788 112.665 213.321 112.805 212.921 113.087C212.525 113.364 212.216 113.76 211.994 114.276C211.772 114.787 211.662 115.392 211.662 116.091C211.662 116.807 211.77 117.425 211.988 117.945C212.205 118.464 212.512 118.867 212.908 119.153C213.309 119.438 213.78 119.581 214.321 119.581C214.683 119.581 215.011 119.515 215.305 119.383C215.603 119.246 215.853 119.053 216.053 118.801C216.258 118.55 216.4 118.247 216.481 117.893H218.341C218.273 118.528 218.066 119.095 217.721 119.594C217.376 120.092 216.914 120.484 216.334 120.77C215.759 121.055 215.084 121.198 214.308 121.198ZM224.716 111.182V112.716H219.353V111.182H224.716ZM220.792 108.83H222.703V118.117C222.703 118.488 222.758 118.767 222.869 118.955C222.98 119.138 223.123 119.263 223.297 119.332C223.476 119.396 223.67 119.428 223.879 119.428C224.032 119.428 224.167 119.417 224.282 119.396C224.397 119.374 224.486 119.357 224.55 119.344L224.895 120.923C224.784 120.966 224.627 121.009 224.422 121.051C224.218 121.098 223.962 121.124 223.655 121.128C223.152 121.136 222.684 121.047 222.249 120.859C221.814 120.672 221.463 120.382 221.194 119.99C220.926 119.598 220.792 119.106 220.792 118.513V108.83ZM226.578 121V111.182H228.49V121H226.578ZM227.544 109.667C227.211 109.667 226.926 109.556 226.687 109.335C226.453 109.109 226.336 108.84 226.336 108.529C226.336 108.214 226.453 107.945 226.687 107.724C226.926 107.498 227.211 107.385 227.544 107.385C227.876 107.385 228.159 107.498 228.394 107.724C228.632 107.945 228.752 108.214 228.752 108.529C228.752 108.84 228.632 109.109 228.394 109.335C228.159 109.556 227.876 109.667 227.544 109.667ZM234.945 121.198C234.024 121.198 233.221 120.987 232.535 120.565C231.849 120.143 231.316 119.553 230.937 118.795C230.557 118.036 230.368 117.15 230.368 116.136C230.368 115.117 230.557 114.227 230.937 113.464C231.316 112.701 231.849 112.109 232.535 111.687C233.221 111.265 234.024 111.054 234.945 111.054C235.865 111.054 236.668 111.265 237.354 111.687C238.04 112.109 238.573 112.701 238.952 113.464C239.332 114.227 239.521 115.117 239.521 116.136C239.521 117.15 239.332 118.036 238.952 118.795C238.573 119.553 238.04 120.143 237.354 120.565C236.668 120.987 235.865 121.198 234.945 121.198ZM234.951 119.594C235.548 119.594 236.042 119.436 236.434 119.121C236.826 118.805 237.116 118.386 237.303 117.862C237.495 117.337 237.591 116.76 237.591 116.129C237.591 115.503 237.495 114.928 237.303 114.403C237.116 113.875 236.826 113.451 236.434 113.131C236.042 112.812 235.548 112.652 234.951 112.652C234.35 112.652 233.851 112.812 233.455 113.131C233.063 113.451 232.771 113.875 232.579 114.403C232.392 114.928 232.298 115.503 232.298 116.129C232.298 116.76 232.392 117.337 232.579 117.862C232.771 118.386 233.063 118.805 233.455 119.121C233.851 119.436 234.35 119.594 234.951 119.594ZM243.314 115.17V121H241.403V111.182H243.237V112.78H243.359C243.584 112.26 243.938 111.842 244.42 111.527C244.905 111.212 245.517 111.054 246.254 111.054C246.923 111.054 247.509 111.195 248.012 111.476C248.515 111.753 248.905 112.166 249.182 112.716C249.459 113.266 249.597 113.945 249.597 114.755V121H247.686V114.985C247.686 114.273 247.501 113.717 247.13 113.317C246.759 112.912 246.25 112.71 245.602 112.71C245.159 112.71 244.765 112.805 244.42 112.997C244.079 113.189 243.808 113.47 243.608 113.841C243.412 114.207 243.314 114.651 243.314 115.17ZM108.485 145L105.596 135.182H107.571L109.495 142.392H109.591L111.521 135.182H113.496L115.414 142.36H115.51L117.421 135.182H119.396L116.513 145H114.564L112.57 137.911H112.422L110.428 145H108.485ZM120.958 145V135.182H122.869V145H120.958ZM121.923 133.667C121.591 133.667 121.305 133.556 121.067 133.335C120.832 133.109 120.715 132.84 120.715 132.529C120.715 132.214 120.832 131.945 121.067 131.724C121.305 131.498 121.591 131.385 121.923 131.385C122.256 131.385 122.539 131.498 122.773 131.724C123.012 131.945 123.131 132.214 123.131 132.529C123.131 132.84 123.012 133.109 122.773 133.335C122.539 133.556 122.256 133.667 121.923 133.667ZM125.188 131.909H127.1V142.315C127.1 142.737 127.153 143.036 127.259 143.21C127.37 143.385 127.579 143.468 127.886 143.46C128.052 143.455 128.176 143.445 128.257 143.428C128.342 143.411 128.418 143.391 128.487 143.37L128.832 144.898C128.7 144.936 128.531 144.972 128.327 145.006C128.127 145.045 127.899 145.066 127.643 145.07C126.816 145.083 126.2 144.887 125.796 144.482C125.391 144.077 125.188 143.487 125.188 142.712V131.909ZM130.104 131.909H132.016V142.315C132.016 142.737 132.069 143.036 132.175 143.21C132.286 143.385 132.495 143.468 132.802 143.46C132.968 143.455 133.092 143.445 133.173 143.428C133.258 143.411 133.334 143.391 133.403 143.37L133.748 144.898C133.616 144.936 133.447 144.972 133.243 145.006C133.043 145.045 132.815 145.066 132.559 145.07C131.732 145.083 131.116 144.887 130.712 144.482C130.307 144.077 130.104 143.487 130.104 142.712V131.909ZM142.126 145.217C141.503 145.217 140.941 145.102 140.438 144.872C139.935 144.638 139.537 144.299 139.243 143.856C138.953 143.413 138.808 142.869 138.808 142.226C138.808 141.672 138.915 141.216 139.128 140.858C139.341 140.5 139.628 140.217 139.991 140.008C140.353 139.799 140.758 139.641 141.205 139.535C141.653 139.428 142.109 139.347 142.573 139.292C143.161 139.224 143.638 139.168 144.005 139.126C144.371 139.079 144.638 139.004 144.804 138.902C144.97 138.8 145.053 138.634 145.053 138.403V138.359C145.053 137.8 144.895 137.368 144.58 137.061C144.269 136.754 143.805 136.601 143.187 136.601C142.543 136.601 142.036 136.744 141.665 137.029C141.299 137.31 141.045 137.624 140.905 137.969L139.109 137.56C139.322 136.963 139.633 136.482 140.042 136.115C140.455 135.744 140.93 135.476 141.467 135.31C142.004 135.139 142.569 135.054 143.161 135.054C143.553 135.054 143.969 135.101 144.408 135.195C144.851 135.284 145.264 135.45 145.648 135.693C146.035 135.936 146.353 136.283 146.6 136.735C146.847 137.183 146.971 137.764 146.971 138.48V145H145.104V143.658H145.028C144.904 143.905 144.719 144.148 144.471 144.386C144.224 144.625 143.907 144.823 143.519 144.981C143.131 145.138 142.667 145.217 142.126 145.217ZM142.541 143.683C143.069 143.683 143.521 143.579 143.896 143.37C144.275 143.161 144.563 142.888 144.759 142.552C144.959 142.211 145.06 141.847 145.06 141.459V140.193C144.991 140.261 144.859 140.325 144.663 140.385C144.471 140.44 144.252 140.489 144.005 140.532C143.758 140.57 143.517 140.607 143.283 140.641C143.048 140.67 142.852 140.696 142.694 140.717C142.324 140.764 141.985 140.843 141.678 140.954C141.376 141.065 141.133 141.224 140.949 141.433C140.77 141.638 140.681 141.911 140.681 142.251C140.681 142.724 140.856 143.082 141.205 143.325C141.555 143.564 142 143.683 142.541 143.683ZM149.264 148.682V135.182H151.131V136.773H151.291C151.401 136.569 151.561 136.332 151.77 136.064C151.979 135.795 152.269 135.561 152.639 135.361C153.01 135.156 153.5 135.054 154.11 135.054C154.902 135.054 155.61 135.254 156.232 135.655C156.854 136.055 157.342 136.633 157.695 137.387C158.053 138.141 158.232 139.049 158.232 140.11C158.232 141.171 158.056 142.081 157.702 142.839C157.348 143.594 156.862 144.175 156.244 144.585C155.627 144.989 154.921 145.192 154.129 145.192C153.532 145.192 153.044 145.092 152.665 144.891C152.29 144.691 151.996 144.457 151.783 144.188C151.57 143.92 151.406 143.681 151.291 143.472H151.176V148.682H149.264ZM151.137 140.091C151.137 140.781 151.237 141.386 151.438 141.906C151.638 142.426 151.928 142.833 152.307 143.127C152.686 143.417 153.151 143.562 153.7 143.562C154.271 143.562 154.749 143.411 155.132 143.108C155.516 142.801 155.806 142.386 156.002 141.862C156.202 141.337 156.302 140.747 156.302 140.091C156.302 139.443 156.204 138.862 156.008 138.346C155.816 137.83 155.526 137.423 155.139 137.125C154.755 136.827 154.276 136.678 153.7 136.678C153.146 136.678 152.678 136.82 152.294 137.106C151.915 137.391 151.627 137.79 151.431 138.301C151.235 138.812 151.137 139.409 151.137 140.091ZM160.122 148.682V135.182H161.988V136.773H162.148C162.259 136.569 162.419 136.332 162.627 136.064C162.836 135.795 163.126 135.561 163.497 135.361C163.867 135.156 164.358 135.054 164.967 135.054C165.76 135.054 166.467 135.254 167.089 135.655C167.711 136.055 168.199 136.633 168.553 137.387C168.911 138.141 169.09 139.049 169.09 140.11C169.09 141.171 168.913 142.081 168.559 142.839C168.206 143.594 167.72 144.175 167.102 144.585C166.484 144.989 165.779 145.192 164.986 145.192C164.389 145.192 163.902 145.092 163.522 144.891C163.147 144.691 162.853 144.457 162.64 144.188C162.427 143.92 162.263 143.681 162.148 143.472H162.033V148.682H160.122ZM161.995 140.091C161.995 140.781 162.095 141.386 162.295 141.906C162.495 142.426 162.785 142.833 163.164 143.127C163.544 143.417 164.008 143.562 164.558 143.562C165.129 143.562 165.606 143.411 165.99 143.108C166.373 142.801 166.663 142.386 166.859 141.862C167.059 141.337 167.159 140.747 167.159 140.091C167.159 139.443 167.061 138.862 166.865 138.346C166.674 137.83 166.384 137.423 165.996 137.125C165.613 136.827 165.133 136.678 164.558 136.678C164.004 136.678 163.535 136.82 163.152 137.106C162.772 137.391 162.485 137.79 162.289 138.301C162.093 138.812 161.995 139.409 161.995 140.091ZM175.211 145.198C174.243 145.198 173.41 144.991 172.711 144.578C172.017 144.161 171.48 143.575 171.101 142.82C170.726 142.062 170.538 141.173 170.538 140.155C170.538 139.149 170.726 138.263 171.101 137.496C171.48 136.729 172.008 136.13 172.686 135.7C173.368 135.269 174.164 135.054 175.076 135.054C175.63 135.054 176.167 135.146 176.687 135.329C177.207 135.512 177.674 135.8 178.087 136.192C178.5 136.584 178.826 137.093 179.065 137.719C179.304 138.342 179.423 139.098 179.423 139.989V140.666H171.618V139.234H177.55C177.55 138.732 177.448 138.286 177.243 137.898C177.039 137.506 176.751 137.197 176.38 136.972C176.014 136.746 175.584 136.633 175.089 136.633C174.552 136.633 174.084 136.765 173.683 137.029C173.287 137.289 172.98 137.63 172.762 138.052C172.549 138.469 172.443 138.923 172.443 139.413V140.532C172.443 141.188 172.558 141.746 172.788 142.207C173.022 142.667 173.348 143.018 173.766 143.261C174.184 143.5 174.672 143.619 175.23 143.619C175.592 143.619 175.922 143.568 176.221 143.466C176.519 143.359 176.777 143.202 176.994 142.993C177.211 142.784 177.378 142.526 177.493 142.219L179.302 142.545C179.157 143.078 178.897 143.545 178.522 143.945C178.151 144.342 177.684 144.651 177.122 144.872C176.564 145.089 175.927 145.198 175.211 145.198ZM184.149 145.217C183.527 145.217 182.964 145.102 182.461 144.872C181.958 144.638 181.56 144.299 181.266 143.856C180.976 143.413 180.831 142.869 180.831 142.226C180.831 141.672 180.938 141.216 181.151 140.858C181.364 140.5 181.652 140.217 182.014 140.008C182.376 139.799 182.781 139.641 183.228 139.535C183.676 139.428 184.132 139.347 184.596 139.292C185.184 139.224 185.662 139.168 186.028 139.126C186.395 139.079 186.661 139.004 186.827 138.902C186.993 138.8 187.076 138.634 187.076 138.403V138.359C187.076 137.8 186.919 137.368 186.603 137.061C186.292 136.754 185.828 136.601 185.21 136.601C184.566 136.601 184.059 136.744 183.689 137.029C183.322 137.31 183.069 137.624 182.928 137.969L181.132 137.56C181.345 136.963 181.656 136.482 182.065 136.115C182.478 135.744 182.954 135.476 183.49 135.31C184.027 135.139 184.592 135.054 185.184 135.054C185.576 135.054 185.992 135.101 186.431 135.195C186.874 135.284 187.287 135.45 187.671 135.693C188.059 135.936 188.376 136.283 188.623 136.735C188.87 137.183 188.994 137.764 188.994 138.48V145H187.128V143.658H187.051C186.927 143.905 186.742 144.148 186.495 144.386C186.248 144.625 185.93 144.823 185.542 144.981C185.155 145.138 184.69 145.217 184.149 145.217ZM184.564 143.683C185.093 143.683 185.544 143.579 185.919 143.37C186.299 143.161 186.586 142.888 186.782 142.552C186.983 142.211 187.083 141.847 187.083 141.459V140.193C187.015 140.261 186.882 140.325 186.686 140.385C186.495 140.44 186.275 140.489 186.028 140.532C185.781 140.57 185.54 140.607 185.306 140.641C185.071 140.67 184.875 140.696 184.718 140.717C184.347 140.764 184.008 140.843 183.701 140.954C183.399 141.065 183.156 141.224 182.973 141.433C182.794 141.638 182.704 141.911 182.704 142.251C182.704 142.724 182.879 143.082 183.228 143.325C183.578 143.564 184.023 143.683 184.564 143.683ZM191.288 145V135.182H193.135V136.741H193.237C193.416 136.213 193.732 135.798 194.183 135.495C194.639 135.188 195.155 135.035 195.73 135.035C195.849 135.035 195.99 135.039 196.152 135.048C196.318 135.056 196.448 135.067 196.542 135.08V136.908C196.465 136.886 196.329 136.863 196.133 136.837C195.937 136.808 195.741 136.793 195.545 136.793C195.093 136.793 194.69 136.888 194.337 137.08C193.987 137.268 193.71 137.53 193.506 137.866C193.301 138.199 193.199 138.578 193.199 139.004V145H191.288ZM204.367 139.17V145H202.455V131.909H204.341V136.78H204.463C204.693 136.251 205.044 135.832 205.517 135.521C205.99 135.21 206.608 135.054 207.371 135.054C208.044 135.054 208.632 135.192 209.135 135.469C209.642 135.746 210.034 136.16 210.311 136.71C210.593 137.255 210.733 137.937 210.733 138.755V145H208.822V138.985C208.822 138.265 208.637 137.707 208.266 137.31C207.895 136.91 207.379 136.71 206.719 136.71C206.267 136.71 205.862 136.805 205.504 136.997C205.151 137.189 204.872 137.47 204.667 137.841C204.467 138.207 204.367 138.651 204.367 139.17ZM217.263 145.198C216.296 145.198 215.463 144.991 214.764 144.578C214.069 144.161 213.532 143.575 213.153 142.82C212.778 142.062 212.591 141.173 212.591 140.155C212.591 139.149 212.778 138.263 213.153 137.496C213.532 136.729 214.061 136.13 214.738 135.7C215.42 135.269 216.217 135.054 217.129 135.054C217.683 135.054 218.22 135.146 218.74 135.329C219.26 135.512 219.726 135.8 220.14 136.192C220.553 136.584 220.879 137.093 221.118 137.719C221.356 138.342 221.476 139.098 221.476 139.989V140.666H213.671V139.234H219.603C219.603 138.732 219.5 138.286 219.296 137.898C219.091 137.506 218.804 137.197 218.433 136.972C218.066 136.746 217.636 136.633 217.142 136.633C216.605 136.633 216.136 136.765 215.735 137.029C215.339 137.289 215.032 137.63 214.815 138.052C214.602 138.469 214.495 138.923 214.495 139.413V140.532C214.495 141.188 214.61 141.746 214.841 142.207C215.075 142.667 215.401 143.018 215.819 143.261C216.236 143.5 216.724 143.619 217.282 143.619C217.645 143.619 217.975 143.568 218.273 143.466C218.571 143.359 218.829 143.202 219.047 142.993C219.264 142.784 219.43 142.526 219.545 142.219L221.354 142.545C221.209 143.078 220.949 143.545 220.574 143.945C220.203 144.342 219.737 144.651 219.174 144.872C218.616 145.089 217.979 145.198 217.263 145.198ZM223.344 145V135.182H225.191V136.741H225.294C225.473 136.213 225.788 135.798 226.24 135.495C226.696 135.188 227.211 135.035 227.787 135.035C227.906 135.035 228.046 135.039 228.208 135.048C228.375 135.056 228.505 135.067 228.598 135.08V136.908C228.522 136.886 228.385 136.863 228.189 136.837C227.993 136.808 227.797 136.793 227.601 136.793C227.149 136.793 226.747 136.888 226.393 137.08C226.044 137.268 225.767 137.53 225.562 137.866C225.358 138.199 225.255 138.578 225.255 139.004V145H223.344ZM233.88 145.198C232.913 145.198 232.08 144.991 231.381 144.578C230.686 144.161 230.149 143.575 229.77 142.82C229.395 142.062 229.208 141.173 229.208 140.155C229.208 139.149 229.395 138.263 229.77 137.496C230.149 136.729 230.678 136.13 231.355 135.7C232.037 135.269 232.834 135.054 233.746 135.054C234.3 135.054 234.837 135.146 235.357 135.329C235.877 135.512 236.343 135.8 236.757 136.192C237.17 136.584 237.496 137.093 237.735 137.719C237.973 138.342 238.093 139.098 238.093 139.989V140.666H230.288V139.234H236.22C236.22 138.732 236.117 138.286 235.913 137.898C235.708 137.506 235.421 137.197 235.05 136.972C234.684 136.746 234.253 136.633 233.759 136.633C233.222 136.633 232.753 136.765 232.353 137.029C231.956 137.289 231.649 137.63 231.432 138.052C231.219 138.469 231.112 138.923 231.112 139.413V140.532C231.112 141.188 231.228 141.746 231.458 142.207C231.692 142.667 232.018 143.018 232.436 143.261C232.853 143.5 233.341 143.619 233.899 143.619C234.262 143.619 234.592 143.568 234.89 143.466C235.188 143.359 235.446 143.202 235.664 142.993C235.881 142.784 236.047 142.526 236.162 142.219L237.971 142.545C237.826 143.078 237.566 143.545 237.191 143.945C236.821 144.342 236.354 144.651 235.791 144.872C235.233 145.089 234.596 145.198 233.88 145.198Z" fill="#454953"/>
</svg>
