<?xml version="1.0" encoding="UTF-8"?>
<svg fill="none" viewBox="0 0 22 24" xmlns="http://www.w3.org/2000/svg">
<mask id="c" x="11" y="7" width="11" height="17" style="mask-type:alpha" maskUnits="userSpaceOnUse">
<path d="M11.4946 7.56909H21.3779V24H11.4946V7.56909Z" fill="#fff"/>
</mask>
<g mask="url(#c)">
<path d="m20.296 19.192s-1.7348 1.2361-3.8599 2.5224c-2.1251 1.2862-3.8605 2.1513-3.8605 2.1513-0.5119 0.3098-0.9268 0.0622-0.9268-0.5523 0 0-0.1544-2.1781-0.1544-4.5425 0-2.3649 0.1544-4.7294 0.1544-4.7294 0-0.615 0.4149-1.3646 0.9268-1.6744 0 0 1.6614-1.1911 3.8605-2.5219 2.1985-1.3318 3.8599-2.1518 3.8599-2.1518 0.512-0.30979 0.8765-0.01569 0.9268 0.55175 0.0503 0.56845 0.1549 1.5287 0.1549 4.5425 0 3.0139-0.1549 4.7299-0.1549 4.7299 0 0.6145-0.4148 1.3641-0.9268 1.6739" clip-rule="evenodd" fill="#2B5FCE" fill-rule="evenodd"/>
</g>
<path d="m20.105 15.218-1.3934-1.1794c-0.1881-0.1595-0.4305-0.1078-0.5381 0.1144l-0.8458 1.7388 1e-3 3e-3 -1.5926-1.3485c-0.188-0.1589-0.4304-0.1073-0.538 0.1149l-2.5752 5.2973c-0.1081 0.2222-0.0241 0.2996 0.1861 0.1721l5.0035-3.0285 2.2518-1.3627c0.2102-0.1276 0.2288-0.3624 0.0407-0.5214z" clip-rule="evenodd" fill="#fff" fill-rule="evenodd"/>
<path d="m17.626 13.131c0 0.2465-0.1665 0.5472-0.3721 0.6717-0.2057 0.124-0.3722 0.0253-0.3722-0.2217 0-0.2465 0.1665-0.5472 0.3722-0.6717 0.2056-0.1246 0.3721-0.0253 0.3721 0.2217z" clip-rule="evenodd" fill="#B99BF9" fill-rule="evenodd"/>
<mask id="b" x="0" y="7" width="11" height="17" style="mask-type:alpha" maskUnits="userSpaceOnUse">
<path d="m0.62158 7.5857h9.8853v16.414h-9.8853v-16.414z" fill="#fff"/>
</mask>
<g mask="url(#b)">
<path d="m0.7786 17.519s-0.15488-1.716-0.15488-4.7298c-0.020617-2.7805 0.11365-4.0167 0.15488-4.5421 0.041235-0.52492 0.39073-0.83926 0.92678-0.55174 0 0 1.6615 0.82002 3.86 2.1508 2.199 1.3307 3.86 2.5218 3.86 2.5218 0.51191 0.3098 0.92727 1.0595 0.92727 1.6745 0 0 0.1544 2.3644 0.1544 4.7293 0 2.3644-0.1544 4.5426-0.1544 4.5426 0 0.6145-0.41536 0.862-0.92727 0.5517 0 0-1.7349-0.8646-3.86-2.1513-1.3139-0.7975-2.6013-1.6386-3.86-2.5218-0.51192-0.3098-0.92678-1.0595-0.92678-1.6735" clip-rule="evenodd" fill="#2B5FCE" fill-rule="evenodd"/>
</g>
<path d="m4.7587 11.521-2.6149-1.6031c-0.11666-0.07491-0.2112-0.03037-0.2112 0.09919v7.2082c0 0.1301 0.09454 0.2961 0.2112 0.3705l2.6149 1.6036c0.11716 0.0749 0.2117 0.0304 0.2117-0.0992v-7.2081c0-0.1301-0.09454-0.2962-0.2112-0.3711h-5e-4zm3.8806 2.5588-2.8135-1.8025c-0.11666-0.075-0.2112-0.0304-0.2112 0.0992v2.9232c0 0.1296 0.09454 0.2951 0.2112 0.3695l2.8135 1.8031c0.11666 0.0749 0.2112 0.0304 0.2112-0.0992v-2.9233c0-0.1296-0.09454-0.2951-0.2112-0.3695" clip-rule="evenodd" fill="#fff" fill-rule="evenodd"/>
<path d="m8.639 21.758-2.813-1.802c-0.11667-0.0749-0.2112-0.241-0.2112-0.3706v-2.9227c0-0.1296 0.09453-0.1741 0.2112-0.0997l2.813 1.8025c0.11717 0.0749 0.21121 0.241 0.21121 0.3706v2.9227c0 0.1296-0.09404 0.1741-0.21121 0.0992z" clip-rule="evenodd" fill="#B99BF9" fill-rule="evenodd"/>
<mask id="a" x="1" y="0" width="20" height="12" style="mask-type:alpha" maskUnits="userSpaceOnUse">
<path d="M1.50342 0H20.4261V11.1316H1.50342V0Z" fill="#fff"/>
</mask>
<g mask="url(#a)">
<path d="m20.047 6.1382s-1.6519 1.1642-3.8735 2.4732c-1.3742 0.80765-2.7746 1.5692-4.1989 2.2834-0.5351 0.3154-1.4055 0.3164-1.9441 0.0015 0 0-2.1513-1.0665-4.2226-2.2763-2.0713-1.2098-3.8992-2.4667-3.8992-2.4667-0.53857-0.31485-0.54108-0.82509-0.00604-1.141 0 0 1.575-1.1187 3.8736-2.4732 1.3729-0.80987 2.7734-1.5715 4.1989-2.2834 0.53503-0.31536 1.2385-0.36446 1.9445-0.002025 0.7056 0.36294 1.5826 0.73499 4.2221 2.2768 2.64 1.5418 3.4189 2.129 3.8992 2.4667 0.4807 0.33814 0.5416 0.82509 6e-3 1.141z" clip-rule="evenodd" fill="#2B5FCE" fill-rule="evenodd"/>
</g>
<path d="m7.5992 4.668c-0.33139-0.19337-0.27507-0.38471 0.12571-0.42368l4.1606-0.41255c0.4003-0.03948 0.6387 0.24803 0.5286 0.63831l-0.5255 1.8764c-0.1092 0.39078-0.4697 0.55226-0.8011 0.3594l-3.4884-2.0379z" clip-rule="evenodd" fill="#fff" fill-rule="evenodd"/>
<path d="m18.069 5.4466-7.2664 4.2824-0.4873-0.28499 7.2664-4.2819 0.4873 0.28448z" clip-rule="evenodd" fill="#B99BF9" fill-rule="evenodd"/>
<path d="m12.568 8.4022c0.3143 0.18324 0.3158 0.48088 0.0036 0.66462-0.3118 0.18426-0.8197 0.18476-1.1335 0.00102-0.3143-0.18325-0.3158-0.48088-0.0035-0.66514 0.3118-0.18375 0.8196-0.18425 1.1334-5e-4z" clip-rule="evenodd" fill="#fff" fill-rule="evenodd"/>
</svg>
