<svg xmlns="http://www.w3.org/2000/svg" width="146" height="122" viewBox="0 0 146 122" fill="none">
  <g clip-path="url(#clip0_10663_11875)">
    <path d="M50.8173 98.0689L30.2583 48.7774C29.3205 46.5298 30.4959 44.7038 32.8849 44.7038H37.0222C38.711 44.7038 39.861 43.7803 39.967 42.3381L40.1028 40.5249C40.2132 39.0827 41.3631 38.1592 43.0562 38.1592H62.7114C64.2432 38.1592 65.9745 38.9182 67.2645 40.1622L68.86 41.6972C70.1457 42.9369 71.877 43.7002 73.4088 43.7002H98.4403C100.829 43.7002 103.507 45.5219 104.419 47.7737L124.8 98.0731H50.8173V98.0689Z" fill="#BABECB" stroke="black" stroke-width="0.43875" stroke-miterlimit="10"/>
    <path d="M47.4184 81.3272L39.6658 51.5347C39.1566 49.5738 40.4465 47.6045 42.2457 47.6045H103.023C104.224 47.6045 105.281 48.5111 105.612 49.8226L116.899 94.6653C117.395 96.6346 116.602 97.8153 114.803 97.7942L53.6518 97.8111C52.4679 97.7942 51.4283 96.9044 51.0973 95.6099L47.4226 81.3272H47.4184Z" fill="#E0E0E0" stroke="black" stroke-width="0.43875" stroke-miterlimit="10" stroke-linecap="round" stroke-dasharray="1.55 1.55"/>
    <path d="M51.4204 95.9229L48.1129 40.1909C47.9938 38.2123 49.3245 36.5342 51.008 36.5342H112.068C113.186 36.5342 114.093 37.4408 114.093 38.5592V95.9229H51.4204Z" fill="white" stroke="black" stroke-width="0.43875" stroke-miterlimit="10" stroke-linecap="round" stroke-dasharray="2.81 2.81"/>
    <path d="M50.915 97.7944L58.4088 49.4306C58.7525 47.8535 60.1825 46.7275 61.8332 46.7275H125.534C128.051 46.7275 129.744 49.2408 128.751 51.4927L114.994 95.7534L50.915 97.7902V97.7944Z" fill="white" stroke="black" stroke-width="0.43875" stroke-miterlimit="10" stroke-linecap="round" stroke-dasharray="2.81 2.81"/>
    <path d="M124.937 97.9225L51.2675 97.9014L66.6521 52.5681C67.2697 50.7499 68.9114 49.5446 70.7516 49.5446H136.555C138.515 49.5446 139.919 51.5571 139.285 53.5215L124.937 97.9225Z" fill="#BABECB" stroke="black" stroke-width="0.43875" stroke-miterlimit="10"/>
    <path d="M82.6885 76.916L62.0166 86.366L77.5416 73.7098L87.751 71.0098L110.785 97.841L82.6885 76.916Z" fill="black" stroke="black" stroke-width="0.16875"/>
    <mask id="mask0_10663_11875" style="mask-type:alpha" maskUnits="userSpaceOnUse" x="19" y="10" width="75" height="74">
      <ellipse cx="56.3913" cy="46.9743" rx="36.8083" ry="36.8083" fill="#D9D9D9"/>
    </mask>
    <g mask="url(#mask0_10663_11875)">
      <path d="M23.5333 47.1918L23.5333 47.1917C22.8288 45.5033 22.931 44.0087 23.6169 42.9444C24.3019 41.8815 25.6002 41.1997 27.3904 41.1997H33.7848C35.1289 41.1997 36.2774 40.832 37.1152 40.1591C37.9557 39.4839 38.4688 38.5128 38.555 37.3401L38.7648 34.5383C38.7648 34.5382 38.7648 34.5381 38.7648 34.538C38.8457 33.4816 39.3049 32.6245 40.0482 32.0287C40.7943 31.4307 41.8412 31.0846 43.1107 31.0846H73.4888C75.7903 31.0846 78.4135 32.2288 80.3735 34.1189L80.3737 34.1191L82.8395 36.4913C84.8601 38.4397 87.5884 39.6486 90.0222 39.6486H128.71C130.503 39.6486 132.418 40.3335 134.062 41.4533C135.706 42.573 137.061 44.115 137.747 45.8074L137.95 45.725L137.747 45.8074L169.124 123.246H55.2547L23.5333 47.1918Z" fill="#BABECB" stroke="black" stroke-width="0.43875" stroke-miterlimit="10"/>
      <path d="M49.8535 97.585L37.8714 51.5391C37.0844 48.5085 39.0782 45.4648 41.8589 45.4648H135.794C137.65 45.4648 139.283 46.8661 139.794 48.893L157.239 118.2C158.007 121.243 156.78 123.068 153.999 123.036L59.4876 123.062C57.6578 123.036 56.0511 121.66 55.5395 119.66L49.86 97.585H49.8535Z" fill="#F8F9F9" stroke="black" stroke-width="0.43875" stroke-miterlimit="10" stroke-linecap="round" stroke-dasharray="2.81 2.81"/>
      <path d="M56.0384 120.143L50.9265 34.0061C50.7425 30.948 52.7991 28.3545 55.4011 28.3545H150.877C151.995 28.3545 152.902 29.2611 152.902 30.3795V120.143H56.0384Z" fill="white" stroke="black" stroke-width="0.43875" stroke-miterlimit="10" stroke-linecap="round" stroke-dasharray="2.81 2.81"/>
      <path d="M55.2568 123.036L66.8388 48.2871C67.37 45.8495 69.5802 44.1094 72.1314 44.1094H170.585C174.474 44.1094 177.091 47.9938 175.556 51.4741L154.294 119.881L55.2568 123.029V123.036Z" fill="white" stroke="black" stroke-width="0.43875" stroke-miterlimit="10" stroke-linecap="round" stroke-dasharray="2.81 2.81"/>
      <path d="M55.1064 123.427L78.9853 53.4164C79.9821 50.4966 82.6382 48.5479 85.6288 48.5479H187.125C190.398 48.5479 192.7 51.8783 191.657 55.0914L169.451 123.466L55.1064 123.433V123.427Z" fill="#BABECB" stroke="black" stroke-width="0.43875" stroke-miterlimit="10"/>
    </g>
    <path d="M82.7817 63.8215L82.8569 63.8746L83.5116 64.3369C84.08 64.7382 84.9016 65.3185 85.9149 66.0345C87.9414 67.4666 90.7343 69.4417 93.8001 71.6136C99.9318 75.9576 107.154 81.0883 111.519 84.2369C113.73 85.8318 116.783 88.1105 119.816 90.3739C122.388 92.2931 124.945 94.2012 126.961 95.6721C131.943 99.3071 133.32 100.258 133.958 100.695C134.115 100.803 134.227 100.879 134.337 100.956C134.668 101.189 134.988 101.438 136.509 102.621C138.343 104.047 140.916 106.11 142.564 108.492C143.387 109.682 143.972 110.94 144.124 112.229C144.275 113.513 144 114.84 143.082 116.177C142.16 117.52 141.097 118.267 139.993 118.617C138.886 118.968 137.721 118.925 136.59 118.664C134.322 118.139 132.231 116.744 131.103 115.964C130.443 115.508 130.362 115.429 129.797 114.878C129.729 114.812 129.654 114.739 129.57 114.657C128.784 113.895 127.237 112.42 123.436 109.043C116.361 102.758 105.24 93.1774 95.8894 85.1686C91.2138 81.164 86.9803 77.5522 83.9158 74.9415C82.3835 73.6361 81.1434 72.5811 80.2864 71.8523L79.2996 71.0135L79.0634 70.8129L81.2668 65.9742L82.7817 63.8215Z" fill="#465173" stroke="black" stroke-width="0.375"/>
    <path d="M21.0219 16.2001L21.0272 16.1952L21.0322 16.19C26.4357 10.4885 33.4892 6.22637 41.6879 4.23158C64.3567 -1.2839 87.2167 12.6195 92.7348 35.2995C98.253 57.9795 84.3469 80.8283 61.6669 86.3465C50.3337 89.1039 38.5364 86.377 29.0859 80.4348C19.634 74.4917 12.5492 65.3451 10.6219 55.2876C9.19844 47.8594 9.65633 40.0215 11.5439 33.0704C13.4321 26.1173 16.7465 20.0665 21.0219 16.2001ZM59.9705 79.3742C78.7982 74.7933 90.3406 55.8124 85.7625 36.9959C81.1816 18.1683 62.2119 6.62304 43.3843 11.2039C24.5566 15.7848 13.0114 34.7545 17.5923 53.5821C22.1731 72.4098 41.1429 83.955 59.9705 79.3742Z" fill="#465173" stroke="black" stroke-width="0.375"/>
  </g>
  <defs>
    <clipPath id="clip0_10663_11875">
      <rect width="146" height="121" fill="white" transform="translate(0 0.5)"/>
    </clipPath>
  </defs>
</svg>