<svg width="206" height="82" viewBox="0 0 206 82" fill="none" xmlns="http://www.w3.org/2000/svg">
<g clip-path="url(#clip0_22459_54241)">
<path opacity="0.25" d="M15.5708 24.1121C15.2345 24.1067 14.8982 24.0427 14.562 23.9199C14.2257 23.7972 13.9188 23.5903 13.6413 23.2995C13.3637 23.0059 13.1409 22.6096 12.9728 22.1105C12.8046 21.6088 12.7206 20.979 12.7206 20.2211C12.7206 19.4952 12.7886 18.852 12.9247 18.2916C13.0608 17.7285 13.2583 17.2548 13.5172 16.8705C13.776 16.4835 14.0883 16.19 14.4539 15.9898C14.8222 15.7896 15.2372 15.6896 15.6989 15.6896C16.1579 15.6896 16.5662 15.7816 16.9238 15.9658C17.2841 16.1473 17.5777 16.4008 17.8045 16.7264C18.0313 17.052 18.1781 17.4269 18.2448 17.8512H17.2681C17.1773 17.483 17.0012 17.1774 16.7397 16.9345C16.4781 16.6917 16.1312 16.5702 15.6989 16.5702C15.0637 16.5702 14.5633 16.8465 14.1977 17.3989C13.8348 17.9513 13.6519 18.7266 13.6493 19.7247H13.7133C13.8628 19.4978 14.0402 19.3044 14.2457 19.1442C14.4539 18.9814 14.6834 18.856 14.9343 18.7679C15.1851 18.6799 15.4507 18.6358 15.7309 18.6358C16.2006 18.6358 16.6303 18.7533 17.0199 18.9881C17.4095 19.2203 17.7218 19.5419 17.9566 19.9529C18.1915 20.3612 18.3089 20.8295 18.3089 21.358C18.3089 21.865 18.1955 22.3294 17.9686 22.751C17.7418 23.17 17.4229 23.5036 17.0119 23.7518C16.6036 23.9973 16.1232 24.1174 15.5708 24.1121ZM15.5708 23.2314C15.907 23.2314 16.2086 23.1473 16.4755 22.9792C16.745 22.8111 16.9572 22.5856 17.112 22.3027C17.2694 22.0198 17.3481 21.7049 17.3481 21.358C17.3481 21.019 17.2721 20.7108 17.12 20.4332C16.9705 20.153 16.7637 19.9302 16.4995 19.7647C16.2379 19.5993 15.939 19.5165 15.6028 19.5165C15.3493 19.5165 15.1131 19.5672 14.8942 19.6686C14.6754 19.7674 14.4833 19.9035 14.3178 20.077C14.155 20.2504 14.0269 20.4493 13.9335 20.6734C13.8401 20.8949 13.7934 21.1284 13.7934 21.374C13.7934 21.6996 13.8694 22.0038 14.0216 22.2867C14.1764 22.5696 14.3872 22.7977 14.6541 22.9712C14.9236 23.1447 15.2292 23.2314 15.5708 23.2314ZM30.115 19.9008C30.115 20.7655 29.9589 21.5127 29.6467 22.1426C29.3344 22.7724 28.9061 23.2581 28.3617 23.5997C27.8172 23.9413 27.1954 24.1121 26.4962 24.1121C25.797 24.1121 25.1752 23.9413 24.6308 23.5997C24.0864 23.2581 23.658 22.7724 23.3458 22.1426C23.0335 21.5127 22.8774 20.7655 22.8774 19.9008C22.8774 19.0362 23.0335 18.2889 23.3458 17.6591C23.658 17.0293 24.0864 16.5436 24.6308 16.202C25.1752 15.8604 25.797 15.6896 26.4962 15.6896C27.1954 15.6896 27.8172 15.8604 28.3617 16.202C28.9061 16.5436 29.3344 17.0293 29.6467 17.6591C29.9589 18.2889 30.115 19.0362 30.115 19.9008ZM29.1543 19.9008C29.1543 19.1909 29.0355 18.5918 28.798 18.1034C28.5632 17.6151 28.2442 17.2454 27.8413 16.9946C27.441 16.7437 26.9926 16.6183 26.4962 16.6183C25.9998 16.6183 25.5502 16.7437 25.1472 16.9946C24.7469 17.2454 24.428 17.6151 24.1904 18.1034C23.9556 18.5918 23.8382 19.1909 23.8382 19.9008C23.8382 20.6107 23.9556 21.2098 24.1904 21.6982C24.428 22.1866 24.7469 22.5562 25.1472 22.8071C25.5502 23.0579 25.9998 23.1834 26.4962 23.1834C26.9926 23.1834 27.441 23.0579 27.8413 22.8071C28.2442 22.5562 28.5632 22.1866 28.798 21.6982C29.0355 21.2098 29.1543 20.6107 29.1543 19.9008ZM34.1542 24.1281C33.5777 24.1281 33.0813 23.992 32.665 23.7198C32.2487 23.4476 31.9284 23.0726 31.7043 22.5949C31.4801 22.1172 31.368 21.5715 31.368 20.9576C31.368 20.3332 31.4827 19.7821 31.7123 19.3044C31.9444 18.824 32.2674 18.449 32.681 18.1795C33.0973 17.9073 33.583 17.7712 34.1381 17.7712C34.5705 17.7712 34.9601 17.8512 35.307 18.0114C35.654 18.1715 35.9382 18.3957 36.1597 18.6839C36.3812 18.9721 36.5186 19.3084 36.572 19.6927H35.6273C35.5552 19.4124 35.3951 19.1643 35.1469 18.9481C34.9014 18.7293 34.5705 18.6198 34.1542 18.6198C33.7859 18.6198 33.4629 18.7159 33.1854 18.9081C32.9105 19.0975 32.6957 19.3657 32.5409 19.7127C32.3888 20.0569 32.3127 20.4613 32.3127 20.9256C32.3127 21.4007 32.3874 21.8143 32.5369 22.1666C32.689 22.5189 32.9025 22.7924 33.1774 22.9872C33.4549 23.182 33.7805 23.2794 34.1542 23.2794C34.3997 23.2794 34.6225 23.2367 34.8227 23.1513C35.0228 23.0659 35.1923 22.9432 35.3311 22.7831C35.4698 22.6229 35.5686 22.4308 35.6273 22.2066H36.572C36.5186 22.5696 36.3865 22.8965 36.1757 23.1874C35.9676 23.4756 35.6913 23.7051 35.3471 23.8759C35.0055 24.044 34.6078 24.1281 34.1542 24.1281ZM40.6272 17.8512V18.6519H37.4407V17.8512H40.6272ZM38.3694 16.3781H39.3141V22.2386C39.3141 22.5055 39.3528 22.7057 39.4302 22.8391C39.5103 22.9699 39.6117 23.0579 39.7345 23.1033C39.8599 23.146 39.992 23.1674 40.1308 23.1674C40.2349 23.1674 40.3203 23.162 40.387 23.1513C40.4537 23.138 40.5071 23.1273 40.5471 23.1193L40.7392 23.968C40.6752 23.992 40.5858 24.016 40.471 24.04C40.3563 24.0667 40.2108 24.0801 40.0347 24.0801C39.7678 24.0801 39.5063 24.0227 39.2501 23.9079C38.9966 23.7932 38.7857 23.6184 38.6176 23.3835C38.4521 23.1487 38.3694 22.8524 38.3694 22.4948V16.3781ZM45.2027 24V23.2794L47.9088 20.3171C48.2264 19.9702 48.4879 19.6686 48.6934 19.4124C48.8989 19.1536 49.051 18.9107 49.1498 18.6839C49.2512 18.4544 49.3019 18.2142 49.3019 17.9633C49.3019 17.6751 49.2325 17.4256 49.0937 17.2147C48.9576 17.0039 48.7708 16.8411 48.5333 16.7264C48.2958 16.6116 48.0289 16.5542 47.7327 16.5542C47.4178 16.5542 47.1429 16.6196 46.908 16.7504C46.6758 16.8785 46.4957 17.0586 46.3676 17.2908C46.2422 17.523 46.1795 17.7952 46.1795 18.1074H45.2347C45.2347 17.6271 45.3455 17.2054 45.567 16.8425C45.7885 16.4795 46.0901 16.1966 46.4717 15.9938C46.856 15.791 47.287 15.6896 47.7647 15.6896C48.2451 15.6896 48.6707 15.791 49.0417 15.9938C49.4126 16.1966 49.7035 16.4702 49.9144 16.8144C50.1252 17.1587 50.2306 17.5417 50.2306 17.9633C50.2306 18.2649 50.1759 18.5598 50.0665 18.848C49.9597 19.1336 49.7729 19.4525 49.506 19.8048C49.2418 20.1544 48.8749 20.5814 48.4052 21.0857L46.5638 23.0553V23.1193H50.3747V24H45.2027ZM54.7021 24.1121C54.0989 24.1121 53.5852 23.948 53.1609 23.6197C52.7365 23.2888 52.4123 22.8097 52.1881 22.1826C51.9639 21.5528 51.8519 20.7922 51.8519 19.9008C51.8519 19.0148 51.9639 18.2582 52.1881 17.6311C52.415 17.0012 52.7405 16.5209 53.1649 16.19C53.5919 15.8564 54.1043 15.6896 54.7021 15.6896C55.2999 15.6896 55.8109 15.8564 56.2352 16.19C56.6622 16.5209 56.9878 17.0012 57.212 17.6311C57.4388 18.2582 57.5523 19.0148 57.5523 19.9008C57.5523 20.7922 57.4402 21.5528 57.216 22.1826C56.9918 22.8097 56.6676 23.2888 56.2433 23.6197C55.8189 23.948 55.3052 24.1121 54.7021 24.1121ZM54.7021 23.2314C55.2999 23.2314 55.7642 22.9432 56.0951 22.3667C56.4261 21.7903 56.5915 20.9683 56.5915 19.9008C56.5915 19.1909 56.5155 18.5865 56.3633 18.0874C56.2139 17.5884 55.9977 17.2081 55.7148 16.9465C55.4346 16.685 55.097 16.5542 54.7021 16.5542C54.1096 16.5542 53.6466 16.8465 53.313 17.4309C52.9794 18.0127 52.8126 18.836 52.8126 19.9008C52.8126 20.6107 52.8873 21.2138 53.0368 21.7102C53.1862 22.2066 53.4011 22.5842 53.6813 22.8431C53.9642 23.102 54.3044 23.2314 54.7021 23.2314ZM59.0734 24V23.2794L61.7795 20.3171C62.0971 19.9702 62.3587 19.6686 62.5641 19.4124C62.7696 19.1536 62.9218 18.9107 63.0205 18.6839C63.1219 18.4544 63.1726 18.2142 63.1726 17.9633C63.1726 17.6751 63.1032 17.4256 62.9645 17.2147C62.8283 17.0039 62.6415 16.8411 62.404 16.7264C62.1665 16.6116 61.8996 16.5542 61.6034 16.5542C61.2885 16.5542 61.0136 16.6196 60.7788 16.7504C60.5466 16.8785 60.3664 17.0586 60.2383 17.2908C60.1129 17.523 60.0502 17.7952 60.0502 18.1074H59.1055C59.1055 17.6271 59.2162 17.2054 59.4377 16.8425C59.6592 16.4795 59.9608 16.1966 60.3424 15.9938C60.7267 15.791 61.1577 15.6896 61.6354 15.6896C62.1158 15.6896 62.5415 15.791 62.9124 15.9938C63.2834 16.1966 63.5743 16.4702 63.7851 16.8144C63.9959 17.1587 64.1013 17.5417 64.1013 17.9633C64.1013 18.2649 64.0466 18.5598 63.9372 18.848C63.8305 19.1336 63.6436 19.4525 63.3768 19.8048C63.1126 20.1544 62.7456 20.5814 62.2759 21.0857L60.4345 23.0553V23.1193H64.2454V24H59.0734ZM68.4607 24.1121C67.991 24.1121 67.568 24.0187 67.1917 23.8319C66.8154 23.6451 66.5139 23.3889 66.287 23.0633C66.0602 22.7377 65.9361 22.3667 65.9147 21.9504H66.8755C66.9128 22.3214 67.081 22.6283 67.3799 22.8711C67.6814 23.1113 68.0417 23.2314 68.4607 23.2314C68.797 23.2314 69.0959 23.1527 69.3574 22.9952C69.6216 22.8378 69.8284 22.6216 69.9779 22.3467C70.13 22.0692 70.2061 21.7556 70.2061 21.406C70.2061 21.0484 70.1273 20.7295 69.9699 20.4493C69.8151 20.1664 69.6016 19.9435 69.3294 19.7807C69.0572 19.6179 68.7463 19.5352 68.3967 19.5325C68.1458 19.5299 67.8883 19.5686 67.6241 19.6486C67.3599 19.726 67.1424 19.8261 66.9716 19.9489L66.0428 19.8368L66.5392 15.8017H70.7985V16.6823H67.3719L67.0836 19.1002H67.1317C67.2998 18.9668 67.5106 18.856 67.7642 18.7679C68.0177 18.6799 68.2819 18.6358 68.5568 18.6358C69.0585 18.6358 69.5055 18.7559 69.8978 18.9961C70.2928 19.2336 70.6024 19.5592 70.8265 19.9729C71.0534 20.3865 71.1668 20.8589 71.1668 21.39C71.1668 21.9131 71.0494 22.3801 70.8145 22.7911C70.5824 23.1994 70.2621 23.5223 69.8538 23.7598C69.4455 23.9947 68.9811 24.1121 68.4607 24.1121Z" fill="#666C7A"/>
<path opacity="0.25" d="M84.4964 16.8665V15.8017H90.8413V16.8665H88.2833V24H87.0504V16.8665H84.4964ZM93.3442 20.3492V24H92.1473V15.8017H93.3282V18.852H93.4043C93.5484 18.5211 93.7686 18.2582 94.0648 18.0634C94.361 17.8686 94.748 17.7712 95.2257 17.7712C95.6474 17.7712 96.0156 17.8579 96.3305 18.0314C96.6481 18.2048 96.8936 18.4637 97.0671 18.808C97.2433 19.1496 97.3313 19.5766 97.3313 20.089V24H96.1344V20.2331C96.1344 19.7821 96.0183 19.4325 95.7861 19.1843C95.5539 18.9334 95.231 18.808 94.8174 18.808C94.5345 18.808 94.281 18.868 94.0568 18.9881C93.8353 19.1082 93.6605 19.2843 93.5324 19.5165C93.4069 19.746 93.3442 20.0236 93.3442 20.3492ZM98.9286 24V17.8512H100.125V24H98.9286ZM99.533 16.9025C99.3249 16.9025 99.1461 16.8331 98.9966 16.6943C98.8498 16.5529 98.7764 16.3848 98.7764 16.19C98.7764 15.9925 98.8498 15.8243 98.9966 15.6856C99.1461 15.5441 99.3249 15.4734 99.533 15.4734C99.7412 15.4734 99.9187 15.5441 100.065 15.6856C100.215 15.8243 100.29 15.9925 100.29 16.19C100.29 16.3848 100.215 16.5529 100.065 16.6943C99.9187 16.8331 99.7412 16.9025 99.533 16.9025ZM106.343 19.3524L105.258 19.5446C105.213 19.4058 105.141 19.2737 105.042 19.1482C104.946 19.0228 104.815 18.9201 104.65 18.84C104.485 18.7599 104.278 18.7199 104.03 18.7199C103.691 18.7199 103.408 18.796 103.181 18.9481C102.954 19.0975 102.841 19.291 102.841 19.5285C102.841 19.734 102.917 19.8995 103.069 20.0249C103.221 20.1504 103.466 20.2531 103.805 20.3332L104.782 20.5573C105.348 20.6881 105.77 20.8896 106.047 21.1618C106.325 21.434 106.463 21.7876 106.463 22.2226C106.463 22.5909 106.357 22.9192 106.143 23.2074C105.932 23.4929 105.637 23.7171 105.258 23.8799C104.882 24.0427 104.446 24.1241 103.949 24.1241C103.261 24.1241 102.699 23.9773 102.264 23.6838C101.829 23.3875 101.562 22.9672 101.464 22.4228L102.62 22.2466C102.692 22.5482 102.841 22.7764 103.065 22.9312C103.289 23.0833 103.581 23.1593 103.941 23.1593C104.334 23.1593 104.647 23.078 104.882 22.9152C105.117 22.7497 105.234 22.5482 105.234 22.3107C105.234 22.1185 105.162 21.9571 105.018 21.8263C104.877 21.6955 104.659 21.5968 104.366 21.5301L103.325 21.3019C102.751 21.1711 102.327 20.963 102.052 20.6774C101.78 20.3919 101.644 20.0303 101.644 19.5926C101.644 19.2296 101.745 18.9121 101.948 18.6399C102.151 18.3676 102.431 18.1555 102.789 18.0034C103.146 17.8486 103.556 17.7712 104.017 17.7712C104.682 17.7712 105.205 17.9153 105.587 18.2035C105.968 18.4891 106.221 18.872 106.343 19.3524ZM110.763 24V17.8512H111.96V24H110.763ZM111.367 16.9025C111.159 16.9025 110.98 16.8331 110.831 16.6943C110.684 16.5529 110.611 16.3848 110.611 16.19C110.611 15.9925 110.684 15.8243 110.831 15.6856C110.98 15.5441 111.159 15.4734 111.367 15.4734C111.575 15.4734 111.753 15.5441 111.9 15.6856C112.049 15.8243 112.124 15.9925 112.124 16.19C112.124 16.3848 112.049 16.5529 111.9 16.6943C111.753 16.8331 111.575 16.9025 111.367 16.9025ZM118.177 19.3524L117.093 19.5446C117.047 19.4058 116.975 19.2737 116.876 19.1482C116.78 19.0228 116.65 18.9201 116.484 18.84C116.319 18.7599 116.112 18.7199 115.864 18.7199C115.525 18.7199 115.242 18.796 115.015 18.9481C114.788 19.0975 114.675 19.291 114.675 19.5285C114.675 19.734 114.751 19.8995 114.903 20.0249C115.055 20.1504 115.301 20.2531 115.639 20.3332L116.616 20.5573C117.182 20.6881 117.604 20.8896 117.881 21.1618C118.159 21.434 118.298 21.7876 118.298 22.2226C118.298 22.5909 118.191 22.9192 117.977 23.2074C117.766 23.4929 117.472 23.7171 117.093 23.8799C116.716 24.0427 116.28 24.1241 115.784 24.1241C115.095 24.1241 114.533 23.9773 114.098 23.6838C113.663 23.3875 113.396 22.9672 113.298 22.4228L114.455 22.2466C114.527 22.5482 114.675 22.7764 114.899 22.9312C115.123 23.0833 115.415 23.1593 115.776 23.1593C116.168 23.1593 116.481 23.078 116.716 22.9152C116.951 22.7497 117.069 22.5482 117.069 22.3107C117.069 22.1185 116.997 21.9571 116.852 21.8263C116.711 21.6955 116.493 21.5968 116.2 21.5301L115.159 21.3019C114.585 21.1711 114.161 20.963 113.886 20.6774C113.614 20.3919 113.478 20.0303 113.478 19.5926C113.478 19.2296 113.579 18.9121 113.782 18.6399C113.985 18.3676 114.265 18.1555 114.623 18.0034C114.98 17.8486 115.39 17.7712 115.852 17.7712C116.516 17.7712 117.039 17.9153 117.421 18.2035C117.803 18.4891 118.055 18.872 118.177 19.3524ZM124.386 24.1361C123.997 24.1361 123.644 24.064 123.329 23.9199C123.015 23.7732 122.765 23.561 122.581 23.2834C122.399 23.0059 122.309 22.6656 122.309 22.2627C122.309 21.9157 122.375 21.6302 122.509 21.406C122.642 21.1818 122.822 21.0043 123.049 20.8736C123.276 20.7428 123.53 20.6441 123.81 20.5774C124.09 20.5106 124.376 20.4599 124.666 20.4252C125.035 20.3825 125.334 20.3478 125.563 20.3212C125.793 20.2918 125.959 20.2451 126.064 20.181C126.168 20.117 126.22 20.0129 126.22 19.8688V19.8408C126.22 19.4912 126.121 19.2203 125.923 19.0282C125.729 18.836 125.438 18.7399 125.051 18.7399C124.648 18.7399 124.33 18.8293 124.098 19.0081C123.869 19.1843 123.71 19.3804 123.622 19.5966L122.497 19.3404C122.63 18.9668 122.825 18.6652 123.081 18.4357C123.34 18.2035 123.638 18.0354 123.974 17.9313C124.31 17.8246 124.664 17.7712 125.035 17.7712C125.28 17.7712 125.54 17.8005 125.815 17.8592C126.093 17.9153 126.352 18.0194 126.592 18.1715C126.835 18.3236 127.034 18.5411 127.188 18.824C127.343 19.1042 127.421 19.4685 127.421 19.9168V24H126.252V23.1593H126.204C126.126 23.3141 126.01 23.4663 125.855 23.6157C125.701 23.7652 125.502 23.8892 125.259 23.988C125.016 24.0867 124.725 24.1361 124.386 24.1361ZM124.646 23.1754C124.977 23.1754 125.26 23.11 125.495 22.9792C125.733 22.8484 125.913 22.6776 126.036 22.4668C126.161 22.2533 126.224 22.0251 126.224 21.7823V20.9897C126.181 21.0324 126.098 21.0724 125.975 21.1098C125.855 21.1445 125.718 21.1751 125.563 21.2018C125.408 21.2259 125.258 21.2485 125.111 21.2699C124.964 21.2886 124.841 21.3046 124.743 21.3179C124.51 21.3473 124.298 21.3967 124.106 21.466C123.917 21.5354 123.764 21.6355 123.65 21.7663C123.538 21.8944 123.482 22.0652 123.482 22.2787C123.482 22.5749 123.591 22.7991 123.81 22.9512C124.029 23.1006 124.308 23.1754 124.646 23.1754ZM134.868 17.8512V18.812H131.51V17.8512H134.868ZM132.41 16.3781H133.607V22.1946C133.607 22.4268 133.642 22.6016 133.711 22.719C133.781 22.8338 133.87 22.9125 133.98 22.9552C134.092 22.9952 134.213 23.0152 134.344 23.0152C134.44 23.0152 134.524 23.0086 134.596 22.9952C134.668 22.9819 134.724 22.9712 134.764 22.9632L134.98 23.952C134.911 23.9787 134.812 24.0053 134.684 24.032C134.556 24.0614 134.396 24.0774 134.204 24.0801C133.889 24.0854 133.595 24.0294 133.323 23.9119C133.051 23.7945 132.831 23.613 132.663 23.3675C132.495 23.122 132.41 22.8137 132.41 22.4428V16.3781ZM136.192 24V17.8512H137.389V24H136.192ZM136.797 16.9025C136.589 16.9025 136.41 16.8331 136.26 16.6943C136.114 16.5529 136.04 16.3848 136.04 16.19C136.04 15.9925 136.114 15.8243 136.26 15.6856C136.41 15.5441 136.589 15.4734 136.797 15.4734C137.005 15.4734 137.183 15.5441 137.329 15.6856C137.479 15.8243 137.553 15.9925 137.553 16.19C137.553 16.3848 137.479 16.5529 137.329 16.6943C137.183 16.8331 137.005 16.9025 136.797 16.9025ZM141.87 17.8512V18.812H138.511V17.8512H141.87ZM139.412 16.3781H140.609V22.1946C140.609 22.4268 140.644 22.6016 140.713 22.719C140.782 22.8338 140.872 22.9125 140.981 22.9552C141.093 22.9952 141.215 23.0152 141.345 23.0152C141.441 23.0152 141.526 23.0086 141.598 22.9952C141.67 22.9819 141.726 22.9712 141.766 22.9632L141.982 23.952C141.913 23.9787 141.814 24.0053 141.686 24.032C141.558 24.0614 141.397 24.0774 141.205 24.0801C140.89 24.0854 140.597 24.0294 140.325 23.9119C140.052 23.7945 139.832 23.613 139.664 23.3675C139.496 23.122 139.412 22.8137 139.412 22.4428V16.3781ZM143.326 15.8017H144.523V22.3187C144.523 22.5829 144.556 22.7697 144.623 22.8791C144.692 22.9886 144.823 23.0406 145.015 23.0353C145.119 23.0326 145.197 23.0259 145.247 23.0152C145.301 23.0046 145.349 22.9926 145.392 22.9792L145.608 23.936C145.525 23.96 145.42 23.9827 145.291 24.004C145.166 24.028 145.023 24.0414 144.863 24.044C144.345 24.052 143.96 23.9293 143.706 23.6757C143.453 23.4222 143.326 23.0526 143.326 22.5669V15.8017ZM149.047 24.1241C148.442 24.1241 147.92 23.9947 147.482 23.7358C147.047 23.4743 146.711 23.1073 146.473 22.6349C146.239 22.1599 146.121 21.6035 146.121 20.9657C146.121 20.3358 146.239 19.7807 146.473 19.3004C146.711 18.82 147.042 18.445 147.466 18.1755C147.893 17.9059 148.392 17.7712 148.963 17.7712C149.31 17.7712 149.646 17.8286 149.972 17.9433C150.298 18.0581 150.59 18.2382 150.849 18.4837C151.108 18.7293 151.312 19.0482 151.461 19.4405C151.611 19.8301 151.685 20.3038 151.685 20.8616V21.2859H146.798V20.3892H150.512C150.512 20.0743 150.448 19.7954 150.32 19.5526C150.192 19.307 150.012 19.1136 149.78 18.9721C149.55 18.8307 149.281 18.7599 148.971 18.7599C148.635 18.7599 148.341 18.8427 148.091 19.0081C147.842 19.1709 147.65 19.3844 147.514 19.6486C147.381 19.9102 147.314 20.1944 147.314 20.5013V21.2018C147.314 21.6128 147.386 21.9624 147.53 22.2506C147.677 22.5389 147.881 22.759 148.143 22.9112C148.404 23.0606 148.71 23.1353 149.059 23.1353C149.286 23.1353 149.493 23.1033 149.68 23.0393C149.867 22.9725 150.028 22.8738 150.164 22.743C150.3 22.6123 150.404 22.4508 150.476 22.2587L151.609 22.4628C151.519 22.7964 151.356 23.0886 151.121 23.3395C150.889 23.5877 150.597 23.7812 150.244 23.9199C149.895 24.056 149.496 24.1241 149.047 24.1241Z" fill="#666C7A"/>
<path opacity="0.25" d="M84.5444 35.6823V34.8017H90.6932V35.6823H88.1152V43H87.1224V35.6823H84.5444ZM93.042 39.3011V43H92.0973V34.8017H93.042V37.812H93.1221C93.2662 37.4944 93.4823 37.2422 93.7706 37.0554C94.0615 36.8659 94.4484 36.7712 94.9315 36.7712C95.3505 36.7712 95.7174 36.8552 96.0323 37.0234C96.3472 37.1888 96.5914 37.4437 96.7649 37.788C96.941 38.1296 97.0291 38.5646 97.0291 39.093V43H96.0844V39.157C96.0844 38.6686 95.9576 38.291 95.7041 38.0241C95.4532 37.7546 95.1049 37.6198 94.6593 37.6198C94.3497 37.6198 94.0721 37.6852 93.8266 37.816C93.5838 37.9468 93.3916 38.1376 93.2502 38.3884C93.1114 38.6393 93.042 38.9435 93.042 39.3011ZM98.7574 43V36.8512H99.7022V43H98.7574ZM99.2378 35.8264C99.0537 35.8264 98.8949 35.7637 98.7614 35.6383C98.6307 35.5129 98.5653 35.3621 98.5653 35.186C98.5653 35.0098 98.6307 34.859 98.7614 34.7336C98.8949 34.6082 99.0537 34.5455 99.2378 34.5455C99.4219 34.5455 99.5794 34.6082 99.7102 34.7336C99.8436 34.859 99.9103 35.0098 99.9103 35.186C99.9103 35.3621 99.8436 35.5129 99.7102 35.6383C99.5794 35.7637 99.4219 35.8264 99.2378 35.8264ZM105.788 38.2283L104.939 38.4685C104.886 38.327 104.807 38.1896 104.703 38.0562C104.602 37.9201 104.463 37.808 104.287 37.7199C104.111 37.6318 103.885 37.5878 103.61 37.5878C103.234 37.5878 102.92 37.6745 102.669 37.848C102.421 38.0188 102.297 38.2363 102.297 38.5005C102.297 38.7354 102.383 38.9208 102.553 39.0569C102.724 39.1931 102.991 39.3065 103.354 39.3972L104.267 39.6214C104.816 39.7548 105.226 39.959 105.496 40.2339C105.765 40.5061 105.9 40.857 105.9 41.2867C105.9 41.6389 105.799 41.9539 105.596 42.2314C105.396 42.509 105.115 42.7278 104.755 42.8879C104.395 43.048 103.976 43.1281 103.498 43.1281C102.871 43.1281 102.352 42.992 101.941 42.7198C101.53 42.4476 101.27 42.0499 101.16 41.5269L102.057 41.3027C102.142 41.6336 102.304 41.8818 102.541 42.0473C102.782 42.2127 103.095 42.2955 103.482 42.2955C103.922 42.2955 104.272 42.202 104.531 42.0152C104.792 41.8258 104.923 41.5989 104.923 41.3347C104.923 41.1212 104.848 40.9424 104.699 40.7983C104.55 40.6515 104.32 40.5421 104.01 40.47L102.986 40.2299C102.423 40.0964 102.009 39.8896 101.745 39.6094C101.483 39.3265 101.352 38.9729 101.352 38.5486C101.352 38.2016 101.45 37.8947 101.645 37.6278C101.842 37.361 102.11 37.1515 102.449 36.9994C102.791 36.8472 103.178 36.7712 103.61 36.7712C104.219 36.7712 104.696 36.9046 105.043 37.1715C105.393 37.4384 105.641 37.7906 105.788 38.2283ZM110.493 43V36.8512H111.437V43H110.493ZM110.973 35.8264C110.789 35.8264 110.63 35.7637 110.497 35.6383C110.366 35.5129 110.3 35.3621 110.3 35.186C110.3 35.0098 110.366 34.859 110.497 34.7336C110.63 34.6082 110.789 34.5455 110.973 34.5455C111.157 34.5455 111.314 34.6082 111.445 34.7336C111.579 34.859 111.645 35.0098 111.645 35.186C111.645 35.3621 111.579 35.5129 111.445 35.6383C111.314 35.7637 111.157 35.8264 110.973 35.8264ZM117.523 38.2283L116.674 38.4685C116.621 38.327 116.542 38.1896 116.438 38.0562C116.337 37.9201 116.198 37.808 116.022 37.7199C115.846 37.6318 115.62 37.5878 115.345 37.5878C114.969 37.5878 114.655 37.6745 114.405 37.848C114.156 38.0188 114.032 38.2363 114.032 38.5005C114.032 38.7354 114.118 38.9208 114.288 39.0569C114.459 39.1931 114.726 39.3065 115.089 39.3972L116.002 39.6214C116.552 39.7548 116.961 39.959 117.231 40.2339C117.5 40.5061 117.635 40.857 117.635 41.2867C117.635 41.6389 117.534 41.9539 117.331 42.2314C117.131 42.509 116.85 42.7278 116.49 42.8879C116.13 43.048 115.711 43.1281 115.233 43.1281C114.606 43.1281 114.087 42.992 113.676 42.7198C113.265 42.4476 113.005 42.0499 112.895 41.5269L113.792 41.3027C113.877 41.6336 114.039 41.8818 114.276 42.0473C114.517 42.2127 114.83 42.2955 115.217 42.2955C115.658 42.2955 116.007 42.202 116.266 42.0152C116.528 41.8258 116.658 41.5989 116.658 41.3347C116.658 41.1212 116.584 40.9424 116.434 40.7983C116.285 40.6515 116.055 40.5421 115.746 40.47L114.721 40.2299C114.158 40.0964 113.744 39.8896 113.48 39.6094C113.218 39.3265 113.088 38.9729 113.088 38.5486C113.088 38.2016 113.185 37.8947 113.38 37.6278C113.577 37.361 113.845 37.1515 114.184 36.9994C114.526 36.8472 114.913 36.7712 115.345 36.7712C115.954 36.7712 116.431 36.9046 116.778 37.1715C117.128 37.4384 117.376 37.7906 117.523 38.2283ZM122.836 45.3058C122.676 45.3058 122.533 45.2924 122.408 45.2658C122.282 45.2417 122.196 45.2177 122.148 45.1937L122.388 44.3611C122.617 44.4198 122.82 44.4411 122.996 44.4251C123.172 44.4091 123.328 44.3304 123.465 44.1889C123.603 44.0501 123.73 43.8246 123.845 43.5124L124.021 43.032L121.747 36.8512H122.772L124.469 41.751H124.533L126.231 36.8512H127.255L124.645 43.8967C124.528 44.2143 124.383 44.4771 124.209 44.6853C124.036 44.8961 123.834 45.0523 123.605 45.1537C123.378 45.2551 123.122 45.3058 122.836 45.3058ZM130.78 43.1281C130.225 43.1281 129.738 42.996 129.319 42.7318C128.903 42.4676 128.577 42.098 128.342 41.6229C128.11 41.1479 127.994 40.5928 127.994 39.9576C127.994 39.3171 128.11 38.758 128.342 38.2803C128.577 37.8026 128.903 37.4317 129.319 37.1675C129.738 36.9033 130.225 36.7712 130.78 36.7712C131.335 36.7712 131.821 36.9033 132.237 37.1675C132.656 37.4317 132.982 37.8026 133.214 38.2803C133.449 38.758 133.566 39.3171 133.566 39.9576C133.566 40.5928 133.449 41.1479 133.214 41.6229C132.982 42.098 132.656 42.4676 132.237 42.7318C131.821 42.996 131.335 43.1281 130.78 43.1281ZM130.78 42.2794C131.202 42.2794 131.549 42.1714 131.821 41.9552C132.093 41.739 132.295 41.4548 132.425 41.1025C132.556 40.7503 132.622 40.3686 132.622 39.9576C132.622 39.5467 132.556 39.1637 132.425 38.8088C132.295 38.4538 132.093 38.1669 131.821 37.9481C131.549 37.7293 131.202 37.6198 130.78 37.6198C130.359 37.6198 130.012 37.7293 129.739 37.9481C129.467 38.1669 129.266 38.4538 129.135 38.8088C129.004 39.1637 128.939 39.5467 128.939 39.9576C128.939 40.3686 129.004 40.7503 129.135 41.1025C129.266 41.4548 129.467 41.739 129.739 41.9552C130.012 42.1714 130.359 42.2794 130.78 42.2794ZM138.883 40.4861V36.8512H139.828V43H138.883V41.9592H138.819C138.675 42.2714 138.451 42.537 138.147 42.7558C137.843 42.972 137.458 43.0801 136.994 43.0801C136.61 43.0801 136.268 42.996 135.969 42.8279C135.67 42.6571 135.435 42.4009 135.265 42.0593C135.094 41.715 135.008 41.2813 135.008 40.7583V36.8512H135.953V40.6942C135.953 41.1426 136.079 41.5002 136.33 41.767C136.583 42.0339 136.906 42.1674 137.298 42.1674C137.533 42.1674 137.772 42.1073 138.015 41.9872C138.26 41.8671 138.466 41.683 138.631 41.4348C138.799 41.1866 138.883 40.8704 138.883 40.4861ZM141.559 43V36.8512H142.471V37.78H142.535C142.647 37.4757 142.85 37.2289 143.144 37.0394C143.437 36.8499 143.768 36.7552 144.137 36.7552C144.206 36.7552 144.293 36.7565 144.397 36.7592C144.501 36.7618 144.58 36.7658 144.633 36.7712V37.7319C144.601 37.7239 144.528 37.7119 144.413 37.6959C144.301 37.6772 144.182 37.6679 144.056 37.6679C143.758 37.6679 143.491 37.7306 143.256 37.856C143.024 37.9788 142.84 38.1496 142.703 38.3684C142.57 38.5846 142.503 38.8314 142.503 39.109V43H141.559ZM153.279 38.2283L152.43 38.4685C152.377 38.327 152.298 38.1896 152.194 38.0562C152.092 37.9201 151.954 37.808 151.777 37.7199C151.601 37.6318 151.376 37.5878 151.101 37.5878C150.725 37.5878 150.411 37.6745 150.16 37.848C149.912 38.0188 149.788 38.2363 149.788 38.5005C149.788 38.7354 149.873 38.9208 150.044 39.0569C150.215 39.1931 150.482 39.3065 150.845 39.3972L151.757 39.6214C152.307 39.7548 152.717 39.959 152.986 40.2339C153.256 40.5061 153.391 40.857 153.391 41.2867C153.391 41.6389 153.289 41.9539 153.086 42.2314C152.886 42.509 152.606 42.7278 152.246 42.8879C151.886 43.048 151.467 43.1281 150.989 43.1281C150.362 43.1281 149.843 42.992 149.432 42.7198C149.021 42.4476 148.76 42.0499 148.651 41.5269L149.548 41.3027C149.633 41.6336 149.795 41.8818 150.032 42.0473C150.272 42.2127 150.586 42.2955 150.973 42.2955C151.413 42.2955 151.763 42.202 152.022 42.0152C152.283 41.8258 152.414 41.5989 152.414 41.3347C152.414 41.1212 152.339 40.9424 152.19 40.7983C152.04 40.6515 151.811 40.5421 151.501 40.47L150.476 40.2299C149.913 40.0964 149.5 39.8896 149.236 39.6094C148.974 39.3265 148.843 38.9729 148.843 38.5486C148.843 38.2016 148.941 37.8947 149.135 37.6278C149.333 37.361 149.601 37.1515 149.94 36.9994C150.282 36.8472 150.669 36.7712 151.101 36.7712C151.709 36.7712 152.187 36.9046 152.534 37.1715C152.884 37.4384 153.132 37.7906 153.279 38.2283ZM158.688 40.4861V36.8512H159.633V43H158.688V41.9592H158.624C158.48 42.2714 158.255 42.537 157.951 42.7558C157.647 42.972 157.263 43.0801 156.798 43.0801C156.414 43.0801 156.072 42.996 155.774 42.8279C155.475 42.6571 155.24 42.4009 155.069 42.0593C154.898 41.715 154.813 41.2813 154.813 40.7583V36.8512H155.758V40.6942C155.758 41.1426 155.883 41.5002 156.134 41.767C156.387 42.0339 156.71 42.1674 157.103 42.1674C157.337 42.1674 157.576 42.1073 157.819 41.9872C158.065 41.8671 158.27 41.683 158.436 41.4348C158.604 41.1866 158.688 40.8704 158.688 40.4861ZM161.363 43V36.8512H162.276V37.812H162.356C162.484 37.4837 162.691 37.2289 162.976 37.0474C163.262 36.8632 163.605 36.7712 164.005 36.7712C164.411 36.7712 164.748 36.8632 165.018 37.0474C165.29 37.2289 165.502 37.4837 165.654 37.812H165.718C165.876 37.4944 166.112 37.2422 166.427 37.0554C166.742 36.8659 167.119 36.7712 167.56 36.7712C168.109 36.7712 168.559 36.9433 168.909 37.2876C169.258 37.6292 169.433 38.1616 169.433 38.8848V43H168.488V38.8848C168.488 38.4311 168.364 38.1069 168.116 37.9121C167.868 37.7172 167.576 37.6198 167.239 37.6198C166.807 37.6198 166.472 37.7506 166.235 38.0121C165.997 38.271 165.878 38.5993 165.878 38.9969V43H164.918V38.7887C164.918 38.4391 164.804 38.1576 164.577 37.9441C164.351 37.7279 164.058 37.6198 163.701 37.6198C163.455 37.6198 163.226 37.6852 163.012 37.816C162.801 37.9468 162.631 38.1282 162.5 38.3604C162.372 38.5899 162.308 38.8555 162.308 39.157V43H161.363ZM171.16 43V36.8512H172.073V37.812H172.153C172.281 37.4837 172.488 37.2289 172.774 37.0474C173.059 36.8632 173.402 36.7712 173.803 36.7712C174.208 36.7712 174.546 36.8632 174.815 37.0474C175.088 37.2289 175.3 37.4837 175.452 37.812H175.516C175.673 37.4944 175.909 37.2422 176.224 37.0554C176.539 36.8659 176.917 36.7712 177.357 36.7712C177.907 36.7712 178.357 36.9433 178.706 37.2876C179.056 37.6292 179.231 38.1616 179.231 38.8848V43H178.286V38.8848C178.286 38.4311 178.162 38.1069 177.914 37.9121C177.666 37.7172 177.373 37.6198 177.037 37.6198C176.605 37.6198 176.27 37.7506 176.032 38.0121C175.795 38.271 175.676 38.5993 175.676 38.9969V43H174.715V38.7887C174.715 38.4391 174.602 38.1576 174.375 37.9441C174.148 37.7279 173.856 37.6198 173.498 37.6198C173.253 37.6198 173.023 37.6852 172.81 37.816C172.599 37.9468 172.428 38.1282 172.297 38.3604C172.169 38.5899 172.105 38.8555 172.105 39.157V43H171.16ZM182.767 43.1441C182.378 43.1441 182.024 43.0707 181.707 42.9239C181.389 42.7745 181.137 42.5597 180.95 42.2794C180.763 41.9966 180.67 41.655 180.67 41.2546C180.67 40.9024 180.739 40.6168 180.878 40.398C181.017 40.1765 181.202 40.003 181.434 39.8776C181.667 39.7522 181.923 39.6587 182.203 39.5974C182.486 39.5333 182.77 39.4826 183.056 39.4452C183.429 39.3972 183.732 39.3612 183.964 39.3372C184.199 39.3105 184.37 39.2664 184.477 39.2051C184.586 39.1437 184.641 39.0369 184.641 38.8848V38.8528C184.641 38.4578 184.533 38.1509 184.317 37.9321C184.103 37.7132 183.779 37.6038 183.344 37.6038C182.893 37.6038 182.539 37.7026 182.283 37.9001C182.027 38.0975 181.847 38.3084 181.743 38.5325L180.846 38.2123C181.006 37.8387 181.22 37.5478 181.486 37.3396C181.756 37.1288 182.05 36.982 182.367 36.8993C182.687 36.8139 183.002 36.7712 183.312 36.7712C183.509 36.7712 183.736 36.7952 183.992 36.8432C184.251 36.8886 184.501 36.9833 184.741 37.1275C184.984 37.2716 185.185 37.4891 185.345 37.78C185.506 38.0709 185.586 38.4605 185.586 38.9489V43H184.641V42.1674H184.593C184.529 42.3008 184.422 42.4436 184.273 42.5957C184.123 42.7478 183.924 42.8772 183.676 42.984C183.428 43.0907 183.125 43.1441 182.767 43.1441ZM182.912 42.2955C183.285 42.2955 183.6 42.2221 183.856 42.0753C184.115 41.9285 184.31 41.739 184.441 41.5068C184.574 41.2747 184.641 41.0305 184.641 40.7743V39.9096C184.601 39.9576 184.513 40.0017 184.377 40.0417C184.243 40.0791 184.088 40.1124 183.912 40.1418C183.739 40.1685 183.569 40.1925 183.404 40.2138C183.241 40.2325 183.109 40.2485 183.008 40.2619C182.762 40.2939 182.533 40.3459 182.319 40.418C182.108 40.4874 181.937 40.5928 181.807 40.7342C181.679 40.873 181.615 41.0625 181.615 41.3027C181.615 41.6309 181.736 41.8791 181.979 42.0473C182.224 42.2127 182.535 42.2955 182.912 42.2955ZM187.31 43V36.8512H188.223V37.78H188.287C188.399 37.4757 188.602 37.2289 188.895 37.0394C189.189 36.8499 189.52 36.7552 189.888 36.7552C189.957 36.7552 190.044 36.7565 190.148 36.7592C190.252 36.7618 190.331 36.7658 190.384 36.7712V37.7319C190.352 37.7239 190.279 37.7119 190.164 37.6959C190.052 37.6772 189.933 37.6679 189.808 37.6679C189.509 37.6679 189.242 37.7306 189.007 37.856C188.775 37.9788 188.591 38.1496 188.455 38.3684C188.321 38.5846 188.255 38.8314 188.255 39.109V43H187.31ZM192.3 45.3058C192.14 45.3058 191.997 45.2924 191.872 45.2658C191.746 45.2417 191.659 45.2177 191.611 45.1937L191.851 44.3611C192.081 44.4198 192.284 44.4411 192.46 44.4251C192.636 44.4091 192.792 44.3304 192.928 44.1889C193.067 44.0501 193.194 43.8246 193.309 43.5124L193.485 43.032L191.211 36.8512H192.236L193.933 41.751H193.997L195.694 36.8512H196.719L194.109 43.8967C193.992 44.2143 193.846 44.4771 193.673 44.6853C193.499 44.8961 193.298 45.0523 193.068 45.1537C192.842 45.2551 192.585 45.3058 192.3 45.3058Z" fill="#666C7A"/>
<path d="M90.0888 61.631H89.1025C89.0645 61.4202 88.9939 61.2348 88.8906 61.0746C88.7874 60.9144 88.6609 60.7785 88.5113 60.6668C88.3616 60.5551 88.1941 60.4708 88.0086 60.4139C87.8253 60.3569 87.6303 60.3285 87.4238 60.3285C87.0507 60.3285 86.7167 60.4223 86.4216 60.6099C86.1287 60.7974 85.8968 61.0725 85.7261 61.435C85.5575 61.7975 85.4732 62.2401 85.4732 62.7628C85.4732 63.2896 85.5575 63.7343 85.7261 64.0969C85.8968 64.4594 86.1297 64.7333 86.4248 64.9188C86.7198 65.1043 87.0518 65.197 87.4206 65.197C87.625 65.197 87.8189 65.1696 88.0023 65.1148C88.1878 65.0579 88.3553 64.9747 88.505 64.8651C88.6546 64.7555 88.7811 64.6216 88.8843 64.4636C88.9897 64.3034 89.0624 64.12 89.1025 63.9135L90.0888 63.9167C90.0361 64.2349 89.9339 64.5279 89.7822 64.7955C89.6325 65.0611 89.4397 65.2908 89.2036 65.4847C88.9697 65.6765 88.702 65.8251 88.4006 65.9304C88.0992 66.0358 87.7705 66.0885 87.4143 66.0885C86.8537 66.0885 86.3542 65.9557 85.9158 65.6902C85.4774 65.4225 85.1318 65.04 84.8789 64.5426C84.6281 64.0452 84.5027 63.4519 84.5027 62.7628C84.5027 62.0715 84.6291 61.4782 84.882 60.9829C85.1349 60.4855 85.4806 60.104 85.919 59.8385C86.3573 59.5708 86.8558 59.437 87.4143 59.437C87.7578 59.437 88.0782 59.4865 88.3753 59.5856C88.6746 59.6825 88.9433 59.8258 89.1815 60.0155C89.4196 60.2031 89.6167 60.4328 89.7727 60.7047C89.9286 60.9745 90.034 61.2832 90.0888 61.631ZM94.2579 63.9862V61.1441H95.2063V66H94.2768V65.1591H94.2263C94.1146 65.4183 93.9354 65.6343 93.6888 65.8072C93.4443 65.9779 93.1398 66.0632 92.7752 66.0632C92.4633 66.0632 92.1872 65.9947 91.9469 65.8577C91.7087 65.7186 91.5212 65.5131 91.3842 65.2413C91.2493 64.9694 91.1818 64.6332 91.1818 64.2328V61.1441H92.1271V64.119C92.1271 64.4499 92.2188 64.7133 92.4021 64.9093C92.5855 65.1053 92.8237 65.2033 93.1166 65.2033C93.2936 65.2033 93.4696 65.1591 93.6446 65.0706C93.8216 64.982 93.9681 64.8482 94.084 64.6691C94.202 64.4899 94.26 64.2623 94.2579 63.9862ZM96.4764 59.5255H97.4216V64.6722C97.4216 64.8809 97.448 65.0284 97.5006 65.1148C97.5554 65.2012 97.6587 65.2423 97.8105 65.2381C97.8927 65.236 97.9538 65.2307 97.9938 65.2223C98.036 65.2139 98.0739 65.2044 98.1076 65.1938L98.2783 65.9494C98.213 65.9684 98.1298 65.9863 98.0286 66.0032C97.9295 66.0221 97.8168 66.0327 97.6903 66.0348C97.2815 66.0411 96.9769 65.9441 96.7767 65.7439C96.5765 65.5437 96.4764 65.2518 96.4764 64.8682V59.5255ZM101.169 61.1441V61.9029H98.5162V61.1441H101.169ZM99.2275 59.9807H100.173V64.5742C100.173 64.7576 100.2 64.8956 100.255 64.9884C100.31 65.079 100.38 65.1412 100.467 65.1749C100.555 65.2065 100.651 65.2223 100.754 65.2223C100.83 65.2223 100.897 65.217 100.954 65.2065C101.011 65.196 101.055 65.1875 101.086 65.1812L101.257 65.9621C101.202 65.9831 101.124 66.0042 101.023 66.0253C100.922 66.0485 100.796 66.0611 100.644 66.0632C100.395 66.0674 100.163 66.0232 99.9483 65.9304C99.7334 65.8377 99.5595 65.6944 99.4267 65.5005C99.2939 65.3066 99.2275 65.0632 99.2275 64.7702V59.9807ZM105.29 63.9862V61.1441H106.239V66H105.309V65.1591H105.259C105.147 65.4183 104.968 65.6343 104.721 65.8072C104.477 65.9779 104.172 66.0632 103.808 66.0632C103.496 66.0632 103.22 65.9947 102.979 65.8577C102.741 65.7186 102.554 65.5131 102.417 65.2413C102.282 64.9694 102.214 64.6332 102.214 64.2328V61.1441H103.16V64.119C103.16 64.4499 103.251 64.7133 103.435 64.9093C103.618 65.1053 103.856 65.2033 104.149 65.2033C104.326 65.2033 104.502 65.1591 104.677 65.0706C104.854 64.982 105 64.8482 105.116 64.6691C105.234 64.4899 105.292 64.2623 105.29 63.9862ZM107.509 66V61.1441H108.422V61.9155H108.473C108.562 61.6542 108.717 61.4487 108.941 61.299C109.166 61.1473 109.421 61.0714 109.706 61.0714C109.765 61.0714 109.834 61.0735 109.915 61.0777C109.997 61.082 110.061 61.0872 110.107 61.0935V61.9977C110.069 61.9872 110.002 61.9756 109.905 61.9629C109.808 61.9482 109.711 61.9408 109.614 61.9408C109.391 61.9408 109.192 61.9882 109.017 62.0831C108.844 62.1758 108.707 62.3054 108.606 62.4719C108.505 62.6363 108.454 62.8239 108.454 63.0346V66H107.509ZM112.844 66.098C112.366 66.098 111.954 65.9958 111.608 65.7913C111.265 65.5848 110.999 65.295 110.812 64.922C110.626 64.5468 110.533 64.1074 110.533 63.6037C110.533 63.1063 110.626 62.6679 110.812 62.2885C110.999 61.9092 111.261 61.6131 111.596 61.4002C111.933 61.1873 112.327 61.0809 112.778 61.0809C113.052 61.0809 113.318 61.1262 113.575 61.2168C113.832 61.3075 114.063 61.4497 114.267 61.6436C114.471 61.8375 114.633 62.0894 114.751 62.3992C114.869 62.7069 114.928 63.081 114.928 63.5215V63.8566H111.068V63.1484H114.001C114.001 62.8997 113.951 62.6795 113.85 62.4877C113.749 62.2938 113.606 62.141 113.423 62.0293C113.242 61.9176 113.029 61.8618 112.784 61.8618C112.519 61.8618 112.287 61.9271 112.089 62.0578C111.893 62.1863 111.741 62.3549 111.634 62.5636C111.528 62.7701 111.475 62.9946 111.475 63.237V63.7902C111.475 64.1148 111.532 64.3909 111.646 64.6185C111.762 64.8461 111.923 65.02 112.13 65.1401C112.336 65.2581 112.578 65.3171 112.854 65.3171C113.033 65.3171 113.196 65.2919 113.344 65.2413C113.491 65.1886 113.619 65.1106 113.726 65.0073C113.834 64.9041 113.916 64.7765 113.973 64.6248L114.868 64.786C114.796 65.0495 114.667 65.2803 114.482 65.4784C114.299 65.6744 114.068 65.8272 113.79 65.9368C113.514 66.0443 113.198 66.098 112.844 66.098ZM117.206 65.1148L117.159 65.4594C117.127 65.7123 117.073 65.9758 116.998 66.2497C116.924 66.5258 116.847 66.7819 116.767 67.018C116.689 67.254 116.625 67.4416 116.574 67.5807H115.904C115.931 67.45 115.969 67.273 116.018 67.0496C116.066 66.8283 116.113 66.5806 116.16 66.3067C116.206 66.0327 116.241 65.7534 116.264 65.4689L116.296 65.1148H117.206ZM120.869 66V59.5255H121.846V62.3391H125.073V59.5255H126.053V66H125.073V63.1769H121.846V66H120.869ZM129.493 66.098C129.015 66.098 128.603 65.9958 128.257 65.7913C127.913 65.5848 127.648 65.295 127.46 64.922C127.275 64.5468 127.182 64.1074 127.182 63.6037C127.182 63.1063 127.275 62.6679 127.46 62.2885C127.648 61.9092 127.909 61.6131 128.244 61.4002C128.581 61.1873 128.976 61.0809 129.427 61.0809C129.701 61.0809 129.966 61.1262 130.223 61.2168C130.48 61.3075 130.711 61.4497 130.916 61.6436C131.12 61.8375 131.281 62.0894 131.399 62.3992C131.517 62.7069 131.576 63.081 131.576 63.5215V63.8566H127.716V63.1484H130.65C130.65 62.8997 130.599 62.6795 130.498 62.4877C130.397 62.2938 130.255 62.141 130.071 62.0293C129.89 61.9176 129.677 61.8618 129.433 61.8618C129.167 61.8618 128.936 61.9271 128.737 62.0578C128.541 62.1863 128.39 62.3549 128.282 62.5636C128.177 62.7701 128.124 62.9946 128.124 63.237V63.7902C128.124 64.1148 128.181 64.3909 128.295 64.6185C128.411 64.8461 128.572 65.02 128.778 65.1401C128.985 65.2581 129.226 65.3171 129.502 65.3171C129.682 65.3171 129.845 65.2919 129.992 65.2413C130.14 65.1886 130.267 65.1106 130.375 65.0073C130.482 64.9041 130.565 64.7765 130.622 64.6248L131.516 64.786C131.445 65.0495 131.316 65.2803 131.131 65.4784C130.947 65.6744 130.716 65.8272 130.438 65.9368C130.162 66.0443 129.847 66.098 129.493 66.098ZM132.625 66V61.1441H133.539V61.9155H133.589C133.678 61.6542 133.834 61.4487 134.057 61.299C134.283 61.1473 134.538 61.0714 134.822 61.0714C134.881 61.0714 134.951 61.0735 135.031 61.0777C135.113 61.082 135.177 61.0872 135.224 61.0935V61.9977C135.186 61.9872 135.118 61.9756 135.021 61.9629C134.924 61.9482 134.828 61.9408 134.731 61.9408C134.507 61.9408 134.308 61.9882 134.133 62.0831C133.96 62.1758 133.823 62.3054 133.722 62.4719C133.621 62.6363 133.57 62.8239 133.57 63.0346V66H132.625ZM136.042 66V61.1441H136.987V66H136.042ZM136.519 60.3949C136.355 60.3949 136.214 60.3401 136.095 60.2305C135.98 60.1188 135.922 59.986 135.922 59.8322C135.922 59.6762 135.98 59.5434 136.095 59.4338C136.214 59.3221 136.355 59.2663 136.519 59.2663C136.683 59.2663 136.824 59.3221 136.94 59.4338C137.058 59.5434 137.117 59.6762 137.117 59.8322C137.117 59.986 137.058 60.1188 136.94 60.2305C136.824 60.3401 136.683 60.3949 136.519 60.3949ZM140.525 61.1441V61.9029H137.873V61.1441H140.525ZM138.584 59.9807H139.53V64.5742C139.53 64.7576 139.557 64.8956 139.612 64.9884C139.667 65.079 139.737 65.1412 139.824 65.1749C139.912 65.2065 140.008 65.2223 140.111 65.2223C140.187 65.2223 140.253 65.217 140.31 65.2065C140.367 65.196 140.412 65.1875 140.443 65.1812L140.614 65.9621C140.559 65.9831 140.481 66.0042 140.38 66.0253C140.279 66.0485 140.152 66.0611 140.001 66.0632C139.752 66.0674 139.52 66.0232 139.305 65.9304C139.09 65.8377 138.916 65.6944 138.783 65.5005C138.651 65.3066 138.584 65.0632 138.584 64.7702V59.9807ZM142.984 66.1075C142.676 66.1075 142.398 66.0506 142.15 65.9368C141.901 65.8209 141.704 65.6533 141.558 65.4341C141.415 65.2149 141.343 64.9462 141.343 64.628C141.343 64.354 141.396 64.1285 141.501 63.9514C141.607 63.7744 141.749 63.6342 141.928 63.531C142.107 63.4277 142.308 63.3497 142.529 63.297C142.75 63.2443 142.976 63.2043 143.205 63.1769C143.496 63.1432 143.732 63.1158 143.914 63.0947C144.095 63.0715 144.227 63.0346 144.309 62.984C144.391 62.9335 144.432 62.8513 144.432 62.7375V62.7153C144.432 62.4392 144.354 62.2253 144.198 62.0736C144.044 61.9218 143.815 61.846 143.509 61.846C143.191 61.846 142.94 61.9166 142.756 62.0578C142.575 62.1969 142.45 62.3518 142.38 62.5225L141.492 62.3202C141.597 62.0251 141.751 61.7869 141.954 61.6057C142.158 61.4223 142.393 61.2896 142.658 61.2074C142.924 61.1231 143.203 61.0809 143.496 61.0809C143.69 61.0809 143.896 61.1041 144.113 61.1505C144.332 61.1947 144.536 61.2769 144.726 61.397C144.918 61.5172 145.075 61.6889 145.197 61.9123C145.319 62.1336 145.38 62.4213 145.38 62.7754V66H144.457V65.3361H144.419C144.358 65.4584 144.267 65.5785 144.144 65.6965C144.022 65.8145 143.865 65.9125 143.673 65.9905C143.482 66.0685 143.252 66.1075 142.984 66.1075ZM143.19 65.3488C143.451 65.3488 143.674 65.2971 143.86 65.1938C144.047 65.0906 144.19 64.9557 144.287 64.7892C144.386 64.6206 144.435 64.4404 144.435 64.2486V63.6226C144.401 63.6564 144.336 63.688 144.239 63.7175C144.144 63.7449 144.036 63.7691 143.914 63.7902C143.791 63.8092 143.672 63.8271 143.556 63.8439C143.44 63.8587 143.343 63.8713 143.265 63.8819C143.082 63.9051 142.915 63.9441 142.763 63.9989C142.613 64.0536 142.493 64.1327 142.402 64.236C142.314 64.3371 142.27 64.472 142.27 64.6406C142.27 64.8746 142.356 65.0516 142.529 65.1717C142.702 65.2897 142.922 65.3488 143.19 65.3488ZM148.675 67.9221C148.29 67.9221 147.958 67.8715 147.68 67.7704C147.403 67.6692 147.178 67.5354 147.003 67.3689C146.828 67.2024 146.697 67.0201 146.611 66.822L147.423 66.4869C147.48 66.5796 147.556 66.6776 147.651 66.7809C147.748 66.8862 147.879 66.9758 148.043 67.0496C148.21 67.1233 148.424 67.1602 148.685 67.1602C149.043 67.1602 149.339 67.0728 149.573 66.8978C149.807 66.725 149.924 66.4489 149.924 66.0696V65.1148H149.864C149.807 65.2181 149.725 65.333 149.617 65.4594C149.512 65.5859 149.367 65.6955 149.181 65.7882C148.996 65.8809 148.754 65.9273 148.457 65.9273C148.074 65.9273 147.728 65.8377 147.42 65.6586C147.115 65.4773 146.872 65.2107 146.693 64.8587C146.516 64.5047 146.428 64.0695 146.428 63.5531C146.428 63.0367 146.515 62.5941 146.69 62.2253C146.867 61.8565 147.109 61.5741 147.417 61.3781C147.725 61.18 148.074 61.0809 148.464 61.0809C148.765 61.0809 149.008 61.1315 149.194 61.2326C149.379 61.3317 149.524 61.4476 149.627 61.5804C149.732 61.7132 149.813 61.8301 149.87 61.9313H149.94V61.1441H150.866V66.1075C150.866 66.5248 150.769 66.8673 150.575 67.1349C150.381 67.4026 150.119 67.6007 149.788 67.7293C149.459 67.8578 149.088 67.9221 148.675 67.9221ZM148.666 65.1433C148.938 65.1433 149.167 65.08 149.355 64.9536C149.545 64.825 149.688 64.6417 149.785 64.4035C149.884 64.1632 149.934 63.8756 149.934 63.5405C149.934 63.2138 149.885 62.9261 149.788 62.6774C149.691 62.4287 149.549 62.2348 149.361 62.0957C149.174 61.9545 148.942 61.8839 148.666 61.8839C148.381 61.8839 148.144 61.9577 147.955 62.1052C147.765 62.2506 147.622 62.4487 147.525 62.6995C147.43 62.9503 147.382 63.2306 147.382 63.5405C147.382 63.8587 147.431 64.138 147.528 64.3782C147.625 64.6185 147.768 64.8061 147.958 64.9409C148.15 65.0758 148.386 65.1433 148.666 65.1433ZM154.227 66.098C153.748 66.098 153.336 65.9958 152.991 65.7913C152.647 65.5848 152.382 65.295 152.194 64.922C152.009 64.5468 151.916 64.1074 151.916 63.6037C151.916 63.1063 152.009 62.6679 152.194 62.2885C152.382 61.9092 152.643 61.6131 152.978 61.4002C153.315 61.1873 153.709 61.0809 154.16 61.0809C154.434 61.0809 154.7 61.1262 154.957 61.2168C155.214 61.3075 155.445 61.4497 155.649 61.6436C155.854 61.8375 156.015 62.0894 156.133 62.3992C156.251 62.7069 156.31 63.081 156.31 63.5215V63.8566H152.45V63.1484H155.384C155.384 62.8997 155.333 62.6795 155.232 62.4877C155.131 62.2938 154.989 62.141 154.805 62.0293C154.624 61.9176 154.411 61.8618 154.167 61.8618C153.901 61.8618 153.669 61.9271 153.471 62.0578C153.275 62.1863 153.123 62.3549 153.016 62.5636C152.911 62.7701 152.858 62.9946 152.858 63.237V63.7902C152.858 64.1148 152.915 64.3909 153.029 64.6185C153.145 64.8461 153.306 65.02 153.512 65.1401C153.719 65.2581 153.96 65.3171 154.236 65.3171C154.415 65.3171 154.579 65.2919 154.726 65.2413C154.874 65.1886 155.001 65.1106 155.109 65.0073C155.216 64.9041 155.298 64.7765 155.355 64.6248L156.25 64.786C156.178 65.0495 156.05 65.2803 155.864 65.4784C155.681 65.6744 155.45 65.8272 155.172 65.9368C154.896 66.0443 154.581 66.098 154.227 66.098ZM158.589 65.1148L158.541 65.4594C158.51 65.7123 158.456 65.9758 158.38 66.2497C158.306 66.5258 158.229 66.7819 158.149 67.018C158.071 67.254 158.007 67.4416 157.956 67.5807H157.286C157.314 67.45 157.352 67.273 157.4 67.0496C157.448 66.8283 157.496 66.5806 157.542 66.3067C157.589 66.0327 157.623 65.7534 157.647 65.4689L157.678 65.1148H158.589ZM162.798 66H161.761L164.091 59.5255H165.22L167.55 66H166.513L164.682 60.7015H164.632L162.798 66ZM162.972 63.4646H166.336V64.2865H162.972V63.4646ZM168.409 66V61.1441H169.322V61.9155H169.373C169.461 61.6542 169.617 61.4487 169.841 61.299C170.066 61.1473 170.321 61.0714 170.606 61.0714C170.665 61.0714 170.734 61.0735 170.814 61.0777C170.897 61.082 170.961 61.0872 171.007 61.0935V61.9977C170.969 61.9872 170.902 61.9756 170.805 61.9629C170.708 61.9482 170.611 61.9408 170.514 61.9408C170.291 61.9408 170.092 61.9882 169.917 62.0831C169.744 62.1758 169.607 62.3054 169.506 62.4719C169.405 62.6363 169.354 62.8239 169.354 63.0346V66H168.409ZM173.697 66.098C173.227 66.098 172.822 65.9916 172.483 65.7787C172.146 65.5637 171.886 65.2676 171.705 64.8904C171.524 64.5131 171.433 64.081 171.433 63.5942C171.433 63.101 171.526 62.6658 171.712 62.2885C171.897 61.9092 172.158 61.6131 172.496 61.4002C172.833 61.1873 173.23 61.0809 173.687 61.0809C174.056 61.0809 174.385 61.1494 174.674 61.2864C174.962 61.4213 175.195 61.611 175.372 61.8554C175.552 62.0999 175.658 62.3855 175.692 62.7122H174.772C174.721 62.4846 174.605 62.2885 174.424 62.1242C174.245 61.9598 174.005 61.8776 173.703 61.8776C173.44 61.8776 173.209 61.9471 173.011 62.0862C172.815 62.2232 172.662 62.4192 172.552 62.6742C172.443 62.9271 172.388 63.2264 172.388 63.5721C172.388 63.9261 172.442 64.2317 172.549 64.4889C172.657 64.746 172.809 64.9452 173.005 65.0864C173.203 65.2276 173.436 65.2982 173.703 65.2982C173.882 65.2982 174.045 65.2655 174.19 65.2002C174.338 65.1327 174.461 65.0368 174.56 64.9125C174.661 64.7881 174.732 64.6385 174.772 64.4636H175.692C175.658 64.7776 175.556 65.0579 175.385 65.3045C175.214 65.5511 174.986 65.745 174.699 65.8862C174.414 66.0274 174.08 66.098 173.697 66.098ZM177.648 63.1168V66H176.703V59.5255H177.635V61.9345H177.695C177.809 61.6731 177.983 61.4655 178.217 61.3117C178.451 61.1578 178.756 61.0809 179.134 61.0809C179.467 61.0809 179.757 61.1494 180.006 61.2864C180.257 61.4234 180.451 61.6278 180.588 61.8997C180.727 62.1695 180.797 62.5067 180.797 62.9113V66H179.851V63.0251C179.851 62.669 179.76 62.3929 179.576 62.1969C179.393 61.9988 179.138 61.8997 178.811 61.8997C178.588 61.8997 178.388 61.9471 178.211 62.042C178.036 62.1368 177.898 62.2759 177.796 62.4593C177.697 62.6405 177.648 62.8597 177.648 63.1168ZM182.058 66V61.1441H183.003V66H182.058ZM182.535 60.3949C182.371 60.3949 182.23 60.3401 182.112 60.2305C181.996 60.1188 181.938 59.986 181.938 59.8322C181.938 59.6762 181.996 59.5434 182.112 59.4338C182.23 59.3221 182.371 59.2663 182.535 59.2663C182.7 59.2663 182.84 59.3221 182.956 59.4338C183.074 59.5434 183.133 59.6762 183.133 59.8322C183.133 59.986 183.074 60.1188 182.956 60.2305C182.84 60.3401 182.7 60.3949 182.535 60.3949ZM186.542 61.1441V61.9029H183.889V61.1441H186.542ZM184.6 59.9807H185.546V64.5742C185.546 64.7576 185.573 64.8956 185.628 64.9884C185.683 65.079 185.753 65.1412 185.84 65.1749C185.928 65.2065 186.024 65.2223 186.127 65.2223C186.203 65.2223 186.27 65.217 186.327 65.2065C186.383 65.196 186.428 65.1875 186.459 65.1812L186.63 65.9621C186.575 65.9831 186.497 66.0042 186.396 66.0253C186.295 66.0485 186.168 66.0611 186.017 66.0632C185.768 66.0674 185.536 66.0232 185.321 65.9304C185.106 65.8377 184.932 65.6944 184.8 65.5005C184.667 65.3066 184.6 65.0632 184.6 64.7702V59.9807ZM189.628 66.098C189.149 66.098 188.737 65.9958 188.392 65.7913C188.048 65.5848 187.783 65.295 187.595 64.922C187.41 64.5468 187.317 64.1074 187.317 63.6037C187.317 63.1063 187.41 62.6679 187.595 62.2885C187.783 61.9092 188.044 61.6131 188.379 61.4002C188.716 61.1873 189.11 61.0809 189.561 61.0809C189.835 61.0809 190.101 61.1262 190.358 61.2168C190.615 61.3075 190.846 61.4497 191.05 61.6436C191.255 61.8375 191.416 62.0894 191.534 62.3992C191.652 62.7069 191.711 63.081 191.711 63.5215V63.8566H187.851V63.1484H190.785C190.785 62.8997 190.734 62.6795 190.633 62.4877C190.532 62.2938 190.39 62.141 190.206 62.0293C190.025 61.9176 189.812 61.8618 189.568 61.8618C189.302 61.8618 189.07 61.9271 188.872 62.0578C188.676 62.1863 188.524 62.3549 188.417 62.5636C188.312 62.7701 188.259 62.9946 188.259 63.237V63.7902C188.259 64.1148 188.316 64.3909 188.43 64.6185C188.546 64.8461 188.707 65.02 188.913 65.1401C189.12 65.2581 189.361 65.3171 189.637 65.3171C189.816 65.3171 189.98 65.2919 190.127 65.2413C190.275 65.1886 190.402 65.1106 190.51 65.0073C190.617 64.9041 190.7 64.7765 190.756 64.6248L191.651 64.786C191.579 65.0495 191.451 65.2803 191.265 65.4784C191.082 65.6744 190.851 65.8272 190.573 65.9368C190.297 66.0443 189.982 66.098 189.628 66.098ZM194.805 66.098C194.335 66.098 193.931 65.9916 193.591 65.7787C193.254 65.5637 192.995 65.2676 192.814 64.8904C192.632 64.5131 192.542 64.081 192.542 63.5942C192.542 63.101 192.635 62.6658 192.82 62.2885C193.005 61.9092 193.267 61.6131 193.604 61.4002C193.941 61.1873 194.339 61.0809 194.796 61.0809C195.165 61.0809 195.493 61.1494 195.782 61.2864C196.071 61.4213 196.304 61.611 196.481 61.8554C196.66 62.0999 196.766 62.3855 196.8 62.7122H195.88C195.83 62.4846 195.714 62.2885 195.532 62.1242C195.353 61.9598 195.113 61.8776 194.812 61.8776C194.548 61.8776 194.317 61.9471 194.119 62.0862C193.923 62.2232 193.771 62.4192 193.661 62.6742C193.551 62.9271 193.497 63.2264 193.497 63.5721C193.497 63.9261 193.55 64.2317 193.658 64.4889C193.765 64.746 193.917 64.9452 194.113 65.0864C194.311 65.2276 194.544 65.2982 194.812 65.2982C194.991 65.2982 195.153 65.2655 195.299 65.2002C195.446 65.1327 195.569 65.0368 195.668 64.9125C195.77 64.7881 195.84 64.6385 195.88 64.4636H196.8C196.766 64.7776 196.664 65.0579 196.494 65.3045C196.323 65.5511 196.094 65.745 195.808 65.8862C195.523 66.0274 195.189 66.098 194.805 66.098ZM200.078 61.1441V61.9029H197.425V61.1441H200.078ZM198.137 59.9807H199.082V64.5742C199.082 64.7576 199.109 64.8956 199.164 64.9884C199.219 65.079 199.289 65.1412 199.376 65.1749C199.464 65.2065 199.56 65.2223 199.664 65.2223C199.739 65.2223 199.806 65.217 199.863 65.2065C199.92 65.196 199.964 65.1875 199.996 65.1812L200.166 65.9621C200.111 65.9831 200.033 66.0042 199.932 66.0253C199.831 66.0485 199.705 66.0611 199.553 66.0632C199.304 66.0674 199.072 66.0232 198.857 65.9304C198.642 65.8377 198.469 65.6944 198.336 65.5005C198.203 65.3066 198.137 65.0632 198.137 64.7702V59.9807ZM204.199 63.9862V61.1441H205.148V66H204.218V65.1591H204.168C204.056 65.4183 203.877 65.6343 203.63 65.8072C203.386 65.9779 203.081 66.0632 202.717 66.0632C202.405 66.0632 202.129 65.9947 201.888 65.8577C201.65 65.7186 201.463 65.5131 201.326 65.2413C201.191 64.9694 201.123 64.6332 201.123 64.2328V61.1441H202.069V64.119C202.069 64.4499 202.16 64.7133 202.344 64.9093C202.527 65.1053 202.765 65.2033 203.058 65.2033C203.235 65.2033 203.411 65.1591 203.586 65.0706C203.763 64.982 203.91 64.8482 204.025 64.6691C204.144 64.4899 204.201 64.2623 204.199 63.9862ZM206.418 66V61.1441H207.331V61.9155H207.382C207.471 61.6542 207.627 61.4487 207.85 61.299C208.075 61.1473 208.33 61.0714 208.615 61.0714C208.674 61.0714 208.744 61.0735 208.824 61.0777C208.906 61.082 208.97 61.0872 209.017 61.0935V61.9977C208.979 61.9872 208.911 61.9756 208.814 61.9629C208.717 61.9482 208.62 61.9408 208.523 61.9408C208.3 61.9408 208.101 61.9882 207.926 62.0831C207.753 62.1758 207.616 62.3054 207.515 62.4719C207.414 62.6363 207.363 62.8239 207.363 63.0346V66H206.418ZM211.753 66.098C211.275 66.098 210.863 65.9958 210.517 65.7913C210.174 65.5848 209.908 65.295 209.721 64.922C209.535 64.5468 209.443 64.1074 209.443 63.6037C209.443 63.1063 209.535 62.6679 209.721 62.2885C209.908 61.9092 210.17 61.6131 210.505 61.4002C210.842 61.1873 211.236 61.0809 211.687 61.0809C211.961 61.0809 212.227 61.1262 212.484 61.2168C212.741 61.3075 212.972 61.4497 213.176 61.6436C213.381 61.8375 213.542 62.0894 213.66 62.3992C213.778 62.7069 213.837 63.081 213.837 63.5215V63.8566H209.977V63.1484H212.911C212.911 62.8997 212.86 62.6795 212.759 62.4877C212.658 62.2938 212.515 62.141 212.332 62.0293C212.151 61.9176 211.938 61.8618 211.693 61.8618C211.428 61.8618 211.196 61.9271 210.998 62.0578C210.802 62.1863 210.65 62.3549 210.543 62.5636C210.437 62.7701 210.385 62.9946 210.385 63.237V63.7902C210.385 64.1148 210.442 64.3909 210.555 64.6185C210.671 64.8461 210.832 65.02 211.039 65.1401C211.246 65.2581 211.487 65.3171 211.763 65.3171C211.942 65.3171 212.105 65.2919 212.253 65.2413C212.401 65.1886 212.528 65.1106 212.635 65.0073C212.743 64.9041 212.825 64.7765 212.882 64.6248L213.777 64.786C213.705 65.0495 213.577 65.2803 213.391 65.4784C213.208 65.6744 212.977 65.8272 212.699 65.9368C212.423 66.0443 212.108 66.098 211.753 66.098Z" fill="#2C2E34"/>
</g>
<defs>
<clipPath id="clip0_22459_54241">
<rect width="206" height="82" rx="4" fill="white"/>
</clipPath>
</defs>
</svg>
